<svg xmlns="http://www.w3.org/2000/svg" width="1122.52" height="793.701" viewBox="0 0 297 210" stroke-linejoin="round" stroke-linecap="round" fill="none" fill-rule="evenodd"><script type="text/ecmascript"><![CDATA[
if(typeof(top) != "undefined")
{
	top.ShowPaper = ShowPaper;
}
function ShowPaper()
{
  var svgDocument = getDocument();
  var paper = svgDocument.getElementById("paperID");
  if(paper)
  {
    paper.setAttribute("transform","scale(1)");
    paper.setAttribute("opacity","1");
    paper.setAttribute("visibility","visible");
  }
  var svg = svgDocument.getRootElement();
  if(svg)
  {
    svg.setAttribute("width","307.000mm");
    svg.setAttribute("height","220.000mm");
    svg.setAttribute("viewBox","-5.000000 -5.000000 307.000000 220.000000");
  }
}
]]></script><path style="fill:none" d="M296.99 210H.05V.05h296.94z"/><path style="fill:#fed137" d="m150.62 118.46-.23.34.06 3.81.1 2.71.89.1h.77l.4-.33v2.71l-5.2 4.89.2.19 6.31.81 1.81.34.12.42-.01.18.06 8.54-1.2.96-.61-.01-12.43-1.48-.19-.13v-2.36l.66-.34.21-6.96-.1-.08-.02-.13.23-.29.77-.07.67.03.07.1.72-.04-.79-.06-.62-.16.06-6.17.18-1.82 3.63-3.65 1.34-1.47.76-.75z"/><path style="fill:#5a5a5a" d="m182.55 12.12 1.15 1.5 1.15 2.81.41 2.28.03.26.27.03.62.24.41.44.1.67-.02.93-.83 2.65-.59.05-.57-.29-.72.13-.16-.33-.28-2.26-.64-.49-1.17.01-.55-.2-.63.39-.79-.03-.67.54-.17 2.97-1.1.27-.51-.01-1.2-.48-.16-.37.01-1.34.76-3.25.32-.54.07-1.01.08-.49.56-2.54.83-1.65.85-1.14.85-.5h1.02l.44.1zm-54.94 80.24.68.98.58 1.58.18 1.01-.27 1.26-.82 2.47-.49-.22-2.48.06-.16.55-.08 1.02-.11.44-.32-.04-1.49-.86-.01-1.28.84-.97.25-1.61.4-1.71.78-1.87.49-.67.82-.5.74.01z"/><g style="stroke:#3c3c3c;stroke-width:.494" id="Actor_.0"><path d="m144.63 116.97 2 .39.15.86-1.82.48-1.99-.38-.17-.87.14-17.25 1.79-.53-.1 17.3-1.83.48"/><path d="m144.38 118.17-.49-.21.04-.29.55-.19.74.02.48.22-.04.29-.55.18-.73-.02v-.65m.35-17.85 1.95.43-.05 17.26m.15.86.05-17.18-.15-.94"/></g><path d="M145.95 99.94v-.04" style="stroke:#3c3c3c;stroke-width:.494" id="Actor_.1"/><g style="stroke:#3c3c3c;stroke-width:.494" id="Actor_.2"><path d="m215.8 101.39-.01-.05-.15-1.15.34-.38.77-.26.89-.05.69.2.21.35.11 1.26-.16.28-.56.29-.4.1-.36.04-.69-.04-.08-.01-.5-.22-.03-.08-.07-.28"/><path d="m216.41 101.97-.46-.2-.03-.02-.08-.3.01-.02.32-.31.03-.02.63-.21h.01l.05-.01m.02.4-.15.02-.18.29.46.17.65-.12.19-.29-.46-.17-.51.1m-.63-.11.29-.12m-.27-1.35-.01-.09m1.4 2.03-.04-.37m-.61.49-.05-.5m.81-1.71-.01-.06m.84 1.59-.24-.2"/></g><path d="m175.47 93.88-.01-.04" style="stroke:#3c3c3c;stroke-width:.494" id="Actor_.3"/><g style="stroke:#3c3c3c;stroke-width:.494" id="Actor_.4"><path d="m131.16 95.16.53.45.33.27.53.19.65.08.64-.05.54-.16.34-.25.56-.43.06-.09.1-.39-.09-.21-.18-.2-.27-.18-.34-.15-.4-.11-.44-.08-.46-.03-.47.01-.44.05-.41.1-.35.13-.27.17-.2.19-.1.2v.21l.14.28.11.1.09.07"/><path d="m131.02 94.67.01-.14.29-.6 1.03-.4 1.38-.03 1.18.35.53.58v.35m-3.81.78-.01-.03-.06-.13m.92.44-.12-.11-.04-.09.07-.2.05.1.04.3.01.01.35.13.45.05h.01l.36-.21.36-.01-.29.15-.43.07"/><path d="M131.56 95.4v-.15l.03-.07.19-.23.08-.05.39-.17.11-.04.53-.07.12-.02.57.03.12.01.51.14.1.03.36.22.05.04.15.26m-2.38.52.4-.02.4.2m-.81-.19.01-.45"/><path d="m133.84 96.1-.55-.07.02-.8"/><path d="M132.39 95.44h.01l.29-.16.43-.06h.01l.46.04.35.14h.01v.01l.15.19-.07.21h0-.01"/><path d="m134.03 95.81-.04-.31-.04-.09m.84.23.08-.26v-.05"/></g><g style="stroke:#3c3c3c;stroke-width:.494" id="Actor_.5"><path d="M128.96 115.3h-.05l-.46.18-.02.02-.14.25.01.02.23.25.5.16-.52-.17-.24-.27-.02-.07.05-1.07.11-.32.56-.21.79-.04.72.16.37.29-.01 1.17-.06.23-.36.24-.29.08-.05.01-.31.04-.65-.04-.04-.01-.05-.02.05.02h.01"/><path d="M130.05 115.69v.24l.02-.24-.5-.14-.54.1-.02.24.51.14.01-.47m-1-.02.2-.1m.2-1.36v-.18m.59 2.13.53-.1m.33-.64.32.16m-.43-1.41v.1"/></g><g style="stroke:#3c3c3c;stroke-width:.494" id="Actor_.6"><path d="m122.16 87.07.55.46.36.3.57.21.68.08.68-.05.55-.18.47-.33.47-.38.07-.1.08-.43-.11-.23-.2-.22-.29-.19-.37-.17-.42-.13-.47-.08-.49-.04-.49.01-.46.06-.42.11-.36.15-.28.18-.19.21-.09.22.01.23.15.31.13.11.12.1"/><path d="m122 86.53.02-.12.27-.67 1.06-.44 1.44-.03 1.26.38.6.64-.01.36"/><path d="M122.56 87.31v-.18l.02-.07.19-.25.08-.06.4-.19.11-.04.55-.08.13-.02.6.04.13.01.54.15.1.03.4.24.05.05.18.28m-3.48.09.07.14.01.03m.89.29-.05-.33-.06-.11-.07.22.05.1.13.12h0l.01.01.38.15.47.05-.42-.21-.43.01"/><path d="M124.39 87.98h.02l.44-.07.3-.17h.01v-.01l.06-.22-.17-.22h0-.01l-.38-.16-.47-.05h-.02l-.44.08-.3.16-.01.01h0"/><path d="m124.41 87.98.37-.23.37-.01"/><path d="m125 88.07-.6-.09.03-.87m-.9.66.02-.52m2.06.6.3-.24.05-.04.07-.29v-.05m-.98.06.06.11.05.33"/></g><path d="m130.57 107.77-.91 1.63-.13.22m1-1.85-.8 1.42-.26.42" style="stroke:#3c3c3c;stroke-width:.494" id="Actor_.7"/><g style="stroke:#3c3c3c;stroke-width:.494" id="Actor_.8"><path d="m163.42 78.08.01-.03.03-.16.04-.08.27-.28.09-.07.48-.2.12-.05.61-.09.14-.02.62.04.13.01.54.17.09.03.36.27.04.05.12.32m-3.69.09.04.16.01.03.24.27.07.07"/><path d="m166.13 78.54.13-.25-.13-.24v.49h0l-.43.02-.42.25h-.01l.54.12-.72.05-.7-.09-.54-.23-.53-.36-.33-.31-.08-.14-.11-.33.05-.26.15-.25.25-.23.34-.2.42-.17.47-.12.5-.06.52-.02.51.05.47.09.42.14.34.19.26.22.15.24.06.26-.02-.38-.46-.72-1.23-.42-1.53.04-1.23.49-.45.74.01.37"/><path d="m165.25 77.82.02.99h0l-.49-.06-.36-.16-.01-.01h0l-.11-.14-.02-.1.13-.25v-.01h.01l.35-.19.49-.07.01-.01h.01l.49.06.36.17h0v.01"/><path d="M164.42 78.59h.42l.43.22m-.86-.23h0m0 0v-.49m.87.72.49-.08.36-.19m-.32.39.64-.2.43-.31.57-.44.07-.11.19-.47m-1.58 1.14-.01-.5"/><path d="m166.94 78.37.15-.32.01-.06"/></g><g style="stroke:#3c3c3c;stroke-width:.494" id="Actor_.9"><path d="m67.33 71.9-.36.06-.05.01-.87-.06-.08-.01-.77-.29-.07-.02-.44-.43-.02-.03.03-.44.02-.03.5-.3.06-.02"/><path d="m65.66 71.35-.1-.41.64-.17.74.24.11.41-.64.17-.75-.24.06-.45"/><path d="m64.82 69.22-.2 1.8.02.1.48.47.85.32.96.06.42-.07.34-.13.14-.14.22-.3.12-1.25-.03-.54-.65-.51-1.04-.27-1.02.06-.61.38m.01 1.55.2-.18m1.38 1.02.09-.73m-.82-2.07-.01.02m1.53 1.56.51.28"/></g><g style="stroke:#3c3c3c;stroke-width:.494" id="Actor_.10"><path d="m188.93 43.55-.46.08-.07.02-.96-.09h-.08l-.68-.39-.05-.03-.19-.57v-.05l.37-.58.04-.04.81-.4.08-.02"/><path d="m186.37 42.41.2.64.04.08.74.43 1.05.09.54-.09.49-.18.69-.55.18-.46-.09-1.62-.38-.67-.99-.37-1.23.09-.98.5-.37.72.11 1.39"/><path d="m188.71 42.12-.61.15.06.85-.68-.31.18-.55.87-.23.68.32-.19.55-.04-.66"/><path d="m187.97 42.18.03.01.26.01.27-.04.15-.06m-.58.17-.18-.08m-.59-.41-.37.23m2.06.89-.86.22m.37-.96-.04-.12m1.35-.5.37.37"/></g><g id="Actor_.11"><g style="stroke:#3c3c3c;stroke-width:.494"><path d="m122.19 103.61.4-.45.84-.29.98-.2 1.07-.1-.73.51-.93.12-.86.17-.77.24-.11.16-1.18.64-.61.78-.18 5.39m7.44 3.58-.38.3-.88.16-.99-.08-.73-.29-.09-.2"/><path d="m125.4 114.24-.09-.01-.63-.25m.74.15-.02.27.57.16.6-.12.02-.27-.58-.16-.59.12m-.01-.27-.01.54m-.65-11.32.14.11h1.17m-.58-.62.75.33m-1.43-2.81-.09 2.55"/><path d="m126.58 114.26.6-.11.13-.1m-.72.12.01-.27m-.58-11.09h.26m2.92 6.65.31.09"/></g><path d="m124.8 100.09.07-2.08.45-.4.91-.19 1.01.09.74.34.18.46-.02.73" style="stroke:#3c3c3c;stroke-width:.494"/></g><g style="stroke:#3c3c3c;stroke-width:.494" id="Actor_.12"><path d="m212.66 83.84-.57.03-.13-.01-.1-.02-.08-.05-1.65-1.53-.03-.05.01-.07.05-.06 2.25-1.73.09-.05.12-.04.13-.02 3.94-.17.13.01.1.02.08.05 1.61 1.57.03.06-.01.06-.06.06-2.16 1.61m-6.4-2.3.09.96"/><path d="m210.1 82.21-.09-.97.01-.07.05-.06 2.24-1.74.1-.05.12-.04.13-.01 3.93-.17h.13l.1.03.08.04 1.61 1.58.03.06.1.97"/><path d="m217.33 79.6-.01-.14-.18-.94-.21-.86-.23-.77-.67-1.56-.52-.95-.54-.66-.54-.41-.24-.15-.38-.1-.14-.03-.13-.01-.14.02-.15.04-.24.13-.31.18-.37.45-.24.36-.42.82-.34 1.09-.24 1.37-.07.8-.03.88.01.96.01.27m1.51 2.01-.06-.04.03-.2m.49-.64.38-.25.49-.09m-1.34.88.06-.28.32-.21m-.33-1.29-.09-.98m2.54 1.8-.46-.06-.58.11m1.95.21-.26-.19-.54-.06m1.11.75.05-.24-.3-.22m.89-1.31-.1-.98"/></g><g style="stroke:#3c3c3c;stroke-width:.494" id="Actor_.13"><path d="m139.77 96.66-.11.04-.06.01-.26-.02-.19-.02-.13-.02m.58-.05-.43-.02m.04-.17.85-.12m.78-1.79.15.42m.03.05.01.05v.01m-.08-.03v.13"/><path d="m140.81 94.5.04.09.19.43m-.33.43.01-.75-.14-.21m.46.53-.1-.39-.06-.12"/></g><g id="Actor_.14"><g style="stroke:#3c3c3c;stroke-width:.494"><path d="m63.23 178.41-.54-1.32.49-1.37.26-.43-.5 1.38.55 1.32 1.32.61 1.91.15.9-.06.86-.32.73-.54 28.29-27.65 5.03-4.23 5.53-3.36 5.88-2.45-.48.57-5.85 2.44-5.5 3.35-5.02 4.22-28.16 27.54-.73.53-.85.32-.91.06-1.9-.15-1.31-.61m-.02-1.09-.25.43m29.61-37.39 1.54-4.02.59-4.27-.37-4.29.38-.64.38 4.31-.59 4.29-1.56 4.07-2.47 3.68-27.03 31.8m4.33 3.66.28-.42"/><path d="m79.37 110.64.31-.71.21-2.09.03-.06-.34.78-.21 2.08 2.73.39.4.14.29.29.15.36.22.75.46.67.64.52 3.62 2.73 2.95 3.33 2.19 3.81 1.31 4.15"/><path d="m79.68 109.93 2.74.4.4.14.3.28.14.37.23.75.46.67.64.53 3.63 2.73 2.97 3.35 2.2 3.83 1.32 4.16m-14.79-19.36.14-.34.37-.25.47-.05 7.76 1.14.44.18.3.35.09.43-.18 2.08.09.43.31.35.44.18.46-.05.36-.26.16-.39-.24.45m-7.5.87.32-.68m-1.06-.91.32-.7m8.16.97 21.86 3.14.39.77.87.12.09-.83.15-.37.46-.66-.14.36-.09.86-.47.64m6.11 10.99-.4-.91-.83-.59-13.95-5.31-.43-.11-1.09.19-.7.79-.02 1.08 3.46 10.59.61.88.99.43 1.01-.16 10.54-5.29.66-.65.15-.94-.49.62-.4-.91-.83-.59-14.02-5.32-.29-.07-1.09.2-.28.32m.35-.58-.35.55m10.5 19.89 6.12-1.54 6.23-.6 6.24.3 9.35 1.14"/><path d="m141.99 139.46-9.39-1.15-6.27-.31-6.26.61-6.13 1.53m28.11-7.38-14.97-1.94-.75-.41-.29-.78.34-.7.77-.21.36-11.92-.02-.85-.12-.39-.3-.34-.4-.16-10.98-1.59-.41.04-.33.24m4.79 14.25.13-.78"/><path d="m126.12 129.46.5-.13.53-.61m53.93 19.49-.57.38-5.38-2.75-5.62-1.97-5.77-1.13-7.85-.96"/><path d="m180.85 147.89-5-2.56-5.64-1.98-5.79-1.14-8.54-1.05m-.07-6.62 13.71 1.77.67-.2.28-.68-.31-.75-.7-.39-.69.55-.24-8.73"/><path d="m168.77 134.84.7.38.31.75-.12.3m-.2-1.98-.2-6.88m12.1-2.2.7-.57-.34.62-.75-.11-.4-.71-.09-.83-.13-.38-.28-.31-.37-.15-4-.58m4.81 26.4 5.04 3.49 4.62 4.16 4.13 4.77 21.84 28.51.53.55.63.37.66.16 1.38.11.91-.3-1.37-.12-.66-.16-.63-.37-.54-.55-21.94-28.64-4.15-4.78-4.65-4.19-4.31-2.98m-1.38-15.85 7.35-.94.24-.01.12.01.92.44.58.89.01.98-2.89 8.88-.2.26"/><path d="m180.42 132.34 8.31-1.06.23-.01.14.02.9.43.58.89.02.99-2.89 8.91-.52.67-.84.19-.87-.38-.17-.14"/><path d="m220.25 190.41.97-.37.4-1.07-.36-1.22-20.49-31.88-1.98-3.76-1.25-3.97-.48-3.97.3-3.8 1.06-3.44 1.76-2.93 2.35-2.29 2.84-1.57.51-.32.35-.48.29-.9.23-.17.3-.03 2.11.3-.16-1.87-.13-.4-.28-.31-.36-.15-6.05-.89-.35.05-.24.24-.07.36.15 1.89-.07.37-.24.24-.36.05-.36-.16-.29-.31-.13-.39-18.16-2.62m7.48 8.07.75-.54m11.19-4.22-.19.13"/><path d="m201.83 124.97-.78.56-.24.24-.07.36.13 1.93m.06-2.41.78-.56m.59 6.84 2.27-1.25.52-.34m-.02.03.72-.49m.6-1.08 1.95.28.82-.54m8.75 61.41-.93.31"/></g><g style="stroke:#3c3c3c;stroke-width:.494"><path d="m141.4 140.01 2.19.27.42.16.3.35.22.87.3.35.42.16 5.79.69.42-.06.63-.53-.42.06-5.81-.7-.42-.17-.31-.34-.22-.88-.3-.34-.42-.17-2.2-.27m.06-6.7 5.82.75-.01 4.15.12.48.34.38.45.18.46-.07.33-.29.12-.45-.01-4.15-.61.57v4.13l-.06.23m-4.84 1.95.6-.55m-.08 1.76.61-.54m4.38-7.55 6.14.8m-3.72 7.73.3-.27.21-.82.3-.27.41-.06 2.57.31"/><path d="m152.54 141.41.14-.02 3.21.39"/></g></g><g style="stroke:#3c3c3c;stroke-width:.494" id="Actor_.15"><path d="m152.12 67.58 2.49.4.54 1.34.21 19.79-1.98.86-2.53-.36-.59-1.23-.06-19.85 1.92-.95.11 19.93-1.97.87"/><path d="m152.39 89.23-.2-.02-.51-.34.15-.41.73-.25.88.07.5.34-.15.41-.73.25-.67-.05m-.16-1.72 2.56.37.57 1.23m-.57-1.23-.18-19.9"/></g><g style="stroke:#3c3c3c;stroke-width:.494" id="Actor_.16"><path d="m182.96 85.25.42-.73.24-1.09-.05-.98-.33-.49-.48.19-.19.24-.17.33-.15.39-.14.15-.16-.06-.19.05-.19.15-1.01 1.05m-.15-.05.02-.02.42-.44"/><path d="m180.41 84.4.02-.03 2.32-2.4.36-.29.14-.05-.29.17-.21.17m.58 2.63v-.02l-.4-.09-.45.25-.12.32m-.51-1.84 1.75.33m-1.35-.44 1.37.26m-1.51-.11 1.49.28"/><path d="m183.21 81.66.02-.01.35.21.02.03.19.6.01.06v.86l-.01.08-.18.91-.03.08-.34.76-.05.08m-.05-.11-.06.08m.25-.43.17-.43m-.17.15h.01"/><path d="m183.48 84.06-.01-.01.03-.07m-1.02-1.42 1.11.21m-.63-.96-.15.11m.7.05.12.27m-.46-.49.19.05m-.11-.17.09-.01 5 .95.21.06.25.23.14.39.07.27-.15-.42-.13-.29m-5.11 1.16.08-.48m.01-.89.02.42m5.46-.22.03-.01.36.21.02.03.21.6v.06l.01.85-.01.08-.19.91-.02.08-.35.75-.13.21-.11.11-.24.24m-.78-.22.18-.18.12-.15.1-.06"/><path d="m188.75 82.81.41.07.19.06.17.17.12.27.08.36.03.42-.03.46-.08.48-.13.46-.16.42-.2.35-.21.27-.29.28"/><path d="m189.01 83.52.03.51-.03.46-.07.48-.13.46-.17.42-.23.43-.18.19-.23.24"/><path d="m188.44 86.22.33-.7.03-.06.01-.07.19-.85.01-.07.01-.07v-.81m-.69 2.7-.23.29m.44-.67.18-.45m.14-.5.08-.51m-.12-1.54.18.57m-.03.47-.02-.46m3.94 4.33-.08.08.54-.5.21-.26.22-.41.15-.35.01-.04.12-.42.07-.44.02-.42-.02-.47-.08-.25-.13-.37-.24-.21-.2-.06-3.7-.86-.46-.08-.08.01-.15.05-.05.04m.19-.09-.16.1m4.53 4.2.3-.63m-.21.35.17-.41"/><path d="M194.13 84.66v.8l-.01.07-.17.78-.02.07m.06-.46.08-.48m.05-.88-.18-.54m.12.54.03.42m.04-.39-.15-.39-.13-.27"/></g><path d="m193.96 88.16-.07-.02-.97-.34m.78-.91.62.18 3.28 1.44.05.02 1.35.71m.63.12-1.76-.97-3.23-1.51-.8-.29m9.22 3.41-1.31-.78-3.4-1.88-3.32-1.55-.91-.28m1.01.45-1.03-.29" style="stroke:#3c3c3c;stroke-width:.494" id="Actor_.17"/><path d="m149.96 84.08-.32.93-1.02.8-1.56.54-1.88.22-1.91-.15-1.66-.49-1.17-.75-.49-.92.02-2.19.27-.95.99-.83 1.58-.58 1.92-.22 1.95.15 1.68.52 1.15.79.45.94v2.19l-.44-.93-1.16-.78-1.68-.52-1.96-.15-1.93.22-1.58.57-1 .82-.26.95" style="stroke:#3c3c3c;stroke-width:.494" id="Actor_.18"/><g id="Actor_.19"><g style="stroke:#3c3c3c;stroke-width:.494"><path d="m131.33 138.84.09 3.31-.15 3.64-.39 3.76-.61 3.7-6.09 30.89-.1 1.09.11.86.27.19.4-.26.2-.22.18-.4.15-.54 6.63-28.44 1.3-5.04 1.48-4.65 1.64-4.19 1.43-2.96"/><path d="m124.46 186.28 1.46.11.41-.26.19-.22.18-.4.16-.54 6.64-28.39 1.32-5.03 1.48-4.65 1.65-4.18-1.51-.18m-9.83 43.17-1.46-.11m3.49-54.65-.89-.11.63-.72.09-.03.07.1.09.73.03.1"/><path d="m127.75 130.84.05-1.68.04-.37.08-.33.11-.21 1.83-2.11.1-.03.08.16.02.3-.05 1.71.02.31.08.16.1-.03.12-.22.09-.34.03-.38 5.74-6.49.11.48.25-.27.13-.76.03-.77.04-.39.1-.34.12-.23 3.26-3.73.13-.05.09.14.03.3.01.76-.12 10.81-.24.52-.11.77.09.57.23.04 2.96-3.05m-13.23 2.58.16.02m-.23-2.5 1.39.19"/><path d="m129.96 126.11 1.39.19.08.15.01.22m3.55 3.51-1.45-.18-.09.46v.89l.04.3m1 7.52.04.11.26-.01.04-.06"/><path d="m133.54 130 .1-.47.29-.6.08-.07 3.94-1.33.24.17.12.62-.05.88-.19.84-.72 2.11"/><path d="m134.94 131.84-.04-.3v-.89l.19-.93.29-.6.12-.08 2.77-.92m-2.08-6.83.39.05m2.82 18.43-1.45 2.95m2.42-15.48 1.53.2-.08.18m-1.42-12.32 1.51.22m-1.55-.29 1.5.22.09.14.04.31.01.75-.1 10.79m39.78 21.14 2.09.25.45-.15.95-.61.66-1.01.27-1.62-.25-1.42-12.87-27.66-1.11-3.21-.7-3.87-.27-4.37.17-4.7-1.83-.31-.18 4.7.25 4.38.68 3.88 1.1 3.21 12.66 27.69.24 1.42-.27 1.63-.66 1.01-.94.61-.44.15-.41-.15-.36-.42-12.94-22.87-2.16-3.1-2.33-2.01-2.44-.94-2.48.08-2.48 1.04-2.43 1.93-2.93 2.88m-.02-6.56 5.09-5.25.3-.61.11-.87-.13-.61-.3.01.31.05"/><path d="m152.38 125.25 2.96-2.87 2.46-1.92 2.5-1.04 1.5-.04m-6.03-8.25-.12-11.84.01-.87.04-.43.12-.42.16-.28 4.38-5.01.18-.09.13.13.06.34.03.84.19.52.36-.4.17-.92 9.37-10.61.07.37.16.16.21-.12.2-.34.14-.49.04-.5-.08-2.17.04-.49.14-.49.2-.35 3.55-4.09.22-.13.17.14.07.38.1 2.21-1.27 1.44-.19.3-.14.42-.17 1.35-.21.89-.3.81-1.65 4.23-1.34 4.61-.99 4.82-.58 4.85"/><path d="m158.46 107.08.06.9.27.47 4.3 2.41.43-.12.41-.74.26-1.09 1.49-12.11-.01-1.12-.3-.61-.46.15-.12.16-5.83 9.81-.34.84-.16 1.05 1.72.27.06.9.27.47 3.16 1.75"/><path d="m160.18 107.35.16-1.04.34-.85 4.94-8.23m-3.92-4.78-1.1-.19m1.14.14-1.2-.21m10.53 8.02.59-4.84.98-4.81 1.35-4.6 1.66-4.22.3-.81.21-.89.17-1.35.14-.41.19-.3 1.28-1.43-.1-2.21-.08-.38-.17-.14-1.84-.35M171 82.54l.16.03m-.31-.48.61.12m2.75-2.07 1.85.35m-1.51-2.36 1.85.36m-.32-2.31 1.86.37m-.26-2.66-1.86-.37m8.03 72.48 2.12.25"/></g><g style="stroke:#3c3c3c;stroke-width:.494"><path d="m152.38 125.25-1.45 1.4-.15.26-.12.41-.08.9-.11.41-.16.26-.74.71-1.63-.22v-4.07l-.09-.53-.24-.02-.23.49-.09.72-.01 4.05-.72.69-.15.04-.1-.19-.08-.73-.11-.19-.14.04-3.23 3.17m.55-6.76 7.4-7.63m-6.38 14.59 2.34-2.27"/><path d="m146.41 130.75 1.62.21.15-.03.72-.69v-.73m-1.62.51 1.62.22m-.96-.86.73-.71.16-.26.11-.41.08-.9.11-.41.16-.26 1.43-1.41m-1.84 3.18 1.65.23m.19-1.31-1.64-.23"/></g></g><g id="Actor_.20"><g style="stroke:#3c3c3c;stroke-width:.494"><path d="m116.91 85.63-1.45-.48-4.26-1.2-4.75-1.17-5.2-1.16-5.62-1.14-13.83-2.43-3.28-.48-3.31-.32-3.3-.13-3.25-.29-3.17-.74-2.81-1.15-2.23-1.46-1.44-1.65-.5-1.71.52-1.61 1.5-1.36 2.36-.98 2.81-.49 3.14-.02.19-1.54-3.14.02-2.79.48-2.36.99-1.5 1.37-.52 1.62-.21 1.52"/><path d="m66.16 73.12.36-.27-.19-.37-.63-.24-.7.01-.36.27.19.36.63.25.7-.01.08-.67m.02-3.91-.27.01-.34.26m.75-.27.3-.01.16.07m1.3 1.57 1.36-.13 1.52.28 1.2.6.56.76-.23.73-.93.48-1.4.13-1.5-.27-1.19-.59-.2-.26m.04-3.01-.05-.09-.41-.17m.53.39-.06-.11m1.44-3.25 3.21.45 3.03.86 3.17 1.07 3.29.9 3.35.71 16.41 3.02 4.79.68 4.82.3 4.78-.09 4.63-.48 4.4-.85 18.02-4.42 4.31-1.29 3.94-1.65 3.48-2.01 2.93-2.32 2.31-2.6 7.03-9.75 1.32-2.13.95-2.24.55-2.32.81-2.14 1.76-1.99-.06-1.7-1.76 2.01-.81 2.14-.55 2.34-.94 2.25-1.32 2.14-7.01 9.8-2.3 2.61-2.93 2.34-3.47 2.02-3.92 1.66-4.3 1.29-17.99 4.45-4.39.86-4.62.48-4.76.09-4.81-.3-4.78-.69-16.37-3.03-3.35-.72-3.27-.9-3.17-1.08-3.01-.87-3.21-.44m3.15 9.74.36-.27.27-.01m.61.07-.18-.07h-.3m1.86-2.75-.7.02-.63-.26-.17-.37.37-.28.71-.01.63.25.17.38-.38.27.08-.7m-1.43 3.53.4.16.05.1m.06.14-.05-.12m16.56.8-.09.97-5.77-1.04-.07.11-.13.08-.17.06-.65.02-.57-.24-.15-.34.34-.92.23-.12.29.12.66-.01.23-.1-.14 1.49"/><path d="m83.44 73.32.34-.17.88.16-.04.02m-.01 1.34.12-1.25m5.65 2.29.13.33.56.23.65-.01.17-.06.13-.09.08-.1.38-.9-.28-.44-.86-.16-.58.29-5.8-1.05-.3-.44"/><path d="m90.97 74.69.24.09.64-.01.26-.12m-.15 1.5.13-1.48m21.21-1.07.08-1.5m2.87 8.6.06-1.12m.91-.4-.21-.04-.61.27-.49.86.09.32.51.22.63-.01m.07-1.46h-.65m1.16 34.42.15-.36 1.09-.87 1.37-.87 1.13-.94.88-1 3.33-4.62 1.19-2.07 1-2.03.75-1.98.46-1.92.11-1.84-.31-1.74-.77-1.63-1.29-1.49-1.92-1.4-2.53-1.33-.83-.33"/><path d="m129.15 95.1-.04.65-.46 1.93-.75 1.99-1 2.05-1.18 2.08-3.33 4.64-.88 1.01-1.13.95-1.36.87-1.1.88-.39.97-.03.61m3.34-37.72-.01-.04-.8-.36-1.01.02-.12.07m2.88 5.62 4.7.84.03-.94"/><path d="m121.82 80.38 5.01.9-.05 1.3m-3.35 30.75-.03-.01-.06-.22.35-.16.55-.01.43.15.05.22-.34.17h-.55l-.4-.14m3.82 2.09.6-.21.34-.43-.26-.45-.78-.35-1.1-.16-1.12.07-.83.3-.33.43.02.02m.59-1.17.02-.49m-.31-27.79-.34.01-.18.1m.78-.11.37-.01.26.11m.26.11-.05-.02"/><path d="m126.48 82.16.06.31.49.21.63-.01.25-.09.04-1.45-.33-.08-.61.26-.18-.03m.64 36.7 2.02-.19 2.04-.47 1.58-.69 1.01-.86.34-.97.12-1.03.4-1.03.69-1.02 4.22-5.14 1.59-1.53 1.43-.93m-15.43 11.82.07-.03.54-.01.42.15.05.21-.35.16-.53.01-.18-.07m3.63-8.5-.96 1.25-.02 1.27.4.15.04.22-.34.16-.17.02-.36-.01-1.47-.22-.47-.23.2-.27.69-.04 1.41-1.84.01-.53"/><path d="m127.91 82.58.16-.14.54-.84-.19-.41-.47-.06m-.76.1h.52l.27-.12m.23 35.31.02-.47m1.24-2.2-.21.01-.36.16.03.12m1.02-.24.27.1.02.06m-.33-.17-.11-.04h-.23m.45-4.09-.03 1.27m.16-.55 1.41-1.83.02-.62m-2.45 1.63.62.09.4.01"/><path d="m130.08 108.32-.49-.23.22-.28.69-.05 1.49.23.42.16.04.22-.35.17-.17.02-.37-.01m.28.01.01-.59m.61-14.44.24-.13h.32m.26-.01h.34l.25.1m.44.18-.25-.1M150 95.28l.01-.4.1.27-.21.26-.46.17-.35.07-.59.05-.56-.1-.38-.2L136.02 84l-.85-1.21-.19-1.28.49-1.26 1.16-1.17 1.75-.97 2.22-.72 2.55-.4 2.68-.05 2.62.31 1.78.47"/><path d="m149.36 94.23-.27.06-.59.04-.56-.09-.38-.21-11.51-11.47-.85-1.21-.04-.3m6.62 14.36-2.76 3.55.43.18.03.25-.38.19-.38.03-.19-.02-1.56-.26-.5-.26.24-.31.74-.06 2.73-3.56-.5-.27.25-.33.76-.06 1.6.27.44.18.03.27-.39.2-.39.03-.2-.02.01-.75"/><path d="m137.88 98.14.86.12.29-.01m-.19.01-.02 1.34m.2-.64.02-1.34 2.33-3.03m8.64.29-11.4-11.47-.65-1.03.02-1.09.72-1.04 1.35-.87 1.85-.63 2.16-.3 2.26.05 2.1.39 1.81.73"/><path d="m137.96 82.22.05-2.39.71-1.04 1.35-.88 1.84-.63 2.16-.3 2.26.04 2.11.4 1.79.73m-11.87 1.16-.02 1.46m1.84 14.37.01-.62m1.89.19v.71m1.73 4.52-.01-.06.09-.04m2.06.1-.01-.09-.65-.27-.89.02-.1.05m12.65-3.47-.56.04-1.47-.25-1-.55-8.47-8.71-.06-.17m1.43 15.66 2.74-.94 3.58-.87 2.51-.5"/><path d="m158.27 94.67-.33.07-1.56.12-1.47-.25-1-.56-7.37-7.64m.84-9.19v1.47m.84 16.96v-1.37m2.03-9.81-.4-.07m3.81-16.57-.48-.24-.9.02m.44-3.74-.01-1.56m2.94 36.85-.64.13-.63.01-.46-.19-.01-.28.44-.21 1.31-.26m0-2.26-.02-1.37m3.88-1.49-4.17-4.5m6.61 3.41-6.65-7.34m-.01-1.44 6.82 7.6.37.22.28.05m.7-.8-8.2-9.23m5.74-12.09-3.33 4.32.02 1.5.47.23.01.33-.46.25-.44.04-1.99-.37-.08-.05"/><path d="m155.21 74.66.72-.07 3.64-4.74-.55-.36.34-.45.88-.07 1.82.36.48.24v.18"/><path d="m156.29 74.13.97.17.43-.04m-.3 1.53-.02-1.49m5.17-4.73v.36l-.48.26-.46.04-.22-.02-3.68 4.73m1.87-5.09-.02-.82m2.17 1.2-.02-.97m-.32.95-.02-1.02m3.23 6.73.13-.07.36-.01m.46 22.06-.37.08m.69-22.1-.12-.05-.37.01m6.29 5.06-.34-.32-.96-1.71-.4-1.94.15-2.16.66-2.39 1.13-2.62 1.57-2.85 1.99-3.1 2.37-3.35 6.82-8.28 1.84-1.97 2.21-1.9 2.59-1.81 2.29-1.91 1.34-2.19.26-2.3-.9-2.21-1.99-1.89-2.93-1.41-3.6-.76-3.93-.04-3.87.68-3.23 1.22-2.6 1.68"/><path d="m171.6 79.44-.33-.32-.96-1.72-.28-1.39m3.32-21.2.51.29-.03.41-.54.31-.24.04-.49-.03-1.93-.42-.56-.41.39-.52.96-.09 2.68-3.5-.57-.44.41-.53.98-.1.83.19-2.46 3.2.06 1.6 2.71-3.48.25.03.26-.01.24-.04.56-.32.03-.43-.51-.3-1.14-.25m-3.26 46.64-1.01.16"/><path d="m171.68 54.05 1.06.21.49-.05.1-.05m-1.26-18.49 2.57-1.67 3.24-1.24 3.86-.69 3.92.05 3.59.76 2.92 1.41 1.99 1.91.89 2.21.13 1.69m-21.8 53.74-.11.05v.08m-.34-4.4 4.67.84.65-.24.72.13.07.37-.85.84-.34.12-.6.01-.41-.19.02-.28-4.18-.75m.24-34.56-.06-1.6m.97 39.37.12-.05.92-.02.63.29v.04m-1.4-43-.04-.98m44.53 51.51 2.61-.72 2.09-.95 1.49-1.14.77-1.23-.05-1.21-.86-1.1-1.63-.89-2.26-.58-2.68-.23-2.91-.11-2.8-.27-2.68-.4-11.43-2.1-4.74-1.04-4.45-1.07-4.12-1.11-3.72-1.17-3.29-1.24-2.78-1.32-.17-.11"/><path d="m175.44 82.26 2.43 1.17 3.28 1.25 3.72 1.17 4.11 1.12 4.44 1.08 4.73 1.04 11.4 2.11 2.68.41 2.8.26 2.89.12 2.68.23 2.26.59 1.62.89.87 1.1.15 1.37m-49.01-53.49h-.32l-.6.36-.01.04m.89 53.19.7-.06 4.21-.07 4.13.23 3.9.52 12.63 2.21 2.44.5 2.25.63 2.01.73 2.08.6 2.49.29 2.71-.06m-39.14-10.62-.03-.9m-.39-38.92-.06-1.2m-.32 1.18-.05-1.27m1.12-7.31-.14-.08h-.35m.55.12.28.17m.64 48.59-.06-1.31m.99-48.7.74-.98 1.43-.67 1.74-.17 1.57.36.97.81.11 1.03-.77.97-1.42.66-1.71.17-1.55-.36-.97-.79-.14-1.03m.75-2.61-.56-.34.04-.52.63-.37.84-.02.56.35-.05.51-.62.37-.84.02m.84-.02-.05-.98m4.07 7.7.62-.35.05-.48-.53-.33-.82.01-.61.36-.05.48.54.33.8-.02-.05-.97m2.61-4.66.01-.05.63-.37.33-.01m.15 0 .35-.01.14.09m.21.13-.15-.09m9.54 55.67-.04-.44m1.28.33-.28.14-.19.05-.59.01-.37-.18.06-.27.81-.73.67-.22.68.12.03.35 4.57.82.67-.22.68.12v.35l-.96.79-.35.12-.58.01-.37-.18.07-.27-4.55-.81-.09-1.13m-.11 1.24-.09-1.17m4.84 1.87-.07-.88m1.12.09.1 1.15m5.7 2.48-.37-.18.08-.27.49-.2.61-.01.37.19-.08.27-.49.19-.61.01m.61-.01-.06-.64m4.76-1.61.26-.02 1.12.21.63.44-.04.56-.67.54-1.14.36-1.28.09-1.11-.2-.63-.43.01-.55m.5-1.64.09-.27.5-.21h.25m.51.07.23.11-.02.08m-.27-.22-.08-.05-.26.01m1.29 4.19.09-.27.49-.2h.24m.11 0 .26-.01.09.05m.05.02.22.12-.02.07m2.23-2.28-.36-.18.1-.28.51-.2.61-.01.37.19-.1.27-.51.2-.62.01m.62-.01-.07-.66"/></g><path d="m118.64 75.85.26-.15m1.46.09v-.03m23.53 24.08.41-.19m1.09.16v-.19m7.84-31.86v-.15m20.15 26.23.45-.21m.93.08-.01-.14" style="stroke:#3c3c3c;stroke-width:.494"/></g><g style="stroke:#3c3c3c;stroke-width:.494" id="Actor_.21"><path d="m213.59 84.98.97-.74.66.4-.16.15-.6.06-.6.08-.59.11-2.06.6-1.65.84-1.05 1-.36 1.04-.01-.06.22 2.52m-.22-2.52.05-.06"/><path d="m212.19 85.35.3-.21 1.42-.46.08-.01m8.05 7.92-.07-.13-1.33-.79-1.96-.48-2.35-.1-2.44.28-1.04.3m-.36-9.57.28 2.95"/><path d="m221.35 92.42-.68-.41-1.96-.47-2.35-.11-2.43.28-.16.05m.79-7.52 1.26-.08 1.22.06 1.11.18.25.39-1.01-.13-1.07-.05-1.1.03"/><path d="m215.71 91.9-.05-.09 1.89-.04 1.74.19.75.21m-4.38-.36.01.09m2.01 4.91.02.04-.43.49-.81.29m.98-.86-.21.23-.61.22m-.18.19.19-.1-.18-.31h-.05m.23.31-.07-.68h0m-.32-14.74.24 2.3m1.92.6.16.16 1.65.51 1.12.75.48.92.62 5.57"/></g><g style="stroke:#3c3c3c;stroke-width:.494" id="Actor_.22"><path d="m160.03 54.42.25-.39-2.42 3.4-.25.39-.12.46-.01.07.02.43.01.04m2.95-4.88-.04.03-.05.04-.04.05-.31.72-.01.06-.01.07.12.82"/><path d="m160.22 55.59-.07-.27-.01-.47.12-.43.13-.21m-.48 1.19-.01-.51"/><path d="m160.97 53.17-.2.18-.26.39-.12.47-.01.06.02.44.11.48"/><path d="m160.64 53.6 2.39-3.12-.24.36m-2.51 3.19.2-.16m2.39-1.97-.09-.6v-.07l.01-.06.29-.66.04-.06.05-.04.63-.38.07-.02.07-.01h.29m-1.55 1.28.01.48"/><path d="m163.03 50.48.34-.28.43-.18.05-.02.38-.01m-.38.01.4-.04m7.81 4.17.29-.62-.1-.21m.4-.51.24.58.03.08-.07.81"/><path d="m172.86 54.26.08-.8-.28-.68"/></g><g style="stroke:#3c3c3c;stroke-width:.494" id="Actor_.23"><path d="m173.07 112.9 1.98.42 2-.52.04-.93-.73-17.78-1.95-.46-1.96.57.64 17.77-.02.93-.63-17.68.01-1.02"/><path d="m173.09 111.97 2.01-.52-.69-17.82m.23 19.12h-.07l-.46-.23.1-.31.62-.21.76.02.45.24-.11.31-.61.2-.68-.02m-.07 0-.03-.65m.56-.65 1.99.42"/></g><g id="Actor_.24"><g style="stroke:#3c3c3c;stroke-width:.494"><path d="m185.68 24.21.08-.05-.08.05-2.78-.37-2.9.22-2.72.78-2.26 1.26-1.59 1.6-.09-.03-.47.91-.23.92v.92l.18 4.77m.57-7.5h.06m-.11-.02.57-.45m13.61 5.29-.62-.3-3.05-.54-3.27.16-3.07.86-1.1.63m2.58-8.97-.06-1.26m5.67 17.06.02.9-.87.8-1.43.38-1.45-.18-.92-.67-.04-.88"/><path d="m182.08 41.78-1.23-.15-.92-.67m.15-3.02.75-.2m-1.12.07.28.13"/><path d="m181.32 41.43.19-.61.97-.26.78.36-.19.61-.97.26-.78-.36-.04-.83.19-.62.68-.18m-1.76-7.49.21-.06h.17"/><path d="m184.59 40.14.01.49-.87.8-1.43.38-.19-.02m1.15-.87-.05-.84-.69-.32m1.6 4.91.7-.18m-1 .08.22.11m-.11-12.58-.06-.01-.14.01m.06-8.14.66-.3 1.42.44-.11.06.01-.01"/><path d="m184.45 23.66 1.48.43 1.19.43-1.25-.42m-2.12-.15-.13-2.22m3.5 2.79 1.11.56.93.67.14.27.4.41.34.44.28.45.44 1.83.31 4.61"/></g><path d="m183.62 21.73-.16-2.75-.93-.76-1.47-.2-1.45.43-.87.89.05 1.01.14 2.74" style="stroke:#3c3c3c;stroke-width:.494;stroke-dasharray:.5 .5"/></g><g style="stroke:#3c3c3c;stroke-width:.494" id="Actor_.25"><path d="m174.63 44.1.33-.7.94-.49 1.2-.08 1 .35.41.65.07 1.6-.16.46-.65.53-.48.18-.53.09-1.04-.09-.75-.42-.04-.08-.23-.62-.07-1.38"/><path d="m176 44.57-.08.02-.78.4-.04.04-.33.56.01.04.22.56.04.03.7.37.08.01.94.08.07-.01.45-.08m-1.67-1.73-.35.23"/><path d="m176.49 46.17.84-.22.16-.53-.69-.31-.84.23-.16.53.69.3-.04-.84.42-.11-.03-.09"/><path d="m176.32 45.24.02.01.27.01.26-.04.11-.02m-.71.05.18.08m.88.62-.03-.61m-.43-.12.09-.03m1.11-.56.4.37"/></g><path d="m173.35 51.87.49-.43 1.86-1.36" style="stroke:#3c3c3c;stroke-width:.494" id="Actor_.26"/><g style="stroke:#3c3c3c;stroke-width:.494" id="Actor_.27"><path d="M171.62 78.62h-.09l-.43.18m1.93-2.35-.65-.17-.9.16-.45.42.06 1.94"/><path d="m171.03 76.86.44-.44.64-.28.74.13.21.14"/></g><g style="stroke:#3c3c3c;stroke-width:.494" id="Actor_.28"><path d="m174.14 85.58.03.01.32.16.24.2.14.22.04.23-.2.43-.07.1-.52.44-.43.27-.22.07"/><path d="m174.35 86.97-.1-.29-.04-.04-.33-.24-.02-.01m.32.93.15-.29.01-.05m.57-.58-.02-.36-.41-.65-.24-.08"/></g><g style="stroke:#3c3c3c;stroke-width:.494" id="Actor_.29"><path d="m69.6 55.82-2.38-1.7-.08-.08-.04-.08.02-.08 1.38-2.23.07-.06.04-.02.07-.03.14-.01h4.52l.15.02.15.04.12.07 3.04 2.23.07.08.03.08-.02.08-1.45 2.18-.07.06-.11.04-.14.02-1.23-.01"/><path d="m67.1 53.96.14-1.08.02-.08 1.37-2.23.08-.07.11-.04.14-.02 4.51.01.15.01.15.05.12.06 3.03 2.24.08.08.03.09-.13 1.07m-8.14-3.57-.14 1.08"/><path d="m68.81 50.46.19-.84.25-.93.27-.82.6-1.38.64-1.02.66-.71.47-.34.48-.31.49-.09h.18l.24.02.19.06.27.11.24.15.18.17.47.53.42.81.22.48.38 1.21.25 1.54.09 1.86-.05 1.13m-5.29.82-.63.24-.09.24m-.03.07-.17.41.1.13m.89-1.12.35-.13.85.05m.09.01.47.03.74.32m.08.03.41.18.34.46m.04.74.18-.43-.18-.25m-.52-2.32.13-1.09m3.31 2.45-.12 1.08"/></g><g style="stroke:#3c3c3c;stroke-width:.494" id="Actor_.30"><path d="m177.5 24.77-1.37-.65-.11-.08-.06-.1-.01-.11.82-3.39.05-.11.11-.1.15-.06 4.91-1.5.17-.03.17.01.16.05 3.99 1.97.11.08.06.1v.12l-.87 3.07"/><path d="m175.96 23.94-.06-1.17v-.11l.81-3.4.06-.12.11-.09.15-.07 4.89-1.5.17-.03.18.01.15.05 3.98 1.97.11.09.06.1.08 1.18m-10.74 1.92h-.01m.98-2.49-.06-1.18"/><path d="m177 18.99.02-.32.1-1.05.15-.96.4-1.63.52-1.27.39-.75.5-.76.54-.45.32-.25.32-.14.36-.08.46.01.49.16.5.29.53.51.68.77.63 1.12.56 1.51.2.59.26.94.21 1.04.11.64m-6.37 3.23-.2.49.24.4m.01-.99.18-.45.59-.34m1.42-.45-.75.06-.54.32m2.77-.21-.62-.24-.69.06m.89-3.33.07 1.19m1.32 3.03-.26-.44-.57-.22m.93 1.59.19-.42-.23-.4m2.91-2.17.08 1.18"/></g><g style="stroke:#3c3c3c;stroke-width:.494" id="Actor_.31"><path d="m124.75 101.57-1.96-1.1-.06-.04-.02-.05.02-.05 1.21-1.4.05-.04.09-.03.11-.01 3.45-.16.11.01.11.02.09.03.24.14"/><path d="m122.71 100.38.03-.89.02-.05 1.21-1.41.06-.04.09-.03.11-.01 3.43-.16.12.01.11.02.09.04.5.28m-4.41-.16-.03.89"/><path d="m123.72 98.33.08-.85.29-1.54.37-1.24.17-.42.4-.91.43-.65.44-.41.25-.15.3-.13.18-.03h.18l.14.04.09.04.34.17.12.1.41.44.38.67.14.29.36.99.28 1.18m-3.83 3.78-.25.09-.17.29m-.03.23-.07-.08.08-.12m.48-.42.54-.18h.32m.05 0h.7l.27.09m.66.23-.03-.04-.59-.18m.63-1.8-.02.9"/></g><g style="stroke:#3c3c3c;stroke-width:.494" id="Actor_.32"><path d="m73.83 76.84-.35.06h-.06l-.91-.06-.75-.27-.06-.03-.42-.41-.02-.03.05-.41.02-.03.5-.29h0l.05-.01"/><path d="m72.03 76.67-.35-.13-.44-.45-.03-.09.2-1.77.61-.36.99-.06 1 .26.62.48.01.51-.09 1.24-.23.28-.14.13-.33.13-.42.07-.93-.07-.47-.17"/><path d="m72.27 75.89-.05.43-.09-.39.63-.16.72.22.09.39-.63.16-.72-.22m-.79-.57.21-.17m.58-1.72.01-.04m.71 2.72.08-.69m1.22-.2-.49-.27m.23-1.32h0"/></g><g style="stroke:#3c3c3c;stroke-width:.494" id="Actor_.33"><path d="m121.19 95.75-1.99-.81.84-19.3 1.93.88-.78 19.23-.42 1.12-2.38.31-1.99-.79.91-19.17.39-1.22-.91 19.26-.39 1.13m.39-1.13 2.41-.32"/><path d="m117.68 96.08.25-.36.75-.15.81.14.41.35-.25.35-.75.16-.81-.14-.41-.35m2.36-20.44-2.34.36m.39 20.43.03-.75"/></g><g style="stroke:#3c3c3c;stroke-width:.494" id="Actor_.34"><path d="m215.73 98.23-.41.1-.37.05-.71-.05-.08-.01-.51-.23-.04-.07-.08-.36-.14-1.16.34-.4.77-.27.92-.05.71.2.22.37.11 1.29-.17.28-.56.31"/><path d="m214.18 98.33-.48-.22-.03-.02-.09-.31.01-.03.32-.32.04-.02.64-.22h0l.06-.01"/><path d="m215.48 97.98-.67.12-.47-.17.18-.31.67-.12.48.17-.19.31-.04-.39m-1.11-.23-.3.12m.03-1.49-.01-.08m1.29 2.42h0m-.53-.23-.05-.52m.82-1.8.01.05m.84 1.56-.24-.21"/></g><g style="stroke:#3c3c3c;stroke-width:.494" id="Actor_.35"><path d="m99.8 70.42-.11.37m-.09 0 .02-.13.06-.25m.43.05-.03.46m.1-1.85-.09.2m1.43-2.99.02-.01.12.17.04.59-.01.07-.07.84-.02.09-.16.92-.03.09-.2.78-.03.07-.03.16-.46.98m.32-.94.12-.29"/><path d="m100.85 69.09-.09 1.18.29-.63.26-.9.17-1.12-.04-.69-.21.15-.28.64-.02.18m-.19 1.19-.11 1.48-.19.41m-.25-.04.03-.46"/><path d="m100.73 69.18-.41-.07.02-.03m-.02.03-.01.18m.4-1.41.56-1.24.1-.19.18-.2.1-.02 4.71.73.33.07.1.05.16.21.03.13.04.65-.09.95-.19 1.03-.25.87-.12.31-.3.6m-5.12-4.11.5.1"/><path d="m106.05 71.83.25-.52.14-.32.23-.84.03-.08.18-.99.02-.09.08-.92.01-.08-.04-.63v-.05m.1 4.59.22-.45.11-.28.03-.07.26-.93.18-1 .01-.08.08-.98-.04-.62-.01-.03-.15-.18-.01.01"/><path d="m106.91 67.24.75.14.15.2.04.65-.08.95-.19 1.03-.25.86-.13.31-.25.52"/><path d="m113.58 72.1.21-.73.19-1.02.08-.94-.05-.65-.03-.13-.18-.22-.09-.05-5.85-1.11-.11.01-.11.12"/><path d="m113.98 68.65.01.04.05.64-.01.07-.08.92-.02.09-.18.99-.02.07-.19.63"/></g><g style="stroke:#3c3c3c;stroke-width:.494" id="Actor_.36"><path d="m78.53 66.54.62-5.17-.5-1.4-.06-.25-.57-.67-.75-.64-.91-.58-.17.06-2.29-.95-2.61-.55-2.62-.09-2.35.39-.54.17-.5.21-.45.23-.1-.08-.68.51-.49.57-.29.63-.04.25-.7 5.68"/><path d="m76.85 65.98-.91-.74-2.36-1.08-2.78-.65-2.85-.14-2.55.38-1.72.77"/><path d="m64.99 64.29.36-.16 2.55-.38 2.85.14 2.79.65 2.36 1.07.08.07m-11.25-8.46 1.62-.75.66.1m5.04 14.25v.38l-.77.46-1.25.08-1.28-.33-.66-.51"/><path d="m69.24 71.15-.44-.12-.67-.52m1.95.93-.49-.03-.54-.41.35-.38.9.04.54.42-.35.38-.41-.02"/><path d="m69.3 70.06-.16.18-.09.76m2.84-6.49-.47-.12-2.22-.26h-.04m.38-7.8.36-2.93m.71 17.93.72-.05.72-.42m-1.17-.57.05.04-.09.75m5.3-13.21.22-.04-1.22-.9-1.12.07m.07-2.4-.27 2.33m1.32 0 1.11.64 1.02.84"/></g><g style="stroke:#3c3c3c;stroke-width:.494" id="Actor_.37"><path d="m88.82 68.83 1.68-.27 4.46-.57 4.23-.24 2.24.19m-8.57 1.64 2.26-.3 4.1-.24 1.85.06.13.02m-.57 1.41-.91-.12-1.76-.07-.81.03m.97-1.26 2.6.22m-1.62 1.4.99.11"/><path d="m101.4 68.16-.17-.02-1.93-.21"/></g><path style="stroke:#000;stroke-width:.6" d="m129.75 113.36-.21 13.15"/><path style="fill:#000" d="m131.25 113.34-3.01.04 1.55-2.75z"/><path style="stroke:#000;stroke-width:.6" d="m202.64 98.82 2.11 26.42"/><path style="fill:#000" d="M204.15 98.82h-3.01l1.29-2.69z"/><path style="stroke:#000;stroke-width:.6" d="m87.45 78.46-2.73 29.34"/><path style="fill:#000" d="M88.96 78.46h-3.01l1.74-2.61z"/><path style="stroke:#000;stroke-width:.6" d="m174.74 74.48-.64-16.15"/><path style="fill:#000" d="M175.6 58.33h-3.01l1.41-2.52z"/></svg>