<svg xmlns="http://www.w3.org/2000/svg" width="1122.52" height="793.701" viewBox="0 0 297 210" stroke-linejoin="round" stroke-linecap="round" fill="none" fill-rule="evenodd"><script type="text/ecmascript"><![CDATA[
if(typeof(top) != "undefined")
{
	top.ShowPaper = ShowPaper;
}
function ShowPaper()
{
  var svgDocument = getDocument();
  var paper = svgDocument.getElementById("paperID");
  if(paper)
  {
    paper.setAttribute("transform","scale(1)");
    paper.setAttribute("opacity","1");
    paper.setAttribute("visibility","visible");
  }
  var svg = svgDocument.getRootElement();
  if(svg)
  {
    svg.setAttribute("width","307.000mm");
    svg.setAttribute("height","220.000mm");
    svg.setAttribute("viewBox","-5.000000 -5.000000 307.000000 220.000000");
  }
}
]]></script><path style="fill:none" d="M296.99 210H.05V.05h296.94z"/><path style="fill:#5a5a5a" d="m164.34 40.91 1.33 2.64.25 1.27.1.49.07.5.09.67.08.82.08 1.67.75.31v1.18l-.43 1.41-.43.11-1.34.15-.65.09-1.33.17-1.22-.07-2.49-.65-.46-.23-.01-1.17.54-1.36.28.5.01-.63.24-2.31.56-2.71.86-1.95 1.14-1.34.37-.16.84.02zm-47.13 72.6.67.65 1.16 1.49.98 1.83.49 1.5.59 2.25.1.49.07.35.09.47.08.35.09.66.07.65.1.67 1.64 1.7.42.6-.01 1.84-1.15 1.03-2.71 2.3-.31.09-3.64.09h-3.82l-.37-.16-.65-.83-2.16-2.31-.2-1.93 1.86-1.64.08-2.26.36-3.42.54-2.27.59-1.56.91-1.57.82-.84.17-.38.6-.17.32-.17h1.23z"/><path style="fill:#3e3e57" d="m201.62 103.67-.02-.1.35-.07.15.07zm-.84.2.33-.21.16.07zm4.64.04.18-.08.28.1z"/><g style="stroke:#3c3c3c;stroke-width:.494" id="Actor_.0"><path d="m139.32 65.9-.12-.18-.09-6.07.39.56 1.28.36 1.66.03 1.41-.32.6-.54.04 6.08-.6.56-1.39.33-1.65-.03-1.26-.38-.27-.4m1.07-6.93-.66.15-.62.53"/><path d="m140.4 59.75.49.32 1.02.11.94-.18.31-.35-.03-3.52-.31.34-.95.18-1.02-.1-.49-.32.04 3.52m-.04-3.52.32-.35.35-.34-.16.31.71.19.87-.11.16-.31-.71-.19-.87.11m2.1.59-.52-.51"/><path d="m143.15 58.94.89.25.41.55"/></g><g style="stroke:#3c3c3c;stroke-width:.494" id="Actor_.1"><path d="m141.69 163.88.42.12.36.05.09.01.47.01.46-.06.43-.12.38-.17-.41.21-.27.15-.64.13-.66-.05-.56-.21-.41-.2.34.13-.37-.17-.3-.22-.22-.26-.14-.28-.03-.29-.01-.31.46-.81.59-.26"/><path d="m140.62 162.35.39.83 1.1.51h.81l.56.01 1.13-.51.45-.82-.07.64-.38.49-.31.22m-2.59.21.1.03.49.19h.12l.57.05.12-.03.54-.11m-2.63-.57-.18-.2-.04-.06m.55.52-.13-.12"/><path d="m141.68 162.47.45.48.87.14.77-.29-.02-2.25-.77.29-.87-.13-.45-.48.02 2.24m-.02-2.24.23-.54.77-.29.25.02-.67.18-.09.45.57.26.67-.18.09-.44-.57-.27.61.12.46.47-.23.54m-1.19 3.51-.43-.02m1.36-.03-.46.1"/><path d="m143.77 162.8.23-.55-.02-2.24"/><path d="m143.99 161.25.66.31.41.81m-.69 1.3.21-.12.35-.46"/></g><g style="stroke:#3c3c3c;stroke-width:.494" id="Actor_.2"><path d="m119.47 65.65-.08-1.82.28.6 1.23.4 1.71.04 1.52-.33.75-.57.23 6.23-.74.6-1.51.34-1.69-.05-1.22-.41-.28-.62-.2-4.41m-.08-1.82.76-.56.58-.13"/><path d="m123.36 60.4.14 3.62-.7.32-1.09.06-.85-.23-.1-.39-.15-3.61.1.38.85.23 1.1-.07.7-.31-.1-.38-.44-.36-.04.33-.85.18-.82-.16.04-.34.85-.17.82.16m-2.21.51.54-.5"/><path d="m124.88 63.97-.31-.59-1.11-.35"/></g><g style="stroke:#3c3c3c;stroke-width:.494" id="Actor_.3"><path d="M126.03 170.51h.48l.47-.06.45-.12.41-.19.34-.22.42-.53.09-.57-.01-.08-.52.86-1.19.53h-1.42l-1.08-.54-.34-.87.01.31.02.31.11.29.21.27.3.23.36.19.43.12.46.07-.44-.02"/><path d="m124.73 170.09.08.09.33.14"/><path d="m124.81 170.18.45.19.57.22.67.05.67-.13.12-.07-.09.05-.57.11-.13.03-.57-.04-.13-.01-.59-.23m-1.08-1.63.53-.86.5-.22"/><path d="m125.11 166.56.1 2.28.42.51.88.14.82-.3.27-.58-.09-2.28-.43-.5-.65-.11-.7.19-.12.47.57.28.69-.19.13-.47-.57-.28-.23-.03-.81.3-.28.57.43.51.88.14.82-.3.09 2.28m-.35 1.26-.47.1m.73-3.64.27-.58m.09 3.94-.31.17.29-.16m.26-.14-.43.23m1.19-.98-.46.58-.25.14m-.33-2.62.77.38.35.87"/></g><g id="Actor_.4"><g style="stroke:#3c3c3c;stroke-width:.494"><path d="m158.95 69.29-.95.09-.31.02m3.27-.29-.5.24-.63.08-.72.06-.08.02"/><path d="m158.76 69.31.65-.21.28-.22"/><path d="M159.86 67.71v.37l-.03.37-.11.3-.17.24m1.47-.24-.05.13-.08.13-.18.22m1.14.4.2-.25m-.08.2-.35.16-.14.08-.37.14"/><path d="m160.93 68.89.05-.23.03-.3.01-.15-.02-.14v-.2"/><path d="M161 67.9v.1l-.02.39-.06.36m1.86 1.64-.13.12-.2.16-.46.16m.32-.15-.39.18m.23-2.93-.01.2-.02.54-.05.43-.05.23m.09-.58.01-.2m-.02.25-.03.13m.98.95h0m.2-.78.01-.07.02-.26.02-.31.01-.16v-.35"/></g><path d="m162.07 68.93-.08.38-.19.34m-.87-.76-.03.11m.02-.25v.02l-.09.32m1.95 1.3.11-.18.16-.33m-1.07-.41.01-.03.03-.11m1.03.55.1-.26.08-.36.02-.16" style="stroke:#3c3c3c;stroke-width:.494"/></g><g style="stroke:#3c3c3c;stroke-width:.494" id="Actor_.5"><path d="m147.55 196.6.09.09.39.18-.43-.22-.35-.29-.26-.33-.16-.36-.05-.38v-.34l.47 1.08 1.26.67h1.58l1.27-.66.48-1.06-.07.75-.41.65-.36.28-.45.27-.34.08-.72.17-.75-.06-.21-.05.5.04.53.01.53-.08-.53.11m-2.78-2.2.5-1.05.71-.37"/><path d="m148.03 196.87.48.16.52.08m-.84-.18.34.14m-.03-1.36-.51-.6v-2.41l.53.62 1 .18.87-.38.24-.71-.01 2.41-.23.71-.88.38-.99-.17-.02-.03m2.13-3.3-.53-.62-.99-.17-.87.37-.25.71"/><path d="m148.71 197.11.79.07.75-.18m-1.69-4.48.66.34.76-.23.08-.58-.66-.34-.75.23-.09.58"/><path d="m150.09 197.04.48-.16.43-.22m-.61-1.13v-2.41m1.45 1.86-.49-1.07-.72-.38m.73 2.85-.05.05-.11.07"/></g><g style="stroke:#3c3c3c;stroke-width:.494" id="Actor_.6"><path d="m146.36 81.57.03 6.87.4.8 1.44.55 1.92.08 1.66-.42.76-.75.05-6.88-.77.73-1.68.41-1.95-.08-1.45-.53-.41-.78.79-.72.82-.19"/><path d="M147.97 77.94v4l.87.37h.78l.46.01.9-.36.02-.5.01-3.99-.02.49-.9.35-1.25-.01-.87-.36.03-.5.85-.59-.44.4.65.35 1.08-.05.44-.4-.65-.34-1.08.04m1.73.3.43.32"/><path d="m152.62 81.82-.44-.76-1.18-.43"/></g><g id="Actor_.7"><g style="stroke:#3c3c3c;stroke-width:.494"><path d="m156.04 67.3-.02-.03.45.39.63.36.77.31.44.38"/><path d="m169.42 64.89.06.08-.2.86-1.02.78-1.73.6-2.23.34-2.45.03-2.35-.28-1.96-.56-1.33-.75-.55-.86v.39l.37.67-.01 1.08.63.56m-.91-2.94-.08.24"/><path d="m158.73 59.28-.75.12-.77-.3-.62-.33-.46-.36-.05.09-.35-.77-.06 7.04.54.86 1.34.75 1.96.55 2.35.28 2.45-.03 2.23-.34 1.73-.59 1.02-.78.2-.87.18-7-.64-.72-1.25-.62-1.37-.37"/><path d="m156.13 58.41.97-1.41 1.6-.68.42-.28m-3.39 1.69.4-.76 1.09-.66 1.64-.5.26-.05"/><path d="m157.1 57 .46.41.71.38.93.31-1.22 1.3.12.19 1.96.44 2.27.21 2.3-.06 2.1-.31.49-.12.46-.13.41-.15.11-.19-1.36-.15-.14.19 1.39.15m-10.22 8.86.02-1.09 1.55.41 1.8.25 1.9.07 1.85-.13-.03 1.1-.31.32"/><path d="m166.74 59.27-2.45-.14-2.55.03-2.36.19"/><path d="m159.27 59.21.15.19-.63.08"/><path d="m159.42 59.4 1.56.29 1.73.12 1.73-.07 1.57-.24.24-.05.23-.07.22-.06m2.97-1.72-.02.75-.03-.09-.3.36-.48.35-.64.31-1.23-1.27-2.61-.15-2.62.03-2.54.21m.16-1.13.88.46 1.42.3 1.65.06 1.53-.18 1.11-.39.47-.53.02-.74-.47.52-1.11.39-1.54.19-1.64-.07-1.42-.3-.91-.47-.23-.55-.01.75.23.55.02.01m-.24-1.31.5-.51 1.11-.38.19-.02"/><path d="m160.93 54.69-.42.04-.13.16"/><path d="m160.98 52.05-.08 3.91.68.35 1.13.15 1.17-.09.1-4.18m-.93 5.69-.03 1.27m.86-2.78.74-.32.03-.4.09-3.55m.22 16.84.53-.07.51-.09.48-.11.46-.12.43-.13.39-.15-.32.32"/><path d="m166.44 55.95-.26-.55-.92-.46-.59-.12m2.3 3.19.79-.33.55-.39.27-.42-1.88-.64-.26-.13m1.32 12.17.03-1.09 1.04-.56.57-.64.06-.67.02-.34m-.9-8.1 1.04 1.39"/></g><path d="m159.49 69.04-.63.14-.8-.31-.63-.35-.78-.69m1.66.88.55.47m2.09-.39h-.04m1.19.03h0m2.55.44-.4.39-.88-.49-.12-.05m1 .54.54-.07.51-.08.49-.11.45-.12.42-.14.38-.15.4-.39" style="stroke:#3c3c3c;stroke-width:.494"/></g><g style="stroke:#3c3c3c;stroke-width:.494" id="Actor_.8"><path d="m236.68 88.78-.21 1.42m-.1-.11.05.08.11.07.15.06 5.12 1.47.18.04.19.01.17-.01 1.07-.21 3.51-.66.13-.04.07-.07.23-1.42-.08.06-.13.04-4.58.86-.17.02-.1-.01h-.09l-.18-.04-5.14-1.47-.15-.05-.11-.08-.05-.07-.47-2.27-.2 1.41.47 2.28m-.27-3.69.01-.07.08-.06.13-.04 1.01-.18"/><path d="m237.69 88.4-.62-.87.35-1.97.32-1.4.35-1.27.38-1.15.76-1.65.32-.61.83-1.47.84-1.06.82-.67.75-.33.21-.07.28-.02.25.02.18.03.17.06.16.08.58.43.18.24.63.91.54 1.28.41 1.69.21 2.1.03 1.21-.04 1.32-.1 1.43-.16 1.72-.4.67-1.04.49-1.55.23-1.8-.07-1.78-.34-1.18-.44-.88-.52m4.39 3.42.21-1.44"/><path d="m247.35 89.41.01-.08-.64-2.28-.05-.07-.11-.07-.1-.04m.62 4 .23-1.43"/></g><g style="stroke:#3c3c3c;stroke-width:.494" id="Actor_.9"><path d="m149.93 76.81-.3-.44-.04-.07-.13-.95v-.07l.34-.86.04-.07.74-.57.07-.03.96-.16h.02l.07.01 1.07.09 4.85.45.3.05.68.24.07.03.76.7.04.06.36.92.01.07-.13.94-.02.07-.58.74-.05.04-.87.36"/><path d="m160 72.16-.08-.08-.52-.22-.54-.11-5.8-.52-.57.03-.52.14-.81.61-1.34 2.27-.39.94.13 1.05.01.03.34.51"/><path d="m150.54 77.13-.7-.98v-1.12l.71-.86 1.13-.25 2.95.27.48.1.44.2.39.29.34.04.39-.23.45-.12.48-.02 1.14.46.69.98-.02 1.14-.72.85-1.15.24-.47-.1-.44-.2-.39-.3-.33-.03-.39.23-.45.12-.47.01-2.93-.27-1.13-.45m.15-3.26.48-.13m6.99 4.63-.07.02-.3-.03h-.23l-4.82-.4-1.06-.1-.47-.09-.07-.02-.13-.08"/><path d="m160.73 72.86.25.48.12.52-.01.53-.14.49-1.18 2.32-.27.44-.38.36-.47.26-.55.15h-.53l-5.89-.53-.54-.11-.13-.08m.73-3.76-.41.71-.01.8.42.43.3.03.41-.06.32-.27.83-1.48"/><path d="m161.05 74.52.05-.07.03-.06.12-.93-.01-.07-.35-.91-.04-.06-.01-.01-.74-.67-.06-.04-.66-.23-.31-.05-4.76-.43-1.05-.09h-.07l-.96.15-.07.04-.72.56-.04.07-.07.16"/><path d="m161.1 74.06.02-.09.01-.48-.11-.48-.23-.45-.33-.4-.42-.31-.48-.21-.5-.11-5.81-.51-.5.02-.48.13-.76.57v.01m.53-.8-.62.63-.21.38v.02"/><path d="m151.57 71.42 1.07-1.6.75-.56.47-.13.5-.02 5.74.49.07.02m-7.4 5.95v-.8m-.72-.46.2-.34m2.26.47-1.02-.09-.03-.01m2.25.7-.01.79-.32.28-.41.05-.3-.03-.42-.43v-.79l.4-.72m.34.39.15-.28m.15 3.48 1.75-3.25m-1.13 2.96 1.62-3.04m-1.29 3.07.95-1.76m-1.49.07.55-1.02m1.4 1.59-.8 1.52m1.8-2.62-.01.8-.32.28-.42.05-.29-.03-.43-.43.01-.8.39-.72m-.3.01-.02.01-.44.12-.16.01m.88 3.72.52-.01m.04.1.44-.23.43-.24m-1.37-3.69.52.11m-.19.48.11-.21m-.4-.6.55.11m1.14 3.47.24-.42m-.93-1.09.4-.77m.56.42-.24-.46m-.33-.4-.43-.31m1.04-3.16-.55-.11m.63 4.93-.01.49m.21-4.63.45.33.35.41.01.03"/><path d="m161.12 69.96-.06-.05-.47-.2-.5-.1m1.23 3.24.01.57-.01.52-.03.25-.11.24-.19.32"/><path d="m161.29 74.19.7-1.71.14-.46.01-.48-.12-.47-.23-.47-.32-.37-.41-.31"/></g><g style="stroke:#3c3c3c;stroke-width:.494" id="Actor_.10"><path d="m189.88 93.04-.11.22h-.01l-.01.03-.14.54-.64 2.49-.04.19-.14.52-.01.01-.01.07-.15 1.09v.01l-.02.08-.11 1.18v.02l-.01.08-.05 1v.01l-.01.06.03.58v.03"/><path d="m195.69 102.07.03.09-7.1-.74-.16-.14-.06-.16-.03-.23v-.35l.02-.47.04-.55.05-.6.06-.61.08-.6.08-.53.08-.45.08-.33.82-3 .06-.19.06-.05.09-.15.12-.02 6.98.69-.04.05m-7.88 2.51-.08.36"/><path d="M197.12 93.76h-.01l-.09.22v.03l-.12.54-.6 2.51-.04.14-.07.66-.02.08-.13 1.03-.01.09-.01.08-.11 1.11-.01.09-.01.08-.06.93v.06l-.01.06v.53l.01.02v.02l.06.01"/><path d="m196.99 93.68.11.05.07.16-.04.05-.05.2-.69 3.02-.06.34-.08.45-.05.35-.02.19-.07.59-.07.62-.06.6-.04.55-.03.47-.01.36.01.22.03.08-.06.09-.16.09m-.03-.71-.01.38"/><path d="m195.94 101.98 1 .11-.02-.08-.01-.23.01-.36.03-.46.05-.55.05-.61.07-.61.07-.6.08-.54.07-.45.06-.34.67-3.02.05-.2.04-.05-.99-.1m-1.45 7.05.04-.59m.06-.65.07-.67m.08-.64.08-.58m.08-.49.07-.36"/><path d="m198.24 93.87-.08.22h-.01l-.01.03-.12.55-.51 2.51-.03.19-.12.53-.01.01-.01.07-.14 1.09v.02l-.02.08-.11 1.19-.01.01-.01.09-.06.99-.01.02v.64l-.01.01v.02"/><path d="m196.92 102.01.06.16.14.14.46.02 5.63.42-.01-.08m-6.26-.58.02.01m.59-4.63.07-.37m.54-3.11.09-.15.12-.02.49.09 5.46.69-.03.05-.04.19m-1.05 7.6.02-.36m.15.56-.03-.01v-.02l-.01-.02.02-.49.01-.06v-.06l.07-.85.02-.08v-.09l.11-1.01.01-.09.01-.09.11-.95.02-.08v-.07l.1-.65.01-.05.11-.62.41-2.41.01-.11v-.08l.07-.07h.02"/><path d="m203.21 102.75.15-.09.07-.09.03-.06.04-.2.21-1.22"/><path d="m203.79 99.67.16-1.69-.12.66-.14 1.02-.14 1.34-.06.88.06-.11.12-.67-.13-.01m-.28.52.05-.55m.36.04v-.02m-.23-1.25-.07.62m.46-.83.1.01.01-.17m-.01.17-.02.06m-.09-.01.18-2.01.21-1.14-.14 1.51m-.11 1.66.04-.23m-.42-.78-.07.54m.19-1.34-.06.34m.46-.18.16-1.82.12-.65.05-.08-.06.88-.03.26m-.16 1.43.01-.07m.02.07v-.06"/><path d="m204.32 94.6.1.05.07.16v.3l-.05.76-.08.77m.1-1.78-.03.18"/></g><g id="Actor_.11"><g style="stroke:#3c3c3c;stroke-width:.494"><path d="m210.44 102.96.59.22-.49-.19-4.8-1.42-2.2-.52m11.29 2.07-3.57-1.48-4.51-1.54-2.07-.52-.84-.14"/><path d="M230.58 108.33h-.79l-1.28-.23-3.46-1.08-9.05-3.44-5.03-1.96-4.84-1.51-2.44-.46m26.28 7.96h-.07l-1.22-.29-3.32-1.22-4.13-1.8-4.61-2.04-4.78-1.98-4.65-1.6-3.22-.66m1.42.29-1.29-.33m25.52 8.8-1.02-.28-3.4-1.37-4.23-1.97-4.71-2.23-4.87-2.13-4.74-1.69-2.42-.49m16.06 10.12-9.26-3.56.22.08"/><path d="m219.32 106.36 5.21 2.08 1.29.44"/></g><path d="m225.82 108.88.61.2 1.7.48 1.53.22h.93" style="stroke:#3c3c3c;stroke-width:.494"/></g><path d="m131.78 106.51-.17-.23v-.09m11.31.12.01-.15" style="stroke:#3c3c3c;stroke-width:.494" id="Actor_.12"/><g style="stroke:#3c3c3c;stroke-width:.494" id="Actor_.13"><path d="m50.63 91.71.26 1.63.51 1.37 1.39 1.08 2.18.8-.25-1.64-2.18-.81-1.4-1.07-.51-1.36.52-1.44 1.48-1.4.86-.47m1.48 8.19 2.79.45 3.17.06 3.55-.07 3.46.1 3.35.28 16.28 1.79 4.67.71 4.3 1.06 3.84 1.41 3.29 1.72 2.66 2.03 7.87 7.34"/><path d="m115.48 112.97-9.27-8.57-2.66-2.01-3.3-1.71-3.85-1.4-4.31-1.05-4.69-.71-16.32-1.77-3.35-.28-3.47-.1-3.57.07-3.18-.06-2.79-.43m23.96-6.91-2.99-.39-2.84-.54-2.7-.7m6.77 4.96-.07.16 5.67.6.15 1.33-.85-.09-.11-.38-5.7-.61-.75.29-.85-.09-.09-.38.33-.33m2.31.61-.11-.95"/><path d="m82.52 92.13.51-.25.71-.04.49.17.06.1-.01.1-.06.1-.8.86-.75.29m15.78 8.21-.14-1.69m4.34 57.52-.45-.86-.17-2.04 1.29 2.45 2.67 2.24 3.77 1.61 4.54.8 4.86-.09 4.7-.97 4.08-1.75 3.07-2.34 1.81-2.69.44-2.79-.01-2.79.49-2.71.97-2.61 4.93-10.49 2.34-4.04 2.37-3.65 2.42-3.25 2.54-2.87 2.69-2.48 2.88-2.1 3.12-1.71 3.41-1.31 3.84-.94 4.36-.64 4.86-.36 5.34-.13 5.8.09 6.24.28 6.67.44 7.06.58 17 1.85 3.97.53 3.95.74 3.88.93 3.83.75 3.87.22 3.56-.33 2.91-.85 2.01-1.28.95-1.58-.31 1.78-.94 1.59-2.01 1.29-2.9.85-3.55.33-3.86-.22-3.82-.75-3.87-.94-3.93-.74-3.96-.54-16.95-1.86-7.04-.59-6.65-.44-6.22-.28-5.78-.09-5.32.13-4.85.36-4.35.65-3.82.95-3.4 1.32-3.12 1.72-2.87 2.11-2.68 2.49-2.53 2.89-2.42 3.28-2.36 3.67-2.33 4.07-4.91 10.54-.97 2.63-.49 2.73.01 2.81-.44 2.82-1.81 2.7-3.05 2.34-4.07 1.76-4.66.97-4.85.09-4.52-.81-3.76-1.61-2.66-2.25-.84-1.61m-.62-2.9-.06-2.6 1.13-2.54 2.18-2.3.6-.53m-1.35-56.35 5.03.2 5.16.08 4.82-.1 4.43-.3 4-.5 3.54-.73 3.13-.99 2.84-1.25 2.57-1.48 2.31-1.68 2.09-1.84 1.88-1.96 1.65-1.97m-41.91 22.18-.39-.14-.06-.5.76-.42 1.14-.08.84.29.06.51-.76.42-1.14.09-.45-.17m3.69-5.3.09 1.42-.54.24-.89-.1-.17-.4.68-.88.47-.26.71-.05.54.18.07.1.01.12-.04.09.06.97m-2.36 3.55.01-.21"/><path d="m109.85 96.06.17-.07 9.9 1.05.2.41.9.09.68-.3.62-.91.04-.16"/><path d="m110.69 95.1 9.85 1.04.06 1.36m-.06-1.36.46-.25.7-.06.56.19.08.1.02.12m-1.01-.38.07 1.5m.62-4.64-.1-.47.69-.38 1.08-.08.83.27.11.47-.69.38-1.08.08-.84-.27m3.24 23.11-.75.47.12.6m-.11-24.84.02.52m9.99 14.39-.57-.06.21.04 3.09.15 3.09-.25 2.85-.61 27.13-7.94.47-.24.12-.33-.26-.31-.27-.18-.56-.22-.72-.08-.69.1-26.99 7.82-2.44.48-2.62.1-2.53-.28-2.18-.63-1.61-.92-.88-1.11-.08-.85.05 1.37.08 1.19.88 1.12 1.63.93 2.23.65-2.66-.48-2.43-.85-1.82-1.12-1.1-1.31-.31-1.38.48-1.38.06 1.69-.28.83"/><path d="m126.14 100.39 1.21-1.28 1.86-1.09 2.37-.85 26.27-7.15.67-.09.68.07.52.21.25.16.23.29-.14.29-.46.23-27.97 7.67-2.37.85-1.85 1.1-1.21 1.28m.1 32.62.77.1m1.41 1.06.25-.18-.06-.29"/><path d="m129.11 101.65-.01-.33.71-1.14 1.41-.99 1.98-.75 14.18-3.9M135.16 107l-.03-1.7m4.38 7.45.41-.78.76-.06.48-.31-.11-.38-.37-.17-.26-.05-2.17-.25-.98.15-.26.48.73.36m1.67.91.14.02m29.67-14.04-.15-.01-.68.09-26.92 7.88-1.49.29m.8 4.97v-.77m2.46-23.89-.84-.26-1.03.07-.63.36.15.44.84.26 1.04-.07.63-.36-.16-.44.01.52m26.65 6.68-.1-.12-.52-.34-1.45-.57-1.84-.18-1.77.24-20.14 5.66-1.33.64"/><path d="m142.78 99.77.5.37 1.43.62 1.93.21 1.9-.27 20.43-5.84 1.23-.62.32-.82-.66-.79-.53-.34-1.44-.56-1.86-.18-1.77.23-20.19 5.62-1.36.65-.47.86.54.86m-.3-1.29.01.82m5.59 14.09-.2-.6.71-.48 1.2-.1 1 .35.2.59-.7.49-1.21.1-1-.35m.37-36.26 1.04-1.4m.13 18.19 1.11-.31m.05 19.69.01-.74m1.72-23.8v.35m-.39.04.37-.03.39-.24-.12-.28-.19-.09m-.37.56v.07m.38-1.43 1.7-3.27.66-.04.01-.6"/><path d="m153.87 85.24-1.09-.1-.19.02m2.35-.76.37-.23-.11-.25-.16-.09-.39-.09-1.86-.17-.19.02m.37 9.41 1.11-.31m-1.09-23.13.18-1.16-.16-1.08.1-1.02.88-.95 1.68-.83"/><path d="m153.01 67.32-.01 1.43.06.43m4.37 22.59.55-.15m.85-.23.03-1.42m4.96-.53.29-.08-.29.08-3.97-2.56 4.28-1.15-1.11.3m-2.79-1.14.18.4.87.25 1.01-.07.57-.35-.21-.42-.86-.25-1.01.07-.57.34.02.03m2.41.36.01-.55m1.46 4.66 4.49-1.23-1.12.31"/><path d="m164.13 85.73 1.52-.4 4.03 2.51-1.08.29m-3.59-7.7.31-1.2 2.7-5.8.68-1.1.98-1.05 1.26-.98.96-.97.14-1.03.03-1.28-.12.87-.95.96-1.29.99-.96 1.02-.69 1.09-2.69 5.75-.48 1.81.24 1.87.99 1.89 1.73 1.87 2.45 1.78 12.16 7.51 3.42 1.82 2.79 1.12m-21.76-4.1.05-1.63m1.17 14.95.25.56 1 .33 1.16-.1.63-.46-.27-.55-.99-.32-1.15.09-.63.45m1.34-4.29.36-.95.39-.28.72-.05.62.19.12.11.06.11-.01.12 10.65 1.12.37-.28.72-.05.65.2.12.1.07.13v.11l-.28.97-.6.33-.98-.1-.37-.44-10.7-1.13-.62.33-.96-.11-.33-.43m.02-5.32-.06 1.59m.28-10.26-.37.02-.4.26.16.32 8.24 5.17.67.2.75-.05.4-.28-.19-.34-8.26-5.14-.64-.19-.36.03m2.36-21.29.03-.15-.66-1-1.39-.89-.6-.21"/><path d="m170.94 102.74-.07-.02-.7.05m.41-1.73-.06 1.71m.38 3.62-.02.77m.79-4.6.04-1.16m-.02 1.16.04-.99m4.56-5.49.12.03-.12-.03 6.03-.36-2.96 2.31-.69-1.23-2.26-.69m5.97 6.58-.07 1.24m.36.19.7-.05.19.06m1.45-5.38.3.5-.57.42-1.1.09-.98-.3-.29-.51.58-.41 1.08-.09.98.3-.04.76m-.69 3.21-.02.36m26.93-1.35.3.03m1.44 5.52.19-1.74m6.91 1.13-5.6-.59-.11 1.01-.55.34-1.01-.1-.46-.46.12-1 .34-.3.72-.05.69.2.21.19-.15 1.23"/><path d="m212.73 107.28.56-.05.52.16m.51-.32 6.74.71.09-.69m-6.77-1.2.05.17m5.34-3.47 3.38.35 3.77.3 3.02.09m-8.88 4.45.05.01.49.46 1.02.11-.6-.2-.48.04"/><path d="m222.62 108.36.53-.35.01-.11m-.18.22.03-.28m28.5 3.52-.18-1.75-1.25-1.75-1.67-1.23"/></g><g id="Actor_.14"><g style="stroke:#3c3c3c;stroke-width:.494"><path d="m229.62 105.65-.15.57.31 1.16.98 1.16-.19 1.34.43.41"/><path d="m248.09 108.39-.05.42-1.29 1.22-2.29.83-3 .33-3.32-.22-3.21-.74-2.71-1.16-1.86-1.42-.8-1.5.08-.4"/><path d="m229.61 105.7.82 1.5 1.86 1.42 2.7 1.16 3.22.73 3.32.22 3-.32 2.29-.83 1.3-1.22 1.64-9.59-.36 1.23-1.27 1.03-2.08.71-2.68.33-3-.09.82-.69-.23-.2-.79.68-1.55-.23-1.51-.33-1.42-.42-.23.12-.7-.27-.67-.29-.61-.3-1.81-1.28-.88-1.35.12-1.3-1.3 9.58m.96 4.18.42.34.47.33.52.31.56.3.61.29.64.27.43.41m-3.31-16.01 1.08-1.09.14-.25.64.43"/><path d="m232.13 94.78 1.18-.68 1.56 1.47.93 1.53.24 1.54 1.57.51 1.72.37 1.78.21-.94 2.04.2.21"/><path d="m235.46 100.91.15-.83-.32-.14-.31-.14-.29-.15-1.4-.96-.77-1.02-.07-1 .61-.88.13-.27-.03.18 1.51 1.44.9 1.51.22 1.35"/><path d="m232.51 97.47.36-.72.89-.48m-.7-.48-.49-.37m.74-1.32.92-.51 1.2-.39 1.43-.24 1.17.36m-4.24 18.4.19-1.35 2.37.72 2.56.43 2.56.12 2.36-.22-.22 1.35-.62.3m-7.87-15.18.22-1.56m.14-.79.13-.92.26.95 1.2.91 1.91.69 2.23.33 2.11-.11 1.55-.52.68-.82-.15.93-.67.82-1.55.52-2.11.11-2.23-.33-1.91-.69-1.19-.92-.26-.95m.21 5.25.35-2.15m-.43 1.44.21-.09"/><path d="m235.61 94.62.71-.8 1.54-.5.37-.01m1.19-2.22-.71 4.85 1.48.46 1.62.05 1.14-.38.22-.66.6-3.88"/><path d="m238.71 95.94-.77-.69.64-4.4m2.61 10.44 2.57-.06 2.15-.45 1.48-.8.64-1.02.05-.3-.03.19-2.83.54-2.41.81-1.74.99-.79.69m.83-2.15 1.92-1.09 2.47-.83 2.91-.54-.14-.75-.51-.76-.87-.72-2.09-.26"/><path d="m245.55 96.05-.32-.95-1.23-.9-.61-.21m.22 18.78 1.25-.28 1.07-.39-.61.31m-1.3-12.61.25-1.58m1.66 13.88.87-.49.22-1.35.93-.97.25-1.11v-.32m-.4-8.53-.21-.4m.17-3.17 1.34 1.4.46.67.22.66-1.7.17m1.69-.02-1.71.17"/><path d="m248.03 98.96 1.73-.19.02-.28-1.37-1.22"/></g><path d="m231 110.29.54.51.39.35.46.33.51.32.57.3.62.28.66.26-.53-.51m.53.51 1.48-.53 1.4-.22 1.63.17 1.42.53 1.52.86.79-.38m-4.55-1.1.08-.51m3.68 1.99 1.28-.27 1.07-.39.77-.38" style="stroke:#3c3c3c;stroke-width:.494"/></g><g style="stroke:#3c3c3c;stroke-width:.494" id="Actor_.15"><path d="m124.05 123.15-.12-.07-.09-.06-.07-.08-.65-.88-.05-.08-.03-.09-.17-.99v-.09l.01-.08.35-.88.05-.07.06-.06.6-.42.19-.14.09-.03.09-.03 1.06-.11.1.01 1.53.19 6.16.74.37.07.51.18.28.12.12.06.92.79.08.1.46 1.04.03.11-.1 1.03-.04.1-.64.79-.08.07-1.03.37-.11.03-.36-.05-.28-.01-.2-.02"/><path d="m123.19 122.17.19.32.45.54-.78-1.05-.21-1.18-.01-.08.03.6.19.66m.99 1.17-.21-.12m.47-.5-.06-.02-.6-1.27.5-1.14 1.33-.34 1.64.2.13 3.41-1.42-.18m-2.99-2.47.14-.56.29-.49"/><path d="m122.97 120.16 1.77-3.42.31-.53.45-.42.63-.33.59-.12.71.01 7.59.86.68.19.7.27 1.07.96.52 1.23v.07l-.14 1.24-1.95 3.32-.74.89-.06.03-1.16.4-.62-.04-.24-.03m-9.4-5.47.54-.28m.62-.14.67.01m2.03 5.21-1.89-.23-.07-.02m0 .02.08.02 1.87.22m-2.08-4.02-.12-.26"/><path d="m137.9 119.73.24-.3.03-.09.11-1.11-.02-.11-.49-1.11-.07-.09-.99-.86-.08-.04-1.18-.4-.09-.01-1.38-.16-6.14-.71-.29-.02-.96.12-.08.03-.08.03-.86.6-.06.07-.04.06-.12.3"/><path d="m137.92 119.53.06-.12.14-1.15-.49-1.15-1-.9-.63-.29-.66-.15-7.53-.88h-.65l-.61.13-.52.28-.42.39-.03.06"/><path d="m137.89 119.81.35-.42 1.97-3.85.15-1.22-.01-.06-.51-1.21-1.04-.94-.67-.27-.67-.18-7.42-.82h-.68l-.59.12-.62.32-.44.42-2.22 3.75-.3.53-.03.13m.78-1.08.57-.3m.64 6.2-.26-.03-.08-.04m.31-.6h0m.05-5.68.7.01m1.7 9.06 1.26.16-.1-3.42-2.85-.34.1 3.02m3.39 1.44-2.08-.24m2.07.27-2.08-.25m-.06-4.08.01.32m1.53.84-.14-.02m1.29 1.97-.31.58.03.01"/><path d="m131.6 123.9-.1-3.41 1.65.19 1.38.67.59 1.28-.53 1.14-1.21.3m-.57-2.59-.02-.84m.47 4.05.61.01m.64-4.47-.64-.29-.68-.16m-.05.31.62.14"/><path d="m134.71 121.75-.27.06h-.03m1.7-6.18.67.31"/></g><g id="Actor_.16"><g style="stroke:#3c3c3c;stroke-width:.494"><path d="m119.4 145.28 1-.2.96-.24.93-.3 3.06-1.46 2.1-1.88.95-2.1.39 9.41-.77 2.32-2.09 2.11-3.17 1.63-3.87.91-4.07.09-3.73-.77-2.91-1.5-1.74-2.04-.37-2.3-.78-9.51.46 2 1.58 1.77 2.56 1.37 3.29.81.26-.18-.35-2.88 2.1.23 2.17-.04 2.15-.31-.4 2.89.29.17.54-1.37-.31-.15-.52 1.35-1.9.21-1.9.04-1.87-.14"/><path d="m105.29 139.45.67-2.01.08-.36 1.63.78-.06.39-.2 1.8.89 1.69 1.9 1.4 2.7.91.28 1.35m-7.22-7.96 1.65.81m-1.61-.99 1.64.79"/><path d="m107.45 136.2-1.41.88.79-.97 1.03-.89 1.56-1.15-1.18 1.01-.79 1.12 2.61 1.74 1.91 2.07 1.12 2.33m15.63 6.37.08.32-.76 2.32-2.09 2.11-3.17 1.63-3.87.92-4.06.08-3.73-.76-2.9-1.51-1.74-2.04-.37-2.3.03.57.2 1.8.11 1.54.52 1.04.81.96 1.08.86.85.4m-3.6-7.17.03-.08"/><path d="m108.26 138.46-.29.28-.4 1.61"/><path d="m113.1 143.93-1.03-2.11-1.86-2.03-2.52-1.72-.02-.21m12.18 20.27.37-.22-.08-1.57-3.14.34-3.1-.18-2.82-.68-2.33-1.12.11 1.55m.56-22.18 1.52-.87 2.42.23m-2.22 7.37-.13-1.83m-.2-1.88.07 1.08 1.21 1.29 2.16.83 2.68.18 2.66-.51 2.07-1.08 1.09-1.43-.05-1.07-1.09 1.42-2.08 1.08-2.66.5-2.69-.18-2.16-.82-1.21-1.29-.01-1.49 1.15-1.4 1.41-.7m-.02-.33-.83.18m.52 10.62.28 1.35m.13-.11-.27-1.32-.27.16"/><path d="m113.3 132.48.24 3.94.89.94 1.79.42 1.99-.27-.27-5.08m.27 5.08 1.41-.85.3-1.1-.16-3.23m.46 25.58.92-.21.88-.24.86-.29.81-.32.78-.37.72-.39-.39.23m-4.86-12.41.47-.12.46-.13.44-.15 2.33-1.07 1.7-1.39.91-1.56.07-1.6-.05-.38v.22l-2.84 1.81-2.25 2.1-1.43 2.18"/><path d="m119.51 142.22 1.56-2.38 2.31-2.15 2.94-1.84 1.72.81.08.36-.97.45m-6.63-4.13 2.88-.37 1.35.82.99.97.58 1.09"/><path d="m122.7 136.38-.1-1.49-1.25-1.24-1.55-.57m-.02-.34 2.53.37m-.08 5.65.08 1.83m1.09-7.62 2.06 1.16 1.11.75.86.85.61.93m-2.85 19.43-.07-1.56 2-1.51 1.25-1.73.45-1.81-.02-.45m-3-11 .48.85m2.12.22-.28-2.08"/></g><g style="stroke:#3c3c3c;stroke-width:.494"><path d="m109.71 156.65 1.06.51 2.29-.83.08-.01m4.34.31.73.45 1.17 1.33.47-.28"/><path d="m119.38 158.41 1.81-.41 1.67-.61 1.46-.79.48-.28"/></g></g><path d="m121.87 130.56-.28 1.05-.34 1.35m1.75.07 1.46-5.67 1.28-4.04m-.41-2.99-.59 1.19-.64 1.46-1.09 3.38m6.41-6.13-.31.49-1.46 3.04-1.48 3.98-1.91 5.72m-.05-10.67 1.37-3.02m2.21 8.52-1.99 6.07m.45-12.27-.59 1.5m7.53-2.89-1.46 2.98-1.74 4.05-3.09 7.48m.22-14.96-.34.67-.53 1.17m8.32-.64-.72 1.58-.73 1.61-1.69 4-3.35 8.19m2.67-15.75-.32.67-1.26 2.79-1.42 3.88m6.83-6.96-.13.27" style="stroke:#3c3c3c;stroke-width:.494" id="Actor_.17"/><g style="stroke:#3c3c3c;stroke-width:.494" id="Actor_.18"><path d="m173.75 76.37-.27 6.68-.55.71-1.5.42-1.87-.04-1.51-.48-.57-.74.2-6.68.58.71 1.53.47 1.89.04 1.51-.4.56-.69-.61-.71-.91-.27m-4.55.85.58-.68 1-.26"/><path d="m172.34 72.27-.14 3.88-.08.46-.91.29-1.2-.06-.79-.38.13-3.88.79.36 1.21.07.91-.29.08-.45-.78-.62-1.03-.1-.69.28.33.39 1.03.1.7-.28-.34-.39m-1.72.18-.4.29-.09.46"/></g><g style="stroke:#3c3c3c;stroke-width:.494" id="Actor_.19"><path d="m164.89 188.46-.27-.31.04.06.23.25.36.27.43.21.48.15.51.08-.5-.04m-1.55-.98-.18-.34-.07-.36.01-.33.52 1.01 1.27.63 1.53.01 1.19-.62.4-1.01-.05.73-.36.61-.33.26-.4.21-.46.15-.5.07h-.52"/><path d="m165.68 188.94-.4-.16-.14-.13m-.76-1.53.41-.99.82-.43m.11 3.26.59.23.14.01.63.05.72-.16"/><path d="m168.55 188.74-.43.25-.37.11-.69.16-.73-.06-.62-.25m2.29-3.66-.82.36-.98-.17-.56-.59-.08 2.38.56.59.97.16.82-.35.19-.67.09-2.37-.19.66-.09 2.38"/><path d="m166.21 184.71.05-.54.71-.22.67.32-.05.55-.71.22-.67-.33"/><path d="m165.64 184.89.19-.66.83-.35.97.16.56.59m-.5 4.47-.51.11m.96-3.36.61.29.54 1m-.55 1.45.09-.06.05-.05"/></g><g style="stroke:#3c3c3c;stroke-width:.494" id="Actor_.20"><path d="m54.42 73.13-.19-1.3m10.62-1.76-.02.06-1.39 1.82-.08.06-.12.05-.15.04-4.89.83-.17.02h-.16l-.14-.03-3.39-1.02-.09-.04-.04-.06.2 1.3.03.06.09.04 3.39 1.03.13.03h.16l.17-.02 4.88-.84.16-.03.12-.06.07-.06L65 71.42l.02-.06-.17-1.29-.04-.06-.09-.04-1.25-.36"/><path d="m55.36 70.4-1.12 1.34-.03.06"/><path d="m55.51 71.49.03.12.31.29.62.28 1.54.26 1.22-.01 1.27-.14 1.47-.37 1.09-.51.56-.59-.07-.56-.13-1.05-.27-1.29-.31-1.18-.33-1.07-.1-.3-.71-1.8-.77-1.4-.78-1.02-.76-.68-.28-.16-.57-.27-.21-.04h-.22l-.17.02-.16.04-.17.06-.13.08-.58.45-.54.78-.46 1.12-.35 1.48-.33 2.19-.03 1.1.02 1.21.09 1.31.14 1.44.07.21m2.62 2.77-.18-1.31m5.53.39-.18-1.3"/></g><g style="stroke:#3c3c3c;stroke-width:.494" id="Actor_.21"><path d="m123.7 127.1.07 1.66-.01.12-.09.11-3.74 3.24-.15.09-.21.07-.23.02-6.91.07-.22-.01-.19-.07-.14-.09-2.92-3.17-.05-.11-.12-1.66.06.11 2.93 3.15.13.09.19.06.23.02 6.92-.07.23-.02.21-.07.16-.09 3.75-3.22.09-.11.01-.12-.07-.12-1.97-1.96m-12.87 2.35.02-.12.1-.12 1.75-1.41"/><path d="m110.95 128.46.19.33 1.33.88 1.92.51 2.22.05 2.15-.41 1.76-.8 1.09-1.07.26-1.16-.46-3.75-.59-2.88-.76-2.34-.88-1.83-.31-.46-.87-1.23-.89-.77-.28-.19-.71-.26-.24-.08-.36-.03-.41.06-.31.14-.71.36-.69.78-.47.54-.79 1.42-.67 1.89-.49 2.39-.27 2.92-.05 1.02-.01 3.44.3.53m1.16 3.97-.1-1.68m7.66 1.61-.08-1.68m4.18-1.86-.07-1.66"/></g><g style="stroke:#3c3c3c;stroke-width:.494" id="Actor_.22"><path d="m158.75 51.45.02-1.14m8.28-.96-.45 1.3-.04.04-.08.04-.11.02-3.8.48h-.27l-.13-.02-3.28-.84-.09-.04-.06-.04v-.04l-.02 1.14v.04l.06.04.09.03 3.28.85.12.02.14.01.13-.01 3.79-.48.12-.02.08-.03.04-.05.45-1.3.03-1.14-.01-.04-.05-.04-.1-.03-.61-.16"/><path d="m159.58 48.85-.07.01-.12.02-.08.04-.04.04-.53 1.29"/><path d="m159.52 49.77.08-1.33.11-1.13.14-1.04.17-.95.42-1.62.5-1.28.55-.96.56-.66.14-.13.48-.31.12-.04.12-.02.14-.01.18.01.2.03.15.06.49.34.5.62.12.23.51 1 .44 1.32.32 1.43.16 1.18.1 1.05.05 1.14.01 1.25-.48.46-.67.24-.88.17-1.3.07-1.31-.09-1.12-.25-.74-.36-.26-.42m2.84 1.46-.02 1.15m4.15-.53.03-1.14"/></g><g style="stroke:#3c3c3c;stroke-width:.494" id="Actor_.23"><path d="m95.42 91.44-.16.13-.11.02-.78-.04-4.93-.74-.09-.04-.33-.57-.02-.12-.14-.9.05-.94.01-.12.24-.96.04-.09.14-.29.19-.28 2.03-2.21-1.95 2.14-.11.15-.13.29-.15.16"/><path d="m89.02 90.17-.15-.95.06-1.11.26-1.02m.5-.74-.22.3-.19.41m2.29-2.78-.01.01.51-.56.15-.07"/><path d="m92.16 83.71.22-.17.21-.03 4.95.35.28-.01.1.05.11.07.09.1"/><path d="m95.4 91.44-.1.08-.03.02-.41-.03-.03-.02-.31-.55-.02-.06-.15-.94v-.09l.05-1.11.02-.09.24-1.03.04-.08.37-.7 2.4-2.68.11-.11.32-.13.03.01.15.13"/><path d="m98.68 84.12-.7-.07-.21.03-.21.17-2.38 2.66-.21.3-.18.41-.26 1.05-.07 1.15.14.98.32.58.41.05.44.04"/><path d="m103.47 91.6-.46.56-.21.2-.11.02-6.3-.66-.44-.05-.1-.05-.34-.61-.02-.12-.14-.98.07-1.15.26-1.05.18-.41.27-.43 2.31-2.53.16-.16.22-.17.22-.04 6.22.62.1.04.09.07.26.3.04.13.12.35.08.45.04.51-.01.56-.06.56-.1.54-.14.49-.17.4-.19.3-1.91 2.38-.39.47-.18.17-.03.02-.39-.03-.02-.02-.3-.55-.01-.06-.14-.94.01-.09.05-1.12.02-.1.23-1.03.03-.08.36-.7 2.28-2.71.11-.11.3-.13h.03l.29.29"/><path d="m95.51 90.99-.15-1.03.07-1.21.28-1.11m.02-.06.36-.65m-.08.24-.2.44m2.71-3.35-1.97 2.14m1.05-2.52-.23.18m5.22 7.93-.35-.65-.09-1.22.2-1.32.42-.91 1.14-1.35.19-.16.18-.03.17.1.13-.15.13-.45.15-.38.18-.27.45-.14.33.66.08 1.19-.19 1.28-.4.89-.18.16-.18.03h0l-.17-.1-.13.16-.12.45-.16.38-.18.28-1.13 1.38-.47.17m-.38-2.25 2.24.23m-2.07-1.58.18-.41m2.09 1.35-2.08-.21"/><path d="m102.3 89.15.05.01.5-.1.36-.86-.3-.48m1.87 1.45-1.9-.19m1.57-2.53-.39-.04.28.45-.36.85-.5.1-.54-.05m1.95 1.48.15.01m-.21-4.45.22-.18m.42 4.46-.04.04m.08-.13-.05.11-.06.07m.3-4.19.02.04m-.5-.2-.2.17m.4-.2.18.11.11.1"/></g><g id="Actor_.24"><g style="stroke:#3c3c3c;stroke-width:.494"><path d="M53.57 79.61v-.59l.34-.6-1.23 1.32-.3.53-.09.52 1.28-1.18 2.73.35 2.37.59 1.91.8.94 1.76 1.37-.21 1.3-.29 1.22-.36.19.11 2.01-.93 1.26-1.05.4-1.07.98 7.85-.51 1.2-1.48 1.15-2.26.97-2.8.66-2.97.26-2.76-.18-2.2-.58-1.37-.92-.38-1.13-1.2-7.55-.03-.25 1.57.1.06.25-1.6-.1.06.27.13.27.19.26 1.26.83 2.02.56 2.56.22 2.8-.14-.43-.28"/><path d="m70.18 87.31.12.26-.51 1.2-1.47 1.15-2.27.98-2.79.66-2.97.25-2.76-.17-2.2-.59-1.37-.92-.38-1.13.05-.09"/><path d="m53.58 89 .07.76.19 1.23.07.27.12.27.18.25.24.24.29.23.34.21.7.4M60.7 82.6l-.2.19-2.09.03-1.85-.22-1.47-.45-.93-.63-.1-.13-.08-.12-.06-.13"/><path d="m60.58 82.71-1.73-.72-2.31-.58-2.64-.35m.27.04-.16.22m-.1-2.9.66-.59 1.9-.26m-1.39 14.89-.19-1.24 1.46.57 1.9.35 2.18.09 2.29-.17.18 1.24-.14.32m-5.82-13.78-.54-.3-.17-.73-.12-.84.17.72 1.02.55 1.67.26 1.98-.08 1.89-.41 1.42-.66.66-.76.11.85-.66.76-1.41.66-1.89.41-1.98.09-1.67-.27-.48-.25m1.1-3.18-1.23.55-.7.76m1.58 3.73-.21-1.45"/><path d="m57.68 74.16.59 4.1.87.37 1.4.04 1.39-.3.84-.53-.02-.54-.5-3.72m-.91 9.73.18-.2m-.94-1.76 1.57-.21 1.49-.32 1.34-.44.43 1.87M62.9 93.3l1.36-.22 1.31-.32 1.21-.38-.14.31"/><path d="m64.98 80.38-.03-1.2.59-1.22 1.18-1.18-.92-.39-1.15-.27-1.33-.15-.72.22 1.08.16 1.03.53.21.71m.36 4.1.06.03.1.3m-.1-.3 1.37-.74.83-.8.23-.81-.39-.74-.12-.11-.15-.11-.15-.11.84-.62-.13-.22-.84.61.02.17-1.14 1.16-.57 1.2.01.52m.45 1.24-.24-.31m.07-2.05-.19-1.43m1.54 13.81-.17-1.24 1.71-.78 1.24-.88.67-.94.07-.91v-.06m-3.34-9.27-.13-.23"/><path d="m67.64 79.84-.15-.38-1.19-.66m.42-2.02.95.68m.13.22.38.2.33.21.27.24.49.98m1.03 8.32.16 1.22-.53.68"/></g><path d="m62.76 93.62-.16.39-.6-.68-.81-.43-1.3-.14-1.45.18-1.78.42-.88-.5m4.76-.03-.08-.6m2.14 1.78 1.37-.21 1.3-.32 1.19-.4.18-.39m3.29-3.16-.31.4" style="stroke:#3c3c3c;stroke-width:.494"/></g><g id="Actor_.25"><g style="stroke:#3c3c3c;stroke-width:.494"><path d="m66.69 91.7.05.09m1.41-.57-.15-.08-.12-.11-.07-.11-.03-.09-.03-.21"/><path d="m68.09 91.2.66.14.99.01 2.73-.37 3.39-.74 3.66-.83 4.25-.89 4.03-.54 1.15.02m-20.53 2.3.04.11.31.17.58.1m-.29-.85.04.03m-.01 0 .99.13 1.08-.08 2.91-.6 3.64-1 4.09-1.15 4.26-1.07 4.15-.7h.34"/><path d="m69.26 90.68 1.12-.07 2.64-.48m-.96 2.23.76-.1 3.42-.74 3.84-.88 4.01-.81 3.76-.45 1.03-.04"/><path d="m72.96 90.14 3.42-.88 3.84-1.04 4.16-.98 3.96-.63 1.13-.02m-1.13 1.4.19-.03.43-.02"/></g><path d="m66.74 91.79.06.09.37.33.42.23.95.21 1.12.01.36-.04 2.04-.26" style="stroke:#3c3c3c;stroke-width:.494"/></g><path d="m87.91 94.22.35.25.47.21.57.16.65.11.7.04.74-.02.73-.09.7-.14.64-.2.56-.24.45-.27.33-.3.2-.32.06-.31-.09-.31-.22-.28-.35-.25-.47-.2-.57-.16-.64-.09-.05-.01-.64-.03-.72.02-.71.08-.69.13-.64.19-.56.24-.46.27-.34.3-.21.31-.07.31.07.31.21.29" style="stroke:#3c3c3c;stroke-width:.494" id="Actor_.26"/><path d="m199.55 105 .01.32.16.37.3.35.45.33.56.29.66.25.73.18.78.12.79.05.77-.02.73-.1.64-.16.55-.23.42-.28.28-.32.13-.35-.03-.36-.17-.36-.32-.35-.45-.33-.57-.28-.65-.24-.73-.18-.76-.11-.77-.05-.76.02-.71.1-.64.15-.54.22-.42.27-.29.32-.15.34v.04" style="stroke:#3c3c3c;stroke-width:.494" id="Actor_.27"/><path style="stroke:#000;stroke-width:.6" d="m142.51 129.54.31 30.33m-.66-63.9v-.02m-15.75 70.49-.19-4.71M142 80.77l-.15-14.07"/><path style="fill:#000" d="M140.49 80.77h3.01l-1.47 2.76z"/><path style="stroke:#000;stroke-width:.6" d="m169.49 111.25-2.56 73.24m-43.91-98.9-.59-14.47"/><path style="fill:#000" d="M121.51 85.59h3.01l-1.39 2.74z"/><path style="stroke:#000;stroke-width:.6" d="m149.43 120.37-.11 71.92m20.57-92.53.55-15.6"/><path style="fill:#000" d="M168.38 99.76h3.02l-1.6 2.67z"/><path style="stroke:#000;stroke-width:.6" d="m149.45 105.89.02-16.05"/><path style="fill:#000" d="M147.94 105.89h3.02l-1.52 2.64z"/></svg>