<svg xmlns="http://www.w3.org/2000/svg" width="1122.52" height="793.701" viewBox="0 0 297 210" stroke-linejoin="round" stroke-linecap="round" fill="none" fill-rule="evenodd"><script type="text/ecmascript"><![CDATA[
if(typeof(top) != "undefined")
{
	top.ShowPaper = ShowPaper;
}
function ShowPaper()
{
  var svgDocument = getDocument();
  var paper = svgDocument.getElementById("paperID");
  if(paper)
  {
    paper.setAttribute("transform","scale(1)");
    paper.setAttribute("opacity","1");
    paper.setAttribute("visibility","visible");
  }
  var svg = svgDocument.getRootElement();
  if(svg)
  {
    svg.setAttribute("width","307.000mm");
    svg.setAttribute("height","220.000mm");
    svg.setAttribute("viewBox","-5.000000 -5.000000 307.000000 220.000000");
  }
}
]]></script><path style="fill:none" d="M296.99 210H.05V.05h296.94z"/><path style="fill:#5a5a5a" d="m164.34 40.91 1.33 2.64.25 1.27.1.49.07.5.09.67.08.82.08 1.67.75.31v1.18l-.43 1.41-.43.11-1.34.15-.65.09-1.33.17-1.22-.07-2.49-.65-.46-.23-.01-1.17.54-1.36.28.5.01-.63.24-2.31.56-2.71.45-1.08.18 3.07.09.04.44.42.55.14h.69l.86-.31.15-.22.1-3.48.15-1.78zm-47.13 72.6.67.65 1.16 1.49.98 1.83.49 1.5.59 2.25.1.49.07.35.09.47.08.35.09.66.07.65.1.67 1.64 1.7.42.6-.01 1.84-1.15 1.03-2.71 2.3-.31.09-3.64.09h-3.82l-.37-.16-.65-.83-2.16-2.31-.2-1.93 1.86-1.64.08-2.26.36-3.42.54-2.27.59-1.56.91-1.57.82-.84.17-.38.6-.17.32-.17h1.23z"/><g id="Actor_.0"><g style="stroke:#3c3c3c;stroke-width:.494"><path d="m143.34 81.65.85.28.41.63-.59.61-1.36.37-1.6-.04-1.23-.41-.38-.63.07 4.98m1.16-5.76-.63.17-.6.61"/><path d="m140.68 82.57.48.37.98.11.91-.2.3-.4-.03-3.28-.3.4-.92.2-.98-.12-.48-.36.04 3.28"/><path d="m140.64 79.29.31-.4.34-.3.84-.12.69.22-.15.35-.84.13-.69-.22.15-.36m1.53.1.5.48m1.31 8.38-.03-4.99"/></g><path d="M144.63 87.55v.67l-.58.63-1.34.37-1.59-.03-1.22-.43-.38-.65-.01-.67" style="stroke:#3c3c3c;stroke-width:.494"/></g><g style="stroke:#3c3c3c;stroke-width:.494" id="Actor_.1"><path d="m157.95 149.5.93 1.23.31-16.44-.97-1.18-.27 16.39m.93 1.23 2.26.17 1.29-1.07.41-16.4-1.33 1.02-.37 16.45"/><path d="m158.22 133.11 1.34-1 2.3.15.98 1.17"/><path d="m160.62 132.73-.73.11-.36.36.23.41.68.21.73-.11.36-.37-.23-.41-.68-.2-.02 1.06m-1.41.5 2.32.16"/></g><g style="stroke:#3c3c3c;stroke-width:.494" id="Actor_.2"><path d="m100.52 47.31.08.29.21.55 1.24.38 1.82.04 1.67-.31.88-.53.01-.48-.27-.45-.34-.41-1.08-.62-.84-.2-1.13.06-.77.28-1.02.79-.46.61.26.46.98.33 1.46.11 1.52-.14 1.18-.35.51-.47"/><path d="m102.76 57.49.87.23 1.18-.06.79-.33-.25.25-.65.27-.96.05-.7-.19-.28-.22-.05-.39-.69-8.59m2.1-2.29-.04-.53.51.31-.69.33-1.2.01-.51-.32.7-.32.04.64m-.04-.64 1.19-.01m-1.2.77 1.14-.06m1.58 10.93-.59-8.97"/></g><g style="stroke:#3c3c3c;stroke-width:.494" id="Actor_.3"><path d="m159.87 36.87.01-.27.44.38 1.05.27 1.37.09 1.31-.12.91-.29.25-.38v.43l-.56.44-1.37.25-1.66-.04-1.3-.3-.45-.46"/><path d="m159.88 36.6.27-.38.61-.59.5-.31.56-.23 1-.05.85.17.91.57.63.77m-5.03-.36.58-.55m.44 10.33.21.21.72.15.85-.04.48-.22.26-.23-.59.26-1.04.06-.89-.19-.21-.33.13-8.12"/><path d="m161.95 35.61.01-.46 1.08-.01-.01.53m-.71.1 1-.04"/><path d="m161.96 35.15-.47.27.6.25h.31l.78-.01.47-.26-.61-.26m.68 10.7.19-8.29"/></g><g style="stroke:#3c3c3c;stroke-width:.494" id="Actor_.4"><path d="m184.38 47.78.11.1 1.51.37 1.84.04 1.45-.31.49-.53-.01-.47-.17.46-.92.35-1.42.14-1.53-.1-1.22-.33-.59-.46-.04.28.5.46m-.46-.74.2-.46.69-.64 1.21-.58 1.08-.06.99.2.96.62.72.86"/><path d="m185.24 48.06-.48 8.75.3.39 1.02.23 1.14-.07.58-.32-.3.25-.47.26-.93.06-.82-.19-.22-.22m2.31-11.78.74.31-.45.33-1.19.01-.73-.32.45-.32 1.18-.01-.04.64m-1.14-.63-.03.51m1.68.19-1.1.06m1.06 10.85.53-8.85"/></g><g id="Actor_.5"><g style="stroke:#3c3c3c;stroke-width:.494"><path d="m124.36 86.29 1.08.4.29.67-.72.65-1.46.38-1.65-.05-1.18-.46-.28-.68.23 5.11m1.06-5.89-.56.14-.73.64"/><path d="m122.36 87.75-.5-.16-.1-.44-.14-3.35.1.43.82.26 1.06-.07.68-.36.13 3.36-.68.36-1.05.07-.32-.1m-.25-4.04.79.18.82-.2.03-.39-.79-.17-.81.2-.04.38m-.49.09.53-.47m2.13.73-.11-.43-.42-.33m1.98 4.06.19 5.11"/></g><path d="m125.92 92.47.02.69-.71.66-1.45.39-1.63-.06-1.18-.46-.27-.7-.03-.68" style="stroke:#3c3c3c;stroke-width:.494"/></g><g id="Actor_.6"><g style="stroke:#3c3c3c;stroke-width:.494"><path d="m157.69 69.4.31-.02.95-.09m.08.22.08-.02.72-.06.63-.08.5-.24"/><path d="m158.76 69.31.65-.21.28-.22"/><path d="m159.55 68.99.17-.24.11-.3.03-.37v-.37m1.16 1.04-.05.13-.08.13-.18.22"/><path d="M161 67.87v.2l.02.14-.01.15-.03.3-.05.23m1.04.69-.35.16-.14.08-.37.14"/><path d="M161 67.9v.1l-.02.39-.06.36m1.86 1.64-.13.12-.2.16-.46.16m.32-.15-.39.18m.18-2.06-.03.13m.08-1-.01.2-.02.54-.05.43-.05.23m.03.05-.2.25m.26-.88.01-.2m.93 1.33h0m.26-1.93v.35l-.01.16-.02.31-.02.26-.01.07"/></g><path d="m160.93 68.89-.03.11m-.07.09.09-.32v-.02m1.15.18-.08.38-.19.34m.22-.32-.03.11-.01.03m1.07.41-.16.33-.11.18m.27-.51.1-.26.08-.36.02-.16" style="stroke:#3c3c3c;stroke-width:.494"/></g><g id="Actor_.7"><g style="stroke:#3c3c3c;stroke-width:.494"><path d="m150.9 106.2 1.13.47.42.87-.74.82-1.61.45-1.87-.09-1.39-.6-.39-.87.02 5.58m-.02-5.58.75-.81.79-.22"/><path d="m148.82 108.08-.83-.41v-3.68l.83.4 1.21.02.86-.39.02-.57-.02 3.67-.01.57-.86.4-1.2-.01"/><path d="m147.99 103.99.03-.56.81-.56-.42.44.62.4 1.05-.06.41-.45-.62-.39-1.04.06m1.04-.06 1.04.64m1.54 4.09-.04 5.58"/></g><path d="M146.47 112.83v.74l.39.89 1.38.62 1.84.09 1.6-.47.73-.84v-.74" style="stroke:#3c3c3c;stroke-width:.494"/></g><g id="Actor_.8"><g style="stroke:#3c3c3c;stroke-width:.494"><path d="m155.74 64.89-.08.24v.39l.37.67-.01 1.08.45.39.63.36.77.31.44.38"/><path d="m155.66 65.13.55.86 1.33.75 1.96.56 2.35.28 2.45-.03 2.23-.34 1.73-.6 1.02-.78.2-.86-.02.34-.06.67-.57.64-1.04.56-.03 1.09-.39.15-.43.13-.46.12-.48.11-.26.04-.25.05-.53.07-.31.32"/><path d="m159.27 59.21.15.19 1.56.29 1.73.12 1.73-.07 1.57-.24.24-.05.23-.07.22-.06 1.39.15.11-.19.64-.31.48-.35.3-.36.03.09.02-.57-.18 6.82-.2.87-1.02.78-1.73.59-2.23.34-2.45.03-2.35-.28-1.96-.55-1.34-.75-.54-.86.06-7.04.4-.76 1.09-.66 1.64-.5.26-.05m-3.08 11.54-.02-.03.63.56"/><path d="m155.73 57.73.35.77.05-.09.46.36.62.33.77.3.75-.12"/><path d="m156.13 58.41.97-1.41.46.41.71.38.93.31-1.22 1.3.12.19 1.96.44 2.27.21 2.3-.06 2.1-.31.49-.12.46-.13.41-.15m-3.13 9.47.03-1.1-1.85.13-1.9-.07-1.8-.25-1.55-.41-.02 1.09M157.1 57l1.6-.68.42-.28m-.33 3.44.63-.08"/><path d="m159.38 59.35 2.36-.19 2.55-.03 2.45.14m-7.54-1.17 2.54-.21 2.62-.03 2.61.15.79-.33.55-.39.27-.42-1.88-.64-.26-.13"/><path d="m159.12 55.66-.01.75.23.55.9.47 1.42.3 1.65.06 1.53-.18 1.11-.39.47-.53.02-.74-.47.52-1.11.39-1.54.19-1.64-.07-1.42-.3-.91-.47-.23-.55.5-.51 1.11-.38.19-.02"/><path d="m164.74 52.1-.09 3.55-.03.4-.74.32-1.17.09-1.13-.15-.68-.35.08-3.91m-.06 2.64-.41.04-.13.16m2.64 4.26.03-1.27m.83-1.51.1-4.18"/><path d="m164.67 54.82.59.12.92.46.26.55m.53 2.06 1.23 1.27-1.36-.15-.14.19"/><path d="m166.41 55.89 1.37.37 1.25.62.64.72v.18m-1.91 10.49-.32.32m2.18-10.33-1.04-1.39m.9 8.1-.06-.08"/></g><path d="m156.65 67.83.78.69.63.35.8.31.63-.14m-1.18-.33.55.47m2.09-.39h-.04m1.19.03h0m1.15.29.12.05.88.49.4-.39m-.4.39.54-.07.51-.08.49-.11.45-.12.42-.14.38-.15.4-.39" style="stroke:#3c3c3c;stroke-width:.494"/></g><g style="stroke:#3c3c3c;stroke-width:.494" id="Actor_.9"><path d="m236.47 90.2.21-1.42m-.58-2.38-.2 1.41.47 2.28.05.08.11.07.15.06 5.12 1.47.18.04.19.01.17-.01 4.58-.87.13-.04.07-.07.23-1.42-.08.06-.13.04-4.58.86-.17.02-.19-.01-.18-.04-5.14-1.47-.15-.05-.11-.08-.05-.07-.47-2.27.01-.07.08-.06.13-.04 1.01-.18"/><path d="m237.25 87.78.44.62.88.52 1.18.44 1.78.34 1.8.07 1.55-.23 1.04-.49.4-.67.16-1.72.1-1.43.04-1.32-.03-1.21-.21-2.1-.41-1.69-.54-1.28-.63-.91-.18-.24-.58-.43-.16-.08-.17-.06-.18-.03-.25-.02-.28.02-.21.07-.75.33-.82.67-.84 1.06-.83 1.47-.32.61-.76 1.65-.38 1.15-.35 1.27-.32 1.4-.35 1.97.18.25m4.83 4.04.21-1.44"/><path d="m247.35 89.41.01-.08-.64-2.28-.05-.07-.11-.07-.1-.04m.85 2.57-.23 1.43"/></g><g style="stroke:#3c3c3c;stroke-width:.494" id="Actor_.10"><path d="m158.16 78.37-.07.02-.3-.03h-.23l-4.82-.4-1.06-.1-.47-.09-.07-.02-.88-.51-.07-.05-.56-.82-.04-.07-.13-.95v-.07l.34-.86.04-.07.74-.57.07-.03.98-.16.07.01 1.07.09 4.85.45.3.05.68.24.07.03.75.69.01.01.04.06.36.92.01.07-.13.94-.02.07-.58.74-.05.04-.87.36"/><path d="M149.84 76.15v-1.12l.71-.86 1.13-.25 2.95.27.48.1.44.2.39.29.34.04.39-.23.45-.12.48-.02 1.14.46.69.98-.02 1.14-.72.85-1.15.24-.47-.1-.44-.2-.39-.3-.33-.03-.39.23-.45.12-.47.01-2.93-.27-1.13-.45-.7-.98"/><path d="m160 72.16-.08-.08-.52-.22-.54-.11-5.8-.52-.57.03-.52.14-.81.61-1.34 2.27-.39.94.13 1.05.01.03.61.9.96.57.54.11 5.89.53h.53l.55-.15.47-.26.38-.36.27-.44 1.18-2.32.14-.49.01-.53-.12-.52-.25-.48m-10.04 1.01.48-.13"/><path d="M151.21 71.98v-.02l.21-.38.62-.63m.73 3.82v.8l-.32.27-.41.06-.3-.03-.42-.43.01-.8.41-.71m.31.38.2-.34"/><path d="m161.05 74.52.05-.07.03-.06.12-.93-.01-.07-.35-.91-.04-.06-.01-.01-.74-.67-.06-.04-.66-.23-.31-.05-4.76-.43-1.05-.09h-.07l-.96.15-.07.04-.72.56-.04.07-.07.16"/><path d="m161.1 74.06.02-.09.01-.48-.11-.48-.23-.45-.33-.4-.42-.31-.48-.21-.5-.11-5.81-.51-.5.02-.48.13-.76.57v.01"/><path d="m151.57 71.42 1.07-1.6.75-.56.47-.13.5-.02 5.74.49.07.02m-7.4 5.95.83-1.48m.91.35-1.02-.09-.03-.01m1.19-.15-.4.72v.79l.42.43.3.03.41-.05.32-.28.01-.79m-.42 2.74 1.75-3.25m-1.34 1.3.55-1.02m-1.26-.23.15-.28m.77 3.19 1.62-3.04m-1.29 3.07.95-1.76m.09-1.3-.02.01-.44.12-.16.01m.99 1.8-.8 1.52m.69.4.52-.01m-.48-3.86-.39.72-.01.8.43.43.29.03.42-.05.32-.28.01-.8m-.72-.46.11-.21m-.44-.38.52.11m-.48-.33.55.11m.78 3.8-.43.24-.44.23m.54-2.31.4-.77m-.44-.75.43.31m.3 2.72.24-.42m.14-.46.01-.49m-.12-.49-.24-.46m1.37-2.42-.01-.03-.35-.41-.45-.33m-.28-.68-.55-.11"/><path d="m160.09 69.61.5.1.47.2.06.05"/><path d="m161.06 69.92.41.31.32.37.23.47.12.47-.01.48-.14.46-.7 1.71-.11.24-.19.32"/><path d="m161.29 74.19.03-.25.01-.52-.01-.57"/></g><g style="stroke:#3c3c3c;stroke-width:.494" id="Actor_.11"><path d="m126.79 190.33-.46-1.81-.77-18.09 2.1-1.22 2.58.51.5 1.74.6 18.12-2.03 1.29-2.52-.54-.76-18.15 2.6.52.68 18.17m-3.75-20.44.47 1.75"/><path d="m127.38 170.38.86-.21.81.24.28.56-.41.54-.88.21-.81-.24-.27-.56.42-.54.04 1.15m1.21 1.17 2.11-1.24"/></g><g style="stroke:#3c3c3c;stroke-width:.494" id="Actor_.12"><path d="M188.45 101.25v-.03l-.03-.58.01-.06v-.01l.05-1 .01-.08v-.02l.11-1.18.02-.08v-.01l.15-1.09.01-.07.01-.01.14-.52.04-.19.64-2.49.14-.54.01-.03h.01l.11-.22"/><path d="m195.69 102.07.03.09-7.1-.74-.16-.14-.06-.16-.03-.23v-.35l.02-.47.04-.55.05-.63.06-.58.08-.6.08-.53.08-.45.08-.33.82-3 .06-.19.06-.05.09-.15.12-.02 6.98.69-.04.05m-7.88 2.51-.08.36m6.69 5.23.01-.38"/><path d="m195.72 102.16.16-.09.06-.09-.03-.08-.01-.22.01-.36.03-.47.04-.55.06-.6.07-.62.02-.19.05-.4.07-.54.08-.45.06-.34.68-3.02.06-.2.04-.05.99.1-.04.05-.05.2-.67 3.02-.06.34-.07.45-.08.54-.03.3-.04.3-.07.61-.05.61-.05.55-.03.46-.01.36.01.23.02.08.02.01m-1.24-1.16.04-.59"/><path d="M197.12 93.76h-.01l-.09.22v.03l-.12.54-.6 2.51-.04.14-.07.66-.02.08-.13 1.03-.01.09-.01.08-.11 1.11-.01.09-.01.08-.06.93v.06l-.01.06v.53l.01.02v.02l.06.01m.05-.07 1 .11m-1.05-3.06-.07.67m.23-1.89-.08.58m.16-1.07.07-.36m7 5.71.01.08-5.63-.42-.46-.02-.14-.14-.06-.16"/><path d="m198.24 93.87-.08.22h-.01l-.01.03-.12.55-.51 2.51-.03.19-.12.53-.01.01-.01.07-.14 1.09v.02l-.02.08-.11 1.19-.01.01-.01.09-.06.99-.01.02v.64l-.01.01v.02m.65-5.04-.07.37m-.38-3.58-.07-.16-.11-.05"/><path d="m198.16 93.99.09-.15.12-.02.49.09 5.46.69-.03.05-.04.19m-.88 7.8-.03-.01v-.02l-.01-.02.02-.49.01-.06v-.06l.07-.85.02-.08v-.09l.11-1.01.01-.09.01-.09.11-.95.02-.08v-.07l.1-.65.01-.05.11-.62.41-2.41.01-.11v-.08l.07-.07h.02m-1.24 7.76.02-.36"/><path d="m203.71 101.09-.21 1.22-.04.2-.03.06-.07.09-.15.09m.05-1.14.05-.55"/><path d="m203.54 101.09.13.01-.12.67-.06.11.06-.88.14-1.34.14-1.02.12-.66-.16 1.69m-.42.78.07-.62m.14-1.14-.07.54m.16 1.87v-.02m.16-1.46.1.01.01-.17m-.01.17-.02.06m.16-1.65.14-1.51-.21 1.14-.18 2.01m.14.02.04-.23m-.3-1.58-.06.34m.54-.16.01-.07m.15-1.36.03-.26.06-.88-.05.08-.12.65-.16 1.82m.11.02v-.06"/><path d="m204.32 94.6.1.05.07.16v.3l-.05.76-.08.77m.1-1.78-.03.18"/></g><g id="Actor_.13"><g style="stroke:#3c3c3c;stroke-width:.494"><path d="m203.54 101.05 2.2.52 4.8 1.42 9.75 3.75m-5.46-3.62-3.57-1.48-4.51-1.54-2.07-.52-.84-.14"/><path d="M230.58 108.33h-.79l-1.28-.23-3.46-1.08-9.05-3.44-5.03-1.96-4.84-1.51-2.44-.46m26.28 7.96h-.07l-1.22-.29-3.32-1.22-4.13-1.8-4.61-2.04-4.78-1.98-4.65-1.6-3.22-.66m1.42.29-1.29-.33m.13-1.36 2.42.49 4.74 1.69 4.87 2.13 4.71 2.23 4.23 1.97 3.4 1.37 1.02.28m-18.37-3.52-.81-.3m15.38 5.92-1.29-.44-5.21-2.08"/></g><path d="m225.82 108.88.61.2 1.7.48 1.53.22h.93" style="stroke:#3c3c3c;stroke-width:.494"/></g><path d="m131.78 106.51-.17-.23v-.09m11.31.12.01-.15" style="stroke:#3c3c3c;stroke-width:.494" id="Actor_.14"/><g style="stroke:#3c3c3c;stroke-width:.494" id="Actor_.15"><path d="m54.97 96.59-2.18-.8-1.39-1.08-.51-1.37-.26-1.63.51 1.36 1.4 1.07 2.18.79.25 1.66 2.79.45 3.17.06 3.55-.07 3.46.1 3.35.28 16.28 1.79 4.67.71 4.3 1.06 3.84 1.41 3.29 1.72 2.66 2.03 7.87 7.34M50.63 91.71l.52-1.44 1.46-1.38.88-.49"/><path d="m54.72 94.93 2.79.45 3.18.06 3.57-.07 3.47.1 3.35.28 16.32 1.77 4.69.71 4.31 1.05 3.85 1.4 3.3 1.71 2.66 2.01 9.27 8.57m-36.8-24.93-2.99-.39-2.84-.54-2.7-.7m4.5 5.46-.33.35.09.36.85.09.75-.29 5.7.61.11.38.85.09-.15-1.33-5.67-.6.07-.15m-.07.15.11.95m5.71.98.75-.29.8-.86.05-.09.02-.11-.06-.1-.5-.18-.7.05-.51.25m15.93 9.54-.13-1.67m3.71 54.6 1.29 2.45 2.67 2.24 3.77 1.61 4.54.8 4.86-.09 4.7-.97 4.06-1.74 3.09-2.35 1.81-2.69.44-2.79-.01-2.79.49-2.71.97-2.61 4.93-10.49 2.34-4.04 2.37-3.65 2.42-3.25 2.54-2.87 2.69-2.48 2.88-2.1 3.12-1.71 3.41-1.31 3.84-.94 4.36-.64 4.86-.36 5.34-.13 5.8.09 6.24.28 6.67.44 7.06.58 17 1.85 3.97.53 3.95.74 3.88.93 3.83.75 3.87.22 3.56-.33 2.91-.85 2.01-1.28.95-1.58-.31 1.77-.94 1.6-2.01 1.29-2.9.85-3.55.33-3.86-.22-3.82-.75-3.87-.94-3.93-.74-3.96-.54-16.95-1.86-7.04-.59-6.65-.44-6.22-.28-5.78-.09-5.32.13-4.85.36-4.35.65-3.82.95-3.42 1.33-3.1 1.71-2.87 2.11-2.68 2.49-2.53 2.89-2.43 3.3-2.35 3.65-2.33 4.07-4.91 10.54-.97 2.63-.49 2.73.01 2.81-.43 2.8-1.81 2.71-3.06 2.35-4.06 1.75-4.67.98-4.85.09-4.52-.81-3.76-1.61-2.66-2.25-1.29-2.47-.17-2.04-.06-2.6 1.13-2.54 2.18-2.3.6-.53m14.7-56.24-1.04.07-4.82.1-5.16-.08-5.03-.2m3.83 8.81.06.51-.76.42-1.14.09-.84-.31-.06-.5.75-.41 1.15-.09.84.29.03.53m2.34-4.61-.01-.12-.07-.1-.53-.17-.72.04-.47.26-.68.88.17.4.89.1.71-.31 9.9 1.05.21.41.89.09.69-.31.65-.99-.02-.12-.08-.1-.55-.19-.71.06-.46.25-9.85-1.04.04-.16m-.97-.3.09 1.42m.84-.96.06.97m9.85 1.43-.06-1.36m.81-.28.07 1.5m3.86 18.47-.75.47.12.6m15.33-10.02.18-.01-2.88.23-3.09-.15-2.87-.52-2.43-.85-1.82-1.12-1.1-1.31-.31-1.38.48-1.38.06 1.69-.28.83m1.15 31.89-.77-.1"/><path d="m126.2 102.08 1.21-1.28 1.85-1.1 2.37-.85 16.31-4.47-14.74 4.06-1.98.75-1.41.99-.71 1.14.09 1.18.88 1.11 1.61.92 2.18.63 2.53.28 2.62-.1 2.44-.48 26.99-7.82.69-.1.28.03"/><path d="m126.14 100.39 1.21-1.28 1.86-1.09 2.37-.85 26.27-7.15.67-.09.67.07.53.21.25.16.23.29-.14.29-.46.23-11.66 3.2m-22.11-4.45 2.14-.27 3.54-.73 3.13-.99 2.84-1.25 2-1.16m-11 50.33.25-.18-.06-.29m5.88-28.42-.64-.07-2.18-.64-1.58-.92-.91-1.13-.08-1.19-.06-1.7m6.06 5.68-.03-1.7m4.38 7.45.41-.78.77-.06.47-.31-.11-.38-.38-.17-.25-.05-2.17-.25-.98.15-.26.48.73.36m1.81.93-.14-.02m1.37-.8v-.77m7.21-6.4-6.52 1.91-1.31.28.21-.02 2.85-.61 4.77-1.39m-5.74-5.96.53.88.5.37 1.43.62 1.93.21 1.9-.27 20.43-5.84 1.22-.62.33-.82-.66-.79-.53-.34-1.44-.56-1.86-.18-1.77.23-20.19 5.62-1.36.65-.46.84m.23-.41.01.82"/><path d="m142.75 99.72 1.33-.64 20.14-5.66 1.77-.24 1.84.18 1.45.57.52.34.1.12m-20.41-18.66-1.43 1.93-1.73 2.07-1.88 1.96-.27.24m6.11 7.09v-.78l-.84.11-.2.37.65.26 1.92.19.67-.05.38-.23-.11-.29-.34-.14-.22-.03v.71m16.3 9.56-17.59 5.13m17.58-4.99-17.58 5.15m.37-10.53 1.11-.3"/><path d="m150.71 89.06 1.7-3.22.01-1.58-.64-.24.19-.35.82-.1 2.07.21.33.12.12.27-.37.23.01-.6m-4.66 4.44 2.13-3.98"/><path d="m152.2 88.43 2.08-3.99.66-.04m-2.42 4.09-.01.62"/><path d="m152.42 85.18.36-.04 1.09.1m-.81-16.06-.06-.43.01-1.43.16 1.08-.18 1.16m.02-2.24.1-1.02.88-.95 1.68-.83m.06 27.72 2.25-.62m.88-1.65-.03 1.42m1.35-4.6 1.11-.3-1.44.39 3.97 2.56 3.03-.83-1.11.31m-4.96-4.4-.57.34.2.43.87.25 1.01-.07.57-.35-.21-.42-.86-.25-1.01.07m6.07 4.09 2.83-.77-4.03-2.51-4.36 1.16m1.36-1.79-.01.55m3.01.08-1.02.27m4.82-20.83.6.21 1.39.89.66 1-.15 1.02-.95.96-1.27.97-.98 1.04-.69 1.09-2.69 5.75-.48 1.81.24 1.87.99 1.89 1.73 1.87 2.45 1.78 12.16 7.51 3.42 1.82 2.79 1.12"/><path d="m165.01 80.43.31-1.2 2.7-5.8.68-1.1.98-1.05 1.26-.98.96-.97.14-1.03.06-1.43m-5.19 26.4.05-1.63m2.12-3.14-.14.09.16.32 8.24 5.17.67.2.75-.05.4-.28-.19-.34-8.26-5.14-.64-.19-.73.05-.26.17m13.59 15.6.7-.05.17.07-.11.06-.98-.1-.37-.44-9.38-.99"/><path d="m172.74 101.66 9.64 1.01.37-.28.72-.05.65.2.12.1.07.12v.12l-.28.97-.49.27.02-.01m-4.89-7.33.69 1.23 2.96-2.31-6.03.36 2.38.72-.69-.21m4.4 6.1-.07 1.24m.06-4.98.58-.41 1.08-.09.98.3.3.5-.57.42-1.1.09-.98-.3-.29-.51m1.91 3.77-.02.36m.75-4.33-.04.76m26.22 2.22.3.03m.83 4.93-.02.18.46.46 1.01.1.55-.34.11-1.01-.02-.13-.09-.12-.15-.11-.69-.2-.73.06-.33.29-.1.82m.61.59.19-1.74"/><path d="m212.73 107.28.56-.05.52.16m.42-.27.13-1.25m-.04 1.2 6.79.72.49.46 1.02.11.53-.35.01-.11m-8.73-1.84 5.6.59m-.26-4.06 3.38.35 3.77.3 3.02.09m-8.88 4.45.09-.69"/><path d="m221.54 108.2.48-.04.6.2m.36-.24.03-.28m28.5 3.52-.18-1.75-1.25-1.75-1.67-1.23"/></g><g id="Actor_.16"><g style="stroke:#3c3c3c;stroke-width:.494"><path d="m231 110.29-.43-.41.19-1.34-.98-1.16-.31-1.16.15-.57"/><path d="m230.91 96.12-1.3 9.58.82 1.5 1.86 1.42 2.7 1.16 3.22.73 3.32.22 3-.32 2.29-.83 1.3-1.22 1.64-9.59.02-.28-1.7.17-.05.3 1.73-.19-.36 1.23-1.27 1.03-2.08.71-2.68.33-3-.09.82-.69-.23-.2-.79.68-1.55-.23-1.51-.33-1.42-.42-.23.12-.7-.27-.67-.29-.61-.3-1.81-1.28-.88-1.35.12-1.3 1.08-1.09.14-.25 1.18-.68.92-.51 1.2-.39 1.43-.24 1.17.36"/><path d="m229.64 105.75-.08.4.8 1.5 1.86 1.42 2.71 1.16 3.21.74 3.32.22 3-.33 2.28-.83 1.3-1.22.05-.42"/><path d="m230.57 109.88.42.34.38.26.09.07.52.31.56.3.61.29.64.27.19-1.35 2.37.72 2.56.43 2.56.12 2.36-.22-.22 1.35-.62.3m-7.53-12.16.15-.83-.32-.14-.31-.14-.29-.15-1.4-.96-.77-1.02-.07-1 .61-.88-.49-.37m-.44-.64.64.43"/><path d="m233.76 96.27-.89.48-.36.72"/><path d="m233.06 95.79.13-.27-.03.18 1.51 1.44.9 1.51.22 1.35m-2.48-5.9 1.56 1.47.93 1.53.24 1.54 1.57.51 1.72.37 1.78.21-.94 2.04.2.21m-6.58 9.74.43.41m1.39-12.05.21-.09-.13.8m.13-.8.22-1.35m-.92-.75.22-1.56"/><path d="m235.48 95.56.26.93 1.19.92 1.91.69 2.23.33 2.11-.11 1.55-.52.67-.82.15-.93-.68.82-1.55.52-2.11.11-2.24-.33-1.9-.69-1.2-.91-.26-.95-.13.92v.02m.13-.94.71-.8 1.54-.5.37-.01"/><path d="m239.42 91.09-.71 4.85-.77-.69.64-4.4m.13 5.09 1.48.46 1.62.05 1.14-.38.22-.66.6-3.88m-3.5 10.35.8-.69 1.74-.99 2.41-.81 2.83-.54.03-.19"/><path d="m241.19 101.29 2.57-.06 2.15-.45 1.48-.8.64-1.02m-6.92.77 1.92-1.09 2.47-.83 2.91-.54 1.37 1.22-.22-.66-.46-.67-1.34-1.4-.87-.72-2.09-.26"/><path d="m243.39 93.99.61.21 1.23.9.32.95m-1.94 16.72 1.25-.28 1.07-.39.87-.49.22-1.35.93-.97.25-1.11v-.32m-3.93-9.64-.25 1.58m1.91 12.3-.61.31m2.48-13.08-.21-.4m.17-3.17.51.76.14.75m-.35 1.54 1.71-.17"/></g><path d="m231 110.29.54.51.39.35.46.33.51.32.57.3.62.28.66.26-.53-.51m.53.51 1.48-.53 1.4-.22 1.63.17 1.42.53 1.52.86.79-.38m-4.47-1.61-.08.51m3.76 1.48 1.28-.27 1.07-.39.77-.38" style="stroke:#3c3c3c;stroke-width:.494"/></g><g style="stroke:#3c3c3c;stroke-width:.494" id="Actor_.17"><path d="m124.05 123.15-.12-.07-.09-.06-.07-.08-.65-.88-.05-.08-.03-.09-.14-.78-.03-.21v-.09l.01-.08.29-.73.06-.15.05-.07.06-.06.79-.56.09-.03.09-.03 1.06-.11.1.01 1.53.19 6.16.74.37.07.51.18.28.12.12.06.92.79.08.1.46 1.04.03.11-.1 1.03-.04.1-.64.79-.08.07-1.03.37-.11.03-.36-.05-.28-.01-.2-.02"/><path d="m123.05 121.98-.19-.66-.03-.6.01.08.21 1.18.78 1.05-.45-.54-.19-.32m9.89 2.57.24.03.62.04 1.16-.4.06-.03.74-.89 1.95-3.32.14-1.24v-.07l-.52-1.23-1.07-.96-.7-.27-.68-.19-7.59-.86-.71-.01-.59.12-.63.33-.45.42-.31.53-1.77 3.42-.14.56m.14-.56.29-.49"/><path d="m125.82 123.19 1.42.18-.13-3.41-1.64-.2-1.33.34-.5 1.14.6 1.27.06.02m-.26.62-.21-.12m.39-4.04-.54.28m1.9 4.55.08.02 1.88.23m-1.96-.23.08.02 1.87.22m-2.08-4.02-.12-.26m-.49-.95.67.01m12.39.87.24-.3.03-.09.11-1.11-.02-.11-.49-1.11-.07-.09-.99-.86-.08-.04-1.18-.4-.09-.01-1.37-.16-6.15-.71-.29-.02-.96.12-.08.03-.08.03-.86.6-.06.07-.04.06-.12.3"/><path d="m137.92 119.53.06-.12.14-1.15-.49-1.15-1-.9-.63-.29-.66-.15-7.53-.88h-.65l-.61.13-.52.28-.42.39-.03.06"/><path d="m137.89 119.81.35-.42 1.97-3.85.15-1.22-.01-.06-.51-1.21-1.04-.94-.67-.27-.67-.18-7.42-.82h-.68l-.59.12-.62.32-.44.42-2.22 3.75-.3.53-.03.13m1.35-1.38-.57.3m2.04 8.04-.1-3.02 2.85.34.1 3.42-1.26-.16m-2.45-3.39h0m.03.67-.26-.03-.08-.04m.36-6.28.7.01m3.5 9.92-2.08-.24m2.07.27-2.08-.25m-.06-4.08.01.32m1.53.84-.14-.02m1.01 2.56-.03-.01.31-.58"/><path d="m131.6 123.9-.1-3.41 1.65.19 1.38.67.59 1.28-.53 1.14-1.21.3m-.12.62.61.01m-1.06-3.22-.02-.84m.35-.55.62.14m-.57-.45.68.16.64.29"/><path d="m134.71 121.75-.27.06h-.03m2.37-5.87-.67-.31"/></g><g style="stroke:#3c3c3c;stroke-width:.494" id="Actor_.18"><path d="m177.82 167.78-.37-.48.91-17.21 1.18 1.38 2.53.19-1.04 17.28-2.45-.2-.76-.96m1.72-16.31-.96 17.27m-.22-18.65 1.35-1.18 2.5.18 1.2 1.37-1.34 1.2"/><path d="m180.92 149.63-.78.13-.35.43.29.48.76.25.79-.14.34-.43-.29-.47-.76-.25-.07 1.29m.18 18.02 1.3-1.26 1.08-17.22"/></g><g id="Actor_.19"><g style="stroke:#3c3c3c;stroke-width:.494"><path d="m119.4 145.28-.29-.17.52-1.35.31.15-.54 1.37 1-.2.96-.24.93-.3 3.06-1.46 2.1-1.88.95-2.1.39 9.41-.77 2.32-2.09 2.11-3.17 1.63-3.87.91-4.07.09-3.73-.77-2.91-1.5-1.74-2.04-.37-2.3-.78-9.51.46 2 1.58 1.77 2.56 1.37 3.29.81.26-.18 1.87.14 1.9-.04 1.9-.21.39-2.89-2.14.31-2.17.04-2.1-.23.35 2.88-.27-1.33-.27.16-2.7-.91-1.9-1.4-.89-1.69.2-1.8-1.65-.81-.67 2.01"/><path d="m128.72 148.71.08.32-.76 2.32-2.09 2.11-3.17 1.63-3.87.92-4.06.08-3.73-.76-2.9-1.51-1.74-2.04-.37-2.3.03.57.2 1.8.11 1.54.52 1.04.81.96 1.08.86-.11-1.55 2.33 1.12 2.82.68 3.1.18 3.14-.34.08 1.56-.37.23m-13.74-8.65.03-.08m-.14-12.14 1.64.79m-1.68-.61.08-.36 1.63.78-.06.39"/><path d="m107.45 136.2-1.41.88.79-.97 1.03-.89 1.56-1.15-1.18 1.01-.79 1.12 2.61 1.74 1.91 2.07 1.12 2.33"/><path d="m108.26 138.46-.29.28-.4 1.61"/><path d="m107.67 137.86.02.21 2.52 1.72 1.86 2.03 1.03 2.11m-4.24 12.32.85.4m-.29-22.58 1.52-.87 2.42.23m-2.22 7.37-.13-1.83m11.69-2.59.05 1.07-1.09 1.43-2.07 1.08-2.66.51-2.68-.18-2.16-.83-1.21-1.29-.07-1.08 1.21 1.29 2.16.82 2.69.18 2.66-.5 2.08-1.08 1.09-1.42-.1-1.49-1.25-1.24-1.55-.57"/><path d="m110.81 137.09-.01-1.49 1.15-1.4 1.41-.7m-.33 10.47.28 1.35m-.13.08-.28-1.35m-.39-10.7.83-.18m4.6-.74.27 5.08-1.99.27-1.79-.42-.89-.94-.24-3.94m4.91 5.03 1.41-.85.3-1.1-.16-3.23m.18 11.58.47-.12.46-.13.44-.15 2.33-1.07 1.7-1.39.91-1.56.07-1.6-.05-.38v.22l-2.84 1.81-2.25 2.1-1.43 2.18m-.25-1.6 1.57-2.38 2.31-2.15 2.94-1.84-.58-1.09-.99-.97-1.35-.82-2.88.37m-.74-.6 2.53.37m-2.09 24.79.92-.2.88-.24.86-.29.81-.32.78-.37.72-.39-.39.23m-2.49-15.73-.08-1.83"/><path d="m123.47 133.02 1.99 1.11 1.1.75.87.85.61.94.08.35-.97.45m-1.96 18.62-.07-1.56 2-1.51 1.25-1.73.45-1.81-.02-.45m-3-11 .48.85m.04-3.03 1.72.82m.36 2.43-.28-2.08"/></g><path d="m113.14 156.32-.08.01-2.29.83-1.06-.51m10.14 1.48-.47.28-1.17-1.33-.73-.45m1.9 1.78 1.81-.41 1.67-.61 1.46-.79.48-.28" style="stroke:#3c3c3c;stroke-width:.494"/></g><g style="stroke:#3c3c3c;stroke-width:.494" id="Actor_.20"><path d="m121.25 132.96.34-1.35.28-1.05m3.87-7.24-1.28 4.04-1.46 5.67m2.33-12.7-.59 1.19-.64 1.46-1.09 3.38m6.41-6.13-.31.49-1.46 3.04-1.48 3.98-1.91 5.72m1.32-13.69-1.37 3.02"/><path d="m125.66 123.59.59-1.5.53-1.17.34-.67m.67 8.04-1.99 6.07m7.39-13.66-1.46 2.98-1.74 4.05-3.09 7.48m3.85-14.13-.32.67-1.26 2.79-1.42 3.88m.33 8.41 3.35-8.19 1.69-4 .73-1.61.72-1.58m.01.01-.13.27"/></g><g id="Actor_.21"><g style="stroke:#3c3c3c;stroke-width:.494"><path d="m172.53 106.83.22-5.44-.54.78-1.45.45-1.82-.04-1.46-.53-.55-.8-.17 5.44m1.69-6.51-.97.3-.55.77"/><path d="m168.52 97.92.76.41 1.16.07.88-.32.08-.52-.13 3.58-.08.53-.88.32-1.15-.07-.76-.42.12-3.58.09-.52.38-.23.31.44 1 .12.67-.32-.32-.44-.99-.12-.67.32"/><path d="m171.3 100.28.87.31.58.8m-2.1-4.42.75.59"/></g><path d="m166.76 106.69-.02.72.55.83 1.45.54 1.79.05 1.44-.47.54-.8.02-.73" style="stroke:#3c3c3c;stroke-width:.494"/></g><g style="stroke:#3c3c3c;stroke-width:.494" id="Actor_.22"><path d="m170.89 111.14-.26.12-.79.13-.85-.05-.04-.01"/><path d="m170.84 111.15-.04.01-.12.06-.67.1-.16.03-.72-.04h-.01"/></g><g style="stroke:#3c3c3c;stroke-width:.494" id="Actor_.23"><path d="m54.42 73.13-.19-1.3m.28 1.36-.07-.03-.03-.06-.2-1.3.04.06.09.04 3.39 1.02.14.03h.16l.17-.02 4.89-.83.15-.04.12-.05.08-.06 1.39-1.82.02-.06.17 1.29-.02.06-1.39 1.83-.07.06-.12.06-.16.03-4.3.75-.58.09-.17.02h-.16l-.13-.03-3.39-1.03-.02-.01"/><path d="m54.21 71.8.03-.06 1.11-1.34m.09.88.1.33.31.29.62.28 1.54.26 1.22-.01 1.27-.14 1.47-.37 1.09-.51.56-.59-.07-.56-.13-1.05-.27-1.29-.31-1.18-.33-1.07-.1-.3-.71-1.8-.77-1.4-.78-1.02-.76-.68-.28-.16-.57-.27-.21-.04h-.22l-.17.02-.16.04-.17.06-.13.08-.58.45-.54.78-.46 1.12-.35 1.48-.33 2.19-.03 1.1.02 1.21.09 1.31.14 1.44m2.69 2.98-.18-1.31m5.53.39-.18-1.3m1.55-1.97-.04-.06-.09-.04-1.25-.36"/></g><g style="stroke:#3c3c3c;stroke-width:.494" id="Actor_.24"><path d="m121.66 125.02 1.97 1.96.07.12.07 1.66-.01.12-.09.11-3.74 3.24-.15.09-.21.07-.23.02-6.91.07-.22-.01-.19-.07-.14-.09-2.92-3.17-.05-.11-.12-1.66.02-.12.1-.12 1.75-1.41"/><path d="m108.79 127.37.06.11 2.93 3.15.13.09.19.06.23.02 6.92-.07.23-.02.21-.07.16-.09 3.75-3.22.09-.11.01-.12"/><path d="m111.14 128.79-.49-.86.01-3.44.05-1.02.27-2.92.49-2.39.67-1.89.78-1.42.48-.55.69-.77.71-.36.31-.14.41-.06.36.03.24.08.71.26.28.19.89.77.87 1.23.31.46.88 1.83.76 2.34.59 2.88.46 3.75-.26 1.16-1.09 1.07-1.76.8-2.15.41-2.22-.05-1.92-.51-1.33-.88m.97 3.64-.1-1.68m7.66 1.61-.08-1.68m4.11-3.52.07 1.66"/></g><g style="stroke:#3c3c3c;stroke-width:.494" id="Actor_.25"><path d="m121.06 61.11.01.02 1.46.46 2.03.05 1.8-.38.87-.66.01-.53-.48.58-1.24.43-1.67.18-1.63-.14-1.16-.41-.38-.56.05.29.33.67m-.38-.96.53-.67.71-.61.42-.27.8-.35 1.25-.08.97.25 1.17.68.31.41.4.56"/><path d="m122.87 71.26.29.23.82.24 1.06-.07.66-.33.3-.26-.82.4-1.3.08-1.01-.29-.12-.48-.44-9.26m1.01-2.39-.03-.79-.71.4.62.39 1.34-.02.7-.4-.63-.39.03.74m-1.21.22 1.26-.08m-1.4-.86 1.32-.02M126 71.07l-.34-9.66"/></g><g style="stroke:#3c3c3c;stroke-width:.494" id="Actor_.26"><path d="m158.75 51.45.02-1.14m8.28-.96-.45 1.3-.04.04-.08.04-.11.02-3.8.48h-.27l-.13-.02-3.28-.84-.1-.04-.05-.04v-.04l-.02 1.14v.04l.06.04.09.03 3.28.85.12.02.14.01.13-.01 3.79-.48.12-.02.08-.03.04-.05.45-1.3.03-1.14-.01-.04-.05-.04-.1-.03-.61-.16"/><path d="m159.58 48.85-.07.01-.12.02-.08.04-.04.04-.53 1.29"/><path d="m163.84 40.57.23.16.5.62.12.23.51 1 .44 1.32.32 1.43.16 1.18.1 1.05.05 1.14.01 1.25-.48.46-.67.24-.88.17-1.3.07-1.32-.09-1.11-.25-.74-.36-.26-.42.08-1.33.11-1.13.14-1.04.17-.95.42-1.62.5-1.28.11-.19m1.29 10.15.02-1.15m4.13.62.03-1.14"/></g><g style="stroke:#3c3c3c;stroke-width:.494" id="Actor_.27"><path d="m112.7 163.47.37 5.68-2.46.28-1.39-1.2-.41-5.73m1.8 6.93-.45-6.41"/><path d="m113.07 169.15 1.04-1.48-.25-3.99"/></g><g style="stroke:#3c3c3c;stroke-width:.494" id="Actor_.28"><path d="m95.42 91.44-.16.13-.11.02-.78-.04-4.93-.74-.09-.04-.33-.57-.02-.12-.14-.9.06-1.06.24-.96.04-.09.14-.29.19-.28 1.68-1.83-1.6 1.76-.11.15-.13.29-.15.16"/><path d="m89.19 87.09-.26 1.02-.06 1.11.15.95m.67-3.82-.22.3-.19.41m1.93-2.39.36-.39m-.16.16.66-.71.15-.07"/><path d="m92.16 83.71.22-.17.21-.03 4.95.35.28-.01.1.05.11.07.09.1"/><path d="m95.4 91.44-.1.08-.03.02-.41-.03-.03-.02-.31-.55-.02-.06-.15-.94v-.09l.05-1.11.02-.09.24-1.03.04-.08.37-.7 2.4-2.68.11-.11.32-.13.03.01.15.13"/><path d="m95.77 91.47-.44-.04-.41-.05-.32-.58-.14-.98.07-1.15.26-1.05.18-.41.21-.3 2.38-2.66.21-.17.21-.03.7.07"/><path d="m105.66 84.95-.29-.29h-.03l-.3.13-.11.11-2.28 2.71-.36.7-.03.08-.23 1.03-.02.1-.05 1.12-.01.09.14.94.01.06.3.55.02.02.39.03.03-.02.18-.17.43-.52-.44.54-.21.2-.11.02-6.3-.66-.44-.05-.1-.05-.34-.61-.02-.12-.14-.98.07-1.15.26-1.05.18-.41.27-.43.65-.71-.23.24"/><path d="m95.71 87.64-.28 1.11-.07 1.21.15 1.03m.58-4.06-.36.65m.28-.41-.2.44m7.64 4.01 1.87-2.33.19-.3.17-.4.14-.49.1-.54.06-.56.01-.56-.04-.51-.08-.45-.12-.35-.04-.13-.26-.3-.09-.07-.1-.04-6.22-.62-.22.04-.22.17-.16.16-1.66 1.82 1.74-1.9m-.92-.38-.23.18"/><path d="m102.94 87.76.54.05.5-.1.36-.85-.28-.45.39.04-.17-.1-.18.03-.19.16-1.14 1.35-.42.91-.2 1.32.09 1.22.35.65.47-.17 1.13-1.38.18-.28.16-.38.12-.45-2.08-.21m1.88.85-2.24-.23"/><path d="m102.91 87.72.3.48-.36.86-.5.1-.05-.01"/><path d="m102.88 88.98 1.9.19-.13.16m-2.09-1.35-.18.41"/><path d="m104.45 86.45.13-.15.13-.45.15-.38.18-.27.45-.14.33.66.08 1.19-.19 1.28-.4.89-.18.16-.18.03-.17-.1m.69-.09-.04.04m-.39.13-.15-.01m.62-.25-.05.11-.06.07m-.18-4.35-.2.17m.4-.2.18.11.11.1m-.88-.2.22-.18m.67.4-.02-.04"/></g><g id="Actor_.29"><g style="stroke:#3c3c3c;stroke-width:.494"><path d="m65.15 81.12-.17-.74-1.34.44-1.49.32-1.57.21.94 1.76 1.37-.21 1.3-.29 1.22-.36.19.11 2.01-.93 1.26-1.05.4-1.07.98 7.85-.51 1.2-1.48 1.15-2.26.97-2.8.66-2.97.26-2.76-.18-2.2-.58-1.37-.92-.38-1.13-1.2-7.55.06.27.13.27.19.26 1.26.83 2.02.56 2.56.22 2.8-.14-.43-.28"/><path d="m53.39 80.86-1.1-.07.03.25 1.6.1-.06-.25-.47-.03"/><path d="m52.29 80.79.09-.52.3-.53 1.23-1.32-.34.6v.59l-1.28 1.18m3.49 12.07-.7-.4-.34-.21-.29-.23-.24-.24-.18-.25-.12-.27-.07-.27-.19-1.23-.07-.76.38 1.13 1.37.92 2.2.59 2.76.17 2.97-.25 2.79-.66 2.27-.98 1.47-1.15.51-1.2v.06l-.07.91-.67.94-1.24.88-1.71.78.17 1.24-1.21.38-1.31.32-1.36.22-.14.32M53.58 89l.05-.09m.29-7.77.06.13.08.12.1.13.93.63 1.47.45 1.85.22 2.09-.03.2-.19m-6.53-1.5-.16.22"/><path d="m60.58 82.71-1.73-.72-2.31-.58-2.64-.35m6.68.29-1.91-.8-2.37-.59-2.73-.35m2.9-2.04-1.9.26-.66.59m1.17 14.04-.19-1.24 1.46.57 1.9.35 2.18.09 2.29-.17.18 1.24m-6.79-15.33.12.84.17.73 1.02.55 1.67.27 1.98-.09 1.89-.41 1.41-.66.66-.76-.11-.85-.66.76-1.42.66-1.89.41-1.98.08-1.67-.26-1.02-.55-.17-.72.7-.76 1.23-.55m-.35 5.04-.21-1.45"/><path d="m62.25 73.58.5 3.72.02.54-.84.53-1.39.3-1.4-.04-.87-.37-.59-4.1m3.84 8.95-.18.2"/><path d="m64.98 80.38-.03-1.2.59-1.22 1.18-1.18-.92-.39-1.15-.27-1.33-.15-.72.22 1.08.16 1.03.53.21.71"/><path d="m65.41 82.25-.26-1.14-.01-.51.29-.6-.19-1.43m.36 3.79-.24-.31"/><path d="m65.44 82.02-.1-.3-.06-.03m3.99-2.38-.49-.98-.27-.24-.33-.21-.38-.2-.84.62.15.11.15.11.12.11.39.74-.23.81-.83.8-1.37.74"/><path d="m65.43 80 .28-.6 1.14-1.16-.02-.17.84-.61.13.22m-1.16 15.01.14-.31"/><path d="m67.64 79.84-.15-.38-1.19-.66m.42-2.02.95.68m-.84.61.13.23m2.97 11.23.53-.68-.16-1.22m0-.06-.12-.26"/></g><path d="m62.76 93.62-.16.39-.6-.68-.81-.43-1.3-.14-1.45.18-1.78.42-.88-.5m4.68-.63.08.6m2.06 1.18 1.37-.21 1.3-.32 1.19-.4.18-.39m3.29-3.16-.31.4" style="stroke:#3c3c3c;stroke-width:.494"/></g><g id="Actor_.30"><g style="stroke:#3c3c3c;stroke-width:.494"><path d="m66.69 91.7.05.09m1.41-.57-.15-.08-.12-.11-.07-.11-.03-.09-.03-.21"/><path d="m68.09 91.2.66.14.99.01 2.73-.37 3.39-.74 3.66-.83 4.25-.89 4.03-.54 1.15.02m-19.6 2.68-.58-.1-.31-.17-.04-.11"/><path d="m69.26 90.68 1.12-.07 2.64-.48m-3.96-.3.04.03m-.01 0 .99.13 1.08-.08 2.91-.6 3.64-1 4.09-1.15 4.26-1.07 4.15-.7h.34m-18.49 6.97.75-.1 3.43-.74 3.84-.88 4.01-.81 3.76-.45 1.03-.04"/><path d="m89.47 86.59-1.13.02-3.96.63-4.16.98-3.84 1.04-3.42.88m16-2.2-.43.02-.19.03"/></g><path d="m72.06 92.36-2.04.26-.36.04-1.12-.01-.95-.21-.42-.23-.37-.33-.06-.09" style="stroke:#3c3c3c;stroke-width:.494"/></g><path d="m87.7 93.93-.07-.31.07-.31.21-.31.34-.3.46-.27.56-.24.64-.19.69-.13.71-.08.72-.02.69.04.64.09.57.16.47.2.35.25.22.28.09.31-.06.31-.2.32-.33.3-.45.27-.56.24-.64.2-.7.14-.73.09-.74.02-.7-.04-.65-.11-.57-.16-.47-.21-.35-.25-.21-.29" style="stroke:#3c3c3c;stroke-width:.494" id="Actor_.31"/><path d="m200.02 106.04-.3-.35-.16-.37-.01-.36.15-.34.29-.32.42-.27.54-.22.64-.15.71-.1.76-.02.77.05.76.11.73.18.65.24.57.28.45.33.32.35.17.36.03.36-.13.35-.28.32-.42.28-.55.23-.64.16-.73.1-.77.02-.79-.05-.78-.12-.73-.18-.66-.25-.56-.29-.45-.33" style="stroke:#3c3c3c;stroke-width:.494" id="Actor_.32"/><path style="stroke:#000;stroke-width:.6" d="m160.52 133.81.43-20.81m.25-12.02.01-.17m.07-3.75.01-.15m19.55 54.01 2.12-36.52"/><path style="fill:#000" d="M184.45 114.4h-2.99l1.65-2.61z"/><path style="stroke:#000;stroke-width:.6" d="m108.9 127.14-.84-12.36m1.31 19.32-.33-4.87"/><path style="fill:#000" d="M109.55 114.78h-2.98l1.31-2.61z"/><path style="stroke:#000;stroke-width:.6" d="m161.52 85.52.82-39.2m-34.17 125.37-.4-10.63M186.24 57.6l-2.44 42.12m-76.74.35-2.86-42.19m21.82 56.68L124.4 71.7"/></svg>