<svg xmlns="http://www.w3.org/2000/svg" width="1122.52" height="793.701" viewBox="0 0 297 210" stroke-linejoin="round" stroke-linecap="round" fill="none" fill-rule="evenodd"><script type="text/ecmascript"><![CDATA[
if(typeof(top) != "undefined")
{
	top.ShowPaper = ShowPaper;
}
function ShowPaper()
{
  var svgDocument = getDocument();
  var paper = svgDocument.getElementById("paperID");
  if(paper)
  {
    paper.setAttribute("transform","scale(1)");
    paper.setAttribute("opacity","1");
    paper.setAttribute("visibility","visible");
  }
  var svg = svgDocument.getRootElement();
  if(svg)
  {
    svg.setAttribute("width","307.000mm");
    svg.setAttribute("height","220.000mm");
    svg.setAttribute("viewBox","-5.000000 -5.000000 307.000000 220.000000");
  }
}
]]></script><path style="fill:#none" d="M296.92 209.97H.05V.05h296.87z"/><path style="fill:#9f9fa4" d="m189.67 132.18-.25.78-.16.19-.58.92-2.36 2.73.46 1.13.12.48 1.29 2.87 4.62 11.05 2.64 7.1 1.47 4.96.26 1.26.1.48.07.67.1.49.13.7-.23 1.11-.47.55h-1.42l-1.48-1.33-.98-1.18-.15-.2-2.02-2.89-1.49-2.48-3.79-7.09-1.82-3.96-1.65-4.45-.66-2.14-.48-2.31-.93.31-1.17-.01-.24-.3-.44-1.39-.02-.34.15-.45-.34-.63.01-.77 2.57-2.71 3.48-3.95 1.04-.78 1.37-.3 1.65-.16h.67l.12.08z"/><path style="fill:#fed137" d="m153.77 68.59.12.09-.01 1.22-8.32.11 7.82.16 1.32.16.1 1.22.95.08v2.09l-3.1.08 2.05.2 1.03-.07.05.14v2.49l-.09 1.1-8.85.07-1.86-2.29-.69-1.13-.1-.4 4.79-.04 1.44-.07-1.44-.01-2.86-.15-1.88.18-.05.09-.4-.43-.04-.49 1.3-.53.18-.15 1.4-.16-1.37-.18-.03-.15 1.4-.16-1.41-.17.11-.22h.51l.3.14.14-.26-.44.12-.42-.11-.09.11-.37-.11-1.87-.01-.33.17-.76.89-.08.88.09.49.14.72.67 1.32 1.41 1.93-4 .19-4.73-.08-.09-.44-.01-1.17-.15-2.8v-.16l.01-1.16-.02-.81.01-.17.03-.64 5.41-.14-5.41-.08v-1.43l2.31-.07 1.49.01 5.78-.1 5.1-.07h2.48z"/><path style="fill:#f6f6f6" d="m143.36 70.58-.45-.08.45-.02zm42.09 68.01-.13.21.25.1 2.45 5.68 3.8 9.24 2.3 6.44 1.59 5.22.09.49.07.49.09.67-.01.93-.82-.56-2.47-3.31-2.48-3.95-.45-.91-.05-.38-.24.07-4.06-8.17-2.15-5.6-.8-2.87-.01-.44-.08-.05-.07-.51-.02-.43-.11-.05v-.14l3.08-2.77z"/><path style="fill:#5a5a5a" d="m214.65 23.72.28.09.98.66 1.15 1.49 1.31 2.81.6 2.08.09.49.07.35.09.48.16.39.24 1.92.1.67.07.81.1.67.07.82.02 4.23.09.04 1.87 1.01.01 2-.3.39-5.47.8-8.92.18-2.08-.83-.44-.1-.04-1.79.09-.6.12-.09 1.49-.24.28-.1.09-.43.31-3.98.27-1.48.23-1.65 1.06-4.35 1.11-2.69 1.22-2.08 1.25-1.38.65-.5 1.12-.18zm-95.23 27.45.82.83.79 1.68.6 2.25.09.49.07.5.1.49.07.82.09 1 .14.88.5.17-.04 1.32-1.88.14-3.3-.01-1.65-.07-.84-.11-.03-1.17.21-.2.76-.05-.18-.13-.12-1.6.07-.98.16-1.33.57-2.37.42-1.06.86-1.28.96-.5z"/><path style="fill:#9f9fa4" d="m145.33 71.27-.11.22 1.41.17-1.4.16.03.15 1.37.18-1.4.16-.18.15-1.3.53.04.49.4.43.1.4.69 1.13 1.86 2.29 1.27 1.5 2.15 2.31.82.99 1.82 1.82 4.3 4.58.17.16 1.45 1.54 5.46 6.26 2.14 2.64 1.82 2.47 2.13 3.32 1.83 3.62-.2.56.02.26 1.66 1.32.55 1.1-.85.02-.21-.3-.07.21.28.09.07.09h.72l.06-.11 1.14-.03.77.1.08.1-.32.22h.43l-.11-.22.28-.32.79-.73 1.6-1.04 1.39-.17.33.16.48 1 .41 1.27-.18.3-1.83.15-.93.26-.99.5-.83.64-5.21 6.55-.21.08-.05.26-.28.13-.3-.72-.06-.9.25-.11-.16-.21-.25-.77.11-.19.19-.35-.15-.18.07-.64-.25.01h-.17l-.25-.3v-.62l1.35-1.8-.16-1.59-.02-1.77-.07-.06-.08-.82.14-.48-.24.04-.4.01-2.31-4.46-2.46-3.65-2.23-2.86-.21-.29-5.81-6.63-.17-.27-.12-.02-3.67-3.95-1.82-1.81-.82-.99-1.98-1.98-.83-.99-.66-.7-.15-.29-.12-.04-1.39-1.6-1.3-1.54-.15-.28-.11-.04-1.41-1.93-.67-1.32-.14-.72-.02-.43-.07-.06.08-.88.76-.89.33-.17 1.87.01z"/><path d="m170.48 72.46-.05 5.46m6.29-5.35-.06 5.35" style="stroke:#3c3c3c;stroke-width:.494" id="Actor_.0"/><g style="stroke:#3c3c3c;stroke-width:.494" id="Actor_.1"><path d="m157.61 92.06-.07 18.4-.22-.42.07-18.23"/><path d="m157.54 110.46 3.03.21.08-15.18m-3.03-6.03.03-8.17-.22-.05-.03 7.98m.03-7.98 1.35-.01m-1.13.06 3.07.02-.06 11.52m-.09 17.84 2.77-.23.07-11.75m-2.69-17.38 2.8-.03-.09 14.66"/><path d="m162.18 81.23 1.06.01.28.04"/></g><g style="stroke:#3c3c3c;stroke-width:.494" id="Actor_.2"><path d="M157.69 77.75h-.55l.08-.45h6.47l.02.01.1.44h-6.12"/><path d="m157.22 77.3.51-.6.53-.5.63-.39.12-.01h3.08l.62.39.54.4.46.72m-5.82.44h-.08.17m.8 2.62v.89m3.49-3.47h-.1l-.05.01-.08-.01h-.47l-.12.01-.14-.01h-.69l-.15.01-.16-.01-.13-.01-.22.01-.29-.01h-.44l-.17.01h-.36m.22.08h-.13v.06"/><path d="m158.79 77.87-.09-.07v-.03l-.02-.02m1.29.12h2.24l.08-.11.04-.01m-2.78 0h-.04.02m1.98 0h-.03m.71 2.64-.01.88m.03-3.4v.06m-.62-.18h.01-.06m.79 0-.18.01m1-.01h.1-.08m.02 0h.06-.14"/></g><path d="M170.43 117.23v.63l.08.48.02-1.12m-.02 1.12.29.03m-.37-1.14.01-.72m.09.71v-.59" style="stroke:#3c3c3c;stroke-width:.494" id="Actor_.3"/><g style="stroke:#3c3c3c;stroke-width:.494" id="Actor_.4"><path d="m218.7 81.25-.16 2.68.05.19.25.11.65.05 1.83.04h.76l1.31-.01.69-.02.25-.13.07-.17.03-2.74-.09.02-1.15.02h-1.79l-1.72-.02-.98-.02.12-.02 1.11-.02m.26 2.8-.93-.02m.64-2.75h.01m0 0 .03-.03m.39-6.58v.05m.04-.87.04-.74m.13 8.14h.04l.23-.01m.14 0 .13.02.39-.01"/><path d="M221.31 84.22h.82l1.31-.02.1.01.71-.03.04.01m-2.82-2.92h1.24l.57-.01-.1-.04-.01-.02"/><path d="m224.43 81.25-1.01-.02h-.22m0-6.56h0m.01-.84.01-.69"/></g><g style="stroke:#3c3c3c;stroke-width:.494" id="Actor_.5"><path d="m120.4 67.77-.07-5.9-2.39.09.07 5.76"/><path d="m120.33 61.87 2.68.1.06 6.13"/><path d="m123.33 68.17-.06-6.02-.26-.18"/></g><g style="stroke:#3c3c3c;stroke-width:.494" id="Actor_.6"><path d="m42.56 82.8-.25-.02.06.14.22.1.74.03h.54l1.24-.01 1.15-.01.67-.03.2-.1.04-.14-.06-2.2-.13.02-1 .01-1.51.01h-1.42l-.78-.01.16-.01.9-.02m-1.02 2.22-.04-2.19"/><path d="M43.21 82.97h.58l1.23-.02.11.01 1.15-.02h.09l.68-.03.04.01m-3.74-2.39.04.01h.11l.08.01.22-.01"/><path d="m45.69 80.46-.91.01h-1.23l-.15-.01-.08.12m-.03 0h.03m.08-.12h0m-.27-6.41.03.59m.59 5.95h1.05l.99-.01m-.09-6.53.03.59m.34 5.91h.26l.78.01"/><path d="m46.14 80.57-.08-.02-.05-.09"/></g><g style="stroke:#3c3c3c;stroke-width:.494" id="Actor_.7"><path d="M104.42 61.19h0l-1.8-.09-1.67-.07-1.49-.06-2.08-.08 3.53.17 1.03.05.89.06.53.04.53.05-.53-.05m-5.98-.32-.11.03-.02.06 3.39.15 1.33.07 1.18.09.8.07 1.23.13 9.32 1.28 3.46.66"/><path d="m97.25 60.98.05.06.03.03h.03l3.31.16 1.28.07 1.13.08.81.07 1.2.13.06-.02.03-.07-.02-.06-.06-.03-.79-.09-.95-.1"/><path d="m97.36 61.07 5.72.42 5.94.62m-6.45-.96.26.02m1.59.02 2.24.12 1.98.12 2.1.13.25.02m-5.89-.18 2.58.31 2.29.3 2.38.33 2.09.33-1.59-.28"/><path d="m117.96 63.5-3.55-.67-9.32-1.25.21.03m5.44-.05 3.83.23-.1-.01m3.1 4.24-1.18.02-.87.03-.4.02-.44.05-.08.06.07.14.1-.07.3-.04.53-.03.75-.03 1.1-.02m-2.78.19.06.04.07.01.3.06.28.02m-.78-.27-.04-3.34"/><path d="m114.8 66.39.1-.06.81-.07.73-.02.96-.02m-2.96-3.55 2.19.39 1.33.27m-3.25-1.9.32-.05.51-.05.76-.04.93-.02 1.04-.01 1.05.01.96.02.82.03 1.15.07.59.07.28.08-.07-.04-.33-.09.12.05.06.14v.36"/><path d="m122.72 61.41-.56-.07-1.13-.07-1.69-.05-1.02-.01-1.04.01-.88.03-.81.04-.76.09-.13.06-.1.09.09-.08"/><path d="m114.6 61.53-.06.13.07-.08.44-.07.41-.04.87-.04.88-.03.96-.01 1.21.01.72.02 1.17.04.94.06.69.08.28.08v.4l1.73.05.02-.03-1.75-.05m-8.57-.26h-.04 0m-.03-.13v.12m.68.09.06.02m.84.17.18.04m1.45.39-.25-.08-.12-.03m5.8-.3v.01m-.06-.55.06.14"/><path d="m126.34 62.48-1.27-.33.05-.03.02-.05-.2-.02-.01-.05-1.75-.05m0-.02 1.73.05.02.02"/><path d="m123.18 62 1.76.05-.01.05m1.44 3.81-1.5-.2m.2-3.56-.16-.02m1.43.26-1.2-.32-.02-.05-.05-.02-.16-.02m.16.02 1.27.31"/></g><g style="stroke:#3c3c3c;stroke-width:.494" id="Actor_.8"><path d="m112.95 77.33.59-.67 1.05-.74.8-.01h1.21l.92.01.07.01 1.13.73.54.67h-6.31l.05.42h3.65-.09m-3.1 0h-.16.08m1.19 2.45.02.86m-.16-3.28h-.01l.2.01.13-.01.36-.01.25.02.2-.01.12.01.14.01.15-.01h.67l.14.01.13-.01h.53l.09.01.07-.01h.21l.02.01m-3.11-.05h-.02.04"/><path d="m114.43 77.75-.02.02.03.03.1.06v.06m.84-.06h2.4l.08-.1.03-.01m-1.22 0h-.05m.03 0h1.74-.06m-.53 3.3-.01-.84m-.01-2.35v.06m.52-.17h.09-.14m1.01-.42-.01.42h-.9"/></g><g style="stroke:#3c3c3c;stroke-width:.494" id="Actor_.9"><path d="M176.55 81.32v-.34l-.3.02-1.37.01H172"/><path d="m172 80.98.54.01 1.2.01 1.07-.01.3-.01.01-.41"/><path d="M175.11 80.95h.59l.85.03"/></g><path d="m182.04 71.97-.09 5.93" style="stroke:#3c3c3c;stroke-width:.494" id="Actor_.10"/><g style="stroke:#3c3c3c;stroke-width:.494" id="Actor_.11"><path d="M174.33 105.97h0-.01l-.44.05h-.19m-.08-.12.15.06.53-.12-.45-.06-.32-.01m.52.77.24-.01.15-.02m0 .01.56-.04m-.66-.51.15-.06-.18-.07.01.13"/><path d="M174.29 105.84h.01l.78.23"/><path d="M174.3 105.97v-.13h.02m.01.13h0m.42 1.45-.11.01"/></g><g style="stroke:#3c3c3c;stroke-width:.494" id="Actor_.12"><path d="m206.11 81.17-.1 2.68-.06.17-.24.12-.75.02-1.3.01h-.73l-1.7-.03-.5-.05-.26-.12-.03-.18.08-2.62.84.02 1.6.02h1.74l1.21-.02.19-.02m-5.58 0 .23-.02.98-.01m-.73 2.7.84.02"/><path d="m201.67 81.17.04-.01.03-.03m.31-6.4v.02m.03-.84.02-.69m.81 10.85h.68l.1.01 1.31-.02.1.01.76-.04.04.01m-2.79-2.85h1.22l.62-.01-.03-.02m-.05-6.49v.07m.01-.88.01-.72"/></g><g style="stroke:#3c3c3c;stroke-width:.494" id="Actor_.13"><path d="m199.17 62.86-.65.17-1.63.53-.95.47-.14.2v.1l.06.1.14.1.13.05.23.07.36.07-.34-.06-.34-.12-.18-.16.04-.16.42-.3.76-.33.83-.28.84-.24.42-.12m-3.31 1.48-.03-.09"/><path d="m195.96 64.02.14-.13.22-.13.59-.25.55-.2.47-.15-.04.02m-1.95.85-.1.1-.02.07m1.2.57.47.05-.47-.05-.3-.05.28.05m.87.09-.38-.04.39.04.38.02-.38-.02m.15-1.73-.1.03.4-.12.84-.23m-.28 2.11-.63-.04.64.04h.25-.13m27.79-.51.57.02.65.04.37.05.1.05-.08.05-.42.1-.47.05"/><path d="m228 64.72.34-.08-.46-.09-.63-.04-.44-.02m1.69.08.05-.08.01-.06-.15-.07-.28-.04-.76-.05-.55-.01m.08-2.6 1.76-.33.98-.13 7.12-.86 2.06-.21 9.37-.89 3.16-.26 3.76-.31 2.49-.2 1.47-.1 1.69-.1 3.51-.16.04-.01.04-.02.01-.08-3.95.18-1.67.1-3.71.28-18.56 1.72-8.05 1.01-1.52.29m1.14-.29.07-.01-.71.11-.49.09m.61-1.73-.56.16m.03-1.11.58.02.65.06.36.07.11.07.04.07.01.09-.15-.1-.29-.05-.76-.06-.55-.03"/><path d="m226.98 58.74.46.02.63.06.29.09m35.47-.77.26-.02-8.98.55-.06-.03-.02-.08.02-.07.06-.04-6.94.59-5.35.49-5.02.5-8.31 1-1.38.25 3.35-.49-1.06.18m-2.09-1.43-.77.21m.57-.92.32.09m.13 5.51.11-3.1m-.56.04.32-.06m.75-.05-.72.09.41-.06m-.13-2.11-.01.25.14-.01-.14.01m-.04.01-.09.02m8.27-.37h.02l-8.02.33.05-.01"/><path d="m253.37 58.65 1.53-.15-13.09 1.17-10.64 1.16m1.64-1.57 13.64-.7 7.6-.3 10.04-.36-3.28.15-1.73.1-1.49.1-2.48.2m-17.05 1.74-1.56.15m.79-.07.77-.07"/><path d="m238.06 60.14 3.06-.27-2.3.23m0 .03.31-.03m8.11-.77-6.12.54.29-.03m6.6-.58.77-.07m.76-.06 3.83-.34-.77.06m.77-.06 1.68-.15m-1.27-.14 2.59-.15m-1.32.14-.15.01m.76-.11.69-.04m8.01-.35.01-.06-.1-.04h-.18.18-.01"/></g><g style="stroke:#3c3c3c;stroke-width:.494" id="Actor_.14"><path d="m181.68 81.44.13-.14.02-.11-.02.01-.45.01-.8.01-1.04.01-1.11-.01h-1l-.75-.02h-.11m1.06-.53-1.04.01-.28.02.79.02 1.56.01h1.73l1.23-.02.22-.01m-5.53 0-.02.27"/><path d="M180.53 80.67v.03l-.26.01h-2.07l-.59-.01v-.08m2.99.05h-.07m1.3.52.01-.49"/></g><g style="stroke:#3c3c3c;stroke-width:.494" id="Actor_.15"><path d="m178.25 68.24 1.1.06 1.68.1m.48 1.21-1.44-.34-1.36-.08-.14-.01m20.33 6.65-.56-.22-3.99-2.04-4.58-2.38-3.78-1.93-3.75-1.42-.36-.12-3.14-.43-.24.03"/><path d="m198.45 77.97-1.25-.57-3.66-1.99-4.2-2.29-4.07-2.06-3.99-1.54m17.7 4.99-1.67-.98-3.76-2.26-3.73-2.04-3.48-1.42-3.03-.44-.34-.04-.5.06m16.58 5.72-2.62-1.68-3.54-2.03-3.36-1.41-.37-.12-3.05-.43-.15.02m14.4 6.49-.96-.61"/></g><path d="m127.81 80.98-.09-.01.05.1.02.02m.12-.59-.2.01.2.01m-.19.45-.01-.46" style="stroke:#3c3c3c;stroke-width:.494" id="Actor_.16"/><g style="stroke:#3c3c3c;stroke-width:.494" id="Actor_.17"><path d="m224.71 81.34-.02-.01-.26.01"/><path d="m224.77 81.23-.04.1-.14.06-.16.01m.34-.21v.04"/></g><path d="m114.26 75.47.01.36m1.48-.38v.37" style="stroke:#3c3c3c;stroke-width:.494" id="Actor_.18"/><path d="m132.97 77.89-.04-5.71-.69-.03-1.45-.02h-1.66l-1.21.02-.3.04.05 5.7m1.24-5.76-.01-.89m2.73.9-.01-.86" style="stroke:#3c3c3c;stroke-width:.494" id="Actor_.19"/><g id="Actor_.20"><g style="stroke:#3c3c3c;stroke-width:.494"><path d="M198.91 76.99h-.07l.12-2.23-.05 2.23 1.01.99m-1.08-.99.98.99"/><path d="m207.82 77.99-.09-1.04.05-2.34-3.38.03-2.71.04-1.85.04-.88.04.07-.7.16-.06 1.81-.07 3.32-.06 4.44-.05 5.01-.03h4.88l4.07.03 2.72.05 1.06.06-.1 3.04h-.56l.07-2.31-5.63.02h-2.4l-1.85-.01-.82-.03-.45-.06-.07 2.37.07 1.04"/><path d="m199.02 74.76 5.27-.02 2.21-.02 1.28-.02m15.44-1.36.43-.01 2.21-.08.66-.08-1.06-.07-2.72-.06-4.07-.03-4.88-.01-5.01.03-4.44.06-3.32.07-1.81.09-.17.08 1.42.06 1.63.03m-3.05-.09.18-14.08.09-.09.05-.32.49-.16.84-.16 1.18-.16.19.29 3.25-.27 4.1-.2 4.53-.11 4.45-.01 3.87.1.27-.31-2.42-2.24-5.16.22-5.27.15-5.22.06-2.59 2.32"/><path d="m199.36 58.84 2.19-2.2.44-.2.98-.21 1.49-.19m-3.02 18.71 1.19-.04 2.28-.04 2.87-.03m-5.68-1.29-.26-.01-.43-.03.29-.07 1.98-.08 3.44-.06 4.38-.04 4.59-.01 4.02.02 2.78.05 1.11.06-.51.07-.27.01m-19.48-14.75h-1.77m2.91 14.86 3.71.03.34.01-.11.01-.61.01h-.34m-2.99.03 2.14.01h3.24m-5.61-15.04-.06-.07m15.72-2.74.03-.84-.94-.24-2.24-.16-3.1-.03-3.3.1-2.8.2-1.74.27-.35.28-.02.82m1.4 18.69-.09 3.28m.57-1.04h6.96m-5.87-3.54.01-.33m-.62.35h2.05m-1.33-.02.01-.33m1.31.73.02-.74m2.04-17.16-.06 2.2m11.02 16.56-1.87-.03-2.88-.02-3.55-.01m-.21-.03h3.75l3.27.02 2.53.02 1.5.04m-10.96-1.61-.02.74"/><path d="m214.84 73.42 4-.05.01-.31m-4.01.39h1.14l4.41-.05m-3.43 1.27-.1 3.32m1.9-3.37-.01.06m.09-1.31 1.55-.03m2-15.33-2.05.1m-.59-.02.11-.1m.25-2.38 1.91.1 1.44.14.91.18 1.91 2.16.09.33.32.08.21.08.1.08-.48 14.41"/><path d="m226.28 58.19-.92-.13-1.26-.12-1.57-.09m2.18 20.14 1.13-1.02m.56 0-1.09 1.02"/></g><path d="M204.88 73.37h-.54l-.65.01-.06.01-1.05-.02-.48-.02m2.78.11-1.65-.02-1.14-.02m1.46 1.27v.05m.08-1.35v-.22m16.76.17 1.29-.02 1.54-.06m0 .08-2.83.06" style="stroke:#3c3c3c;stroke-width:.494"/></g><g style="stroke:#3c3c3c;stroke-width:.494" id="Actor_.21"><path d="m54.56 51.73.62.07.14.02.08.02-.07-1.82-.08-.02-.14-.03-5.16-.6-.2-.01-.22-.02h-6.79l-.14.01-.07.02-.9.6.06 1.44m1.06-.2-.08-1.86"/><path d="M43.65 51.2h-.83l-.14.01-.07.02-.05.04m.37-1.93.02-1.59.06-1.82.13-1.67.19-1.51.53-2.59.69-2.03.79-1.49.86-1.02.85-.56.12-.04.69-.11.77.21.85.63L50.51 37l.91 1.61.84 2.1.74 2.49.31 1.51.26 1.66.21 1.81.12 1.65m-4.19 1.38-.07-1.86m-.65 1.85h.39l.22.01.23.01.2.02.37.04m4.96.55-.07-1.82m.04 1.88.07-.03v-.02"/></g><g id="Actor_.22"><g style="stroke:#3c3c3c;stroke-width:.494"><path d="m168.83 66.1-.17.13-.5.62-.29.67-.2.79.03.79.12.77.35.72.41.58.6.49.64.29.67.1 7.09.08 4.62-.17.31-.04m-8.17-6.78.69-.08-4.48.37-.68.08-.29.13m-.35.15.01-.01m2.87 3.05.01-.83"/><path d="m175.33 71.76-.3-.01-.39-.05-.18.01-.09-.02-.09-.04-1.03-.65-.07-.07-.07-.08-.65-1.15-.04-.1-.03-.1-.13-1.38.01-.11.02-.11.43-1.29.05-.09.06-.08.17-.18"/><path d="m174.87 71.59-.42-.07-.6-.27-.53-.44-.43-.58-.29-.69-.15-.74.01-.77.16-.74.26-.58m-.29 3.66-.32-.73"/><path d="m186.38 71.62-2.92.29-.32.02-7.27-.09-.69-.11-.65-.3-.63-.51-.41-.59-.36-.76-.12-.79-.03-.82.22-.82.29-.7.52-.64.17-.14m-1.89 1.54.34-.72m.99 4.99-.57-.47m.63-5.59v.01m-.58.45.17-.13m1.69 6.14-.69-.11m.33-6.44-.01.01m4.76-.38.66-.08-3.75.07-.31.03-.7.08-.3.13m.08-.13h.22m2.42 4.93-.3-.71"/><path d="m185.93 71.39-4.42-.03-1.5-.02-.54-.08-.09-.02-.1-.03-.96-.62-.07-.07-.07-.09-.59-1.04-.02-.04-.04-.11-.03-.11-.12-1.29.01-.12.02-.12.31-.92.09-.29.06-.1.06-.09.83-.84.09-.06.08-.05 1.07-.28.1-.01 1.5.04 5.9.2.34.04.45.18.34.08.09.05.83.91.07.1.39 1.28.03.13-.03.23m-12.79.31.01-.8m.17-.77.32-.69m.93 4.79-.54-.45"/><path d="m181.69 69.68-.01.74-1.61-.02-1.32-.68-.54-1.6.58-1.58 1.34-.63 1.61.04-2.02.15m-1-.87-.55.43m.77 4.16.01-.61m.02-1.89.01-.88m1.03-1.56 7.42.19.64.11.59.3.06.03.92 1.03.42 1.43-.03.23m-8.29-2.25-.02 1.75m.71 2.26-.01.47 1.27.02"/><path d="m182.48 66.23 2.76-.2-2.75-.07-.03 1.96m2.78-1.89-.02 1.61m3.97.24-.36-1.12-1.28-.68-1.57-.03-.03 1.7"/><path d="m186.15 67.45-.16-.5-.02-.01m2.18-1.52-.59-.1"/></g><g style="stroke:#3c3c3c;stroke-width:.494"><path d="m168.83 66.1.4-.31m.01-.01.34-.14m3.3 1.07.05-.1.44-.56.54-.42.61-.26.04-.01"/><path d="m173 66.26.72-.72.08-.06.08-.04.92-.24.16-.01m-1.69.55.41-.32m.5.24.41-.32m.01-.01.35-.14"/></g></g><g style="stroke:#3c3c3c;stroke-width:.494" id="Actor_.23"><path d="m88.65 100.35.5.18.96 5.27-.18 5.36-1.32 5.22-2.41 4.88-26.18 41.57-.32 1.56-.28-.68.33-1.55 25.98-41.23 2.4-4.85 1.31-5.18.18-5.31-.97-5.24-2.08-4.94-3.13-4.43-4.07-3.74-4.86-2.87-.89-.57-.67-.8-.4-.95-.24-.46-.42-.32-.38-.09M59.7 164.39l.83 1.25 1.59.32 2.15-.31 1-.28.91-.53.73-.73 28.08-36.62 4.63-5.26M67.86 80.34l.03.84.34.02-.03-.86m.29-2.81-.36.01-.2.2-.05.19"/><path d="m68.23 81.2 3.52-.02.52.12.42.32.24.46.4.96.68.81.89.58 4.89 2.88 4.11 3.77 3.15 4.47 2.1 4.98m-8.85-22.6-.06-.19-.43-.42-.58-.15-9.94-.01-.59.15-.42.43-.05.19"/><path d="m68.13 77.54.22-.22.59-.16h.35m3.19 4.3-.38-.03m1.19 1.97.38.05m6.8-3.16.02.84.17.57.43.41.57.14.57-.15.4-.42.14-.56-.45-.03-.14.56-.4.42-.41.11m.61-.32.45.03"/><path d="m82.32 81.09 26.57-.15.57.03-26.69.15m30.75 19.03-7.03 5.22-1.16.41-1.18-.32-.78-.95-5.08-12.49-.09-1.38.75-1.16 1.28-.46h.17l.35.05 12.65 2.98m-13.09-3.03 13.09 3.08"/><path d="m104.1 105.4.63.17 1.15-.41 7.63-5.65m-9.37 5.9.6.21m4.72-24.65h.06l.53.93 1.03-.01.5-.93.03-.76"/><path d="M110.03 81.86h.41l.5-.93.02-.73m15.59.03.04.9m1.17 17.3 17.88-.67m-17.84.49 17.8-.66m-12.46 8.74 12.57-.66.41.1m6.55-8.28 4.7-.18m-4.74.01 4.74-.17m10.48-.23 4.63-.18.72-.37.31-.84-.29-.82-.71-.33.01-1.85"/><path d="m167.84 96.75 3.67-.13.71-.37.31-.84-.29-.82-.71-.32.01-1.37m-.01 1.37.98.11m42.17 49.4-1.12-.39-.26-.11-.42-.42-17.48-24.32-3.61-4.29-4.23-3.63-2.47-1.49"/><path d="m185.13 108.74 3.47 2.09 4.24 3.66 3.63 4.31 17.54 24.45.41.42.52.23.57.02 1.21-.18.89-.53.46-1.09-.18-1.1-15.58-28.32-1.57-3.7-.86-4.11-.11-4.34.64-4.34 1.38-4.13 2.03-3.7 2.58-3.1 3-2.35.53-.46.41-.63.21-.64m-17.21 6.18.45.17.52.94-.07 1.16-3.6 10.78-.56.86-.86.37-.84-.27-1.82-1.38m2.04 1.31 1.05.16"/><path d="m188.41 101.4.61-.26.57-.85 3.58-10.72.06-1.14-.33-.62m.08.15 1.07.06m20.89 55.88-1.12-.4-.26-.11"/></g><path d="m140.44 93.88.01 1.6m1.92.62-.02-6.57m2.33 4.12v2.81m.37.06v-1.3" style="stroke:#3c3c3c;stroke-width:.494" id="Actor_.24"/><g id="Actor_.25"><g style="stroke:#3c3c3c;stroke-width:.494"><path d="m89.36 66.77.02-.01.35-.06 1.47-.21.1.02.14.13.02.05.01.04.25.77.15 1.23.01 1.35-.14 1.16-.03.1-.22.61-.04.04-.04.03-.08.03-1.46.16-.35.03-.13-.05-.02-.02-.02-.03"/><path d="m91.62 66.66-.15-.23-.17-.05 6.14-.1.52.01.19.06.3.28.08.16.28.88.15 1.27-.01 1.38-.18 1.15-.06.13-.31.7-.19.1-.12.05-1.95.14-.5-.01-5.98-.26-.12-.05-.16-.06-.22-.39-.12-.34-.1-.45-.06-.42"/><path d="m89.07 70.59.04.31.31.53.38-.04-.02-.91m-.05-1.73-.03-1.24-.37.06-.29.61-.04.65"/><path d="M88.81 68.85v-.19l.05-.56.08-.48.11-.38.07-.15.06-.09.22-.28.12-.04 1.78-.3m-2.2.74.03-.04m1.48 3.27.02.96-.66.06-.02-.92"/><path d="m90.57 68.74-.03-1.36-.66.1.03 1.25m-.03-1.25.66.01m.25 2.84.02.96.39-.04.31-.61.11-1.43-.17-1.39-.34-.53-.39.06.03 1.37m-.03-1.37.43.01m.07 4.58.15-.09m-.28-5.25.15.05m7.74-.2.36-.06h.03l.32.25.02.04.29.84.18 1.31v.11l-.01 1.33-.17 1.23-.03.09-.28.65-.04.04-.16.1h-.02l-.37.03-1.57.08h-.02"/><path d="m98.69 66.44.8-.12 7.63.15.21.06.32.28.07.16.31.86.16 1.25-.03 1.36-.2 1.13-.05.13-.36.69-.2.1-.12.04-2.16.14-7.44-.07-.18-.07-.08-.03"/><path d="m98.38 72.31 1.01-.07.17-.1.31-.66.18-1.15.01-1.37-.15-1.27-.29-.87-.07-.1"/><path d="m98.72 71.58.17-1.11.02-.1.01-1.33.01-.12-.16-1.24v-.1l-.3-.92m1.4-.04-.19-.24m8.24 5.29.19-1.08.02-.11.02-1.31.01-.11-.16-1.22-.01-.1-.33-.91"/></g><path d="m98.98 66.45-.43.07m-.21 0 .93.02.18.06.1.12m-1.24-.22.38-.06" style="stroke:#3c3c3c;stroke-width:.494"/></g><g style="stroke:#3c3c3c;stroke-width:.494" id="Actor_.26"><path d="m90.57 68.67-3.88.39-5.29 1.33-5.54 1.83-5.44 1.97-4.95 1.74-3.99 1.12-1.46.2-.24-.01"/><path d="m69.46 74.53-4.06 1.38L61.34 77l-1.48.19h-.04"/><path d="m91.55 68.64-3.12.31-5.55 1.36-5.84 1.87-5.74 2-5.2 1.77-4.21 1.14-1.54.21-.6-.03m5.79.66 1.18-.32 5.25-1.79 5.71-2.01 5.74-1.85 5.39-1.33 2.42-.37.31-.01m.06-.87-2.88.15"/></g><path d="m157.42 82.77-1.48.03-2.19.01-2.27-.01h-.13" style="stroke:#3c3c3c;stroke-width:.494" id="Actor_.27"/><g id="Actor_.28"><g style="stroke:#3c3c3c;stroke-width:.494"><path d="m98.24 66.43 1.09.02m6.71 6.52-.01-.04.63-.03v.04l-.62.03 2.43.03.19-.01"/><path d="m106.01 73 .39.02-.53-.01.14-.01-.01-.01-.01-.38m.08.37.74-.03m-.78-.02-.01-.32m-.15.4-.02-.02v-.37m.97.31-.01-.37m.03.39 2.5.02m-2.68-.07-.01-.33m.02.39 2.54.02m-2.55-.03v-.01m1.7.09-1.96-.01m1.7-2.2.03 2.03-.64.03-.02-.03v-.42"/><path d="m107.29 72.51.01.39.01.03.14-.02.48.03-.62-.01m.14-.02-.02-.46m.06.43 2.48.02m-2.04.04h.77-.77m.58.09h-.58.58l.03-.03m1.85-4.7-.01-.21-.07-.41-.09-.32-.12-.2-.14-.06-2.21-.04m.54 5.8-.15.01-.01-.02m.01.02 2.09.03.49-.01m-2.43-.05-.04-2.66m.07 2.68 2.54.03.02-.03m-2.41.14.02-.01m1.35-.05h-1.14l.76.01-.57-.01m-.62-2.78.43.01-.44-.02-.09.02.07-.01m27.12-.02-4.6.04h-3.33l-3.28-.03-14.64-.2-.72.01-.62.06"/><path d="m108.1 68.36.67-.07.72-.01 14.65.25.01 1.62m-15.2 2.67.51.03-.66-.02.15-.01-.01-.02-.04-2.69.04-.02.35.01m-.49 2.73-.03-1.55.01.76m.68.81.77.01-.77-.01"/><path d="M108.96 72.83h.01l-.15.01m.38.15.14-.01.03-.03m-.4-.12 2.57.03-.16.01-1.15-.01m-.62-2.78.04 2.67-.66.04-.02-.03-.04-2.61.02-.02.66-.05v-.03l.02-.02.17-.02.43.02-.43-.01m-.81 2.77 2.5.03.06-.01m-2.78-1.53-.02-1.15.01-.02.15-.01m.2-.14-.02-1.67m-.39 1.88h.05m.19-.08-.18.02m.19.02.66-.06m.34 2.84.21-.01m-.16.04-.54.01.54-.01.02-.03m-.37-.16.02.04.15-.02m.01-.02-.05-2.71m.07 2.73 2.58.03.02-.03-.01-.73.01.73"/><path d="m112.43 72.8-.17.02-2.59-.03m-.05-2.76.15-.01m.94 2.88.15-.01m.13-.03h.38m-1.14-2.83 1.53.02-.77-.01m-.48-1.74-.01-.36 1.07-.12.01.5m-1.22-.32.14.01m1.04 4.85.02-.04m.16-.01-.23.01m.08-5 .5.01m.19 4.99.03-.01m.15-.77-.01-.76.01.76m-.01-.76-.01-.77.49.01-.49.01m.35-.02h-.25.47l-.52-.01-.05.01-.01-.43-.02-.03h-.63.63"/><path d="m112.42 70.82 2.4.04h-.05m-2.34.1.84.01-.84.06"/><path d="m112.43 70.9 1.59.01.8-.05.47-.01-.47.01m-2.3-.33h.22v-.01m-.27-.02v-.01h-.05"/><path d="M112.41 70.12h.06v.37l.52.01v.01"/><path d="M112.8 70.13h-.33v.36m-.06-.36h.06m0-.01h.33m-.73-1.8-.01-.56 1.11-.12.01.7m-.27 2.18v-.01m.15-.03v.28l.85-.07 2.6.03-.87.07-2.58-.03m.14.22h.09l-.02-.01v-.06m-.2.08.22.01h-.32m.32 0 .19-.01-.19.01m-.29-.92-.2.01.01.38.25-.02.23.01h-.26"/><path d="m112.81 70.47.52.01.09-.01v-.01h-.13.3l-.3.02-.4-.01v-.02l.26-.01-.01-.38h-.08v.38l.09-.01-.01-.36-.33.03v.36l.08-.01v-.37"/><path d="M113.14 70.06h.53v.39l-.08.01v-.01m-.44-.01.52.01m-.68.05v-.03m-.07 0 .37.01"/><path d="m113.14 70.07.52.01.01.36-.52-.01m.02-2.79 3.45.06.01.7m-3.04 2.54-.1.01h.56l-.46-.01v-.03"/><path d="M114.32 70.93h-.6l.5.01.1-.01v-.04m-.6.04v-.02m.19-.22-.01-.6-.23.02m-.19.88v-.01m.22 0h-.41.41v-.03m-.21 0v-.04m.33.01v-.01"/><path d="M114.05 70.95h.04v-.02m-.19-.84.9.01m-1.35.36h-.03m1.25.42.01.44-.1.01-.01-.45"/><path d="m114.68 71.32.14.01h-.24m.52-.47v.43l-.09.01v-.05l-.28.02-.01-.39"/><path d="m114.64 70.87.18.01h-.28m.28.39.19.01"/><path d="m115.05 70.87-.23.01.23-.01v-.01m-.07-.4-.01-.39-.17.02v.38l.18-.01h.26l-.17.02v-.02h-.15"/><path d="m114.98 70.45-.16.01-.01-.36.16-.02m.5 1.25h-.65.65v-.03"/><path d="m115.01 71.3.58.01-.49-.02m.8.01-.31.01.31-.01-.01-.49m-.88.44-.01-.37m.31-.09v.02l.1-.01v-.01"/><path d="M115.31 70.81h.28l-.18-.01m-.55.05v-.07"/><path d="M115.08 70.78v.05h.51-.51m.2 0 .01.02m-.11-.03v-.04m.41.05.1-.01v-.01m-.48-.34h.38l-.35-.01v-.01l.52.01v.01h-.17.03"/><path d="m114.97 70.07.26.01.01.37h-.25l-.01-.37 1.03.02v.36h-.25v-.38l.26.01v.38l-.17.02-1.03-.02m.25-.01h.05m1.05.61-.01-.27h-.14l.14-.01-.22-.01v-.01"/><path d="m116.03 71.08.14.01-.24-.01h.1l-.01-.29.05-.01"/><path d="m116.02 70.8-.1.01.01.27m.23-.05-.09-.01v-.22m.09-.05.01.47.1-.01-.01-.46"/><path d="m116.27 71.21.08.01h-.18m.44-.06h-.29l-.01-.41m-.29.04h-.1l.02-.01h-.02v.03h-.33.33m.36-.07.07.01h-.17m-.23.02.21.01"/><path d="m116.35 71.16.26-.02v.04h.1v-.45m-1.12-.26v.01l.15-.01m-.15.01.43-.01"/><path d="M116.02 70.12h.48l.01.6.43.01h-.52m-.78-.64.12-.01m.09.41v-.02m-.15 0h.19m1.08.17h-.09l-.01-.44.09-.01m-.35.95-.01-.39m.09-.02v.02h-.34.34"/><path d="m116.82 70.15.01.54-.11.01v-.55h.24"/><path d="M116.72 70.7h.4l-.29-.01m.24-.07v-.49h.51l.01.55h-.62l.1-.01v-.05m0 .05.74.01m-.74.51v.03l-.1.01-.62-.01h.72m-.36-.04.41.01-.51-.01"/><path d="m116.97 70.68-.01-.55h.11m-.14.57.01.03m-.44-.55h.22m-.1-2.4.65-.07 3.4.06.01.7m-2.88 2.2h.01l-.16.01v-.01l.06-.01m-.2.26h.11l-.11.01"/><path d="M117.83 70.54h.49l.18-.01-.52-.01-.17.02-.01-.02-.08.01v-.02.03h.16-.07l.01.56.1-.01-.01-.55"/><path d="M118.5 70.52v.01l.08-.01h-.6v-.01l-.18.01v-.37l-.09.01.01.35-.01-.34.17-.01-.08-.01m-.23.73.24.01-.3-.01"/><path d="M117.81 70.9h-.3l.08-.02v-.01h-.08v-.19m.25.27h.05-.13.08v-.05m.05-.03h-.22m-.47.32h.4-.4m.69-.65h-.09m.16.56.77.01-.73-.02m-.58-.39h-.22.22v-.02m.54-.14.35.01.12-.02m-.54.32-.03-.01v-.16m-.16.24v-.02"/><path d="M117.65 70.68v.17l.16.01"/><path d="m117.65 70.85-.14.02h.23l-.01-.01h.05m.03.09-.03-.01m-.1.01v-.01l.13-.01m-.16-.26-.06-.01.22.01m-.22-.02h.22m0 .18h-.01l-.01-.15m-.28.23h.11m-.11-.04.01.32m.21-.33h-.13m.08.08v-.04m-.1-.61.13.01m-.13-.02.13.01m-.44-2.58.01.7m.67 2.12h.37m-.05.51h-.3l.3-.03v.05l.38.01-.27-.01-.01-.52m-.1.47v-.46m-.3.49-.01-.49m.69.52h.54-.54m-.27-.01h-.11m.31-.54v-.38h-.6v.37l.09-.01v.01"/><path d="M117.91 70.16h-.03l.19-.02v.36l.51.01v-.36l-.51-.01m0 .36v-.37m.51.06.6.01.01.87m-.46 0v.03l-.08.01m.54-.57.21-.01m-.12.37-.05.01v.01h.73l.17-.01v-.01l-.58-.01.16-.01h-.24l-.01-.35"/><path d="m119.23 70.91-.04-.01.22.01h-.03m-.11-.38-.01-.38.18-.02.26.01v.38l-.25-.01-.18.02.77.01v-.01l.03-.01"/><path d="M119.19 70.89h.21v.01l-.21.01m0-.36h.1m.1-.03h.13v.01l.18-.01.48.01-.14.01h.25v-.01m-.85-.39-.17.02.01.36.17-.02v.01m.44.39v.01h-.48.31v.01l.14-.01m-.56-.37-.01.35h.12-.01"/><path d="m119.29 70.53.01.35h.11l-.12.01m.61-.03h-.05v.01l.17-.01-.55.01v-.34m.38.34.35.01v.01h-.05"/><path d="M119.99 70.86h.19-.16v-.01h.49v.02l-.18.01v-.01l.03-.01m-.62.05h-.02m-.31-.02.61.01.16-.01-.47-.01v-.01"/><path d="m119.68 70.88.34.01v.01l.42-.01h-.24m-.15 0h-.03m-.24-.04v-.01l-.18.03m.41-.33.01.31-.24-.01v-.3m-.31.34h-.06l.05-.01m.67.04-.41.01m.41-.02h-.01m-.28.01h.12v.01m0-.01h.04m-.48-.39h.06m-.03.37-.14-.01m.26-.36.37.01m-.43.33v-.33m.11.33h.13m.31-.33h.03m.15 0h-.16.04l-.01-.39-.03.01.28.01v.36l-1-.02-.01-.36.73.01h-.08m-.51.73h-.05m-.09-.38-.01-.37m.76.75h.23m-.1-.01-.15-.01.57.01-.01-.53h.14m-.4.53-.15.01h.25v-.01h-.12m-.13.01h-.15"/><path d="m120.89 70.82-.09-.01-.01-.42.09-.01"/><path d="m120.89 70.86-.01-.54h.11l.01.53-.11.01m-.62.03h.04-.13.09v.01m.31-.02.06-.01v-.36h-.14l.01.34h.13m-.06.02h.04"/><path d="m120.64 70.51-.01-.17h.11m-.52.19h.25l-.18.01m.46.33.19.01-.3-.01m-.2.02v-.01"/><path d="M120.47 70.53v-.02l.03-.01h.14"/><path d="m120.21 70.14.26.01v.36h.03v-.01m.18-2.37 4.74.08v.13m-4.74-.28 2.53.04.01.07m-1.72 2.62.02-.01v.02h-.02.21-.19l.09-.01v-.01h.49v.01l-.26.03h-.34m-.5.03.5.01h-.56m.31.01-.31.01.31-.01v-.01m.36-.07h.49"/><path d="M121.61 70.78h-.09v-.35l.08-.01.01.36m-.11.08-.01-.54h-.5"/><path d="m121.61 70.51-.01-.08-.11.01m.11-.01.49.01.01.34"/><path d="m121.6 70.42.5.01v.08m-.29-2.02v-.02l-.2.01m.25 2.32h-.02v.02h-.13m.3-.02h-.3.13m.55.11-.01-.47.11-.01.01.53h-.11v-.05"/><path d="m122.38 70.5-.09.01v.41h.1"/><path d="m122.25 70.97-.11.01-.01-.52.11-.01.01.52.22.02-.33-.01m.1-.53h.14m-.57-1.98 2.97.05-.01-.15h.1v.15m-1.89 2.25h.04m-.52.19h.49l-.52.01m.8-.46v-.06l.1-.01.01.53-.11.01v-.47l-.1.01.01.41h.09m-.53.05-.27.01h.16l.11-.01v-.01"/><path d="M123.62 70.99h-.6l-.01-.52h.11l.01.52h.49v-.01m-.6.01h.11m-.14-.03-.01-.52-.49-.01m.63.04.15-.01"/><path d="M123.38 70.97h.49l-.6.01m.6-.01-.01-.52-.49-.01m6.66.72.01-.05-4.7-.29-1.47-.04m.1-2.42-.09.01v.13-.14l.28-.02-.01-.01-.18.02v.15m.17.03 3.28.03-.01-.98 2.84-.04.01 1.02"/><path d="M124.16 68.34h.58l.01.17v-.18l-.5-.01v.19-.17"/><path d="m124.25 68.32-.1.01.01.17m-.01-.17h.02m.9.02h-.02v.01h.59v.17-.18l-.5-.01.01.18-.01-.17"/><path d="m125.05 68.36-.18.02v-.01l.27-.03m-.09.18v-.17m1.6.21-1.87-.04v-.13l.09-.01m3.26 3.62-1.21-.01-.4-.07-.36-.2-.29-.31-.19-.4-.03-.17m.53-2.39-.37-.04"/><path d="m126.22 68.54-.03-.08-.04-.04h-.05"/><path d="m126.12 68.42-.37-.03.07.04.03.1m-.16 0-.01-.09-.04-.05h.11m1.67-.72-1.17-.1-.02-1.61h.14m2.53 5.53-2.23.14 1.46.02v.5m-1.46-.52-.01-.73m2.24.49-1.92-.12-.02-.02v-.33"/><path d="m126.96 71.25.17-.01-.01-.31m.3-2.57-.55.01-.01.08-.06.11m-.5-.99 4.53-.07-.01-.68m-3.69 4.42 2.75-.07.31-.02.06-.02-.21-.02m-2.62-2.55h3.33l-.01-.86v-.03l-.04-.07-.03-.02h-.06m-2.48 4.07.01-.02.46-.02-.46.02m.46-.02.31-.02m-.01-.3-.52-.02-.04-.01.39-.02.85-.01 1.49.02"/><path d="m129.21 68.09-.43.01-.31-.03-.26.49m.33 0 .24-.46"/><path d="m128.47 68.07.73-.01.27.5"/><path d="m129.22 68.1-.34.01-.13.24.6-.01m-.09-.16-.08.16m-.53.01h.1m.44-.04.02.03m.1-.07-.02.06m0-.09.02.1m-.54-.23.47.03m1.32.42-.01-.99.07.05.03.07v.87m.1 0 12.83-.16.12.01.06.15-.09-.22.05-.21.03-.04.04-.01-.2-.02m-12.88-.44-.1-.01m-.36-.07.3.03m.1.01-.07-.01"/><path d="m131.04 67.91.01-.29-.38-.04h.09l-.23-.01m.3-.07 5.42.53-.36.01-.26-.03-.4.01v.49m-3.6 3.55h.34v.08m-.34-.2.03.01h-.03m-.01-.15.1-.01v-.01h-.1m.91.24-.9-.01m-.01-.53.3-.01v.31h-.2v-.3m-.66-2.92-.01-.95.12.02h-.01l-.01.25v.49h-.1"/><path d="m131.15 68.37.77-.01.01.07.04.07.04.05m-.46-.19-.01-.69-.02-.01.23.01h-.15"/><path d="m131.54 67.67.07.05.02.07.01.57m.06-.65-.1-.01m-.52.35h-.03m.59-.37-.07-.02m-.42.55v-.59m0 .26-.01.07-.04.07-.04.06m.09-.45h.01m.36.03-.35-.03m1.09-.71v.02l-.61-.06v-.02m.32 5.2.56-.02v.12m-.81-.37h.2v-.32m0 .05h.39m-.65.43.13-.01v-.14m.74.24v-.07l-.22-.01v-.45l.22-.01m-.1.46.1-.01m-.75-.16-.12.01.26-.01m.17-3.25-.1-.01m.14-.08-.01-.74m-.39.65v-.56l-.02-.08-.05-.04.38.03-.01-.01v.75l.86-.01.02.1"/><path d="M131.92 68.36h.1l.01.08.07.11m-.04-.41h-.03m.1-.42h.01l-.1-.01-.01.25m.11-.24.35.04.07.02.02.03.02.07.01.57m-.58-.28.05-.06.03-.07.02-.07m.87 5.86h.19v-.01l-.25-.01m1.21.02.01.01-1.22-.01m.24-.76h.01l-.05-.01.04.01.01-.6h-.1l.87-.01-.77.01m-.05.59-.01-1.78"/><path d="m133.09 72.47-.01-1.19.01-.01.69-.01.18.01.01.15.47.03.79-.01"/><path d="M133.09 72.14h-.04v.04h-.17m.17-.04v-.68h-.25v.72m.29-.03h-.04m0 .03-.12.01m.15-.68h-.03m-.25-.05-.27.01v.5m-.05-.02v-.45m.54-3.27h-.03m-.48-.47.01.69m.48.05v-.7l-.43-.03"/><path d="m133.09 68.53-.01-.47-.01.07-.03.07-.05.06m-.1.18.1.01.01.09m-.3-.1v-.55l-.02-.07-.05-.05h.09l-.23-.01m.17.04-.09-.01m.95.07h.15l-.58-.05-.01.25m-.47-.29-.07-.02m.46.05.1.01m-.11-.01v.29m.09-.28h.01m.14-.79v.02l-.61-.06v-.02m2.34 6.87-.81.03h.37l.82-.03h-.38v-.25l-.01.23-1.75-.03-.01-.71.15-.02 2.04-.01m-2.18.74-.01.04"/><path d="m133.19 73.07 1.36.06h.83m-1.42-.67h.01l.02.1.04.04.91-.01v-.09l.02-.01h.22l.12.08.07.02"/><path d="m133.78 71.26.13.14.05.01.01 1.05m-.03-4.15.02.01-.02.02m0 .18v-.38l-.01.04m-.46.35-.01-.68h-.01m.2.68v-.55l-.02-.07-.05-.05.35.03.01.25v-.25h-.01m-.37.64v-.56l-.03-.07-.07-.05.1.01m.05.03-.09-.01m.02-.02-.05-.01m.45.04.44.05.06.02.03.03.02.07v.46m-.91-1.46v.02l.6.06v-.02m.33 6.74h-.2m-.15-.02.79-.03m-.82.03.02.02m.37 0 .65-.03m.06-2.38-.65.01v-.01"/><path d="m134.58 71.46-.18-.01.32.02-.14-.01m.65-.04-1.09.01.3.02-.16-.02m-.31-.01.17.01v-.06l-.13.01v-.34h.18v-.03m.53.45.15.02.36-.01m-1.27-.06.01-.05m.66-.82v.37h-.02v-.37h.15m.01.36-.16.01m.16.01-.14-.01m-.67.1.01.27m.22-.24.58-.01m-.74-2.51v-.62.31m.37.31v-.58m.46.32v-.28l-.35-.03.05.05.02.07v.44m-.62-.19.06-.1.01-.08m.52-.16-.09-.01m-.01-.02h.04l-.06-.01"/><path d="M134.49 67.95h.11l-.22-.01m-.33-.04h-.02m.44.02v.01m.06-.77v.01l.58.06v-.01m-.15 6.36v-.45m.38.7.02-.02-.01-.68m-.41-.63-.04.07.01.02h.03m-.04-.01v-.02m-.03-1.08-.15-.01m.51-.06-.02.01v-.06h.02m.14.5-.07-.01.07-.01m-.07.01-.07-.07.14-.01"/><path d="M135.23 71.78v-.48l.14-.01m-.14.01.07-.07h.07m-.07 0v-.1l.07-.01m-.07.01-.03-.02m.1-.02-.6.01-.01-.92.6-.01"/><path d="m134.77 71.1.2.01h.4m-.48-2.71h-.03m0-.42h.01v.53"/><path d="m134.86 68.42.05-.05.03-.06.01-.1.01.3m-.01-.3.01-.22h.01l-.1-.01m.1.01.26.03m-.27-.03-.01-.01m1.07-.67v.02l-.53-.06h-.04v-.02m.88.09v.69h-.08m6.1-1.07-.11.01m5.94-.65v-.17l1.78-.03-.04-.08-.06-.06-.07-.04-.11-.03-.03-.04-.05-.18-.07-.11-.05-.03-.14-.04-6.3.12-.05.02-.03.04-.02.05.06.23.03.05.03.02-.08.01-.07.04-.05.07-.04.07-.01.15-.31-.02-.07.01-.11.08-.03.07-.01.06.01.29.03.07.11.08.38.02.01.18.06.12.63.66.11.07.17.01v.01"/><path d="M142.81 67.04h-.43l-.06-.01-.06-.03-.04-.05-.04-.13.01-.29.03-.06.04-.05.06-.03.08-.01m-.16.06.11-.01m.73 1.74v.24m.14-.25-.15.01-.01.24"/><path d="m142.5 67.04.02.27.06.14.09.13.62.66.12.09.17.07m.58-1-.22-.02-.07-.27-.04-.05-.03-.02-.35-.04-.03.02-.06.11-.01.09.01.1-.53-.07m-.1-.88v.67m.28-1.04 6.65-.11m-6.78.23 1.39.18m-1.32-.57-.06.01-.16.09-.12.13-.08.18-.03.22-.12.02m.68-.9-.09.19m7.31.58-.02-.24-.09-.17-.12-.13-.16-.09-.18-.02-.05-.16-.04-.05-.06-.04-.13-.04-6.24.11-.11.04-.03.04-.09.19m.72 2.7.04.04.11.03 2.37-.03.04.1m.07-.45-2.57.03m.05-.03 2.57-.04-.03.02-.03.03-.1.34"/><path d="m143.4 67.04.09.01.04.02.06.12.04.24.05.15.09.12.36.37m-.25-.92-.31.01m.49.92-.65-.68-.05-.08m.45-1.27-.03.01.13.02-.19.01m.02 0h.29l.46.06v-.1m-.71.01.75-.02"/><path d="M143.91 66.08h.02v-.02m.01 1.32.05.08.57.61m.2 0-.55-.58-.06-.13-.01-.77.01-.11.06-.11.07-.09.1-.05.11-.02 2.64-.05v.18m-2.48-.29v.02l-.15-.02m-.47.04v-.04m.46.1.71-.01-.45-.06.21-.01m-.31 0h.29"/><path d="m145.29 66.88.23-.01.03.11.04.05.92.1h.29l-.92-.11-.04-.05-.02-.05-.02-.15.15.02.01.06.03.05.21.03-.01-.07-.23.01"/><path d="m145.53 66.94-.21-.03-.03-.05-.01-.06-.15-.02.02.15.04.09.25.05-.33-.04-.12-.06-.04-.05-.03-.11.01-.27.05-.1.06-.04.1-.03 3.21-.05.96.12.06.03.04.05.03.06v.36l-.07.11-.06.03-.07.01-.96-.1-.04-.05-.03-.11-.23.01"/><path d="M145.28 66.8h.24v-.03l-.39.01m1 .36-.69-.07.69.07v-.05m-1.04-.66 3.21-.05m-3.55-.3v-.02m.77.81v-.07m.67.06v-.07h-.24m-.12.16h-.29m.66-.02.04.07.02.02.92.1h.28l-.91-.11-.04-.05-.02-.05-.01-.15.14.02h.24v.07l-.22.01m-.84-.09.39-.01v.03m-.12.35-.07-.01m.38.91-.03.02-.03.03-.1.34 2.46-.04.06-.03.1-.08.07-.22.03-.04.04-.01v.34l.24-.03.14-.06.12-.1.63-.68.1-.13.05-.15.02-.27h-.31l-.01.18-.07.13-.63.68-.12.08-2.78.04m-.14.39.04.1m.07-.46 2.6-.03"/><path d="m146.86 66.85.03.11.04.05.91.1h.29l-.91-.11-.04-.05-.02-.05-.01-.15.15.02v.06l.03.05.22.03m-1.05.03h-.29m.67-.01h.29"/><path d="m146.88 66.92-.22-.03-.03-.05-.01-.06m.24 0v-.03l-.38.01m.32.37v-.05m.51-.23.23-.01.02.11.05.05.9.1h.29l-.9-.11-.05-.05-.01-.05-.02-.15.15.02.01.06.02.05.23.03"/><path d="m147.54 66.84-.01-.07h-.23m.25.15h.29m-.69-.17.38-.01v.03m-.07.35v-.05m-.2-.75.84-.02m-.83.04-.03-.17-.11-.01m1.05-.01h-.07v.17l-.03-.17-.84.02m.97.66v-.07h-.24m.53.16.89.11m-1.26.08v-.05m-.31-.32.39-.01v.03m-.13-.61h.05m.64 2.19.06.15m.1 0 .05-.14m-.18-1.25v-.05m.59-.55-.89-.12m1.43-.32-.56.01-.44-.06h-.3m.02 0 .19-.01-.14-.02.02-.01m.21.04v-.03m-.09 0V66m-.14-.02.75-.02m-.16 2.33.31.03m-.26 0 2.99-.04h-.23l-.13-.01"/><path d="m150.71 68.06.43-.46.09-.13.06-.15.02-.14-.04-.18-.03-.05-.03-.02-.33-.04-.03.02-.05.12-.04.23-.06.15-.09.12-.63.68-.13.11m.11-2.06v.67l.14-.03.06-.08.02-.13v-.3l-.05-.11-.03-.03h-.03l-.11.01-.01.67h.02m-.01 0h-.01m.02-.68-.01-.13"/><path d="M149.71 65.93v-.33l1.83.25.16.09.12.13.08.16.03.19v.82l-.02.16-.06.15-.09.12-.11.13-.19.15-.21-.01-.16.12-.98.01m-.74-2v-.1"/><path d="m149.91 66.03-.25-.03.21-.01"/><path d="m149.86 66-.29-.01-.14-.02m.23.03v-.01m-.09-.01v.01m.02-.62-.09.19m1.33 1.37.06.01.04.02.03.05.03.16v.07l-.03.07-.7.76m-.11-1.23.28.01m.3.48-.49-.06m-.17-1.02.32.01.05.08.02.13v.22l-.02.14-.05.08-.11.02m.15-.62h-.28m-.04-.54 1.65.23m-.46 2.3v-.09l.03.01-.01.01m-.02-.02v-.12l-.21-.03"/><path d="m151.3 68.28.62-.01.02-.02-.63.01m.02-.04.01.01.01-.04.02-.01.01.01-.03.02m-.35.09v-.24"/><path d="m151.7 68.26-.26-.03v.03m.11-.02.01-.02.25-.01-.01.05m-.36-.03h-.14m.26-.01.04-.05h.25l-.04.04m-.51-.03.13.01m-.27-.12V68m.1.08v-.12m.18 0h-.23m.07-.92-.31.01m.91.42-.62-.07m.09-1.57h.02m.66 2.43.03-.08.02-.01h.25l-.04.03-.02.07m-.35.02v-.02"/><path d="m152.03 68.25.01-.04.25-.01m1.47.04v-.31l.09.01.01.3-1.53.04h.08v-.06l.29-.01v.06m-.76-.02.23.03m-.32-.11.06.01m.15 0 .02-.01m-.23-.62 1.6-.02.01.4"/><path d="m152.76 68.22.03-.05h.08l-.07-.01-.01.01m-.27.04v-.01h.25"/><path d="m153.76 67.93-.8.01v.32-.02l-.26-.03m-.37-.04h.06m.13.03.03-.03-.02.01m.28-.01h-.26m.32 0-.07-.01m1.06.08 2.02-.08.93-.06 7.83-.57.85-.01 2.37.04m-14.41-.03.52.01.09.44m13.68 1.38-2.27-.04-.84.01-7.82.47-.93.05-1.76.06"/><path d="M154.45 68.22v-.37l1.62-.02m-1.8.39v-.23l-.09-.01v.25m-.05 0v-.2l-.27-.03m.43.2h.16l-.15-.01m-.33-.65 2.1.25m-2.21.19h.32m.77 3.48.99-.01m-1.08-.87.63-.01m-.68-.4.63-.01m-.69-.02h.68l.02.06.03.35.04.08.03.02m-.16-.52v-.17l-.63.01"/><path d="M154.75 68.21v-.25l.3-.01.26.03V68"/><path d="M155.07 68.19v-.18l.99-.02m-1.01-.04v.24m.65 7.97 2.64-.01m-.08.06h-2.56m0-2.23 14.19-.07-2.93-.17-11.25.07m.32-2.36.84.07.01-.02m-.87-.12.04-.74-.02-.46.06.01-.01-.03-.04-.05-.05-.02h-.5m1.38 1.43-.08.03-1.08.01m.32-1.38-.53.01"/><path d="m156.05 70.12.45.05.01-.03-.51-.05m-.04.03-.47.01-.03-.12-.02-.03-.05-.02"/><path d="m155.49 70.13.02.28.01.05.03.02m.34-.39.76-.01m-.67-2.3.02.01.02-.05.02-.01h-.47m.5.42v-.89l1.66-.13v.9m-1.68.12.01-.21h.01m-.03-.21h.03m.52 2.38.24.01.02.06h-.27l-.02.17.02-.17h.27l.02.29.03.12.02.03.03.01h.74l-1.24.01.08.74h.02l-.08-.74.04-.46"/><path d="m156.55 71.38.05-.01.01.06.02.05.84.06h-.02"/><path d="M158.07 71.36h.07l-1.54.01-.07-.73.03-.29m-.03 1.03.03.07.07.02m-.02-.02 1.47-.02m-1.48.04h.01m.28-.91.74-.01m-1.14.41-.04-.32.01.07m-.01-.07.05-.47m.34-.02.74-.01m-.76-.02h.1l-.14-.01.01-.16.74-.01v.17l-.7.01"/><path d="M156.85 70.21h.74l-.02-.09h-.65m-.41.02.04-.04.04-.02h.19m1.8-3.05-.05-.64-.03-.06-.04-.04-.16-.03-.42-.02-.98.02-.15.01-.06.03-.05.06-.08.86"/><path d="m156.68 66.31.16-.02.48-.02.85.01.31.02m-1.01 5.24 1.46-.01.06-.03-.82-.07m.01-1.17.02.36-.05.74h.06l.04-.73h-.56l-.03-.02-.05-.15-.02-.25"/><path d="m157.66 70.44.02.02-.02-.02-.01-.08-.01-.5.13-.01v.4l.26-.02.42.01-.81.01m-.11-.14.04.01"/><path d="m157.53 69.94.05.02.02.03.04.16m.04.31h.01"/><path d="m158.16 70.12.01-.28-.53.03v.37l.52-.02.01-.4-.14.01v.39h.63v-.02.05l.27-.02v.01l.13-.01v-.03m-1.42-.13h-.01m.51 1.29h.01m.06 0 .81.07-.03.07m-.85-.88h.03m.08.01.86.07-.09.73"/><path d="M158.45 70.24h.08v-.01m-.57.01h.38m-.54 0 .47.01h-.58m.58 0v-.01m-.11-.02.5.01v-.01m-.49-.4.45.01m-.7.02h-.15m.4-.01h.45m-.51-1.83v-.86l-.38-.02m3.09-.02-.02-.03-.08-.03-1.89-.04-.64.05-.06.05-.02.04m.04-.06.61-.05m.2 4.48-.03.01m.17-.76 5.24-.05m0-.02-5.24.05m.01-.05-.05-.43m-.44-.07h.6-.6v-.4l.13-.01v.4l.27-.01h.2-.28m.28 0h.03v.02l.27-.02h-.3"/><path d="M159.02 70.18v-.02l.13-.01v.02l-.13.01m0-.02-.4.02.01-.37.52-.03v.37-.39l-.13.01v.39m-.17.09h.37l-.29-.01-.27.02v-.01h-.12l-.01.01.49.01h.14l-.63-.01m1.03-.05v.02h-.63v-.03"/><path d="M159.16 70.25v.02l-.47-.01m.37-.03.5.01-.34.01h.01m-.08-.08h.5l-.13.01v-.01"/><path d="m159.15 69.76.5.01v.42l-.13.01v-.02m-.77-.39h.15m-.12.4.47.01"/><path d="m159.15 70.15.5.01v-.38h-.5m-.61.47-.01-.01.13-.01m.5.04.26-.02v-.01m-.62-3.12v.36m.33.06.37.01v.35"/><path d="M158.83 67.95v-.47h.3v.45m-.57.04v-.47l.27-.02m.04-.44 1.89.04m-.35 3.52-.44.03.01-.93.43-.02v.92l.3.01v-.93h-.3m-1.16.5h.08m.64 0-.05.01.05.01-.13-.01"/><path d="m159.92 70.19-.27.01v-.01l.27-.01v.01m.05.06-.42.01v.01l.27-.01h.15-.23m.08-.05v.03h.13v.01"/><path d="m159.58 70.27.39.01h-.55v-.01l.13-.01.01-.03m.39-.01v.02h.02m0-.46-.05.01v.39l.05-.01m-.32-.37h.15m-.12.4.29.02-.46-.01.01-.01m-.1.05v.02m.55.01h-.55m.09-.07.46.01m0-.43-.32.02m-.12-1.91v-.41l-.27.02v.03m.36-.05h-.09m1.9.27v-.69l-1.81.14-.01.69m1.1 2.65.98.02-.39.02-.59-.01m0 .03-.44.02h-.29m.73-.89.49.01-.01.47.31.01v-.01m-.22.37v.06h.3v-.01"/><path d="m161.28 70.65.44-.03.3.01-.44.02m-.08-.42.28-.02h-.31l-.28.01m.01-.47v-.11l.27-.02v.59m0-.59.31.01v.58m-.35-3.14h.35m.18 6.88-.01 1.85m-.26-5.23v-.36m.49.3h.29l-.45.02.16-.02v-.18m-.16.3v-.38m-.3.37v-.41m.8.11h-.08v.01h-.42l.2-.02.01-.05"/><path d="M162.15 70.32h.13l-.26-.01h.04m-.04.15h.13v-.13m1.27-.8-.01.64-1.41.08.01-.64 1.41-.08h.29l-.01.4.28-.02.36.01h-.19m-2.15.33 2.34.04m-2.34-.13-.22-.01m0 .02h.22m0 .06h-.1v-.06m.12.13.69.01v-.05"/><path d="M162.95 70.27v.04l-.67.01h.16m-.54-.63.01-.04.1-.01m0 .05h-.23m2.59-2.78h.2l-.92-.02-1.87.15v.7m.88 8.42 1.15.03-1.09.01m-.25-5.69v-.17"/><path d="M162.96 70.27v.05l-.52.01.34-.01"/><path d="M162.61 70.32h.08v.02l.27-.02m-.52.01.25.01m.72-.17.93.02m-.36-.29-.27.02-.01-.41.28-.01v.41m-.27-.38.27-.02m-.33-2.62-.01.71m.55 6.34-.01 2.25h-.37m.53-4.91v-.77l-.01 1.9.02.02.49.01 1.44-.05-.48-.02m-1.46.06 1.42-.06"/><path d="m164.34 70.51.01-1H164l-.01.39h.25v.02l-.43.01"/><path d="m164.34 69.94-.39-.01v-.01l.12-.01m-.09-.41h.26v.4h.1m-.39.02h-.09m.49-.41v-.02l.03-.02h.19l-.22.02m-.08-2.58.01-1.7.23-.01m2.42 1.76-2.36-.05 2.39-.04m-2.12 5.57-.27-.01m.47-4.91-.01 1.81m-.46.14.77-.05-.77.05m1.03 2.94 1.51.02-.24-.02-1-.01m-.09-.05.02-2.93m.48-.03.03.01h-.49"/><path d="m165.79 69.4-.45.02.47-.03.49.01m.65-2.49-1.51.02m1.67 5.5 1.29-.05.12-.01.01-.01-2.24-.02-.01.05m.01-.05.02-2.89 1.45.02m-1.45-.02v-.05m0 .03 1.45.03m.95-3.31-.67.06-.41.07-.38.22-.28.36-.18.44-.02.24m.19 6.2.01-1.31m.62.03.05.01h-.55l-.02-.04m.48.03h-.25"/><path d="m167.09 72.47 1.7-.07.23.02.03-.03.01-.83m-.92 2.35.53-.02.42.02-.98-.01"/><path d="m168.38 72.43-.74.04.76-.03-.02-.01m.71 1.48.05-.01m-.61-1.54.01-1.24m.27 1.29-.41.03.62-.02m.14.03v-.41.42l.02.02 1.45-.06m-2.09-.01.01-.02.01-1.24m.6.89.01-.39m-.69-5.19.04-.09.38-.43.48-.28.22-.03m.29 8.28.02-1.43m-.5 0 .26.01-.49-.01m.49.01 1.47-.05-.47-.02m-.02-.02v-.35"/><path d="m170.72 72.45 1.17.03-1.45-.02m.7-.02.01-.04v-.34m0 .33 2.19.02.01-.33"/><path d="m173.86 72.09-.01.35-.02.03-.23-.02-1.73.07h.36l-.15-.01"/><path d="m171.89 72.48 1.44-.05.01-.02m-1.47.11-.02-.04m.48.03-.1.01.76-.02-.63.01m1.47-.04-.84.03.62-.03m-.26-.01.02-.03v-.35m.78.45.25.01-.48-.01-.02-.02v-.29.28m0-.28.01-.13m.49.45.89-.03h-.1m-1.27.02 1.49-.06m-1.08-6.16.18-.42.4-.45.49-.28.54-.09.2.01m-1.09.07-.58.05m1.02 7.3 1.1.03 1.47-.05v-.02l-2.15-.02-.01.05-.45-.02m-.03-.02v-.34m.49.33.01-.33"/><path d="m176.59 72.53-1.3-.02.61-.02m.04-7.42-.39.03m.99 7.43.02.03h.26-.03m.25 0 1.51-.05-.22-.01-1.51.06h.19"/><path d="m176.56 72.56.46.01 1.3-.06m-.26-.05.02-.35m0 .4.01-.03.01-.37m.45.4.02-.03v-.38m3.85 1.49-.23.01-.01-.03h-.16m-.01.08h.7m-.7-.04h1.24m-1.07-.04.02-1.61m.25 1.63 1.54.01m-1.8 0 1.8.02m-1.27.03h-.54.77-.23m-.26-1.72-.03 1.64m.55.05-.01.03h-.02m1.04-.07-.74-.01.46.01-.22-.01-.01-.03.03-1.63"/><path d="m183.53 71.91-.02 1.6.01.02.47-.01m-.47.01.02.01h.45m-.74-.73.01-.77-.02 1.51.01.02m.01-1.53v-.12m5.88 1.56-.03.01.26-.01-1.14-.02"/><path d="m189.11 73.49-.88-.01h.03m1.11 0 .02-.03.01-.3m6.49-4.8.52.01"/></g><g style="stroke:#3c3c3c;stroke-width:.494"><path d="m135.38 73.13 3.13-.02.27-.01h.09l-1.27-.06-.23-.01h-.53l-1.46.01m0-.45h-.01m.01 0 .87-.01h-.03l-.02-.01-.02-.02-.01-.04-.01-.04v-.05l-.01-.55"/><path d="m135.37 71.84.32-.01h.56l-.51.01h-.2l-.13.01h-.03l.06.01.15.01h.66-.48l-.4-.01m.01-.01h0"/><path d="M137.19 71.86h-.08l-.18.01h-.68.62l.16-.01h.08l-.01-.01-.11-.01h-.18l-.56-.01h.34l.27.01h.2l.12.01.01.01.08-.07-.02-.01-.13-.01-.51-.01h-.97l-.27.01"/><path d="m135.37 71.29.42-.01h.66l.57.01.18.01.07.01v.48"/><path d="m137.27 71.31-.07-.08h-.07l-.16-.01-.24-.01h-.61l-.56.01-.19.01m.43-.12-.34.01h-.09m0-.03 1.4-.01.2.02-1.6.01m-.01-.97 8.91-.1v.22l2.07-.02v.04"/><path d="m135.36 70.17 1.4-.01.2.01.01.93m-1.2 2.75v-.27.27l.01.02.82-.03m-.44.03h-.19"/><path d="M136.16 73.87v.01l.83-.03.01-.03v-.7m-.84.76-.37-.01h-.01m-.01-.29-.01-.45m.45-.69h1.38-.13l-.31-.01-.94.01v-.57m.16-.04-.02.01-.07.01h-.06l-.07-.01-.02-.01m-.38-.72 1.59.1m-.73 2.61-.01-.7m.02.72h.38"/><path d="m136.79 73.85 1.12.01h-.01m-.9-.05 1.73.01m-2.48-1.24v-.14m.52-1.36-.01-.92m.21.88 2.29.16m0-.8-2.3-.17m.32 2.8v-.59m-.04-.01v-.61m.31-.54h0l-.19-.01 1.95-.02v-.9l-.67.01m-1.53 1.5v-.01m.24-.57h0m.32.02h0m-.21-.01h-.01m.08 0h0m1.02.07-1.31-.09"/><path d="m137.55 71.28 1.95-.02-.19-.01m-.76.11-.84.01-.44-.03m0-.06h0m1.16-.09v.05l-.58.01-.51-.03v-.06"/><path d="m137.34 71.22.59-.01v-.05m-.57.09-.16-.01m.11 0v.01h.05m0-.01h-.16m0-.01-.01-.03m.17.07v-.05m.9 2.66h-.18m.2 0 .65-.02m-1.04 0v.02l.01.01h.36l.84-.03h.01l.02-.01v-.01l-.01-1.7"/><path d="m137.91 73.86.81-.03.01-.01v-.71"/><path d="m137.9 73.89.84-.03v-.75m-.77-1.06 1.66-.01m-1.73-.67v.61l.01.03.01.03.02.02.03.01.03.01.39.02 1.65-.01.03-.01h.01l1.22-.01.23.01-.02-.01-.02-.02-.01-.02v-.15m-3.57.1v-.61m.64-.04-.09-.01h.09m0-.01h-.26l-.18-.01v-.01m.18.02h0l.17.01h0"/><path d="m138.22 71.31.27-.01h-.38l-.33-.02"/><path d="m138.04 71.3.27-.01h-.38v-.01m-.07 0h.27-.07m.49.04h-.16m-.08-.03v-.02m-.1.02v-.02m-.08.01h0m.36.02v-.03m-.11.03v-.03m-.45-.06.5.03m3.85.55-.4-.03-3.33.03v-.52m.56 2.59-.37-.01m.39-.01-.01-1.7m-.3.96v-.01m.05.01v-.59h-.04.08l-.04.01m0-.42.84.05 2.43-.02m-3.01-.03h.21l.15-.01h-.02m.22.05h-.78m0 .37v-.41m-.36-.31 1.64.1 2.09-.02m-2.97-1.52.19.01v.9m.6.8-.39-.02"/><path d="m140.08 72.08.02-.01.02-.02.01-.03v-.14m-.44.09v-.11m.27-.85.17.02-.01-.01m-.15-.06h-.01.03l.02-.02.01-.02.01-.02v-.26l-.01-.02-.01-.01-.02-.02h.03l.02.01.02.02v.02l.01.02-.01.24h-.03v-.01l.01-.23-.01-.03m.01.27h0m.02.02v-.02.02l-.01.02-.01.01-.02.01h-.03 0"/><path d="m140.03 70.97.02-.01-.02.01h-.14v.01l-.06-.01.01-.44"/><path d="M140.06 70.96v.01h.02-.19m.17.04.02.01-.02-.01h.01m-.01 0h-.01m-.44 0-.03.03h-.08m.55-.08h.02l.01-.02-.01.02h-.02m.03.04h-.02.02l-.24-.02v-.01l.37.03v.01h-.48V71l-.23-.01.34-.01m-.13.07h.06-.27m.07 0 .83-.01v-.01l.18.01v.01l-.18-.01m-.37-.14-.01.02m.11-.37v.03h-.23m.16.42h-.38.34m-.19-.03-.33.01m.23.02h.09m-.09.01-.23-.01m0 .06h.12v-.01m0 .01.96-.01m-.64-.43h0l.02.01v.01l.01.01-.01.24v.02l-.01.01m0 0-.02.01h-.02l-.02.04m.04-.04h-.02m-.13.11.01-.02"/><path d="m139.94 70.62-.04-.01v-.05h.01l-.01-.05.01.05h-.08v-.03m.07.03h0-.4m.4-.03v-.02m-.07.05h-.26m.41.45-.01.01m.05-.43.04.01h.01l.01.01.02.03-.01.28.01-.02"/><path d="M140.06 70.6h.06l.02.01h-.01m-.19.32-.02.01.04-.01h-.02m.03-.04-.01.04m0-.02v-.01"/><path d="M139.9 70.96h.04l.02-.01.02-.02.01-.03.01-.26-.02-.04-.02-.01h-.02 0m0 .37h-.01m.06-.04v-.01.01m.01-.27-.01.26v-.01"/><path d="M139.99 70.93h-.01.01l.01-.04m-.04.07h-.07m.08-.31h0m.03 0v-.02m.05.29.01-.01v-.01l.01-.24-.01-.02m-.1-.05h.02m-.01.06-.01-.03-.03-.02.03.02h0m.01.02h-.01m-.02-.05h-.04m.09 0h-.02m.04.06-.01-.03-.01-.01m.01.03h0m-.11.33h.11m.07 0 .02-.01h.01l.01-.02h.02l.01-.04m-.26.12-.02.01-.15-.01-.02-.01"/><path d="m139.79 71.01.16.02.02-.01"/><path d="m140.06 71.02-.02.01-.16-.02m.2.01h.06l-.01.01"/><path d="m139.58 71.04.81-.01v-.41h0m.06.43h-.88"/><path d="m140.09 70.96.01.01h0-.21m.01-.46v-.02l.01.05m-.01-.05v-.03h-.01m.01 0-.04-.01-.03.01h.02"/><path d="m139.84 70.51-.01-.05h-.33l.36-.01m-.03.01v.02m.37.07v-.07h-.3m.18 0h.08m.2 1.66v.13l.29-.01v-.12"/><path d="m140.36 72.27.24.01.29-.02v-.12m-.24.12h.24m-.1-1.17v.01l-.18-.01v-.35l.23-.01v.35l.47-.01v.01-.2m-.7.21h.24m-.69-.08h-.02m.01 0 .09.01m.33-.41.01-.06-.01.03v.05l-.18-.01.18.01v.41l-.18-.01h-.14l-.04-.05m-.08-.34.01.02-.01.02m.01-.02.03.01-.01-.04-.01-.01-.01-.01m-.06.33.01-.02-.01.02h0l.01-.02v.01m.05-.21-.01.18v.02l-.01.02.01-.02v-.02h-.03v-.25h0m0 .27v-.02l-.01.02"/><path d="M140.11 70.97h-.01.02l.02-.01.01.04h.05v-.42h-.07v-.03m.1.47h0l-.01.01-.01-.01m.01.01-.08-.01.08.01m.35-.21h.04"/><path d="M140.2 70.85h.07l-.01-.35h-.06m.07.35-.07-.01m.64-.11.04.01m-.09.36h.23l-.15-.01m-.66-.08-.13-.01m.37.05-.07-.01m-.28-.44.02.01.01.02v.29l-.01.02-.01.01-.02.01"/><path d="m140.1 70.91.01-.01-.02.04h-.01m.32-.32-.01-.1.18.01.01.02m-.19-.01v-.02h-.05m-.2.01-.01-.05v.03m.07.07h.01l-.01-.07.01.07h-.08v.03h.01l-.02-.01h.01"/><path d="m140.26 70.52.04-.01.09.01v.07m0 .03h-.12.12m.49.12-.26.01v.33h.22v.01h.01-.1m-.54-.1h-.01.01m-.12-.37.01.01.01.03m.05-.04.01.02m-.03-.03h.01m.02.04-.01-.01m-.02.32.01-.02.01-.01v-.03l.01-.25m0 .02h0m-.04.05h.01m-.04-.09h0m0 .01v.01m0 .01h0m.03.24v.01m-.01.02.01-.03m0 .04h-.02.01m-.01.01.01-.01m.02.08h0m.09 0h0m-.02.01-.07-.01m-.05-.1v-.01m0 .03h-.01m.05-.46h.07m1.35 1.58h.69m-.94.01v-.19m-.41.34.79.01-.26.01-.53-.01"/><path d="M141.41 72.24v.04l.29-.01h.24v-.14m-.43-.06.04.02h.02l.61.04m-.77.15.24.01.29-.02m-.45-.27v-.12m.05-1v.2h-.23l.17.02h-.46v-.01H141"/><path d="m141.02 71.1-.17-.01.46-.01m0-.01h.22v-.19m.06.2-.11.01v.01-.02h-.04"/><path d="M141.47 70.53h.15l.11.01v.34l-.11-.01-.48.01v-.01"/><path d="M141.47 70.58h.1v.24h-.1m.1 0-.1-.01m0 .05v-.34l-.11-.01v.34l.11.01-.48.01-.11-.01.48-.01m-.11.03h0-.11"/><path d="m141.36 70.51-.48.01v.34m.84.02v.21l-.24.01m.06-.02.18.01"/><path d="M141.71 70.88v.2l-.17-.01m-.21.02h-.32m-.12 0h-.04m.4-.21h.48m-.05 1.35v-.1m.02.14v-.14m-.05.16v-.01m.08-1.47h.15v.95m.4.25-.01-.94.51-.56h.63m-1.03.44h-.08 0m0 0-.18-.01v-.01m.2.01h-.2"/><path d="m142.38 70.37-.5.01v.53l.55-.01"/><path d="m141.88 70.91.5.03h-.12m-.06-.01h-.07 0m-.51-.06v-.34m.26.28h0m1.88-.5-.06-.06-.07-.04-.08-.02-1.05.02h-.12v.28l.12-.01.93-.01m-1.05.02.4.03m-.39.42h-.01m.12-.73v.27m1.41-.19-.18-.01m-.18-.09.36.03m-.12-1.6-.03-.06m2.48-.03.05.11-2.37.03h-.06l-.05-.03-.04-.03-.02-.05m.23 5.31.87-.01m10.85.12-8.79.05-2.91-.12m5.19-.57h.48l-.32-.02v-3.11h-.21v-.22l-5.23.06v.26"/><path d="m144.27 70.04 1.56.13v.08m-.54 1.06v.05m.61 2.5h.33m.34-2.57v.38m.14-1.43.02-.06.32-.01.15.01.01.05m-.87.01.31.03"/><path d="M146.65 70.28v-.04l2.08-.02v-.23l1.64-.01 1.58-.02 1.47-.03.7-.02m-7.82-1.3-.01.03m2.64-.15-.05.05-.05.04-.07.02-.06.01-2.39.03-.05-.11m1.26 5.32-.33.01m-.16-3.63.02-.06m1.43 3.68h.56v-.02m-.97-2.07-.2.01v-.49"/><path d="m147.87 71.77.08.12.12.01m.41-1.68-.01-.05-.15-.01H148l-.02.06m.34-.06-.02.06m1.16 3.62h-.42m.63-.5v.44l-.66.01m.03.06-.21-.01.51-.01.21.01v-.01m-.36-.5.16-.01m-.21-3.33 1.49.13m-1.78-1.56-.02-.07m.72 5.35h.77l-.21-.01h.51l-.95-.05m.87-3.35.52.56.98.07-.52-.54-.98-.09-1.05.02v2.44l.99.05.32-.33v.24h.03v.33h-.21"/><path d="m149.49 72.89.42-.45h.83l.98.06.31-.34-.97-.06-.32.34"/><path d="m149.91 72.44.99.06-.1.11m-.86-2.17v-.03l.01-.09.04-.08.05-.06.08-.04.08-.01 1.07-.02.28.01v.28l.63.05v-.28l-.63-.05m-1.57.14-.63-.05m.97 3.62 5.39-.02m-5.09.02v-.66l.18.01m-.48.66v-.01m-.11-3.41.2.02"/><path d="m150.2 70.44.01-.01.01-.02h.01l.02-.01 1.02-.01.28.01m-.49 1.7v-1.11m-.16 1.51h.82m-.45-2.11v-.28m-.27.36h.02l1.02-.01v-.01m-.01 1.71.01-1.1m-.21-.22 2.5-.02m0-.03-2.53.02m2.56-.56-2.18.02m0 .18-.14.01m3.66 5.7-3.31.01.01-2.17m-.01 2.17 2.48.04h.83m-1.22-4.75h.47m-.54-.06-.08-.74.05-.46"/><path d="m154.45 70.11-.03.01-.02.01-.02.04-.01.01-.05.48.07.74.02.03.02.04.02.01.02.01h.01"/><path d="M155.71 71.56h-.36l-.85-.06-.03-.01h.01m.16-1.39h-.16l-.01.01-.01.01-.01.02-.01.04v-.01m.02-.04h.18m-.2.07h.18-.18v-.02m.18.02h.09m-.27-.09.04-.01m.38.48h-.11m.01-.44h0-.12.04l.01.01.01.01v.02l.01.06.01.18.01.07.01.07.02.05.02.03.02.01h.01m0-.48h-.11"/><path d="M154.76 69.97h-.12v.17"/></g></g><g id="Actor_.29"><g style="stroke:#3c3c3c;stroke-width:.494"><path d="m124.41 117.59-3.98 15.73-.07.95.17 1 .34.56.46.28.21.04 1.41-.14.2-.15.17-.33-1.42.15-.16.33-.2.14m.1-.07 1.41-.15m-1.15-.25 6.08-17.89m-4.66 17.74 6.1-17.65m-4.4-39.99-.02-.15-.1-.29-.14-.11-1.06.01m1.64 36.56.24-.96m-.63-35.36 1.5.01"/><path d="m124.77 77.35 1.48-.01.14.11.11.29.02.15m3.37 34.77-.51 1.27m.68-23.45.8 5.43m.54 16.7-.37.9m.07-15.99.09.61m1.55-.06-1.37-9.15m1.88 9.13 2.76-4.35.24-.73.04-1-.17-.92-.34-.54-3.21-2.44m6.52-.67.02 6.25-.32.28-.13.78.14.81.32.38 6.32 1.01"/><path d="m139.12 95.9 1.65-.05 4.59.72m-6.25-2.92 1.65-.05-.02-5.35"/><path d="m140.77 95.85-.33-.38-.13-.81.13-.78.32-.28m16.6 5.21-4.55-.73m-.09-.36 4.64.73m-2.58 8.12 2.55.57m8.63 4.51 3.46 3.47.85 1.15m4.24-8.34-1.55.09-6.65-9.96-.4-1.03-.06-1.27 1.93-.07.07 1.27.4 1.02 6.45 9.54"/><path d="m165.85 95.76.29-1.1.55-.59 9.81-3.78.21-.01.78.55.45 1.31-.06 1.54-3.07 13.62-.47.98-.69.27-.69-.53m-6.65-9.96 1.94-.08"/><path d="m166.69 94.07 1.94-.06-.55.58-.3 1.1m.85-1.68 8.68-3.31m-7.3-10.22.01.75.29 1.01.59.02.31-1.01 16.5.4.09.65.27.49.37.19.38-.17.28-.47.12-.65.01-.85"/><path d="m170.02 81.23 1.99-.02.01.04m-.56.01 1.77-.02 15.99.38m-17.21-.41-.01-.7m4.4 9.81.37-.01m5.7 50.06 7.78 20.06m-6.67-56.71 1.34-5.58 2.05-5 2.69-4.23 3.31-3.29 2.19-.03-3.32 3.25-2.73 4.23-2.07 4.99-1.36 5.55-2.1.11-.62 5.94.05 3.05"/><path d="m185.68 103.61-.63 5.92.05 3.03m7.48 53.88 5.85 15.11.52 1.07.64.87.72.6 1.55.95 1.15.03.62-1.31-.24-2-15.53-46.79m.08-52.42 1.04-.01m-1.27-.89 1.51-.01"/><path d="m189.37 132.92 16.24 48.36.23 1.98-.62 1.3-2.21.51m-6.46-108.02-6.49.02-.39.18-.28.49-.04.23m3.62 7.65.61-.66.46-.94.28-1.14.16-.55.29-.37.36-.13 2.45.06.02-.82m-3.79 3.42 2.2-.03"/><path d="m194.32 82.88 2.21-.02-.28 1.13-.47.94-.62.66m-.53-3.44 2.21-.03m-.31.74.16-.55.3-.37.17-.06m.43-3.89-.03-.26-.14-.23m.16 4.39 2.24-.02.02-.76m3.48 103.3 2.21-.5m-2.14-2.15 2.22-.48"/></g><path d="m170.27 116.27.88 1.21" style="stroke:#3c3c3c;stroke-width:.494"/></g><g style="stroke:#3c3c3c;stroke-width:.494" id="Actor_.30"><path d="m28.32 59.44.52.23-.66-.29-.58-.48-.17-.49.08-.43.21-.38.36-.41 1.39-1.03.94-.48 1.9-.78 1.82-.73 2.1-.82 1.98-.73-.09-.04-.04-.09-7.78 3.06-1.13.72"/><path d="m27.37 58.19.02-.19.15-.42.02-.02-.11.32-.13.49.07.26.11.2.34.34.28.19.45.21.27.1.64.19.38.09.57.12-.88-.19-.84-.26"/><path d="m27.56 57.56.46-.58.65-.54.42-.28.65-.36"/><path d="m27.56 57.56.54-.62.75-.5 1.48-.81.08.05"/><path d="m29.61 55.87.73-.39-.04.07.03.08-.07.04m.36 4.43.76.11-.92-.14-.61-.13m.49-4.46 7.77-3.07-.03.08.3-.03.02.09.05.05-.24.02m-6.06 7.69.76.08-1.2-.13-.33-.05.32.04m1.47.16-.26-.02.77.07-.5-.04m.5.04 1.06.07.47.02h-.14l-.33-.02 1.27.03.2-.01.53-.04-.73.05.9-.06-.17.01m-.76.05h.07"/><path d="m36.91 60.5.6-.11-.71.12m.71-.12.27-.05.49-.11-.15.03m3.04-7.82-2.78.02.01-.08.05-.03-.25.03-.08.03m3.67 7.1-3.51.72.77-.17-.38.08m.38-.08.11-.03.65-.13-.76.16.45-.1m-1.04-7.36 2.72-.02m-2.73-.23 2.72-.01m-.83 7.44-.53.12.77-.16-.24.04m.06-.01 1.34-.28m.04.02-1.2.23.24-.05"/><path d="m42.08 59.39-.12-.03-.12-.08.87-.09 1.82-.08 1.35-.01h1.61l1.79.04 1.81.07 1.65.08 1.36.11.99.1.62.1.35.17.08-.22-.27-.14-.89-.14-.76-.08-1.57-.12-1.54-.08-1.68-.07-2.06-.04-1.22-.01-1.91.02-1.5.07-.99.11-.29.13-.32-7.32.28-.19.33 7.38.09.21-.28.12.11.08.48.16.11.03-.46-.17.28-.11.83-.1 1.76-.07 2.87-.01 1.73.04 1.75.06 1.6.09 1.32.1 1.56.19.34.17-.36.11-.63.06"/><path d="m55.44 51.95-.03-.01-.62-.15-1-.15-1.36-.15-1.66-.12-1.81-.1-1.8-.05-1.62-.01-1.35.02-1.83.11-.86.14-.28.17-.08.23m.42 7.52-.1-.2m2.17-3.23.77-.32-2.29.94-.1.01-.08-.06-.02-.09.05-.07.91-.37m-.88.35.01-.01 1.63-.93-.01.02m-1.62.91-.04.03"/><path d="m41.93 56.54 5.05-2.13 5.66-1.64 13.47-3 1.85-.33 1.33-.15 2.01-.12 2.33-.03 2.16.02 1.78.05 1.25.08 1.25.19.13.16-.03.11-.31.19-.64.18-.19.04-1 .2-1.03.16-1.24.18-3.46.44-1.86.21-3.21.34-2.81.32-2.94.35-2.53.34h.01"/><path d="m42.1 56.32 4.17-1.75 2.72-.9-1.21.34-.76.31m-5.3-2.92.38-.06-.38.06-.22.08-.08.21.99-.15 1.51-.09 1.92-.03 1.22.01 2.07.06 1.68.09 1.55.11 1.57.17.77.11.34.08"/><path d="m42.1 51.34.46-.07-.07.01m-.23 8.39.59.06m-.29-8.46 1.77-.11 2.87-.01 1.74.05 1.75.09 1.61.12 1.32.15 1.69.31.1.07m-9.61 2.59-.71.26-1.46.63m4.92-1.35-.8.24-.49.16-2.86 1.18 2.88-1.18"/><path d="m45.09 54.79 2.14-.59.55-.19m-1.44.32.54-.19.24-.07m8.56-1.37-2.83.47-2.81.6-2.84.73m.11-.08-.26.07.41-.11-.15.04m-.62.14.37-.14m.11-.37 1.61-.48.28-.07m3.76-.61.13-.04-5.49 1.53m.76-.41.9-.34-.13.04.05-.02.72-.18-.08.01"/><path d="m52.82 52.73 13.35-2.85-.06-.11.04-.11-9.68 2.09-6.71 1.72 3.89-1.09 3.61-.86 3.88-.85 2.87-.6 2.24-.46 1.99-.34 1.47-.16 2.2-.1 2.38-.01 2.11.03 1.63.06 1.07.09m-29.34 4.15 1.03-.24m-.09.01.69-.09m.4-.11-.5.09"/><path d="m52.71 52.86.87-.2-.76.17m.13.02.72-.18 2.15-.51m-2.24.41 2.3-.51"/><path d="m53.58 52.66 7.61-1.69 2.31-.48 2.78-.56-.11-.05m-11.82 2.58 2.25-.54m-1.12 8.05.11-.02.36-.11.11-.07m-.45-7.01h.27l.26 6.79m-.72-6.8h-.05m2.81-.37.34-.04-3.14.41m.5.01 3.07-.06"/><path d="m60.47 52.19.77-.07-5.04.51m3.51-.03 2.5-.33m-1.74-1.15.72-.15m.29 1.39 1.29-.17m-1.53-.07.11-.02m1.42.1-.36.05m.36-.04 3.06-.36m-1.53-1.58 1.53-.32m-.77 1.98 2.3-.26-.76.09m-1.54-1.85 1.09-.25.1-.05m.03.32 1.99-.35 1.46-.15 2.14-.1 2.39-.01 2.13.03 1.64.06 1.03.08.73.11.26.12-.21.22-.81.22m-11.67 1.51.77-.09m6.89-.79.73-.1-.73.1m2.29-.32.61-.1-.61.1m1.78-1.29.4.07.45.1.13.13"/><path d="m80.2 49.64-.14-.25-.12-.04"/></g><g style="stroke:#3c3c3c;stroke-width:.494" id="Actor_.31"><path d="m154.56 39.5-.05-.19.9-.21 1.72-.18 2.35-.11 2.93-.02 2.98.18 2.28.27 3.77.6-.06.16-.12.06-3.71-.59-2.28-.27-2.85-.16-2.83.01-2.32.11-1.69.17-.88.21.02.44.67.24-.74-.25-.07-.05-.03-.45"/><path d="m154.56 39.58-.07-.07.02-.2.06-.15.15-.06.51-.14.37-.06 1.69-.18 2.8-.12 2.3-.01 2.18.11-.76-.04m-8.42 1.56.56.19-.56-.19m.56.19 3.9.8 1.66.25-.48-.07m-.28-.05 3.82.56m-3.06-.44 2.97.46 3.16.41-.77-.09-1.7-.26"/><path d="m171.28 39.63 7.98 1.43 6.85 1.26 6.89 1.33 5.85 1.2 5.95 1.32 4.96 1.22 9.83 3.13.06.1-.02.12-9.63-3.1-11.03-2.59-27.53-5.21-.04-.15-.12-.06-2.11-.36-1.61-.24-1.55-.19-1.44-.14m2.3 3.54 2.49.34 2.1.26-3.82-.51m3.06.4 1.53.2-.05-.01"/><path d="m171.26 40.06 27.54 5.16 11 2.54 9.62 3.04.11.02.14-.11-.14.11m-47.3-7.89 2.3.28-3.07-.37m3.07.37 4.59.54-.77-.09"/><path d="m179.12 43.75 21.12 2.49.36.02-.01-.01m-18.07-2.61 13.44 1.54-9.34-1.3m17.96 2.68-13.79-2.35m4.4.99.77.08-2.29-.24m2.29.24 2.9.3m-2.61-.37-.29-.03 2.72.37m1.92.71 2.45.04m4.39-.13-5.63-.66m7.7 1.05.23.05-7.48-1m18.06 9.55 1.23-.24.14-.09.11-.27-.72-.19.11-.28-1.59-.17-2.11-.09-2.51-.03-1.54.02-2.5.08-1.94.1-1.71.14-1.62.19-.72.13-.66.23.09.23.14.27.12.08.5.1-.36-.08-.08-.25 1.34-.32 1.36-.16 1.77-.14 2.03-.11 2.1-.06h3.69l2.47.11 1.35.14.14-.03.13-.1-1.39-.15-2.57-.11-1.77-.02-2.04.02-2.17.06-2.1.11-1.82.15-1.41.16-.91.17-.47.16.09.27m-.23-.5.19-8.15m1.38 8.95-.28-.03-.44-.09.32.07-.02-.01m-.64-9.26 1.83.39"/><path d="m204.73 45.22-.07.03-.09.14-.07.17.67-.32.72-.18 1.63-.27 1.72-.19 1.94-.15 2.51-.11 1.55-.02 2.52.03 2.12.14 1.59.23-.28 9.37.76.22.28-9.29-.76-.3-.1-.27-1.39-.21-2.57-.16-1.78-.03-2.05.03-2.18.09-2.11.16-1.83.21-1.41.24-.93.24-.39.2"/><path d="m204.66 45.25.13-.09.33-.14m-.62.54-.01.26m.97 9.62.12.02m.02-10.56.31-.1-.19.07m.19-.07.37-.12 1.37-.24 1.78-.2 2.04-.15 2.1-.09h3.71l2.54.16m-10.85 2.35.77.1.54.14m2.83.78-.59-.19-.7-.19m5.57 1.92-1.81-.72-.36-.12m2.48.97.52.21 1.41 1.09-.04.02m.08.19.02-.12-.06-.09"/><path d="m219.76 44.15 1.36.21.66.23v.02m-.97 9.89.7.18-.1.26-.19.04m.62-.44.03-.01-.18.3m.18-.3.08-.22m-.01.01 1.58.2-.13-.02"/><path d="m221.78 44.59.2.09-.61-.23m1.38 1.23h-.52v.09l3.9.03.43.04-.04-.1-.1-.04-.35-.03.04.03-3.36-.02"/><path d="m226.11 45.7.02.1-.03.11-3.87-.02-.01.06-.02.02m3.87-.3-3.86-.02.02.03m0 .21v-.12"/><path d="m222.22 45.95 3.84.02.04-.06m-3.87-.89-.14-.3-.11-.04m1.54 9.84 12.99 2.21 1.41.22.14.01-.18-.01-.59-.09m-12.24-2.08.15.02"/><path d="m226.41 46.01 14.1 4.38.09-.05.04-.1-14.08-4.4-.05.12-.1.05-.35-.04m.36-.27 3.61 1.08 3.8 1.19 4.1 1.32m-10.59 5.88.1.01m10.62 1.78.83.07 1.42-.01 1.7-.12 1.61-.19 1.4-.22.69-.16-.69.16"/><path d="m237.29 49.08 3.31 1.07.04.09 2.67 1.16 2.03.99m-6.52 4.63.07.01m1.03-7.09-.02-.01"/><path d="m245.94 52.88-.15-.13.69.53-1.55-.96-4.42-1.93m.46-.1.15.06-.52-.2m.57.22-.05-.02 1.15.43 1.05.46-.03-.01"/><path d="m243.32 51.24.75.35.94.49.39.22 1.17.75.73.63.29.35.04.08-1.2-1.1-1.36-.83-1.61-.71m.08-.11.05.02m-.02-.01.04.02"/><path d="m244.93 52.32-1.39-.74 2.94 1.7 1.02.97.2.98-.45.5-1.18.51-.36.09.4-.1 1.19-.51.04-.03.45-.51.04-.08-.2-.99.19.37.01.62"/><path d="m247.31 53.99-.04-.12.23.38-1.09-.95m-.03-.03-.15-.13m1.46 2.04-.25-.76"/></g><g style="stroke:#3c3c3c;stroke-width:.494" id="Actor_.32"><path d="m118.65 108.93 5.99-27.78h1.04l.14.57.39.42.52.16.48-.13.37-.37.17-.51.22-1.05m-6.5 28.8.5-.93 1.01.04.52.98 1.02.05 3.49-15.88 1.01-2.55 1.73-2.05.89-.09-1.72 2.03-1 2.53-3.48 15.75-.92.26m-1.76-1.04-.34.65"/><path d="m124.77 81.15.81-.03 1.03.01-.93.02m.33.78.93-.03m-.33-.77.14.56.38.41.11.04m3.51 6.56 2.28-1.31 2.58-.44 1.22.02 2.62.5 2.34 1.4 1.82 2.14 1.07 2.65 3.88 16.58 1.09.05.55-.97 1.09.05.55 1.02"/><path d="m131.64 88.61 2.26-1.31 2.08-.34m11.52-5.7h-.48l-.15.58-.4.43-.55.15-.51-.14-.4-.38-.18-.53-.24-1.07m1.41 1.75-.79.04"/><path d="m146.38 82.29-.19-.05-.39-.37-.18-.53-.23-1.04m2.09.94-.46.02m7.92 29.27-6.61-28.36m1.32 28.12.74-.27.38-.67m4.87.9-6.28-26.97"/></g><g id="Actor_.33"><g style="stroke:#3c3c3c;stroke-width:.494"><path d="m146.63 80.3-29.23-.09-12.36-.01-34.89.13-23.36.13-11.42-.04-1.54-.03-.14-.04-.11-2.41h.87-.77m.77 0h.76-.76m.76 0h.77-.77m.77 0h1.53-.77m.77 0h.76-.76m.76 0 1.86-.01m-.33.01h26.03l-.25-.02m.25.02h2.3-.77m.77 0h.76-.76m.76 0h.77-.77m.77 0h.76-.76m.76 0h.77-.77m7.66-.01h.76l-7.65.01m7.65-.01h1.53l-.07-.01m-.69.01h5.36-.77m7.66 0h.76-7.65m7.65 0h12.25-.77m.77 0h.76-.76m.76 0h4.6-.77m-1.29 2.27-.04-2.27m1.54-.06h.56-.56v.04m.56-.04h1.53-.77m-.11.05.11.01h-.76m.76 0h.77-.77m.77-.06h2.78m-2.02 0 .42-.01m-1.18.07 2.78-.01-2.78.01m.36-.01 1.17.01h-.77m.77 0h1.53l-.33-.01h.05m.28.01h.77-.77m.77 0h2.29l-.1-.02.13-.01m-1.45.02h.36m.86 0h-.18m.38.01h1.53-.76m.76 0h8.42-.76m-3.37-.03h1.07-.76m-.31-.03h.29l-.02.01m.47.01-.45-.02 3.67-.01m-2.78.03-.11.01h.5l-.39-.01m2.19-.02.08.02m1.45.04h.76-2.08.03m2.05 0h1.53-.76m.76 0h.77-.77m.77 0h.77-.77m.77 0h.76-.76m.54-.06.97.02-.69.01m-.06.03 3.06-.02-2.29.02m-.02-.04h.78-.78m.78 0h1.53-.76m.75.04h.78-1.53m.76-.02h2.3l-.77-.02h.77l-2.38.01m.85.03h3.06-.77"/><path d="M137.78 77.89v.02l-.76-.02m1.53.02h.76l-.76-.02.76-.01 1.54.01-2.3.02m-.29-.01-.48.01m3.83.02h.77-2.3l.77-.02h-.77l1.42-.03-.03.02m-.62.01h2.29-.76"/><path d="M140.98 77.89h-.13l.5.01-.37-.01m.52-.01h.92m-.04.05h2.23m-1.51-.05h.25m.5 0 .09.02-.8.01m.77 0h.68l-.65-.01m.06-.02h.57m2.33 0 3.13.01-3.11.01m.05.03h.76-.78m.78-.03 2.3.01-2.3.02m1.32 2.38 10.29.06 9.95.1 17.81.33 9.72.26 3.92.06 10.9.08 5.95.01 5.47-.01 7.4-.09 1.3-.06.11-3.06-25.96.01-56.64-.07 3.04-.01m.02-.01 1.53-.02h-3.83l.77.02h-.77 2.3-.77"/><path d="m153.33 77.89 1.29.02h-1.53l.24-.02.53.02-.77.03h.77-.77m.77 0h.76m-.71-.05h-.05.76-.71"/><path d="m155.39 77.94 1.53-.02-2.3-.03h2.3l-2.3.02"/><path d="M156.15 77.91h1.54l-.77.01m.77-.01h.76l-.47-.01-.29.01m-.77-.02 1.87-.01m-1.1.06h.68m.08-.05.34.02h-.34l.33.02-.04.01 1.44-.01m1.33.01-.39-.01m.82 2.46.01-2.45m1.09 0-.97-.01m.15 0 .06-.01-.07-.01.07-.01-.07-.02m.07.02h1.53-.77m0 .02h.77-1.53m1.53 0h.76-.76m.76.02h.77m-1.53-.04h.76-.76m1.46.02h-.7.23l-.23-.02 5.86-.01m-1.26.06h.76l-5.21-.03v.02m3.68.01.39-.02m1.14.02 2.78-.01-1.25.01m7.66-.03h.76l-.93-.01v.02m.93-.01h.77-.77m.77 0h.76-.76m.76 0h.77-.77m.6-.03.06.02-.12-.01h.23l-.17-.01m.17.03 1.53-.01-1.53-.01 1.53.01-.76-.01m0 .03h6.12l.28.02-.81.02 2.83.01m-7.66-.07.22-.01-.22.01m4.44-.01h1.21m2.77.08 3.06-.02h.77l-.54.02.54-.02v.03m0-.03h2.48m-1.3.01v.02m33.3-.11.73.01h-5.75m2.69.11-2.78-.03m3.54.02h.77m.76 0h1.47m.83-.1h-1.53l3.03-.01-.06 1.74-2.33.04m1.66-1.77.73-.01"/></g><g style="stroke:#3c3c3c;stroke-width:.494;stroke-dasharray:.5 .5"><path d="m42.58 77.94.3-.01h-2.75m3.62.01h.47-.92 2.45-.59.07m-2.01 0h.08l-.42-.01m1.52.01h.57-.57m.76 0h.59-.16m.16 0h.94-.76.03m.73 0h.3-.3m.3 0h3.53-.76m-1.54 0h.42m1.9 0h.56-.58m1.53 0 .77-.01-1.72.01m2.34-.01h.14-.68.54-.28m.99.01h.2l-1.53-.01m.86.01-.1-.01m2.3.01h.76-2.29.5m10.73-.02-8.94.02h.16m12.09-.01h.77-1.78m1.78 0h.76-.76m.76 0h2.3-.77m.77 0 5.36-.01h-.77m.77 0h.76-.76m.76 0h.77-.77m.77 0h.69-.69m33.33-.06 2.65.01h-.77.56m-.56.05h-.28 1.92m-1.96-.05h-.2.2m1.09 0h.24-.24m.24 0h.94-.42m.42 0h.35-.49m-.28.05h.77-.35m.35-.05.66.01h-.08m-.02.04h.02-.88m.93.01-.05-.01.08-.01m.05-.04-.05.01h3.16-.76m-1.97 0h-.3m1.42.03h.07l-1.49-.01m1.49.01h.78-.59m1.59-.03h-.24.77l-.03-.02-.5.02 1.29.02-1.07.01h.87-.56m-1.53 0h.76-.76m.76 0h.46-.46"/><path d="m121.4 77.88 1.07-.01-.76.01.7-.01m.06.03h.5-.18m.07-.03h-.08.19-.11m-.08 0h-.31.31m.19 0h.27-.27m.27.03h-.27.73m-.02-.03h-.07.09-.02m-.07 0h-.37m.46 0h1.07-.76m1.01 0h.52-.77m1.53 0h-.76.97m1.15-.01 5.31.01m-3.94.02-.04.02 1.14-.02h-.77m1.47 0h.06-.76m.76 0 .75.02m10.78-.03h.2-1.11m.1 0h.65m.36 0h.71-.19m-.15 0h.11m.23 0h.3-.26m.26 0h.37m15.22 0-.43.01.13.02 1.06-.02-.76-.01m.96.05h.29-1.68m.43-.02h.75-.75m-.3 0h-.13m1.19-.02 2.23.01-2.23-.01m-.01.02h.5m0 .02h.95-.45m0-.02h.45v.02h-.3m.3 0h.78m-.69-.02h.29m.26.02.15-.01-.14-.01m8.36-.02 1.8.01h-.62v.02m.5 0-.19.01.31-.01h-.12m.88 0h.77-1.53m.63-.02h-.2 1.1-.52v.02m-.58-.02h-.43.43m1.1 0h.77-1.54.25m.52.02h.77-.77m.77 0 .64.01-.35-.01m-.29-.02h1.53-.77m1.49 0h.04-.76m.76 0h.77-.64m1.4 0h-.07.2-.13m-.05 0h-.71.71l-.69.02.67-.02h-.69m1.18.03v-.03h-.29.64-.64m.29 0h1.11-.76m.93 0h-.17.77-.39m.39 0h1.3m1.98 0h1.98-.23m.23 0h2.24m1.21 0h1.24-.76m-.49.05h.49l-.49-.01m.49.01h2.29-.76m-.77-.05h.75-.75m.75 0h2.31-.76m-.1.05h.1-.77.67m.23.01h.63l-.76-.01.68.01h-.55v.02m.63-.08h.77-.77m0 .06h3.06-.76m-1.53-.06h3.06-.77m0 .06h2.1l-.42-.01.02.04m-.16-.09h.56-1.33m1.33 0 .9-.02m-.9.08h.97m25.72-.08h.3-.39m5.02 0h-4.63m1.73 0-.14.01m1.63-.01h-.16l.42.01-.26-.01"/></g></g><g id="Actor_.34"><g style="stroke:#3c3c3c;stroke-width:.494"><path d="m43.14 74.25-.78-.01-2.65-.05-1.53-.05-.19-.05-.62-11.44v-.25l.27-.09.57-.08.87-.07 2.12-1.8-1.11.08-.66.1-.19.12-1.87 1.74m2.56 12.97h-.57l-1.11-.03-.29-.02.06-.62 1.24-.03 2.55-.03h3.55l4.06.01 4.04.02 3.47.03 2.48.05 1.23.04.06.61-.91.03"/><path d="m37.96 75.32.56-.03 1.4-.02.09 1.85.65.82m-2.67-3.85 1.24-.04 2.55-.03h3.55l4.07.01 4.03.02 3.48.05 2.48.05 1.23.05-.12.05-1.4.03-2.5.03h-1.09"/><path d="m40.13 77.93-.69-.78-.08-1.78m-.28-13.21.16.24.6-.03.68-.03.74-.02 3.31-.04 3.81.03 3.84.11 3.43.15.22-.23 1.38.09 1.15.1.9.1.11.25.88.2.33 11.12m-20.61 2.92h4.32l.64.82m-1.83-3.72-.72-.01-1.88-.05-.55-.04.92-.04 2.29-.03 2.91-.01 3.34.01 3.31.03 2.85.03 2.05.04 1.01.05-.79-.01h-.7l-.44.05v-.11"/><path d="m41.2 60.36 4.4.1 4.28.06 4.03-.01 1.96 1.83m-14.43-.12.08.1"/><path d="m42.88 60.4-.03-.85.46-.15 1.59-.1 2.42-.02 2.72.06 2.47.13 1.7.17.63.17.03.77M44.33 77.12l-.08-1.86 3.08.04 1.66.01 2 .01 3.68-.01-2.82-.02-3.11-.01h-2.81"/><path d="M44.4 75.26h2.89l3.19.01 3.1.01 2.74.03h-1.65m-8.96-1.06 1.88.02m-1.87.01 1.87.01m.04.99v.02m-.05-1.25.03.59m.21-12.33-.07-1.82m2.35 17.45-.11-2.62m1.43-.03v.03m-.05-1.25.03.59m1.68-.37h-1.7m0 .02h1.7m.77-11.95-.14.12m.2-1.97 1.67.12 1.33.12.92.13 1.47 1.75"/><path d="m55.74 77.94.65-.81-.07-1.82m.42-1.07h.21l.62.01h.59l-.7.01-1.96.02m.89 2.85 3.47.01-.07-1.79.86.03.05.02m-3.47-1.21v-.05m.88.05v-.02m1.75 2.97-.66.8"/></g><path d="M45.71 74.25h-.4l-2.17-.03m2.58.06-2.58-.03m12.36.03-2.42.01m2.43.02h-2.43" style="stroke:#3c3c3c;stroke-width:.494"/></g><path d="m176.72 63.66-.02 1.28m.19 0 .01-1.28m1.82-1.45.8-.03-.01.24m-.02 1.93-.01.54m.04-2.71 2.38.08-.01.84" style="stroke:#3c3c3c;stroke-width:.494" id="Actor_.35"/><g id="Actor_.36"><g style="stroke:#3c3c3c;stroke-width:.494"><path d="m170.8 119.43-.18.47.17.75.33.88m.33-3.22-.26-.18-.22.02-.43.57.9 2.39"/><path d="M170.99 117.58h-.02l-.17-.08-.2.26.23.58m.36-.21-.22-.55m0 .57.24.62 2.47-3.24-.24-.62.46-.61.42-.03-.36-.94-.21.27-.02.34.15.38m-3.08 3.18.13-.01m3.92-.76-.95-2.43m.06-.97 1.36-.1m.11 2.74-.88-2.25.63-.3.75 1.91m-.75-1.91.41-.54.76 1.91m-.76-1.91.47-.23.68 1.7"/><path d="m179.92 112.93-1.06-2.59-1.77 1.17-1.26 1.25m.23-.11.51-.03m9.66 24.25 2.31-2.69.88-1.33.18-.65-.64-.12-1.14.3-1.91 1.13-1.71 1.47-3.01 3.06-1.18 1.28-.86 1.06-.44.87.12.66-.75-1.98m.75 1.98.88.05 1.06-.34.23-.16m-2.14-31.12 1.1-.27.63.18 1.05 2.56"/><path d="m180.95 141.2-.39.28-.54.19-.64-.03-.07-.59.43-.81.84-1.03 1.17-1.24 2.4-2.45"/><path d="m184.59 136.16-5.1 5.46-.16-.42m.16.42 1.06-.13.38-.41"/><path d="m196 168.35-.43-.23-.61-.54-.73-.81-1.71-2.28-1.92-2.98-1.97-3.44-1.91-3.69-1.73-3.73-1.45-3.61-.58-1.7-.48-1.6-.36-1.49-.23-1.34-.48.04-.41.02-.1-.02.62 3.07 1.09 3.43 1.53 3.77 1.75 3.8 3.91 7.25 1.96 3.07 1.79 2.41 1.51 1.53.64.38.18.07.76.01.15-.06.15-.14.41-.5.03-.2.13-.83-.4-2.77-1.27-4.42-2.22-6.23-3.29-8.15-4.23-9.88-.31-.05-.47.14-.37.24-.04.19 4.25 9.89 3.2 8.04 1.22 3.32.96 2.84.73 2.37.5 1.91.36 2.4-.17.69"/><path d="m185.1 137.52-2.09 2.02-1.61 1.34m3.48-4.01-3.79 4.04"/><path d="m181.89 140.91.27-.05-.1-.02-.41.01-.48.05-.27.05m4.33-3.12-1.75 1.7-1.58 1.31m.26.02.21 1.37.36 1.49.48 1.62.59 1.71 1.45 3.61 1.73 3.74 1.92 3.69 1.98 3.44 1.92 2.99 1.72 2.3.74.81.63.55.14.08m-11.65-32.33-.01-.01m.07.06-.12-.1-.23-.48-.08-.14m.6.92-.13-.1-.05-.1-.11-.1m-.21-.44.04.09m-.37-3.8.18.3.38.93m1.69 3.59-.32-.81-.06-.06v.01l-.25-.08-.29.14-.28.1-.14-.01-.09.09-.03.04.02.14.34.88m-.03-1.62-.23-.54m.45.69.54-.06m-.58-.17.05.28m.44-.46 2.34-2.51-1.6.98-1.13.97m-.61-.41-.07-.07m.37.7-.03-.19m3.21 7.11-2.26-5.18"/><path d="m185.65 135.68.02-.14-.01-.16-.05-.15-.2-.52-.05-.19-.01-.12m.43 1.51 3.23-3.43h-.02l.01-.02-.29-.07-.8.21 1.08-.12-.18.52-.85 1.29-1.93 2.25m-.67-2.11h-.05m2.51-2.05-.89-2.19m2.67 2.01-.9-2.2"/></g><path d="m171.45 118.31.02.01.03.07m2.13-3-.81.99-.79 1.03-1.1.08m.06.09.72-.06.15.4m-.33-.47.18.07" style="stroke:#3c3c3c;stroke-width:.494"/></g><g style="stroke:#3c3c3c;stroke-width:.494" id="Actor_.37"><path d="m176.45 112.15-.02-.01-.14-.02-2.75.19-.18.04-.17.08-.12.1-3.04 4.06-.03.09.22.56.05-.04.17-.22.08.2.19-.25.22.57.43.55.13.35m-1.27-1.16.59-.04m-.29-.02.28-.02"/><path d="m171.93 117.82-.13-.35-.43-.56-.22-.57.25-.02"/><path d="m171.15 116.34.17-.23.22.58.43.55.14.36m-.09-2.09-.25.02.22.57.43.55.14.36"/><path d="m172.73 116.78-.14-.36-.43-.55-.22-.57-.17.23m1.59.43-.14-.36-.44-.56-.22-.57-.17.23.22.57.43.56.14.36m-.79-1.49.26-.02m1.09-.86-.73.05.23.57.28.36m-.51-.93.21-.27.56-.04m-.56.04-.09-.21.18-.23.17-.24-.21-.53m.39.23-.18.3 2.36-.17m-2.71.64.82-.05m1.41-.16-.06-.13-.63.04-.15.2m.15-.2.07.18"/></g><path d="m119.11 106.81-.32-25.74-2.93.02.38 27.62-2.59-.19-.41-27.45.34-.04h1.01m-1.35.04 2.62.02m.38 27.62 2.49-.18m.06-27.46.26-.04-1.25-.01m1.56 24.62-.31-24.61" style="stroke:#3c3c3c;stroke-width:.494" id="Actor_.38"/><path d="m123.89 113.84-.01-.35m-.44.32v-.18" style="stroke:#3c3c3c;stroke-width:.494" id="Actor_.39"/><g id="Actor_.40"><g style="stroke:#3c3c3c;stroke-width:.494"><path d="m194.97 129.33-.33-.38-.91-.06-7.1.75-1.27.29-1.25.57-.88.68-7.14 7.97-.23.55-6.04-16.16.2-.59 6.58-8.48.82-.71 1.19-.56 1.23-.26 6.94-.49.89.1.36.45 6.94 16.33-.33.61-4.64 4.85"/><path d="m175.86 139.7.4.32.92.02.93-.11m-.97-.56-.06-.16m12.68-5.14 3.82-4.02.16-.3-.17-.19-.45-.03-7.08.76-.64.15-.62.28-.44.34-7.18 7.96-.12.27.2.17.46.01.32-.04m0-25.95 6.72 16.73m3.11-17.43 6.95 16.36"/></g><g style="stroke:#3c3c3c;stroke-width:.494;stroke-dasharray:.5 .5"><path d="m178.11 139.93 5.86-.73 1.17-.29 1.15-.51.82-.6 2.89-3.01"/><path d="m178.02 139.43 6.49-.81.59-.14.57-.25.42-.31 3.67-3.85m-4.38 4.29-2.32-5.88"/></g></g><g style="stroke:#3c3c3c;stroke-width:.494" id="Actor_.41"><path d="m112.95 77.87-.47-.5-.02-1.12h1.11l-.02-.01.6-.01"/><path d="m114.17 76.21-.77.01-.8.01-.32.01.18.01m-.18-.01.05-.37.11-.02.93-.01 1.63-.01 1.06-.01m0-.38H115l-1.64.02-.92.02-.12.02-.03-2.69m.03 2.69.69.02 1.25.01m-.69.72h.56"/><path d="M114.26 75.51h-.18l-.56-.01.1-.02.78-.02 1.66-.01m1-8.53-1.19.02-.98.03-.22.69m.14-.44-.34.05-.16.39m3.07-1.41-.69.01-.98.05-.33.07.01.57m.67 8.58h-.31m.31.01h-.31m7.94.68h.6-.6m1.97.03h.08v-.38l-.58-.02-1.48-.01m.17-.32h.37l.34-.02-.5-.02-.38-.01"/><path d="m123.68 75.46 1.48.02.58.02-.23.02-1 .01-.66.01m1.76-7.19.01-.08-1.22-1.15-.94-.02m.85 10.24-.02-1.12"/><path d="m124.4 67.12.15.05 1.14 1.14-.07-.04m.05 9.07-.01-1.1.08.01m0-.75-.03-4.44m-.02-2.75v.08"/></g><g style="stroke:#3c3c3c;stroke-width:.494;stroke-dasharray:.5 .5" id="Actor_.42"><path d="M143.38 71.18v-.53l.04-.17.11-.12.16-.05 5.08-.05.16.04.11.12.04.17v2.9l-.04.17-.11.12-.16.04-4.8.03m.01.01h.79l.2.01.93-.01-.21-.01h.36l.21.01h.92l-.2-.01h.36v-.01"/><path d="M144.31 72.72v.3l.14-.11h.26v.44l-.14.11.72-.01-.07-.1h-.51"/><path d="M144.31 73.02h.26l.14-.11.51.02m-.77-.02v-.21m.12.76v-.44m.05-1.93v-.07h.62l-.07.11h-.18m-.37-.11.07.06m.53 2.02-.24.25m.31.1v-.44l-.07-.11v.45m0-.45h.26v-.58m-.19.69h.26l-.07-.11m0-1.36v-.25l-.28.01m.28.05-.23-.01m-.05-.04.28.02"/><path d="M145.24 71.02v.16l-.06.1m.3.09h-.02l-.17-.01m-.12-.23v.14m-.16-.12.16.01"/><path d="M145.24 71.18h.31v.37m.36 2.3-.01.01m-.16-1.52v.56h.26l-.14.11v.44h.72l-.06-.11v-.44l.26-.01.06.11h-.26l-.06-.1"/><path d="m145.74 72.9-.14.11h.26m0 .44.14-.11v-.44l.52.03m-.92.08v-.68m-.05.68v-.68m-.09.57v-.58m.54 1.02h.52m-.92-1.79v-.37l.14.11h.31l.72.05"/><path d="m146.46 71.15-.41-.03v.17l-.14-.11h-.31m.14.38v-.27l.99.07.01.32m-1.26-.39.07-.11m-.09.19v.17"/><path d="M145.91 71.18v-.17l.14.11h.41v.17l.31-.01.01.4m-.87-.67.62-.01-.07.12m.12 2.33V73m-.06.09-.25.25m.63-.34.14-.11h.26l-.15.11h-.25l-.01-.8m-.15 0v.69m.1.11v-.8m-.06.69v-.69m.25-.52v-.4h.32l-.14-.11h-.32v.51m-.05 0v-.51l-.07.11m-.04.08h.05"/><path d="m146.77 71.31-.31-.02.07-.12h.31m.05 0 .14.11.99.07h.05m-1.54-.35v.17m.65 2.69.01-.01m.15 0h1.14l-.2-.01h.41v-.01m-1.12-.5.25-.26m-.01-.15-.51-.03v.44l-.15.11V73"/><path d="M147.15 73.44h.73l-.06-.11-.01-.44.07.11v.44m-.84-1.24v.69m.26.44h.52m.25-2-.72-.05v-.17h.41l.07-.12-.62.01v.17"/><path d="m147.21 71 .14.11.41.03m.72 2.71.01-.01m-.47-2.49v1.54m-.21 0 .27-.01-.01-1.61.07-.11h-.31v-.17"/><path d="m147.88 73 .26-.01-.06-.11m.06.11v-1.83m-.38-.05v.16l.31.03"/><path d="M148.07 71.27h-.31l.07-.11m1.26 2.5-.09.04m.04-.04.15-.17-.21.34-.36.01h.07m.5-.46h.22v-.44h-.22m.22 0-.22-.02m0 .57V70.6l-.15-.18m.37 2.96.41.02h-.63m0-.99.66.04-.12.01-.54-.03"/><path d="m149.19 71.74.66.05v.66m-.66-1.85-.03-.17-.07-.06-.21-.1.05.03m.26.53.63.05v.9m-1.05-1.52.11.01m.94 3.13v-.95"/></g><path d="M128.15 112.14v.35l2.09.2-.01-.84m.01.84 2.43-.16.31-.36v-.75m-.31 1.11v-1.01" style="stroke:#3c3c3c;stroke-width:.494" id="Actor_.43"/><path d="M123.85 75.48v.36" style="stroke:#3c3c3c;stroke-width:.494" id="Actor_.44"/><g id="Actor_.45"><g style="stroke:#3c3c3c;stroke-width:.494"><path d="m144.32 71.11-1.14.09-.3.11-.23.23-.57.71-.12.3-.01.32.2 1.19.1.26.87 1.6 1.47 1.99 1.96 2.31 2.35 2.58 8.27 8.76 5.5 6.2 2.47 3.09 2.18 3.02 1.8 2.94 1.33 2.83.18-.38.64-.32.67-.1.24.25-1.43-3.03-1.89-3.09-2.25-3.14-2.55-3.17-5.58-6.3-2.33-2.45-5.91-6.3-2.32-2.53-1.93-2.26-1.44-1.93-.86-1.54-.19-1.12v.01"/><path d="M143.65 72.79v-.01l-.04.09m.18-.11-.18.13m.42-.14-.26.03m9.03 11.58 2.85 3.01m.25 2.85.21.22m.99-1.53.08.08m13.27 20.65.25.25.32-.05"/><path d="m171.57 114.53-.28-1.08-.13-2.8-.21-1.26.53-.26.2.21.57.75 1.28.91.09.1.58 1.06.05.1"/><path d="m170.95 109.39.94 2.01.88 1.53m-.72-1.25.08 1.68.06.35m-.01-4.62-.19.39-.15.07m1.66 2.77-.04-.11-.52-.61-.56-.37-.09-.08m1 1.23-.38-.8"/></g><g style="stroke:#3c3c3c;stroke-width:.494;stroke-dasharray:.5 .5"><path d="m144.03 72.75.49-.05.6-.09.35-.52-.08-.65-.49-.37-.58.04"/><path d="m147.26 72.21-1.7-.04-.16.01"/><path d="m145.32 72.31.9.06.28-.18m-1.1-.65.82.05.12.08"/><path d="m147.03 72.2.38.1.25-.07.18-.2-.01-.26-.21-.14-.65.05-1.55-.03m27.28 43.82-.36.02-.26.17-.08.04.04.19.37-.03.32-.21-.03-.18-.36-.84-.15-.92"/><path d="m172.04 115.89-.43-1.21-.04-.15m1.2-1.6.07.11.43 1.22.37-.03.34-.21-.04-.19-.36.02-.34.22.03.19m.23-1.94.4 1.11.37-.03.32-.2.02-.01-.03-.19-.37.02-.34.22.03.17m-.61-1.03.28.61.37.84m.64-.83-.33-.74"/></g></g><path d="m171.01 65.4.05-4.62-.1.2-.04 4.42m.14-4.62 2.79-.12-.04 4.5m.04-4.5 2.67.1-.05 4.19" style="stroke:#3c3c3c;stroke-width:.494" id="Actor_.46"/><path d="m117.88 76.12-.05-4.43.34-.04 1.34-.03h1.82l1.58.03.73.04.06 6.22m-5.8-.16.01.16m1.3-7 .01.72m3.02-.65v.66" style="stroke:#3c3c3c;stroke-width:.494" id="Actor_.47"/><path d="m228.34 58.89.03-1.12-.59-.33-.04-.01h-.1l-.13-.01-1.92-.01m1.53 1.34h.34l.14.01h.09l.05.01.05.03m-.15-.04.05-1.33m-.24-.01-.06-2.24" style="stroke:#3c3c3c;stroke-width:.494" id="Actor_.48"/><g id="Actor_.49"><g style="stroke:#3c3c3c;stroke-width:.494"><path d="m115.59 61.29-.32.01-.07.01-.03.01-.02.02"/><path d="m115 61.36-.01-.93.17-.26.03-.01.07-.01h.1l3.54-.1h.26l.13.01 3.29.17.09.01.06.01.01.01.01 1.14-.01-.01-.06-.01-.35-.02m-7.11-1.21.02 1.15"/><path d="m122.07 60.2-.05-1.05-.09-1.13-.13-1.04-.16-.95-.39-1.62-.47-1.29-.51-.97-.54-.68-.52-.39-.05-.03-.43-.11-.43.1-.05.02-.51.38-.52.66-.49.96-.44 1.28-.36 1.63-.13.94-.11 1.04-.06 1.13-.02 1.06m3.49-.09.01 1.16m-.46.01.27-.01h.26l.42.02m3.11.16-.01-1.15m.04 1.17.01-.01"/></g><g style="stroke:#3c3c3c;stroke-width:.494;stroke-dasharray:.5 .5"><path d="m122.74 61.42-.27.22-.03.01-.07.01h-.15l-3.42.08h-.37l-3.25-.16h-.1l-.02-.01h-.04l-.02-.01.15-.22m-.15.22v-.2m.05.21h0m3.6-.35-3.06.07"/><path d="m116.92 61.49.55.07 1.07.04h1.19l.86-.05.21-.07-.54-.08-1.08-.04h-1.21l-.86.05-.19.08m2.68-.26 2.73.13m.07.29h0"/></g></g><g id="Actor_.50"><g style="stroke:#3c3c3c;stroke-width:.494"><path d="m140.28 77.63-.01.12h4.2m-3.07.03h.23l.11-.01h.3l.21.01.16-.01.1.01.11.01.11-.01h.52l.1.01.09-.01h.38l.06.01.04-.01h.11v.01m-2.49.05h-.03v.04"/><path d="m141.51 77.84-.1-.05-.01-.02.03-.02m.83.09H144l.06-.08.02-.01m-2.07 0h-.16.06m1.4 0h.06-.1m.73.09v.04"/></g><path d="m140.28 77.63.01-.21h3.94m-3.94 0 .5-.52.33-.29.45-.28.02-.01h1.83" style="stroke:#3c3c3c;stroke-width:.494"/></g><g style="stroke:#3c3c3c;stroke-width:.494" id="Actor_.51"><path d="m204.74 45.07.05-2.3m.68 2.16-.56.09-.14.04-.06.03.04.03.08.03"/><path d="m204.71 45.09.06-2.3.05-.04.14-.03 5.54-.96.22-.03.27-.02.28-.01h8.32l.1.01-.07 2.38"/><path d="m206.77 42.41.33-4.2.64-4.02.85-3.32.99-2.64 1.09-2.01 1.11-1.41.14-.15 1.02-.77.24-.08.7-.16.59.08.24.04.12.04 1.01.69 1.02 1.26.11.16 1 1.93.87 2.58.69 3.29.43 4.02.05 4.06m-8.26 2.28h-.82l-.27.02-.22.03-.43.07m.79-.11.06-2.37m9.11 2.46-.14-.06-.12-.03-.19-.01-.25-.01h-.82"/><path d="m219.69 41.71.09.01.12.03 2.05.96.02.03-.05 1.91"/></g><path d="M224.29 81.19v.06" style="stroke:#3c3c3c;stroke-width:.494" id="Actor_.52"/><g style="stroke:#3c3c3c;stroke-width:.494" id="Actor_.53"><path d="m52.55 82.54-.25-.01.04.13.21.09.75.02.51.01 1.17-.01 1.05-.01.6-.03.19-.09.04-.14-.08-2.08-.08.01-.91.02h-3.52l.05-.01m-.02 2.09-.03-2.08"/><path d="M53.19 82.7h.55l1.16-.01.1.01 1.06-.03.08.01.61-.03.04.01m-3.58-2.23h.01m-.1-5.13v.02m-.02-.65-.03-.59m.61 6.36h1.9m.29-.01-.03-.01m-.32-5.73-.02-.58m1.28 6.31-.46-.01"/></g><path d="m162.82 113.14-.89.79-.1.06-.59.11-.45.01" style="stroke:#3c3c3c;stroke-width:.494" id="Actor_.54"/><g id="Actor_.55"><g style="stroke:#3c3c3c;stroke-width:.494"><path d="m189.5 73.2-.1.01m-.01.21h.51m.31-5.14.28.11.01.01m-.18-.23-.28-.04m0-.02 5.36.11.36.06.42.23.16.23m-.57-.46.69-.04.36.06"/><path d="m196.64 69.27.17.54.14.61-.1-.54-.14-.59-.31-.48-.29-.33"/><path d="m196.06 68.35.32-.02.21.02.42.17.04.03.49.7.03.07.23 1.02.01.09-.09 1.11-.03.09-.2.49m-1.03-3.88.35.01 2.29.14"/><path d="m196.88 68.61.08.05.28.31.22.42.15.5.07.56-.01.58-.1.56-.16.48m-.56-.53.09-1.03-.03.51-.07.61.03-.6.01-.62m-.11 1.23-.01.01m.08-.02-.02.05m-.09-2.31.21.97m0 .16v.01l.01-.09"/></g><g style="stroke:#3c3c3c;stroke-width:.494"><path d="m189.4 73.21-2.68.1-.65.02-.29-.05-.04-.02-.53-.47-.05-.05-.33-.87-.03-.09"/><path d="m189.39 73.42-3.22-.03-.34-.07-.09-.03-.58-.53-.36-.97v-.01"/><path d="m188.42 72.65-.27.2-.3.07-1.83.05-.69-.38-.33-.83m10.91-3.4.15-.01m-.04.07.28.01.34.05.24.13"/></g></g><g style="stroke:#3c3c3c;stroke-width:.494" id="Actor_.56"><path d="M215.19 73.45v.34m10.46 4.1.01-.23m.77-1.69h2.13l1.39.01.88.01-4.4.01"/><path d="m226.43 75.98 1.86.01 1.03.01"/><path d="M226.45 75.53h1.57l1.91.01 1.04.02.07.02.02 1.73-.28-.01-.65.59m-3.67-2.79h1.12l1.53.02.59.02-.44.03-1.36.02-1.44.01"/><path d="m226.46 75.22 1.97-.02 1.73-.02.89-.03-.06-.03-1.04-.02-1.91-.01-1.58-.01m.28-8.54.94.01 1.06.02.14.18 1.57.06.85.08.06.1-.31 8.16m-2.31-8.58-.44-1.27-1.15-.02-.37-.01m.74.01.02-.59-.07-.09-.66-.05"/><path d="m228.98 66.75-.4-1.06-.16-.03m2.64 11.65-.63.58m.35-.59.05-1.31"/></g><g style="stroke:#3c3c3c;stroke-width:.494" id="Actor_.57"><path d="m169.63 65.62.05-5.02-1.19.03-.04 4.46-2.77.05.03-4.45-1.17.03-.04 5.24.07.28h.04l3.65-.05m-3.76-.23 4.48-.07m-4.41.35 3.79-.06m-2.49-3.2-.01 2.16"/><path d="m165.75 62.85.15-.5.51-.01-.15.5v.11l-.51.01v-.11l.51-.01"/><path d="m166.26 62.95.14.03-.51.01-.14-.03m.83-.65-.65.01m0 .03.04-.15-.06-.01.01-1.34.82-.02v-.1l1.13-.03v.11l.62-.02"/><path d="m165.91 62.19.87-.02v.59m-.83-.5.63-.01m-.87-1.56.62.15m1.44 4.27.06-.93-1.13.02-.1.83.01.1"/><path d="m166.6 65.03 1.04-.02.19-.83m-1.43-1.2v-.22l1.63-.03"/><path d="m166.41 62.34.16.03v.39m0-.29h0m-.15-.13.16-.01m-.01.17h0m0 .06h0m0-.17h.01"/><path d="m166.78 62.21-.29.01.09.02-.01.48v.02m.01-.53v.03m-.01.34h0m0-.16h.01m1.06 2.59-.01.1m.84-2.31-.46.01v.1l.13.03h.33m-.46-.03.46-.01m-.12-.67h-.31m-.03.58.14-.51.32-.01"/><path d="m168.48 62.14-.67.01-.01.59"/><path d="m167.81 62.15.16.04-.01.54m.01-.54.46-.01.05.01m-.13.11v-.12"/><path d="m168.03 62.72.01-.49v-.05m.23-1.38-.4-.1m.58 1.59v-.11m1.37 3.36.01-1.56-.01-.31"/><path d="m170.13 62.17-.21-.05-.09.32-.03 3.11"/><path d="m170.22 62.8-.29-.07-.03-.43-.03-.01m.26-.05h-.25m.02-.06h.23m-.01.3-.21.01m.21.02h-.2m.21-.25-.25.01m.03.05h.22m-.22.09.22-.01m-.22.03h.22m-.22-.08.22-.01m-.45-1.74 1.3.34m-.8 1.75v.1"/></g><g style="stroke:#3c3c3c;stroke-width:.494" id="Actor_.58"><path d="m92.47 113.2.1.33.05 1.96-.1-.36-.05-1.93.87-.34 20.3-4.95m-21.02 7.58 1.06.29 1.89.19 48.28 2.72 2.66.06 2.61-.11 2.12-.26 1.32-.36 11.25-5.35.6.15"/><path d="m92.57 113.53 1.07.28 1.89.18 48.32 2.58 2.66.05 2.61-.1v2.12m-45.72-2.23-1.01.29.17 8.52-2.88-.2-.17-8.48 1.02-.29m-1.02.29 2.88.16"/><path d="m101.25 116.29.01.01-.38.11-.01-.14m.01.14-.23-.01v-.14m.39-2.43.52.06.69-.06-.08-.1h-.75l-.3.04-.08.06m1.52 11.39 11.83-4.17-.05-4.02m-12.12-.69v.15l.22.01.39-.11v-.01m-.39.12.01-.14m.48-2.93.25.03.68-.06-.09-.1h-.74l-.29.04-.08.06.27.03m1.39-.5.29-.05h.73l.09.1-.67.06-.51-.06.07-.05m1.83-.46.72.01.1.09-.67.06-.5-.06.07-.05.28-.05m1.16-.3.07-.05.27-.04h.72l.1.09-.66.06-.5-.06m1.54-.44.27-.04h.71l.1.09-.64.05-.5-.05.06-.05m1.38-.34.06-.04.27-.04h.7l.1.09-.63.05-.5-.06m1.53-.36-.12-.01.06-.05.27-.04.69.01.1.08-.62.05-.38-.04m6.85 2.4.25.1 1.01.1 7.01.36 1.32.01 1.24-.08.83-.15 11.74-3.95.11-.15-.48-.13-.94-.09-6.26-.27-1.15-.01-1.07.06-.72.12-12.82 3.83-.25.18.18.07m3.71-4.62.27.04-.03.11-.67.08H121l-2.17-.09-.59-.08.05-.1.4-.05"/><path d="m122.93 113.79 8.59-2.71.71-.12 1.07-.07 1.15.01 3.8.18m-12.66-2.81.63-.08.04-.15-.61-.06m6.87-1.62-6.59.35"/><path d="m129.23 111.8 2.23.11v-.81m0 .81 3.11-1m-1.8.02-.02-1.73m2.74-2.61-.33.03.11.09.77.03.64-.06-.11-.09-.76-.03-.32.03m2.29 20.64-.04-8.52 3.22.18.03 8.99-3.21-.22v-.43m-.04-8.52.78-.32m.53.03.01.15-.26-.02v-.15m.26.17.28-.12v-.02m-.03-2.65-.03.06.62.08.67-.07-.21-.12h-.79l-.26.05m1.78 2.75v.01l-.29.13.01-.15m-.01.15-.25-.02v-.15m-.01-3.2.25-.04h.79l.2.11-.65.06-.62-.07.03-.06m.45 12.58 8.89-4.63v-4.7m-8.92.34.76-.32m.6-3.6-.61-.07.02-.06.26-.05h.77l.21.11-.65.07m-.44-5.37v.26m1.26 4.48-.24.04-.01.06.6.07.64-.06-.21-.11h-.78m1.53-.44h-.38l-.24.04-.02.06.6.06.62-.06-.2-.1h-.38m.77-.44-.28.05-.01.05.59.07.62-.06-.21-.1-.71-.01m2.1-7.58-1.82-.15-.26-.05m.78 7.46.01-.05.24-.05.73.01.21.09-.61.06-.58-.06m1.07-.47-.01.06.58.06.6-.06-.21-.1h-.73l-.23.04m1.81 3.85 2.12-.24 1.32-.35 14.62-6.59-.01 1.73-3.36 1.6m-12.07-2.48-.28.04.06.12.32.04m.04 0 .35.04 2.37.11.94-.01.6-.09-.08-.12-.47-.05m-.11-.7.67-.09-.12-.16-.62-.07m7.94-.76 3.83.85"/><path d="M164.62 112.28v.62l-.21-.06v-.46m-.31.15.31.08m3.8 1.3-3.09-.15v-.58m-.5-.28.84-.06v.42l-.48-.12v-.21l.06-.06m-.35.02.29.07"/><path d="M165.14 112.86v.11l-.16-.04m.02-.83v.35l.21-.38.43.11.16-.28v-.18m-.8.73 1.65-.12m-1.19.93 1.98-.13m-1.8-.95.8-.06m-.64-.22.39-.03m9.03-6.41-1.96-.08m1.47.58-.05-.09-.3-.01m.31.03-.24-.01"/></g><g style="stroke:#3c3c3c;stroke-width:.494" id="Actor_.59"><path d="m176.82 98.41-.28.09-1.19-.03-.05 4.36-2.78-.09.05-4.35-1.18-.03-.04 4.2"/><path d="m171.39 98.36 4.46-1.4 1.11.03-4.39 1.4m-.58 5.12 3.65.12m-.06.23-3.43-.11m.37-1.01.16-.06.02-2.1m-.02 2.1.76.02"/><path d="m172.6 100.47.13-.57.51.02-.13.57-.51-.02-.01.11.52.01v-.1m.07-.73-.29.09m-.13.03h.04l-.07.02"/><path d="M174.78 99.8v.52l-.15.06-1.02-.04v-.57l-.87-.03.01-1.3 4.04-1.3.31.01"/><path d="m173.24 99.92.15-.05-.63-.02m.03-.11-.04.16m0-1.46.82.02.01-.11 1.13.03v.11l.64.02m-.88 4.27-1.03-.03v-.1l.09-.89 1.13.04-.18.88-.01.1.12-.04.07-.94m-1.22.85 1.04.03m-1.37-2.09.12-.04v-.21l1.66.05m-1.51-.11.23.01"/><path d="m173.39 99.87-.01.42-.15.05m.15-.58v.11m.43-1.59v-.04l-.5.16.26.01m3.51-1.19-3.5 1.13m.47-.15h-.11l.48-.16v.04m-.61.16h.11m.5-.2h.11m.77 4.73-.72-.03m.75-2.82h-.2l-.14.05-.13.57v.1l.46.02m-.46-.12.47.01m-.27-.74-.13.04h-.15m0 .05h.02l-.02.01"/><path d="m175.33 99.82-.69-.02-.01.58m.59-.56v.1m-.22-.11v.02m-.01.14.34.01m-.62-1.49.45-.15.41.01.47-.16-.4-.01-.01.15m-.92.05 2.28-.75m-1.37.06v-.03l-.47.15h.11m-.13.04h-.11v.03m0-.03-.47.15h.11m.69.47 1.57-.53m-1.28.24.12-.04.41.01.46-.16-.4-.01v.15m-.5-.47h-.11m.23-.04h-.11l.46-.15h.1m.23 2.22.01-1.19m-.31-.52.13-.04.4.01.17-.06m-.73-.42v.04m.75.28h-.13l.12-.04h.02m-.14.04-.01.14m.06-.64-.1-.01-.45.15h.11m.34-.15v.04m.19-.33v.16"/></g><path d="m205.86 73.85-.89-.39m1.49.01.81.36m2.44-.36.54.27m-7.59-.31 1.08.45" style="stroke:#3c3c3c;stroke-width:.494" id="Actor_.60"/><g style="stroke:#3c3c3c;stroke-width:.346" id="Actor_.61"><path d="M116 71.08v.17l.06 4.66m1.93-10.41-.61.74-.73 1.54m1.13 3.5.08 4.82m-.49-.18-.07-4.66v-.07m.48.09-.04-.33m.14 6.8v.15m.42-6.8.02.2.01.35m-.42-.55v.18l.01.4m.53-.58v.21l.01.33m.36-.57.04.26v.31m.13-.01v-.29l-.01-.27m7.38-6.17-.8.3-1.32.96-.92 1.11m-.01-1.27 1.25-.91 1.51-.57.29-.03m0 .17-1.3.49-1.32.96-.42.51m-.01-1.04.75-.55 1.51-.57.79-.1"/><path d="M126.36 64.25h-.09l-1.2.15-1.52.58-.25.18"/><path d="m126.36 64.17-.6.02-1.2.15-1.26.48"/><path d="m123.3 64.56.74-.28 1.21-.15 1.1-.04m0-.15-2.13.06-.93.12m3.06-.11-1.61.06-1.22.15-.23.09m0-.34.34-.05 2.72-.04m-.01-1.39-2.72.06-.35.06m.95 1.39 2.13-.07m-1.58.14 1.58-.05m-.81.1.81-.02m-.59.09.6-.02"/></g><g style="stroke:#3c3c3c;stroke-width:.346" id="Actor_.62"><path d="m170.61 62.97.33-.01m0-.02-.65.01-.17-.4.01-.77.17-.32.65-.01m-.01 1.53-.26.01-.14-.03v-.01"/><path d="m170.94 63.04-.07-.01-.01-.05m5.63.69 1.18-.03.7.05m-1.88-.31.5-.02m-.5-.06.21-.01m-.21.24 1.07-.03m-.28-.07-.79.02"/><path d="m176.5 63.11 1.73.5 1.95 1.13.15.15"/><path d="m176.49 63.54.97-.02.73.08m-1.7-.28h.1l.99.11m-1.09-.16.88.1m-.21-.07-.67-.07m.46.01-.46-.05m0-.04.24.03m-.23-.07.02.01m1.47.42-.82-.09-.68.02m0-.07.4-.01.9.1m-1.16-1.84.19.06-.27-.08"/><path d="m176.51 61.62 2.36.68 2.23 1.29 1.4 1.36"/><path d="m176.82 61.71 1.53.44-.76-.22m-.74-.22.16.04.58.17-.66-.19m.66.19.76.22-.76-.22m-.36-.11.36.1-.28-.08-.16-.04"/><path d="m177.52 61.89.07.02-.15-.04m.15.04.76.22-.76-.22m5.13 3.04-1.34-1.29-2.22-1.28-.81-.23.74.21 2.22 1.29 1.36 1.3"/><path d="m178.35 62.14 1.03.3 2.21 1.28 1.29 1.24m-4.72-2.88-.57-.17.76.23-.19-.06m-.42-.13.15.04.46.13-.53-.15"/><path d="m178.1 62.05.25.07-.17-.06-.15-.03m.32.09 1.53.44-.76-.22m-.81-.24.16.04.65.19-.73-.21m-.04.02.77.22-.77-.22m0-.01.77.22-.77-.22m0-.01.77.22-.77-.22m.77.21.76.22-.76-.22"/><path d="m178.6 62.18.15.03.37.11-.45-.12m.45.12.76.22-.76-.22"/><path d="m178.95 62.27.17.05-.24-.07m.24.11.33.1 2.21 1.27 1.27 1.23"/><path d="m183.09 64.96-1.22-1.17-2.2-1.27-.55-.16.61.17 2.2 1.27 1.21 1.16"/><path d="m179.12 62.35.83.24 2.19 1.27 1.16 1.11"/><path d="m179.12 62.34 1.11.32 2.18 1.26 1.09 1.05"/><path d="m179.88 62.56.42.12 2.17 1.26 1.08 1.03"/><path d="m179.88 62.55.9.26 2.17 1.25.96.92m-4.79-2.66 1.53.44-.77-.22m-.72-.21.15.03.57.17-.65-.19"/><path d="m184.74 65-.7-.67-2.12-1.22-2.34-.67-.15-.04"/><path d="m179.88 62.57.14.04 2.18 1.26 1.14 1.1"/><path d="m183.75 64.98-1.01-.97-2.17-1.25-.69-.2.63.18 2.17 1.25 1.02.99"/><path d="m180.65 62.77.2.06 2.16 1.24.94.91"/><path d="m179.88 62.54 1.18.34 2.15 1.24.89.87"/><path d="m180.65 62.77.47.13 2.15 1.24.88.85m-4.27-2.46.77.22-.77-.22m.77.22.76.22-.76-.22"/><path d="m184.35 64.99-.82-.78-2.14-1.24-.74-.21.68.19 2.14 1.24.83.8"/><path d="m184.54 65-.75-.73-2.13-1.23-.25-.07.18.06 2.13 1.23.78.74m-.61 15.74-.01.75m.04-9.62.08.87-.07 5.19m1.67 3.6.01-.76m.26 0-.01.77m-.49-.78-.01.77m.28-.76-.02.76m.27-.76-.01.77m-.2-3.61.07-4.35-.08 4.35m.27 0 .06-3.59-.08 3.59m-.53-6.21.1 1.02-.08 5.19m.34-4.35.01-.82-.16-1.06m.4 2.64.01-.76-.01.76m.01-.85v.09l.01-.77-.01.68m.01-.68-.17-1.13m.26 9.86.02-.76m.23.77.02-.77m.25.01-.02.77m-.48-.01.02-.77m.25 0-.02.77m.27-.76-.02.77m-.44-3.63.06-3.59-.07 3.59m.26 0 .06-3.59-.07 3.59m.26 0 .06-3.59-.07 3.59m-.43-3.59.03-1.53-.18-1.16m.4 2.69.03-1.51-.18-1.2m.4 2.71.03-1.48-.01.72m0-.74.01.02-.17-1.12m1.03 24.86-.15.64-.26.35m-.36-16.8-.01.77m.24.01.02-.77m.22.77.02-.77m-.24.77.02-.77m.23.77.01-.77m-.49-.01-.01.77m.06-3.63.06-3.59-.07 3.59m.25 0 .06-3.59-.07 3.59m.26 0 .06-3.59-.08 3.59m.08-3.59.02-1.41-.12-.8m-.15 2.21.03-1.43-.14-.91m-.13 2.34.02-1.46-.15-1.01m.71 9.71.02-.77m.22.78.02-.78m-.22 0-.02.77m.24.01.01-.78m.25.01-.02.77m-.41-3.66.06-3.59-.08 3.59m.25 0 .07-3.59-.08 3.59m.27-5.41.08.48-.09 4.93m-.42-3.59.02-1.39-.1-.69m.32 2.08.02-1.36-.09-.59"/></g><g style="stroke:#3c3c3c;stroke-width:.494" id="Actor_.63"><path d="M129.21 97.46v.27l1.35.03-2.56.48m-.01-.51.01.24.33-.06h-.12m-.21.06-.14.03"/><path d="m128.21 97.86.09-.02.01-.09v-.11"/><path d="m127.95 97.55.05.18.14-.02.09-.39.17-.03.09.36-.33-.01m.33.01.14-.03.08-.38.18-.04.08.36.14-.03.09-.38.17-.03.08.35.14-.03.08-.38.17-.03.09.35.14-.02.08-.38.16-.03.09.35.35-.07.12.28v.63m-2.87-.41h-.09m.39.13h0v-.02"/><path d="M129.16 97.73h.12l-.75.14-.32-.01m-.01-.16.11.01m-.1.22-.01-.09v-.2m-.3.16v.19m.48-1.8-.12-.01m-.05.23 2.88-.49-.98-.02-1.86.31m.88-.15-.21-.01.23-.03v-.1l-.83-.02m-.04.17.87-.15"/><path d="m128.64 97.85.01-.1v-.2m.56.13h-.05m-.19-.12-.32-.01m.48-.09.32.01m-.29-.01v.2l.01.09m-.22-.19v.23m-.09-.24v.26m.06-1.76v.05m.23-.08h.2m.61 1.36.58.01.02.37"/><path d="m130.07 97.36.58.01.12.26.04.51m-.88-.76-.32-.01m.79-.07-.32-.01m.46.1.11-.02m.22.14-.16-.01m.39.63-.01-2.21"/></g><g style="stroke:#3c3c3c;stroke-width:.494" id="Actor_.64"><path d="m126.48 66.88 4.59-.07-.1-.26-4.59.07.1.26.06.01 4.58-.07-.05-.01"/><path d="m126.38 66.62-.05-4.94 1.06-.03.9.14"/><path d="m127.39 61.65.03 4.2 2.48-.04-.03-4.21 1.06-.03.04 4.98m-3.29-.7-.02-2.04"/><path d="M127.94 63.68v.1l-.45.01-.01-.1.2-.48.46-.01-.2.48-.46.01"/><path d="m127.49 63.79.2.03.46-.01-.01-.21 1.39-.02m-1.8-.37.05-.14-.08-.01-.01-1.26.73-.02v-.1l1.01-.02v.1l.44-.01"/><path d="m127.7 63.06.78-.01v.55m-.75-.41.71-.02m-.68-.04.68-.01m.76 2.7v-.09l.24-.79-1.01.02-.15.78v.09m0-.09.92-.01m-1.26-1.95.21.03"/><path d="m128.14 63.2.24.03v.37m-.23-.4h.29m-.06.05h.06"/><path d="M128.44 63.6v-.5l-.13-.01.17-.01m-.04 0v.02m-.06.17h.06m.96 2.55.04-.88m.45-1.17-.18.01-.2-.03.38-.01m-.01-.57h-.18l-.19.48.38-.01m-.38.11v-.1"/><path d="m129.88 63.05-.24.01-.24-.03v.55m0-.55.48-.01m-.07.15v-.11m-.17.26v-.26m.23-1.33-.44-.07m1.71 5.12h.11l-.02-2.02-.03-.48m.05 2.5 5.49.57-.01-1.92-.08-1.25-.13-.3-.1-.01-1.37.02v.18m-3.4 2.8.51.05"/><path d="m131.12 66.82.1-.24-.02-3.27v-.01"/><path d="m131.2 63.31.12-.31.37.05.09-.38.17.03.09.4-.77.02"/><path d="m131.26 63.16.1.01.03.41 5.05.67-.02-.38"/><path d="m131.61 63.26 1.41-.02.14.02-1.41.02-.14-.02-.01-.05m-.23-.02 1.16-.02.14.02-1.3.02m-.11-.07.92-.02-.14-.02m-.75-.04.4-.01"/><path d="m130.93 61.57 6.03.92.02 4.69-.09.23h-.04l-.52.01m-4.06-3.73v-.34m-.09.33v-.34m-.21.31v-.37m-.1 0 .01.36"/><path d="m132.08 63.28.01.05 1.41-.03-.09-.4-.17-.02-.08.38"/><path d="m132.09 63.33.14.02 1.41-.03-.14-.02m-1.83.31-.01-.34m.52-.15.09-.38.17.03.09.4m.09 3.8.51.05m-.2-3.61v.37m-.09-.01v-.36"/><path d="m132.56 63.34.02.06h.05v.34m.51.07v-.34"/><path d="m132.63 63.4.09.02 1.39-.03.08-.37.17.02.09.39-1.4.03-.01-.05"/><path d="m133.05 63.46.14.02 1.39-.03-.13-.02m-1.87-.03 1.39-.03.14.02m-1.09-.15-.09-.41-.17-.02-.09.38m.91 3.88.5.05m-.86-3.37h0m0-.14v.03m.01.16h-.01m0-.32v.34m.01 0-.01-.34m.66.43v-.37m-.1 0 .01.36"/><path d="m133.52 63.47.01.06h.05v.34"/><path d="m133.53 63.53 1.38-.03-.08-.39-.17-.03-.08.37"/><path d="m133.97 63.37-.08-.4-.17-.02-.08.37m1.27.18.14.02-1.39.03-.08-.02m.95 3.64.48.05"/><path d="m134.45 63.6.01.06 1.38-.03-.09-.39-.16-.02-.08.36-.13-.02-.09-.39-.16-.02-.08.37"/><path d="M134.46 63.66h.05v.33m.2.03v-.35"/><path d="m134.51 63.66.08.01 1.38-.02-.13-.02m-1.68.32v-.34m-.08-.01v.34m1.43-.36-1.38.03-.13-.02-.02-.05m.02.05 1.38-.03m-.08 4.95-.01-.49m.16-.76.47.05"/><path d="m134.91 63.67.01.05 1.37-.03-.08-.39-.16-.02-.08.37m-.97.1h.12l-.2-.03m.08.06.62-.01m-.62.29v-.33m-.19.3-.01-.36m.71 4.83v-.49m1.22-.85h.03l-.02-3.1-.11-.32-1.02.02.05.12m1.08 3.47-.41.01m.43-.2.09.25m.04 0-.56.01m.41-3.36h-.14m.03-.32-.34-.05"/></g><path d="M85.69 77.79h8.46-8.42m8.88 0h.12-.58.46" style="stroke:#3c3c3c;stroke-width:.494" id="Actor_.65"/><path style="stroke:#000;stroke-width:.6" d="m189.91 125.97 12.01 31.99"/><path style="fill:#000" d="m191.35 125.53-2.89.88.44-3.11z"/></svg>