<svg xmlns="http://www.w3.org/2000/svg" width="1122.52" height="793.701" viewBox="0 0 297 210" stroke-linejoin="round" stroke-linecap="round" fill="none" fill-rule="evenodd"><script type="text/ecmascript"><![CDATA[
if(typeof(top) != "undefined")
{
	top.ShowPaper = ShowPaper;
}
function ShowPaper()
{
  var svgDocument = getDocument();
  var paper = svgDocument.getElementById("paperID");
  if(paper)
  {
    paper.setAttribute("transform","scale(1)");
    paper.setAttribute("opacity","1");
    paper.setAttribute("visibility","visible");
  }
  var svg = svgDocument.getRootElement();
  if(svg)
  {
    svg.setAttribute("width","307.000mm");
    svg.setAttribute("height","220.000mm");
    svg.setAttribute("viewBox","-5.000000 -5.000000 307.000000 220.000000");
  }
}
]]></script><path style="fill:none" d="M296.99 210H.05V.05h296.94z"/><g style="stroke:#3c3c3c;stroke-width:.494" id="Actor_.0"><path d="m148.37 44.57-.26-1.18.86.51 1.58.38 1.05.12 1.13.07 1.18.01 1.15-.06 1.09-.12.96-.17.79-.23.6-.25.38-.28.13-.3-.11-.29-.44-.48.44.56.11.21-.15 1.26-1.76.77-3.19.36-3.36-.21-2.18-.68m-.26-1.18-.03-.55.2-.31 1.38-1.37 1.94-.61-.01.01-.32.27.25.27.02.01"/><path d="m149.49 41.32-.09.38.02.05.49.36.14.04 1.01.28.23.01m.67 2.9.02 8.06-1.27-.51-.03-7.63m-1.02-4.1.73-.37 2.06-.44-.85.2"/><path d="m150.71 52.89 1.85 1 1.76.01.91-.44.69-.34-1.77.38-2.17-.1m-.69-10.95 1.33.16.31-.02 1.43.01.31-.04 1.27-.14.26-.08.89-.25.16-.1.35-.31.04-.11-.24-.32-.09-.1m-3.86.24h-.04l-1.09-.08-.79-.2h-.01v-.01"/><path d="M151.6 41.13v-.58l-.04.56m.06-.56.96.16.97-.42-1.1.06m1.1-.06.02-.01v1.1"/><path d="m153.45 41.39 1.11-.07.83-.2h.02v-.01l.32-.27-.26-.27h0l-.02-.01-.93.15-.93-.42-.02-.01"/><path d="m153.59 40.29.66.02.42.05.78.2"/><path d="m154.67 40.36 1.55.3.94.33 1.3 1.31m-2.54 10.82.34-.62.04-7.31m-.89-4.07h0m.03-.03.03-.52"/></g><g style="stroke:#3c3c3c;stroke-width:.494" id="Actor_.1"><path d="m139.76 132.91-.11-4 .91 1.72.21 7.42-.9-1.76-.11-3.38"/><path d="m139.65 128.91 2.21-1.33 3.12.34.97 1.69-2.2 1.37.15 7.44-3.13-.37m-.21-7.42 3.19.35"/><path d="m141.56 129.06-.17.25.44.54 1.01.19.98-.26.37-.57-.44-.53-1.01-.19-.97.26-.21.31m.21-.31.03 1.06m2.1 8.61 2.17-1.41-.12-7.4"/></g><g style="stroke:#3c3c3c;stroke-width:.494" id="Actor_.2"><path d="m116.62 146.98-.69-1.96-.65-7.6.69 1.9.65 7.66 3.23.4-.59-7.67 2.54-1.52.54 7.63-2.49 1.56"/><path d="m121.8 138.19-.75-1.87-3.23-.38-2.54 1.48m.69 1.9 3.29.39"/><path d="m117.54 137.24 1.07-.29 1.02.21.38.59-.48.63-1.07.29-1.03-.21-.38-.6.49-.62.1 1.26"/></g><g style="stroke:#3c3c3c;stroke-width:.494" id="Actor_.3"><path d="m136.41 22.54.12.15.29.14.45.12.59.1.7.08.78.04h1.56l1.48-.12 1.16-.21.66-.26.07-.28.05.77-.6.45-1.89.32-2.47.06-2.07-.22-.86-.42-.02-.72.05-.15.08-.16.98-1.06.43-.21 1.24-.34-.41.13.56.1.55-.32-.7.09"/><path d="m137.41 21.29.02.21.47.2h.12l.78.14.19-.01.49.03h.09m-2.05-.69 1.26-.42m-.39 3.04.15 5.8.21.32.57.41.9.18 1.22-.09 1.08-.66-.95.28-1.57.06-.15-6.2m-1.1 6.02 1.25.18"/><path d="m139.57 21.86.52.02.1-.01 1.01-.01.22-.04.86-.08.18-.06.56-.13.1-.07.17-.15.01-.07m-4.53-.51h.01v.14l.4.13h.02l.72.06h.33l.48-.01h.02m-1.87-.14-.1-.18"/><path d="M140.75 21.07h.01l.7-.09.41-.13h.01l-.02-.15-.41-.12h-.01l-.71-.06-.81.01.76.24.76-.19"/><path d="m139.92 21.08-.02-.55h.02m-.03 0h.01m1.94.33.04-.01m2.39 1.45-.05-.11-1.05-1.06-.32-.19-1.4-.36.21.34"/><path d="m141.46 20.98-.01-.4.02.01m1.05 9.16-.12-6.01"/></g><g style="stroke:#3c3c3c;stroke-width:.494" id="Actor_.4"><path d="m184.45 37.23-.28-.47-.01.81.56.74 2.32.57 3.2.17 2.79-.3 1.3-.65.07-.9-.22.23-.44.22-.64.19-.81.15-.95.1-1.04.05-1.09-.01-1.08-.05-1.03-.11-1.62-.32-1.03-.42m-.28-.47.15-.28 1.41-1.29 1.79-.55.02-.01.82.16.85-.38-.99.06-.68.16"/><path d="m185.56 35.35.07.32.06.04.61.31.16.02 1.04.24.25.01m-1.57 9.81.83.53.93.38 1.63.01 1.53-.72-1.5.32-2.05-.08-1.37-.44.46-7.32m1.58-4.31-.95.19-1.04.22-.5.31.62-.19m1.2 11.54.5-7.61m-.31-2.63 1.29.13.29-.01 1.31.01.29-.05 1.09-.11.22-.07.69-.21.13-.08.16-.26v-.1"/><path d="M189.63 35.34h-.04l-1.05-.07-.81-.17h-.02 0l-.36-.24.18-.22.05.38m-.05-.39v.01"/><path d="m189.17 35.31.06-.9h-.02m.42.93.99-.06.68-.17h.02l-.04.01m-.18-.48-.95.15-.91-.38.63.02.41.04.83.17.01.01.37.23-.17.23m-2.08-.7h-.01"/><path d="m191.08 35.17.03-.53 1.48.41.48.34 1.23 1.36.09.2.01.25m-3.3 9.1.07-.53.49-6.87m-.54-4.25.08.49m.12-.03h0"/></g><g style="stroke:#3c3c3c;stroke-width:.494" id="Actor_.5"><path d="m114.01 25.92-.01.7-.22.51-1.73.45-2.6.2-2.42-.12-1.31-.4-.16-.93.09.16.27.16.44.13.6.11.73.08.82.04h.88l.9-.03.88-.07.82-.1 1.24-.26.7-.31.08-.32-.05-.06-1.19-1.11-.28-.22-1.32-.31.23.15-.21.17h0m-5.63 1.79.11-.18.07-.16.99-1.15 1.46-.52h.01l.75.12.71-.33-.84.08-.62.13"/><path d="m111.35 25.46-.1.02-.51.06-.24.04-1.09.03-.24.02-1.04-.05h-.19l-.8-.14-.12-.01-.42-.2-.02-.02.03-.23m.12-.14.52-.23.91-.28m.35 9.8 1.35.17 1.68-.11 1.01-.34-.74.51-.66.28-1.36.06-.68-.24-.6-.33-.22-.36-.5-6.07m.31-3.31-.14.1.23.15h0l.01.01-.01-.32-.09.06m.09-.07.02.33m-.01 0 .63.09.85.01h.03l.84-.07.29-.05.33-.09h.02"/><path d="M109.66 24.11h.01l.05.64m-.05-.64.86.02.62.09-.71.17-.75-.28m.02.64h0m1.83 9.44-.5-6.53m.31-2.2.46-.07.73-.18.12-.07.23-.18.02-.07m-1.72-.36-.02-.31h-.02m.02 0 .09.02m1.29 9.61-.47-6.28"/></g><g style="stroke:#3c3c3c;stroke-width:.494" id="Actor_.6"><path d="m176.62 171.72-.2-.34.47-8.27h0l1.61 2.54-.51 8.33-1.37-2.26"/><path d="m176.89 163.11 2.31-1.96 3.91.51 1.68 2.5-2.29 2.03-.6 8.33-3.91-.54m.51-8.33 4 .54"/><path d="m179.83 164.5-.7-.79.3-.83 1.11-.39 1.28.28.7.79-.29.84-1.12.39-1.28-.29m-.47-.53.07-1.09m2.47 11.64 2.26-2.07.63-8.29"/></g><g style="stroke:#3c3c3c;stroke-width:.494" id="Actor_.7"><path d="m150.66 187.23-1.3-2.94-.08-8.52 1.33 2.88.05 8.58 4.08.62.04-8.59-4.17-.61m4.17.61 2.74-2.3-1.41-2.83-4.08-.58-2.75 2.22"/><path d="m151.57 176.45.45-.95 1.24-.43 1.31.32.63.89-.43.95-1.25.45-1.33-.33-.62-.9m.45.66v-1.61m2.72 12.35 2.68-2.34.1-8.55"/></g><g style="stroke:#3c3c3c;stroke-width:.494" id="Actor_.8"><path d="m48.2 103.98 18.04 29.89 1.8 1.54 3.01.86.46 2.47-3-.87-1.79-1.56-18.06-30.19-.46-2.14-.1-1.3 1.12-1.38 2.13-1.24 2.81-.93 43.09-10.4 21.62 1.95 1.13-.09.75-.4-.08-.46-.86-.26-19.24-1.72.14 1.29m-29.2 49.7 3.73.04 3.83-.81 51.47-16.79 7.33-13.36.77-.5 1.25-.12.41.14"/><path d="m71.05 136.27 3.75.04 3.86-.8 51.77-16.64.11 2.31m-53.76-9.89.23-.18.38.01v.18l-.17.08-.21.03-.23-.12m2.26-.74-.23.18.24.11.21-.02.17-.08-.01-.18-.38-.01m2.24-.29-.21.03-.23-.12.22-.17.38.01v.18l-.16.07m1.71-.75-.15.11.24.12.21-.03.16-.07-.01-.18-.37-.01-.08.06m4.05-15.45-.57-.2.07-.72 1.28-.6 1.73-.14 1.18.41-.05.72-1.27.61-1.76.14-.61-.22m13.53-6.31 2.27-.93 1.85-1.04 1.38-1.1 1.68-1.25 2.32-1.07 2.81-.83 5.18-1.22m-5.79 40.25-.09-1.07 1.4-.88 2.07-.2 1.54.61.13 1.06-1.39.9-2.11.2-1.55-.62m.2-37.33-.12.06.07.61 1.17.35 1.59-.12 1.06-.52-.09-.61-1.17-.34-1.57.11-.94.46"/><path d="m113.53 121.07.25-.16 2.05-.2.32.13m.44-43.49.29.2.14 1.96-.29-.21-.14-1.95 1.13-.26m-.7 2.42.86-.2.26.18.13 1.82.33.24.62-.14.19-.16.34 1.14.33.25-.08-1.3"/><path d="m116.88 77.55.86-.2.14 1.96m-.14-1.96-.16-2.33 2.36 1.63.16 2.37-.88.21.12 1.77"/><path d="m117.58 75.02 18.09-4.05 2.55 1.52-18.28 4.16m-.92 16.6-.1-.07.64-.44 1.16-.03.51.41-.63.44-1.16.03-.42-.34m-.42-11.7.25-.96.48.35.03.26.3.22-.14-1.98-.3-.21m-1.12 1.38-.07-.77.06-.05.08.06m-.12-.04.11-.05"/><path d="m119.42 75.47-.04-.35-.3-.21-.35.08.29.21-.35.08.35.24.36-.08.29.2.36-.08-.3-.2.02.26m-.73-.42.03.31"/><path d="m118.86 75.09.27-.06.16.43m.79 7.18.63-.15.27-.37-.06-1"/><path d="m119.66 81.42 19.82-4.71-.05-1.92-.95.22.04 1.08-.33-.19-1.45.34m-17.3 5.11-.02-.02-.1.15m.78-2.46 1.7-.39.3.21.07 1.11 1.88-.44-.31-.21-.06-1.11 1.12-.26.3.21.06 1.1 1.86-.44-.3-.2-1.57.36m-5.63.48 2.58-.6m-2.18-3.06-.45.1.23.16 1.2-.27-.24-.16-.74.17m-.54-.66.36-.09.02.32"/><path d="m119.74 75.03.35.26-.36.07m-.65-.45.01.12m2.22 7.29-.3.07m-.19-.05.17.09.05-.07-.06-1.25m.01 1.32.29-.07.05-.07.01-.19.25.18.61-.15.08-.1.12.25m-1.2-6.76-.12.03.36.25-.01-.33-.23.05m-.48.49.3.21-.42.09-.3-.21.42-.09.02.2m-.08-.6.02.21"/><path d="m120.9 76.24-.08-.05-.3.07m.92-.46.37-.07-.02-.34-.3-.2-.35.08.29.2m-.87-.94-.41.1.3.2.41-.1-.3-.2.01.12m.89.14.23.16-1.18.27-.24-.16 1.19-.27.01.21"/><path d="m120.37 74.77.29-.06-.15-.1-.29.06m.44.04.01.07m.6 6.26.07 1.06m.94-.07.2-.27-.06-1m-.27-1.09 1.59-.37m-1.95-3.91.36-.08.36.25-.36.08.02.27"/><path d="M122.15 75.31v.33l.31.21-.36.07-.29-.19m-.11.01-.2-.44-.01-.11m.6-.83-.01-.12-.35.08.3.2-.36.08.36.26v-.34"/><path d="m122.03 74.86.26-.08-.17-.4-.26.03m-.36.89-.24.05m1.03-.57.11-.01-.02-.33-.3-.2m1.83 6.17.06.99-.28.37-.29.09.08.1.42.31.05.16.01.7-.29.07-.02-.69-.05-.16-.41-.32-.08-.1-.09-.31-.57-.41m.92.58-.29.07"/><path d="m123.02 81.62.29-.08-.57-.4-.03-.45m.6.85.09.32m-.66-.72-.31-.22m-.01-.13.22-.05.03-.04m-.18-5.5 1.18-.27.23.16-1.18.27-.23-.16m1.94-1.08.24.16-1.17.26-.23-.15 1.16-.27.02.21m-1.13 1.09.42-.1.3.21-.41.09-.31-.2m-.94-.98.35-.06.36.24-.35.06.01.27"/><path d="m122.73 74.38.01.3.3.2-.35.08-.29-.19m.99-.87-.26.06.3.2.41-.09-.3-.2-.15.03"/><path d="m123.64 74.11-.01-.07-.28.06m.28-.06-.15-.1-.28.07m.42 8.37.3-.07m.37-.7-.29.07m-.03-1.28.06 1.1-.01.14-.05.07.29-.07.05-.07-.05-1.24m.06 1.06.25.17.6-.14.28-.37-.06-.99m-1.59 1.57.17.08m.08-2.2-.07-1.11-.3-.21m.3.21 1.12-.26m-1.35-2.62-.01-.2m.18.24-.08-.06-.29.07m.93-1.06-.35.08.3.2.01.33.36-.08-.02-.33-.3-.2v.11l-.23.06"/><path d="m124.43 74.79-.35.08.36.25m-.77-.19.01.21m-.14-1.27v.11m1.71 7.33.11.26m.06-1.07.57.4.1.32.07.09.43.32.04.15.02.7.29-.07-.01-.7-.05-.15-.42-.32-.08-.09.26-.09.1-.12.18.06.05-.06-.04-1.25"/><path d="m125.4 80.22.31.21-.03-.44m-.29.1.22-.06.03-.03m.99-5.74-1.16.27.24.15.94-.21-.02-.21.24.16-.22.05m-1.49.75-.01-.26.31.21-.36.07-.3-.2m-.02-.33.35-.07.37.24-.35.08-.02-.32m-.45.42-.17-.44h-.03m.53-.43-.02-.34-.35.08.37.26.35-.1-.02-.31-.3-.2v.12"/><path d="m125.34 73.78.35-.08.03.58"/><path d="m125.36 74.09.3.2.35-.08-.31-.2.35-.06-.36-.25m-.65-.12-.35.08.3.19"/><path d="m124.83 73.75.25-.06.17.43m1.35 7.54.3-.07m-.55-.52-.3.07m-.06-.24.3-.07.09.32m-.09-.32-.58-.4m.95-2.93.31.2 3.98-.93-.31-.2-3.98.93.06 1.1m0-3.95.31.2-.41.1-.31-.21.41-.09.01.19"/><path d="m126.53 74.89.29-.07.08.06m-.44-1 1.15-.26-.24-.16-1.15.26.24.16m-.08-.38.4-.09-.3-.2-.41.09.31.2m.1-.29v.11"/><path d="m126.58 73.45-.01-.07-.15-.1-.28.07m.16.09.27-.06m.66 7.52-.28.07m-.21-.03.18-.25-.05-.98m.05 1.29.28-.06.06-.08-.05-1.24m1.12-.26.05.98-.27.37-.6.15-.24-.17m-.25-1.89-.05-1.1m.67-3.31-.18-.44-.25.06"/><path d="m127.41 74.44-.37-.24.35-.08.02.32.35-.07-.02-.32-.31-.2.01.11"/><path d="m127.39 74.12-.31-.19.35-.08m.31.2.34-.08.03.58m-.36-1.16-.17-.11.34-.08.03.33-.2-.14m-.38.07.02.21m.57-.63v-.11l-.34.07.3.2m.43 6.6.59.4.29-.07-.59-.4-.02-.44m-.44 1.32.1.25m.29-1.56-.02.04-.22.05m.31.34-.3-.2"/><path d="m127.76 74.37.31.19.35-.06-.31-.22-.01.1m-.02-.41.37.24-.34.07m1.46-.68.24.15-1.15.26-.24-.15 1.15-.26.01.21m-1.63-.28.33-.1.32.2.34-.08-.31-.2.01.27-.03-.58-.35.08-.3-.19"/><path d="m128.63 73.35.35-.06-.37-.25m-.33.39-.02-.31m-.5-.03.24-.05.17.42m1.67 7.42-.29.07.03.12.03.61-.02.08.29-.07.02-.08-.04-.67-.07-.14-.39-.27-.08-.09.24-.08.27-.37-.04-.98"/><path d="m129.55 80.95-.05-.08-.39-.27-.08-.09-.09-.31m.92.07.28-.07m-.86.17-.28.07m.85-1.44.03 1.23-.05.08-.17-.08m.17.08.29-.07.05-.07.01-.19.23.18.59-.14.27-.37-.02-.54.59.39.09.31.08.09.44.31.04.16.03.6-.02.09.28-.07.02-.09-.02-.6-.05-.16-.42-.3-.09-.1.22-.07.27-.37-.04-.97m-3.44 1.8.09.31m.34-6.46-.41.09.32.2.4-.08-.31-.21.01.2"/><path d="m129.48 74.22.28-.07.09.06m.43-1.4.24.15-1.14.26-.24-.15 1.14-.26.01.2m-1.31-.36.4-.09.31.19-.4.09-.31-.19m.4-.09v.11"/><path d="m129.05 72.69.28-.06.15.1-.27.06m.27-.06.01.07m.94 46.07 7.37-13.22.77-.49 1.26-.11 1.02.33.18.6-6.28 11.79.09 2.3 3.61-.51 3.68-.17 3.67.17 4.3.12 4.23-.44 3.84-.96 29.74-10.11 2.71-1.23 1.85-1.53.88-1.71.62-1.45 1.17-1.3 1.68-1.14.19-2.08-1.68 1.12-1.18 1.29-.62 1.43-.88 1.69-1.85 1.51-2.73 1.23-29.88 10-3.86.95-4.25.44-4.32-.12-3.68-.17-3.7.16-3.63.51m-4.34-37.61-.23-.16m0-.02-.05-1.05m.82-2.16.05 1.1 1.81-.43-.32-.2-1.51.35m-.32-4.2.34-.08.02.58-.35-.19-.01-.31-.31-.2v.11m.32.4-.33.08-.37-.24.34-.08.03.32"/><path d="m131 73.31.37.23-.34.08.32.21-.33.06.01-.27m-.72-.16-.31-.18.35-.09"/><path d="m130.13 73.35.25-.06.17.44m.62-.95-.02-.31-.3-.19v.12"/><path d="m130.85 72.28-.34.07.31.2-.34.07.37.25.34-.09.31.19-.01-.58-.34.08m-.33.08.01.29"/><path d="m130.65 72.44.24-.05.17.42m1.06 31.02-.33-.27.64-.51 1.25-.04.61.49-.64.52-1.25.03-.28-.22m-1.05-23.91.11.25m1.01-.5-.29.07m-.38-1.14.02.44-.3-.19m.3.19.58.39-.28.07m-.59-.39-.02-.44m.24-.06-.03.04-.21.05m.34-5.35 1.14-.25-.25-.15-1.13.25.24.15m-.03-.39-.01-.26.34-.06-.38-.25"/><path d="m131.5 72.97.34-.07-.31-.2m.59-.3-.1.02.25.15 1.12-.26-.24-.15-1.03.24m0-.45-.27.06.32.19.39-.09-.31-.19-.13.03"/><path d="m131.93 72.05.26-.06.16.1.01.06m-.28 0 .27-.06m.11 8.16.29-.07m.27-.67-.29.07m.33-.24v-.05l.15.13-.15-.08-.02.13-.05.08-.28.06.05-.07.02-.13-.05-1.1m.33.98-.05-1.04m-.47 1.29.17.07m-.49.13-.1-.31m1.09-.01.08.05.58-.14.27-.37-.04-.97m-1.61-.75-.04-1.09 1.08-.26.32.2-1.09.26-.31-.2m.36 1.29-.05-1.09m-.2-3.03-.39.09.31.2.4-.08-.32-.21.01.2"/><path d="m132.4 73.55.27-.06.08.06m.46-.45-.35-.21.34-.08-.31-.19.32-.08.33.19.34-.07.02.58-.32-.2-.34.08-.03-.02-.01-.29m-.04-.44-.01-.21m-.69.79.01.2"/><path d="m133.02 72.7.19-.05v-.11m-.96-.62v.11m1.68 7.21.1.24m1.55-1.82.02 1.14-.05.07-.15-.03-.11.15-.2.06.08.1.44.3.04.15.02.6-.02.09-.28.07.02-.09-.02-.6-.05-.15-.44-.31-.08-.09-.09-.31-.59-.38"/><path d="m134.38 77.92.02.44-.29-.19m.22-.24-.03.04-.2.05m-.22-1.11 1.48-.35.32.2-1.79.43-.04-1.1m.05-2.85.34-.08-.32-.19.01.26m-.39-.5.01.32m.33-.39.38.23-.34.08m.28-.42.25.15 1.12-.25-.25-.15-1.12.25m-.5-.85v-.06l-.34.07.32.19.01.29.03.04.33-.1.32.19.33-.07-.31-.19.33-.06-.37-.25-.34.08.01.31"/><path d="m133.69 72.19-.35-.21.34-.08m-.47.75.05-.01.17.44m.27-1.44.31.19"/><path d="m133.93 72.16-.19-.47-.28.06.01.03m1.87 7.77.28-.06m-.57-.51-.28.07m-.06-.24.29-.06.09.3m-.09-.3-.6-.39m.96-1.8-.04-1.08 1.07-.25.32.2-1.07.24.04 1.09m-.36-1.28.32.19m-.32-3.37.01.2m-.07.39v-.05l.14.11h-.04l-.32-.19.4-.09v.13m-1.04-.53-.01-.21m-.02.22-.02-.53m.27.52v-.05l-.28.06v.03"/><path d="m135.26 72.84.28-.06.16.1-.28.06.34-.08-.32-.19m-.36-1.34v-.05l.32.2-.39.08-.32-.19.39-.09"/><path d="m134.9 71.45.28-.06-.15-.09-.28.06.15.09.01.05m-.16-.14v.04m1.24.13.24.14-1.11.25-.25-.14 1.12-.25v.2m-.81-.34.02.12m.65 7.26-.27.07m-.03.03.28-.07.04-.05.03-.14.22.18.58-.14.26-.36-.03-.97m-1.53 1.52.15-.22-.03-.96m.38.95-.04-1.04m.2 1.18-.17-.11m.51-6.24-.01-.31-.32-.19v.04"/><path d="m136.39 72.09.33-.08.39.23-.34.08.33.19-.34.08-.32-.2-.34.08-.38-.23.33-.08-.31-.19.33-.07m-.65 1.04-.02.01"/><path d="m135.83 72.03-.01-.03.28-.06.2.49m-.24.02-.01-.29m.72 6.39.12.27 1.3.81.28-.07.03-.1-.04-.71-.28.06"/><path d="m136.94 77.69.61.38.09.31.08.09.44.3.05.16.01.59-.03.11.28-.07m-.92-1.49.28-.06.09.3.08.09.4.26.06.09m-.63-.74-.61-.39-.01-.37m.01.37-.28-.18m-.23-2.01.03 1.08 1.78-.42m-1.75-3.77.01.2m-.06-.51.02.52m-.02.03-.01-.02.29-.07v.06m1.24 20.96-.01-1.53 1.43-1.4 2.57-1.04 3.29-.53 3.47.07 3.1.66 2.21 1.14.95 1.45-.53 1.53-1.97 1.33-1.44.51-1.65.37-3.65.26-3.53-.42-2.75-1-1.49-1.4"/><path d="m138.51 93.75 1.2-1.2 2.57-1.06 3.27-.53 3.45.07 3.09.66 2.21 1.16.49.77m-16.9-15.38-.28.07m.46-1.26.03 1.26-.15.04m.24-2.45-.03-1.09.12-.02-.06-2.3m-.06 2.32.32.2m-.22-.92 1.17.7m.33 1.96-.04.02.21.55 1.19.31 1.48-.1.89-.47-.23-.54-1.18-.31-1.47.11-.85.43"/><path d="m196.95 98.44 2.6.22 41.57-13.56 1.3-.72.28-.94.35-1.89-.77-.99-1.68-.91-36.14-14.35-1.81-.52-2.15-.27h-2.18l-1.9.27-38.39 9.27-4.07 7.64-.59.34-1.04.07-.87-.23-.18-.4 3.83-6.87-2.55.27-2.63.09-5.71-.13-3.05.23-1.73.3m11.66 38.39.15.42 1.65.57 1.98-.18 1.11-.83-.38-.98-1.65-.56-1.93.18-1.13.82.2.56"/><path d="m152.43 114.58 1.53-.15.48.17m-2.14-32.5v-.6m-.11.19v.38m0-.34-.03.01m-.15.28 3.09-5.63.01-1.79m-1.91 40.11-.24-.18m4.28-31.4-.08.06.6.35 1.06-.03.46-.37-.6-.35-1.05.02-.39.32m.82 24.42.02-2.32 1-.31-.03 2.32-.99.31-.47-.33.03-2.32.46.33m1-.48-.3-.21-1.16.36m1.09 3.48-.02-.13.01-.71.01-.08.05-.04.63.43.07.02"/><path d="m159.05 107.24.42.3-.03 2.16.53.38.56-1.05.76.54.52 1.84.55.39.02-1.22"/><path d="m158.76 107.42.33-.1.38.24m-.39-2.64.03-2.79 3.83 2.62-.06 2.83-1.01.32-.04 2.36.48.34 11.29-3.68-.04.85-.35.47"/><path d="m159.11 102.13 17.48-5.32 4.01 2.41-17.66 5.53m-2.97 5.33.71-.23.48-.37m-.25.19.51.36"/><path d="m161.02 102.79.01-.37-.38.11.58.39.38-.11.47.32.41-.13-.48-.32.38-.11-.57-.39-.02.76"/><path d="m161.43 102.86.01-.57-.47-.32v.11"/><path d="m161.37 102.88-.33-.83-.34.11.02.05m.72.08.38-.11"/><path d="m160.97 101.97-.41.13.47.32m1.33 9.38.71-.23.35-.47.02-.87m-1.13.37.04-2.36-.48-.34m.48.34 3.08-.99-.03 1.33 2.16-.7-.5-.33-1.65.53m-3.09-4.31-.38-.25 1.38-.43.38.26-1.38.42m-.29-.67v-.04l.35-.1v.08m-.37.04v-.4m.63-1.3.48.31-.47.15-.16-.11-.01-.07-.24-.16.4-.12v.06m1.27.35-1.36.42.37.25 1.36-.42-.37-.25-.01.37"/><path d="m162.49 101.73-.32-.21.41-.12.23.16-.33.1m-.24-.16v.06m1.3 8.64-.02.97-.04.15-.09.07.39-.14-.34.11m.34-.11.04-.04.04-.14.23.16.7-.23.35-.47.02-.72.92.66.03.19.09.19.12.14.67.5.06.2-.03.72-.04.1.34-.11.04-.1.02-.72-.05-.2-.68-.5-.12-.14-.08-.19-.01-.08.07-.03.34-.47.03-.86m-3.49 2.28-.15-.05m-.36-3.76 2.06-.66.49.33m-1.83-3.53.49.33-.48.15-.49-.33.48-.15-.01.24"/><path d="m163.67 104.18-.24-.16-.01.05m.37.08.23-.06-.23-.18-.36.11m-.11-.93-.01.37m-.47-1.68-.03-.22m1.41 1.67.01-.36-.48-.33.4-.12v.08m-.29 8.57.02-.98"/><path d="m164.23 102.87-.38.11.58.39.38-.11.49.32.41-.1-.49-.35.38-.12-.59-.39-.37.12-.49-.32m.49.32-.02.58"/><path d="m164.54 103.34-.34-.86-.34.11.02.05m1-.84.01-.56-.48-.32-.4.12.48.32v.36l.2.14.37-.12.4.27.01-.39.49.32-.41.12-.09-.05"/><path d="m164.49 101.72-.37-.25.37-.11"/><path d="m164.17 101.15-.02-.05.34-.1.33.82m-.41-.9v.1m.47 9.9.05.12m.57-1.48v.14l.92.64-.34.13m-.92-.66.01-.14m.33.03-.13-.09m-.15-6.48v.4-.03l-.02.02m-.19-.9-.02.76m.23.12.35-.11v.11m-.15-1.06.38.25 1.36-.42-.38-.25-1.36.42m-.18-.58.02-.74-.37.12m.95.73v-.08l-.34.1v.04m.56-1.64v-.06l.48.32-.46.14-.48-.32.06-.02.24.18.01.05"/><path d="m165.47 101.62.37-.12-.58-.38m.64-.49.34-.12.02.22m-.2-.4-.4.12v.07m1.35 11.02.34-.12m-.86-.77-.34.11m.83-1.68-.03.96-.04.16-.09.07.24-.08-.19.04m-.2-.02.15.06m-.4.07.02.13m.62-2.92.05-1.33 4.51-1.44.5.33-4.52 1.45-.49-.34m-.2-3.29.25.16.41-.12-.51-.33-.46.15.49.32.41-.12-.25-.17-.34.11-.01.06m.16-.11v-.24m-.28-.62-.01.37m-.28-1.39.84-.26.38.24-1.35.42-.37-.25.5-.15m-.52-.64.27.15m.82-26.93-.09-.14.75-.43 1.4-.1 1.22.29.36.51-.75.43-1.41.1-1.24-.29-.24-.37m.14 36.54-.14.07.19-.1.04-.16.03-.96"/><path d="m167.28 109.95.23.16.69-.23.35-.46.03-.86m-1.02-.68.04-1.32m.06-4.41.01-.35-.37.11.59.39.37-.12.39.26.01-.38.5.34-.41.11-.1-.07"/><path d="m167.58 101.44.01-.08.48.32-.01.57"/><path d="m167.67 101.8-.48-.32.4-.12"/><path d="m167.98 102.27-.34-.85-.34.11.02.04m1.59-.6v-.03l.33-.1v.08l-.28.09-.49-.32-.36.11-.58-.37.36-.11-.01.34m.78 1.4.37-.12-.58-.38-.38.12m-.74-.94-.01.36"/><path d="m168.63 100.79.02-.71-.36.11-.48-.31v.11"/><path d="m167.81 99.88-.4.12.48.32"/><path d="m168.21 100.77-.33-.81-.33.1.02.05m.3-23.25.75-.44 1.4-.1 1.23.3.36.52-.75.45-1.41.11-1.24-.31-.34-.53m.46 33.07-.06-.14m.64-1.34v.14l-.14-.09m.14.09.93.63.02.21.09.19.12.13.68.49.05.2-.02.72-.05.1-.33.11.04-.1.03-.72-.06-.2-.67-.49-.13-.13-.08-.2-.03-.2-.93-.63m-.15-6.41.03-.73m.56.87v-.11l-.33.1v.04m.2-1.51v-.38l.48.31-.12.04m-.39.46.38.25 1.34-.42-.39-.24-1.33.41m-.58-.63.02-.56m.36-.11.59.38-.36.11m.15-1.09v-.06l.4-.12.49.31-.46.14-.49-.31.06-.02.22.14.04.09m.61 9.87-.33.11m.67-.51.1-.01-.14.05.09-.07.04-.16.04-.95"/><path d="m170.26 108.01-.03.85-.34.47-.04.01m-.35-.01.34-.11m.36-.06-.15-.05m.29-7.25.24.18.34-.12-.25-.16-.33.1v.07l-.32-.21.47-.14.5.32-.47.16-.18-.13m-.16-.96-.01.37m.52-1.63.39.24-1.32.4-.38-.24 1.31-.4-.01.36m-1.4-.49.33-.1-.25-.16-.11.04m.38.34-.02-.22m-.18-.18v.07m1.01 11.03.33-.11m-.19-1.28-.24.1.19-.06.09-.07.04-.15.22.18-.22-.16m0-.02.04-.96m.18 1.14.68-.23.34-.46.04-.86m-1.46-5.64.01-.24m.8-.34.14-.04.03-.57-.49-.32-.4.13.49.31-.36.11.59.38m-.23-.49-.01.34m.38.11.23-.07.39.24V101l.5.34-.39.1-.11-.07"/><path d="m170.71 100.52-.02-.04.33-.1.34.84m.85-1.32.02-.36.49.31-.4.12-.49-.31-.36.11-.59-.37.36-.11-.48-.31.39-.12v.1m.08.66.01-.33m-.27 1.02v.09"/><path d="m171.15 98.86.49.31.36-.11-.03.68"/><path d="m170.92 99.08-.02-.04.33-.1.32.8m.13 9.09-.06-.13m.64-1.34v.13l.94.63-.33.11.03.2.08.19.12.13.69.49.05.19-.03.72-.04.1.32-.11.05-.1.03-.72-.05-.19-.69-.49-.12-.13-.09-.19-.02-.2m-1.27-.52.94.63m-.61-.74-.14-.09m3.31-2.55 1.54-.5.51.32-2.07.67.06-1.3-.5-.32-1.25.39-.05 1.31.49.32-2.1.68.06-1.31m1.55.31-1.59.51m-.03-4.93.37-.11-.59-.38-.03.71m-.34-.59.37-.12m.25.88v-.03l.33-.1v.11m-.19-1.03.39.24 1.31-.41-.38-.24-1.32.41m-.58-1.17-.02.56m.65.2v-.03l.33-.1v.08m-.37-.34.36-.11-.59-.37m.61-.43-.01-.07-.24-.15-.01.06"/><path d="m172.36 98.41-.07.03.49.3.46-.14-.49-.31-.39.12"/><path d="m172.52 98.36.16-.05.24.15-.32.1m-.67-6.64.69.41 1.15-.03.43-.42-.68-.42-1.14.03-.45.43m1.34 16.5-.33.1m.63-.49.04.01-.09.03.09-.07.05-.16.04-.95m-.18 1.18-.12-.04"/><path d="m173.6 106.92 3.28-1.07-.04.85-.32.43m-2.98-6.5-.15.04.51.32.46-.15-.51-.31-.31.1m0-.7-.02.37m-.81-1.21 1.3-.4.39.23-1.3.4-.39-.23m.21-.63.03.22m-.21-.33.01-.06m.86-23.37-.39-.2-.25-.34.5-.31.96-.07.85.2 1.62.81.27.35-.5.31-.96.07-.87-.21-1.23-.61m.53 34.26-.33.1"/><path d="m173.9 107.92-.29.12.24-.08.1-.07.03-.14.05-.97"/><path d="m173.98 107.75.21.17-.21-.15m.21.15.68-.23.34-.46.04-.84m-1.09-.65.06-1.3-.5-.33m.5.33 1.25-.4m-1.63-3.27.01-.24m.44.35-.25-.17-.33.1.25.16.33-.09m-.58-.07-.01.05m.35-1.37-.02-.04.32-.1.34.84-.05.01-.6-.37.37-.12-.02.33"/><path d="m174.41 99.71-.5-.3.39-.12.49.3.36-.11.6.37-.36.12v.36l-.39-.24-.31.1m-.14-1.91-.36.1.6.37.35-.11.5.31.38-.12-.49-.31.35-.11-.59-.36-.36.11-.49-.3-.38.11.49.31-.02.31m-.23.7-.01.08m-.28-.68-.01.36m.44-1.19v.1"/><path d="m174.85 98.73-.33-.8-.32.1.01.04m22.8-.34-21.98-1.99-1.03-.29-.3-.51.59-.42 1.14-.09 24.32 2.16-.2 2.07m-24.57 9.08-.06-.12m.65-1.34-.01.14-.13-.09m.13.09.95.61-.32.11.02.2.09.19.12.13.69.48.05.19-.03.72-.05.09.32-.11.05-.09.04-.72-.06-.19-.69-.48-.12-.13-.09-.19-.02-.2m-1.27-.51.95.62m-.8-6.81.12.07.39-.12-.51-.31m-.24-.49-.03.68m-.33-.57-.02.57"/><path d="M175.43 100.35v-.03l.32-.1v.1m-.22-1.8-.02.35m1.33.04-1.3.4.39.24 1.3-.4-.39-.24-.02.36m-1.53-1.22-.03.66m-.35 0 .02-.55m.65.75v-.03l.32-.1v.08m-.02-1.24-.01-.06-.24-.15-.07.02.5.3.45-.14-.5-.3-.38.12v.06m.95 9.86-.33.1m.6-.47h.04l-.09.03.09-.06.05-.17.05-.94m-.19 1.17-.13-.03m.64-1.25-.05.96-.04.14-.1.07-.23.08.28-.11"/><path d="m176.88 105.85 4.88-1.58.14-2.29-1.09.34-.51-.31-.07 1.29-1.5.49m-1.84-4.21-.18.06.51.31.46-.14-.51-.31-.28.08m.39-1.9.39.24-1.28.39-.39-.23 1.28-.4-.02.36m-1.25-.75v.06l.18.11-.32.1"/><path d="m176.01 97.35-.06-.04-.1.03m.34.12.03.22m.91 10.5.32-.1m1.06-2.75-.05.84-.34.45-.66.22-.2-.17m-.01.04.21.13m-.49-2.49.07-1.3 1.22-.39.51.32-1.23.39-.5-.32m.44 1.62.06-1.3m-.38-3.63.01-.24m-.14.27.25.17.33-.11-.25-.16-.33.1-.01.06m.55-1.47.01-.09.5.31.35-.11.61.36-.36.11-.02.34"/><path d="m177.33 98.47-.02-.03.32-.1.34.82-.63-.35.35-.11-.01.31m.29.15.33-.1.5.31.39-.12-.51-.31"/><path d="m177.69 98.7-.5-.31.39-.12m.65 8.4-.06-.11m.65-1.34v.14l-.14-.09m.14.09.95.6.04-1.06m-1.31.56.95.61.03.2.08.18.12.13.7.47.05.2-.04.71-.04.09.31-.1.05-.1.04-.71-.05-.19-.7-.47-.12-.13-.09-.19-.02-.2-.32.11m.78-2.77.51.32-2.04.66.07-1.3m-.34-4.51-.03.65m-.32-.54-.03.56m.67.18v-.03l.32-.1v.11m.8 6.96-.32.1m.88.74.32-.11m.02-3.37.07-1.3m-.51-.31.15-.04.15-2.75m-.11 1.9 1.41.86m3.16 2.31-.11-.03-.42.05.09.02 1.8-.16.88-.71-.56-.85-1.64-.48-1.78.16-.89.7.53.85 1.57.47-.02-.01m-1.79-24.55-.02.3m0-.21-.05.16.55.49 5.06 2.57 1.15.36 1.39.11 1.26-.17 24.95-7.08.65-.36-.02-.45-.67-.46-5.34-2.22-1.11-.3-1.27-.09-1.12.14-24.55 6.58-.79.38-.09.34"/><path d="m216.1 76.54-4.68-1.98-1.1-.3-1.27-.1-1.11.15-24.03 6.54"/><path d="m189.19 79.41-.14 2.06-1.93-.96.03-.54m1.9 1.5 17.56-4.87.22-1.99m-16.84-3.36-.66-.15.17-.23.7.01.27.24-.2.1-.28.03m2.19 18.65-.28-.36.73-.55 1.54-.12 1.46.37.54.66-.72.57-1.56.12-1.47-.38-.24-.31m-.37-19.61-.17.23.61.15.34-.04.19-.1-.28-.23-.69-.01m2.37-.29.36.09.34-.03.18-.1-.27-.24-.7-.01-.16.23.25.06m2.17-.86.69.01.28.23-.18.1-.34.04-.6-.15.15-.23m2.23-.56-.14.22.6.15.34-.03.18-.1-.29-.23-.69-.01m1.17 28.01 41.71-13.4 1.31-.71.28-.93m-43.49 6.18.38.45 2.06 1.03 1.05.27 1.08-.09.47-.38-.41-.47-2.06-1.02-1.03-.26-1.06.09-.48.38m1.1-19.49.13-.22.69.01.29.23-.18.09-.33.04-.6-.15m2.15 23.98-.61-.71.72-.59 1.61-.13 1.58.4.62.71-.71.6-1.63.14-1.58-.42m.29-24.75h-.12l-.13.22.6.14.33-.03.18-.1-.3-.22-.56-.01m2.05-.54-.13.21.6.14.33-.03.17-.09-.3-.22-.67-.01m4.74 5.52-.2 1.76m25.65 12.78-.36 2.12-18.36 6.09-2.44-1.21.01-.1m2.43 1.31.29-2.2m1.33-9.56-.79-.01-.12.29.72.19.38-.04.19-.13-.38-.3m-.59-7.75-.03.26m2.87 7.22-.73-.19.11-.29.79.02.39.29-.19.13-.37.04m1.75-1.14-.08.22.73.19.37-.04.18-.12-.38-.3-.79-.01-.03.06m2.3-.5.09-.28.79.02.39.29-.18.12-.37.04-.72-.19m2.43-.98.78.01.4.29-.18.12-.36.04-.73-.19.09-.27m2.23-.43.08-.27.78.01.4.29-.18.12-.36.04-.72-.19m2.28-.69.73.18.36-.04.17-.12-.41-.28-.77-.01-.08.27m2.99-.5-.73-.18.08-.27.76.01.41.28-.16.12-.36.04"/></g><path style="stroke:#000;stroke-width:.6" d="m142.03 95.73-.09-4.1m.63 27.78.24 10.63"/><g/><path style="stroke:#000;stroke-width:.6" d="m118.6 138.63-1.03-13.22"/><g/><path style="stroke:#000;stroke-width:.6" d="m141.63 77.6-1.08-47.13m-26.19 53.72-3.87-49.52m70.27 130.04 3.38-50.73"/><path style="fill:#000" d="m185.63 113.97-2.98.03 1.66-2.61z"/><path style="stroke:#000;stroke-width:.6" d="m153.39 177.64.04-53.08"/><path style="fill:#000" d="m154.92 124.55-2.98.03 1.49-2.55z"/><path style="stroke:#000;stroke-width:.6" d="m184.77 104.32 3.82-57.31m-35.16 67.68.05-60.8"/></svg>