<svg xmlns="http://www.w3.org/2000/svg" width="1122.52" height="793.701" viewBox="0 0 297 210" stroke-linejoin="round" stroke-linecap="round" fill="none" fill-rule="evenodd"><script type="text/ecmascript"><![CDATA[
if(typeof(top) != "undefined")
{
	top.ShowPaper = ShowPaper;
}
function ShowPaper()
{
  var svgDocument = getDocument();
  var paper = svgDocument.getElementById("paperID");
  if(paper)
  {
    paper.setAttribute("transform","scale(1)");
    paper.setAttribute("opacity","1");
    paper.setAttribute("visibility","visible");
  }
  var svg = svgDocument.getRootElement();
  if(svg)
  {
    svg.setAttribute("width","307.000mm");
    svg.setAttribute("height","220.000mm");
    svg.setAttribute("viewBox","-5.000000 -5.000000 307.000000 220.000000");
  }
}
]]></script><path style="fill:none" d="M296.99 210H.05V.05h296.94z"/><path style="fill:#5a5a5a" d="m220.43 44.53 1.15 1.49 1.15 2.33.41 1.59-.09.11v.29l.23.06.6.43 1.01.98.17 1.06-2.12 2.51-.15.08h-.18l-.15-.08-.04-.3-.02-.44-.08-.06-.07-.5-.02-.61-.07-.06-.25-1.27-.19-.32.01.52h-.32l-.5-.19-1.89.16-.43.24-.57.11-.27.36-.06 1.23.09.66.07.5-.01.47-.46.26h-.45l-1.97-1.51-.16-.38-.01-.44-.08-.06.08-.71 1.01-1.15v-1.62l.07-1.81.35-2.09.83-1.66.81-.83.44-.09h.86l.27.09zM78.51 73.32l.51.65.64 1.18.26 1.1.09.49.08.5.09.49.13 2.72.68 1.14-.06 1.33-2.34.96-.07-.86.15-2.44-.15.74-.74-.37-1.25-.17-1.18.05-.34-.22-.19 1.15-.18 1.28-.11.28-.65-.08-1.32-1.82-.09-.7.1-.67 1.13-.55.11-.27.22-1.23.78-2.2.9-1.42 1.24-1.23h1.23z"/><path style="fill:#9f9fa4" d="m154.31 91 7.93 1.82.34.08 1.35.39.14.36.61 1.99.32.2.44-.02.5-.52.88.19.18.32 1.56 6.08.08.33 2.64 9.49.34.46-.01.86.63 1.96.64 2.76.08 1.01-.01.94-.65.51-.45.17-1.33-.27-.78-.08-.09-.11-.02-1.28-.06-.07-.43-1.08-.26-.05-.33-.13-.16.26-.36.22h-.83l-.39-.79-.31-1.22.02-.45-.08-.05-3.09-11.19-.8-1.68-.22-.29-.35-.19-.08-.34-1.03-1.14-1.32-1-2.82-.99-.76-.09-1.82.01-1.71.64-.89 1.59-3.24 12.63-.28.25-.19.13-.31.19-.68.02-.42-.1-.6-.91-.1-.04-.08-.1-.07 1.77-.7.7-.49-.01h-.34l-.16-.03-.06-.12-.43-.01-1.18-.23-.02-1.96 1.36-5.4.15-.37 1.27-5.21 1.17-4.4.01-.17 1.42-5.06.83-.84h.56l.31.19.18.32.55.64.42.11-.12-.47.25-.95.83-.84.37.01z"/><path style="fill:#fed137" d="m146.98 45.87 1.51.97.82 1 .48 1v1.72l-.38.93-1.09 1.23-1.67.98-2.37.6h-3.59l-1.99-.49-1.65-.82-1.47-1.34-.35-.65-.17-.66v-1.28l.34-.98.59-.9 1.51-1.15 2.14-.83 1-.16h3.69zm5.95 103.2 2.48.5 1.99.82.5.66v1.03l-.16-.02-.19.53-.7.46-1.98.66-2.82.49-6.01.11-.05-.1-.94-.02-.34-.08-2.7-.73-.99-.5-.49-.33-.23-.99.4-.77.76-.56 2.49-.83 3.8-.49h3.36z"/><path d="M116.02 155.23v.06" style="stroke:#3c3c3c;stroke-width:.494" id="Actor_.0"/><g style="stroke:#3c3c3c;stroke-width:.494" id="Actor_.1"><path d="m170.45 92.99-.85-17.15 1.99-.94 2.36.39.35 1.3 1.12 19.25-2.05.84-2.42-.34-.39-1.18-.11-2.17"/><path d="m170.56 95.16 2.06-.85-1.03-19.41m.96 21.07-.23-.02-.44-.32.21-.4.74-.24.85.06.44.33-.22.4-.74.24-.61-.05m.07-1.66 2.44.34-1.11-19.36m1.47 20.55-.36-1.19"/></g><g style="stroke:#3c3c3c;stroke-width:.494" id="Actor_.2"><path d="m169.2 155.99.29 6.72 2.61.12.63.62-1.95.5-2.58-.11-.66-.62-.22-5.46m.22 5.46 1.95-.51"/><path d="m168.97 163.36.36-.21.83-.1.83.07.32.19-.36.21-.84.1-.81-.07-.33-.19m.26-8.04 2.53.13.34 7.38m-1.15.69-.02-.41m1.8.34-.35-7.32-.62-.68"/></g><g style="stroke:#3c3c3c;stroke-width:.494" id="Actor_.3"><path d="m157.05 167.95 1.76-.45 2.48.1.67.55-1.77.44-2.44-.1-.7-.54-.09-3.96"/><path d="m158.75 168.24-.34-.17.31-.19.77-.09.79.06.33.17-.32.19-.76.09-.78-.06m.06-.74-.1-4.17m1.58 4.88-.01-.35m1.01-.26-.16-5.42m.83 5.97-.19-6.27"/></g><g style="stroke:#3c3c3c;stroke-width:.494" id="Actor_.4"><path d="m225.93 75.11-.05-.01m.89.06h-.43l-.48-.06-.45-.28-.07-.05-.12-.26-.16-1.22.08-.56.7-.51 1.05-.27.99.07.56.39.27 1.56-.03.09-.27.5-.72.42-.95.2-.18-.02m-1.26-1 .33-.34"/><path d="m228.08 73.51.27.12.04.02.26.38.01.05-.24.45-.03.04-.65.38-.06.03-.86.18-.08.02-.14-.02"/><path d="m227.59 74.54.15-.42-.61-.18-.76.24-.15.42.61.18.76-.24-.07-.48m-.69.72-.11-.71m.11-.72.68-.05"/></g><g style="stroke:#3c3c3c;stroke-width:.494" id="Actor_.5"><path d="M109.9 36.37h-.54l-.58-.07-.96-.52-.27-.36-.17-.39-.05-.15.11-.53"/><path d="m107.33 34.88.11-1.68.42-.79 1.08-.42 1.32.11 1.05.61.38.86-.14 1.81-.05.09-.54.64-1.01.31-.48-.05"/><path d="m108.71 35.5.93.28.74-.37-.19-.65-.93-.28-.75.37.2.65.05-.77m-.24-1.11.8-.08"/><path d="m109.53 36.37.41.04.09-.02.9-.28.06-.05.47-.58.01-.07-.11-.7-.05-.06-.67-.59-.07-.04-.45-.18m-1.25 2.47-.08-.02m.85-.51.06-.88-.47-.14-.26-.11-.02-.02"/><path d="m108.89 34.66.34.1.09-.26m-.09.26.29.06.29-.02.25-.08m-.36.18.36-.18"/></g><g style="stroke:#3c3c3c;stroke-width:.494" id="Actor_.6"><path d="m217.47 72.63-.06-.01m.9.06h-.43l-.49-.06-.47-.29-.08-.05-.12-.26-.14-1.24.05-.57.68-.53 1.06-.28 1.01.07.59.41.26 1.57-.02.1-.25.51-.72.43-.95.21-.2-.02m-1.31-1.03.32-.35"/><path d="m219.56 70.98.29.12.04.03.28.39.01.04-.21.47-.03.04-.65.39-.06.03-.86.19-.08.02-.16-.02"/><path d="m219.12 72.04.13-.43-.63-.19-.76.25-.13.43.63.19.76-.25-.07-.49m-.69.74-.11-.75m.04-.73.68-.05"/></g><g style="stroke:#3c3c3c;stroke-width:.494" id="Actor_.7"><path d="m190.31 67.41 2.23-.19 4.31.22 4.55.55 1.22.18m-9.6 1.78-1.08.05-.91.12m5.55-1.38-2.85-.1-2.82.25"/><path d="m198.39 68.96-1.71-.21-4.18-.22-1.88.07-.09.01m1.91-1.22-1.96.21-.14.02m1.6 2.38h.03m-.2.02.36-.03"/></g><g style="stroke:#3c3c3c;stroke-width:.494" id="Actor_.8"><path d="m124.27 146.25-.59-.08-.63-.02-.22.01-.77.1-.55.18-.64.57"/><path d="m124.07 146.28-.37-.05-.17.01-.72-.02-.16.03-.64.07-.12.05-.46.14m2.88 2.78v.04"/></g><g style="stroke:#3c3c3c;stroke-width:.494" id="Actor_.9"><path d="m119.09 84.9-.07-.02-.92-.11-.9.08-.74.24-.29.19-.2.22-.11.23.01.25.1.24.24.3-.3-.46-.04-.08"/><path d="m115.86 85.73.02-.36.6-.64 1.27-.31 1.46.14.02.01m-2.57 2.31-.06-.07-.17-.28v-.08l.07-.28.06-.07.31-.23"/><path d="m117.98 87.39-.15-.01-.64-.17-.47-.28-.51-.41m.67-.65.09-.05.5-.14.13-.02.6-.02h.13l.42.07m-1.22 1.39-.26-.21-.03-.24.16.12.13.33h.02l.43.13h.09"/><path d="m118.13 87.11-.12-.05-.46.04m-.01 0 .03-.69m-.06.01-.26.22.22-.21.41-.11h.02l.48.01.1.03m-1.23.28h-.01v.01m.65-.33h0"/></g><g style="stroke:#3c3c3c;stroke-width:.494" id="Actor_.10"><path d="m160.92 118.06.02.07.12.16.49.18.05.01.29.04h.32l.59-.1.06-.02.41-.22.02-.07.06-.28-.04-.89-.09-.3-.53-.21-.75-.03-.7.14-.37.28.02 1.12.03.12m-.03-.12.15-.18"/><path d="m161.63 117.99.01.23-.01-.23.49-.13.51.1.01.22-.49.13-.51-.09m.14-.72.49-.03m-.84-.97-.01-.09m1.29 1.2.24.07.03.01.31.2.02.03-.04.24-.02.02-.36.2-.04.02m-.7-.09-.02-.45m.58-1.58v.16"/></g><g style="stroke:#3c3c3c;stroke-width:.494" id="Actor_.11"><path d="m68.92 98.78.73.24.02.01.38.04.43.01.66-.15.28-.31.04-.07.16-1.34-.38-.41-.81-.28-.92-.06-.69.2-.19.38-.14 1.02-.01.26.03.1m.01 0 .4.36"/><path d="m69.48 98.66.68.13.47-.17-.22-.31-.68-.13-.47.18.22.3.06-.41m-.41-.53.55-.04m-.27-1.2v.01"/><path d="m70.25 97.86.34.08.05.02.54.27.04.04.18.33v.03l-.25.27-.03.03-.59.13-.06.02m-.31-.29.07-.51m.74-1.57.01-.07"/></g><g style="stroke:#3c3c3c;stroke-width:.494" id="Actor_.12"><path d="m119.59 78.22-.29-.13-1.47-.07-1.21.38-.47.71-.11 2.12"/><path d="m119.8 77.82.06-1.21-.2-.49-.79-.3-.92.07-.5.39-.09 1.89"/><path d="m117.45 76.28.48-.39.67-.22.74.21.32.24"/></g><g id="Actor_.13"><g style="stroke:#3c3c3c;stroke-width:.494"><path d="m213.4 65.81-.61-4.67.45-1.5 1.28-1.45.47-.37.5-.34.56-.32.13-.24.15-.29 1.24-.64 1.4-.49 1.49-.33-.61.46-1.3.33-1.23.44-1.14.52m-.7 8.22 2.17-1.3 2.72-.93 2.92-.41 2.75.16 2.23.7.04.04"/><path d="m217.06 64.6.65-.39 2.72-.92 2.92-.41 2.76.16.39.12m-7.99-7.5-.38-2.62m-.49.8.29 2.03m1 17.25-.2.06m4.37-2.57.84-.39.06.38-1.15.52-1.35.13-1.04-.31-.34-.63"/><path d="m221.83 70.84-.38.04-1.04-.31-.18-.33m8.71-11.65h0l.01.04-.58-1.29-1.34-1.03-1.97-.65-2.41-.2-2.58.28-.22-.11m.61-.46.79.44"/><path d="m221.57 69.62.1.64-.16.48-.11-.75.11-.36"/><path d="m221.67 70.26.86-.29.7.22-.15.49-.86.28-.71-.22m.55-17.37.33 2.12"/><path d="m222.92 69.37.2.06.11.76m.77.41.51-.73-.18-.36m-.39.71.44-.61m1.38-1.74.32-.1m2.87-9.16h0m-.02-.03.01.01m.83 5.16-.82-5.12"/></g><path d="m218.13 53.04-.36-2.47-.49.81.36 2.46m.13-3.27 1.15-.59 1.37-.15 1.06.35.33.73.38 2.46" style="stroke:#3c3c3c;stroke-width:.494"/></g><g style="stroke:#3c3c3c;stroke-width:.494" id="Actor_.14"><path d="m113.78 19.31.73-3.16v-.13l-.06-.13-.12-.1-4.3-2.86-.16-.08-.18-.03-.19.01-5.14 1.03-.16.06-.11.1-.06.12-.7 3.83.01.12.06.11"/><path d="m103.33 17.97.1-1.19.7-3.83.06-.13.11-.09.15-.06 5.14-1.04.18-.01.19.04.16.08 4.28 2.86.12.11.06.13.01.13-.08 1.18m-10.37-2.18.1-1.19m.65-.2.02-.06.24-1.03.28-.92.64-1.52"/><path d="m106.76 15.8-.43.36-.03.59m7.03-3.74-.22-1.98-.39-1.59-.52-1.22-.41-.71-.5-.72-.41-.35-.4-.28-.33-.18-.48-.12-.58.04-.34.14-.8.39-.61.59-.55.87-.72 1.15m1.98 6.18-.68.07-.51.43m2.81-.38-.66-.23-.8.09m1.57-2.37.08-1.19m1.13 4.48-.39-.45-.77-.27m1.25.83.45.53-.03.5m1.87-3.35-.04-.89m1.15 2.94.07-1.19"/></g><g style="stroke:#3c3c3c;stroke-width:.494" id="Actor_.15"><path d="m177.54 68.13-.03.6h-.01v.06l.09.91v.08l.19 1v.02l.01.07.12.44"/><path d="m177.86 71.3-.12-.45-.1-.52-.08-.52-.06-.49-.03-.45v-.36l.04-.26.03-.14.16-.21.09-.02 5.94-1.14-.08.02m.35 3.5-.12-.52m-.02-2.96-.01-.01h-.01l-.11.15-.01.06-.02.57.01.06v.06l.08.86.02.07v.08l.17.95.02.07.01.07.21.82.02.05.01.06.01.09.16.39"/><path d="m184.53 71.17-.12-.29-.11-.33-.12-.41-.11-.48-.1-.52-.09-.52-.06-.5-.03-.45-.01-.36.02-.27.05-.14.08-.03.77-.14m-.93 2.45-.09-.57m-.1-1.02.04.48m-.02-1.15-.02.28m.15-.46.1.01.1.12m.32 4.19-.12-.35"/><path d="m185.42 71.12-.16-.4-.12-.32-.11-.42-.11-.48-.1-.52-.09-.53-.06-.5v-.04l-.03-.4-.01-.37.02-.26.04-.14.15-.21.07-.02.35-.08 4.78-.73-.06.02"/><path d="m185.48 71.12-.13-.34-.04-.14-.11-.18-.01-.05v-.01l-.23-.88-.01-.07v-.02l-.18-1.01-.01-.07.01-.01-.1-.91v-.06l.01-.01v-.59m5.65 2.22-.11-.49m.68 1.85-.25-.68-.09-.27-.01-.05-.02-.06-.18-.75-.01-.08-.02-.07-.15-.87-.01-.08-.01-.08-.09-.78v-.07l-.01-.05v-.53l.01-.06.08-.13h.02l.01.01m-.04 2.23-.09-.53m-.06-.51-.04-.44"/><path d="m190.3 67.34.38-.07-.25-.69-.17-.19v.66l.16 1.14.24.93.25.68-.11-1.21m-.86-2.72-.02.26m.91 1.24-.44-1.22-.09-.21-.16-.23-.1-.01m1.31 4.56-.01-.18m-.24.23-.08-.2-.14-1.52m.35.27-.02-.11-.06-.17m.06.17-.31.06m.37-.24.1.28m-.69-1.58.01.11m.75 2.87-.02-.18m.27.13-.04-.16m.11.15-.03-.16"/></g><g style="stroke:#3c3c3c;stroke-width:.494" id="Actor_.16"><path d="m107.08 116.05-.02.02-.46.05-.48-.25-1.01-.84-.7-1.17-.27-1.69.28-1.37 13.81-23.86 1.17-2.79.74-3.53.3-4.13-.13-4.54 1.84-.37-.56-4.81-.97-4.91-1.33-4.83-1.96-5.44-.2-.91-.17-1.35-.07-.23-1.85.42m-10.76 63.49 2.19-.34"/><path d="m122.15 71.58.15 4.55-.29 4.13-.72 3.54-1.14 2.79-13.54 23.87-.28 1.36.28 1.7.69 1.17 1 .85.48.25.44-.05.38-.34 13.67-19.19 2.22-2.42 2.35-1.3 2.44-.24-1.78.3-.95.1m-20.72 23.45.88-.13-.65.1m.65-.1 1.05-.16-1.05.16"/><path d="m109 115.77-.24.04.46-.07m4.28-69.31-.04.73 1.31 1.8.18.34.14.45.17 1.34.21.92 1.97 5.43 1.34 4.81.97 4.9.56 4.8"/><path d="m113.46 47.16 1.88-.43.04-.73m-.02 5.55 1.87-.42m-.34-2.03-.07-.22-.19-.35-1.29-1.8m4.78 7.48.51-.11-.07.33-.16.09-.22-.19-.19-.38-.14-.5-.04-.49.08-1.76m.48 3.3.11-.02"/><path d="m120.63 54.1 9.34 12.99.16.92.34.48.19-.42.04-.64m2.18 14.11-.07.85-.26.36-4.27 1.08-.43-.23-.41-.82-.26-1.12-1.42-11.96.02-1.06.29-.49.47.29.18.29 5.68 10.89.32.89.16 1.03-1.7.32-.16-1.03-.33-.89-4.79-9.06m2.6 21.67 2.5.74 2.47 1.63 2.4 2.45 4.27 5.13.15.28.1.42.08.87.11.41.15.28 2.04 2.43.15.07.75-.11"/><path d="m131.18 81.86-.07.84-.27.37-2.71.68m2.15 8.5 2.46.74 2.43 1.64 2.37 2.46 4.22 5.15.14.29.11.41.08.87.11.41.14.29 1.53 1.85m-12.54-38.95.15.21m11.69 34.69-.08-.31-.04-.47v-3.77l-7.58-9.68-.28-.66-.11-.85.13-.54.29.09.16-11.1-.01-.81-.04-.43-.07-.27m-.37 12.67.33-.06m5.03 18.15 1.61-.25m-1.8-1.03 1.62-.26m6.42 9.94.59.83 1.79 3.26 1.68 3.79 1.54 4.25 1.36 4.54m-2.9-8.79 1.47-.2-1.66-3.81-1.77-3.26-1.67-2.37m1.42-5.72.22.54.1.74-.08.51-.22-.02-.35-.45m2.57 2.15-.1-.31-.18-.84-.04-.82.11-.55.22-.1 3.62 2.14.1.1.27.63.17.9.01.82-.82 6.67-.15.44-.25-.07-.26-.55-2.7-8.46"/><path d="m152.16 106.92 2.57 1.5.08.08.27.62.17.9.01.82-.6 4.67m2.2 13.92-1.42-4.82-1.53-4.26m1.25-10.78 1.4-.21m-1.02-6.66 3.84 5.34.04.36.08.33.11.23.12-.01m-.69 36.39-.44-1.95m.73-13.61-.27-1.72-.37-3.58-.15-3.4.07-3.05.29-2.56.49-1.93.65-1.25.78-.53.13-.12.1-.29.07-.65.07-.08.08.05.57.8-.03-1.04m-1.91 32.18.65 2.94"/><path d="m159.61 108.96.09.05.07-.13.01-.28-.01-.54m1.2 3.54.87-.13m.42 34.03-.73-3.87m2.41 19.22.26 1.17.14.53.17.4.18.24.36.31-1.4.13-.38-.31-.17-.24-.17-.4-.15-.53-.15-.68m.38 1.41 1.42-.13m.62.75.25-.14.1-.79-.1-1.04-.32-1.69"/></g><g style="stroke:#3c3c3c;stroke-width:.494" id="Actor_.17"><path d="m115 111.33 1.83.09 1.11.88-1.22.76-2.31-.11-1.01-.78"/><path d="m114.63 112.25.12-.31.63-.16.76.08.45.27-.12.31-.62.16-.76-.08-.46-.27m1.84.19.02-.37m.34-.65.05-1.07m1.06 1.95.1-2.38"/></g><g style="stroke:#3c3c3c;stroke-width:.494" id="Actor_.18"><path d="m128.21 48.79.03-.19-.02-.07-.33-.71-.06-.04-.44-.24"/><path d="m127.36 47.5.63.35 2.45 3.44.26.64.01.07-.08.47"/><path d="m131.03 53.08.06-.44-.01-.07-.36-.77-.06-.04-.04-.02"/><path d="m130.91 52.9.04-.26-.25-.57m2.96 4.37-.38-.84-2.47-3.77-.2-.11m-.17-.43-.13-.22-.08-.07"/></g><g style="stroke:#3c3c3c;stroke-width:.494" id="Actor_.19"><path d="m135.26 87.59.51-.35m2.89 1.49-1.2.08-1.15.35m3.25 4.14 1.3-.1 1.59-.45 1.1-.72.46-.87v-2.11l-.28-.91-.98-.8-1.53-.57-.19-.02"/><path d="M139.27 88.68h.08l1.86.22 1.54.56.98.79.28.91"/></g><g style="stroke:#3c3c3c;stroke-width:.494" id="Actor_.20"><path d="m71.8 152.58.94.44.91.3-.94-.44-.91-.3-.37-.96.37-1.15 20.24-30.12 1.96-3.52 1.25-3.66.51-3.64-.25-3.43-.98-3.07-1.65-2.58-2.23-1.97-2.69-1.3.79.68 2.63 1.27"/><path d="m72.71 152.88 1.35-.15.64-.17.62-.37.53-.53 21.59-27.25.8.58 4.03-4.52 4.5-3.99.66-.46m-33.78 37.3 1.34-.15-.93-.44m.93.44.64-.17.61-.37.53-.53-.92-.44m.09 1.15-.93-.44m1.76-.27 21.47-27.11M84.47 94.91l-.11.99.8.67 1.91-.34"/><path d="m84.36 95.9 2.02-.36.29.01.13.09-.02-.01m-.4-.09.65.55"/><path d="m88.75 97.86-.48-.27-.79-.67-.33-.42-.26-.8-.09-.06.1.09m.58 1.19.48.26m3.87-2.04.33.03-.62-.56.06.33.23.2m-.08-.07-.04-.03m-.11-1.07-.06.64m.79.49.04-.44m18.46-2.91-.49-.51-17.42 3.12-.13.36-.27.3-.36.15m5.28 29.24 4.06-4.55 4.57-4.04m-.59-7.55-.72-.63-2.69-7.95.02-.9.57-.83.87-.43.75.69-.88.43-.57.83-.02.89 2.69 7.9m-3.43-8.58.74.68m.31-1.31-.74-.68"/><path d="m104.28 98.22.34-.02-.73-.69-.36.02m.36-.02 7.88.6m-7.01 9.53.49.59.6.1m5.56-9.61-6.79-.52m5.72-6.96.32.54.72-.13.4-.67.08-.74.11-.29m-.57 22.93.25.21 5.19-2.73 5.43-2.02 5.56-1.27 10.67-1.68.21.02m-27.06 7.68-.79.55"/><path d="m112.17 111.8 3.98-2.09 5.44-2.03 5.59-1.29.65.68m9.24-8.26-14.77 2.44-.66-.16-.25-.6.3-.69.67-.37.67.69-.68.38-.29.69m.3-1.76.08-2.06m.59 2.75.13-3.76"/><path d="m127.18 106.39 10.72-1.7.4.04.29.23.21.74.59.69.29.23.4.04-.6-.69-.39-.04-.29-.23m-.9-1.01.6.7m.44.42.6.7m-1.1-1.66.17.19m1.47 1.62 1.91-.3-.59-.69v-.11m-1.92.41 1.92-.3m.59.69v-.1m1.06-4.95.12.26v3.82l1-.15m-1 .15.57.7.21-.03m-.89-4.42.11.02m-.12-3.84 3.19-.53m4.62 5.35 7.05-1.12.51.72-7.77 1.23m7.26-1.95 3.76-.34m-3.25 1.06 3.82-.34m1.27-8.75-.35-.56-.39-10.75.02-.77.07-.25m1.18 13.04.15-.39-.27-.05"/><path d="m164.19 93.47.04-.11-.33-.62-.74-.15m5.35 9.31 1.98.09 5.92 1.14-.42-.74-5.95-1.14-1.73-.08m2.03-10.44-.2.43-.44-.78.16.84.53.46m-.18-.15-.07-.37m.13-1.76-.18.14-.39.84m5.6 3.44 5.41 2.3 1 .11.95-.43.59-.83 3.25-9.74-.02-.97-.34-.34m-11.16 4.37 9.71-3.89.41-.12-.36-.83-.28.07-.13.06.36.82m-.36-.82-9.4 3.76m.07-8.44.08.73.46.56.83-.15.38-.71 21.08-3.78.15.36.35.21.45.02.42-.17.3-.34.08-.39-.09-.83"/><path d="m175.44 80.08-.04-.38-.1-.22m.1.22-.37-.76m.96 23.45 5.73 1.99 5.4 2.84 4.94 3.65.34.72-4.92-3.64-5.37-2.83-5.7-1.99m8.69-18.85 1.06.13.33.33-.34-.8-.35-.36-1.06-.13"/><path d="m192.4 111.59 27.91 24.24.73.46.84.26.87.02-.16-.62-.9-.02-.85-.26-.72-.47-28.06-24.33m34.21 22.99.15.63-.51 1.25-1.28.62-.17-.63 1.29-.62.52-1.25-.52-1.26-26.92-28.15-2.45-3.24-1.55-3.65-.62-3.87.32-3.92.32.81-.32 3.91.61 3.81"/><path d="m194.85 90.58 1.22-3.8 2.07-3.54 2.83-3.14 3.45-2.61-.26-.88.62-.5.43-.63.21-.68.26.88-.21.69-.43.62-.62.5"/><path d="m194.53 89.77 1.23-3.82 2.09-3.56 2.84-3.15 3.47-2.63m1.09.07-.25-.88m.7-1.47.24.89-.13.13-.13.33"/><path d="m205.42 74.8.14-.34.28-.27.38-.14 2.65-.48.23.9-2.63.47-.38.14-.15.14m.53-.28-.25-.89m2.88.42-.15-1.29m-.08.39-.1-.83m11.54 63.09-.19-.63m1.34 1.22-.19-.62m1.32.15 1.87-.22m-1.71.84 1.88-.21m1.38-1.88.16.64"/></g><g style="stroke:#3c3c3c;stroke-width:.494" id="Actor_.21"><path d="m145.58 114.43-.87.73-2.53-.48.85-.74 2.55.49-.01-1.83.45-.71.9.18.45.88-.87.73.89.18.88-.74-.9-.17m-5.19 1.73v-1.83l5.4-20.7.84-.83.86.2.12.44.32.38.43.21h.39l.31-.2.14-.35.39-1.67-.85.83-.33 1.39"/><path d="M143.03 113.94v-1.84l5.39-20.78m-1.92 22.36-.45-.87-.48-.09m2.7.4 2.98-12.06.82-1.78 1.41-1.25-.87.79-.56.49m-.67-8.98 12.5 2.91.47 1.83.15.4.3.33.39.19.4-.02.29-.23.09-.39-.74.64"/><path d="m152.61 98.82 1.82-.6 2.05.11.96.22 2.05.79 1.83 1.39.91-.77-1.84-1.4-2.06-.8-.96-.22-2.06-.11-1.83.6"/><path d="m162.23 99.96 1.44 1.85.89 2.1 3.46 13.04-.95.69-3.43-12.97-.88-2.1-1.44-1.84"/><path d="m165.97 95.35.81.19 6.07 22.35.09 1.77-.98.67-2.32-.44.97-.68-.08-1.77-.45-.85-.83-.16-.39.69-.96.69-.83-.17m.95-.69.84.17"/><path d="m169.64 119.89-.08-1.77-.45-.84-.38-.07m4.21 2.45-2.33-.45"/></g><g style="stroke:#3c3c3c;stroke-width:.494" id="Actor_.22"><path d="m90.44 98.67-1.57.28-2.43.5-2.23.63-1.99.73-1.95.59-2.34.29-2.57-.03-2.62-.34-2.66-.69-2.28-.97-1.7-1.18-.96-1.29-.12-1.29.76-1.17 1.59-.94 2.28-.62 2.76-.23 2.94-.1 2.82-.25 2.7-.41 11.48-2.12 4.76-1.05 4.48-1.09 4.14-1.14 3.75-1.2 3.31-1.29 2.81-1.37 2.24-1.49 1.62-1.62.86-1.6"/><path d="m65.02 95.9.19-1.35.76-1.18 1.59-.95 2.27-.62 2.76-.23 2.92-.1 2.82-.26 2.69-.41 11.46-2.14 4.75-1.05 4.46-1.1 4.14-1.14 3.74-1.21 3.3-1.3 2.8-1.38 2.24-1.5 1.6-1.62.92-1.72M69.61 96.28l-.22.12.03.09m.7-.27-.38-.01-.09.05m.54-.04h.18l.52.22.12.28m2.11 2.74-.11-.27.35-.19.61.02.51.2.11.27-.34.18-.63-.01-.5-.2m.08-1.31-.1-.04-.72-.55-.06-.58.6-.46 1.12-.2 1.32.11 1.17.38.7.56.05.58-.62.44-1.1.2-1.3-.1-1.06-.34m.42 1.51.09-.65m1.95-3.13-.52-.22-.11-.28.37-.2.63.01.51.22.11.29-.37.19-.62-.01.08-.69m2.85 3.08-.03-.06.23-.13m.04-.02.1-.05.37.01m.07 0 .17.01.51.2.09.27m10.14-4.6-.03.34-4.58.82-.13-.08-.35-.12-.6-.02-.36.19.08.28.1.08"/><path d="m90.25 94.24-.08-.28.37-.19.6.01.19.06.29.15.85.76-.01.29m27.86-22.71-.34-1.29-1.19-2.86-1.65-3.13-2.08-3.41-2.52-3.74-7.28-9.35-1.99-2.26-2.39-2.19-2.79-2.1-2.45-2.16-1.51-2.5-.41-2.62.17-1.72.77-2.53 1.92-2.2 2.93-1.66 3.67-.95 4.09-.13 4.1.7 3.73 1.44 3.02 2.06 2.06 2.45.94 2.62.59 2.7 1.01 2.59 1.39 2.47 7.31 11.11 2.37 2.93 3 2.61 3.55 2.25 4.01 1.86 4.38 1.45 18.19 4.97 4.42.96 4.66.55 4.8.14 4.89-.28 4.87-.7 16.76-3.12 3.44-.74 3.39-.94 3.3-1.14 3.3-.95 3.45-.44 3.28.12 2.81.67 2.08 1.15 1.17 1.51.27 1.52.18 1.72-.79 1.79-1.67 1.7-2.39 1.48-2.9 1.14-3.18.74-3.2.26-3.32.13-3.34.3-3.32.49-7.64 1.34"/><path d="m93.72 34.72.77-2.52 1.93-2.19 2.93-1.66 3.69-.94 4.1-.13 4.12.69 3.74 1.45 3.03 2.04 2.07 2.44.94 2.61.6 2.68 1.02 2.6 1.39 2.44 7.33 11.05 2.38 2.91 3.01 2.6 3.56 2.23 4.02 1.85 4.4 1.44 18.24 4.94 4.43.95 4.67.55 4.82.14 4.9-.28 4.88-.69 16.81-3.11 3.46-.74 3.4-.93 3.31-1.13 3.31-.95 3.46-.44 3.29.13 2.82.66 2.08 1.14 1.18 1.5"/><path d="m100.17 35-.08-.59.57-.4.89.04.68.44.08.58-.57.39-.88-.03-.69-.43m.69.43.08-1m9.84 1.74.2.27-.13 1.18-1.04.91-1.62.39-1.82-.22-1.53-.77-.83-1.13.09-1.19 1.01-.93 1.66-.41.6.07m-1.92 5.42-.52-.02-.15.1m1.58.29-.56-.36-.25-.01m4.09-7.82-.54-.02-.1.07m.75-.04h.25l.21.15m6.56 57.36-3.57.65-.11-.09-.34-.13-.62-.02-.41.2.04.3.08.08m1.95-42.83-.55-.06-.45-.61.59-.49 2.07-.48.26-.03.27.01.26.05.59.37.03.5-.54.33 2.85 3.98.25-.03h.27l.25.05.56.35.03.47-.53.31-.16.04m-6.9-13.47-.31-.2-.04-.57.58-.38.87.04.65.42.04.56-.59.38-.86-.03-.34-.22m.34.22.06-.99m2.98 9.07.06-1.11m1.22 38.36.13-.06h.34m.28.01.36.01.23.12m4.18 12.91 9.76 2.05m-1.4-32.06.49.29-.01.39-.5.26.02-.94-.24-.05H131l-.95.17"/><path d="m131.46 68.38 3.69 5.16.45-.02.27.06m-.14 10.75-.21.23m.23-1.65-.21.23m.24-2.57-.2.23m.08-6.34.2-.07m3.4-8.3-.12-.08-.9-.03m.32-4.07.02-1.57m1.12 33.14.41.01 2.37-.25 2.18-.53 1.82-.79 1.36-1 12.62-12.55.15-.34-.19-.33-.49-.23-.38-.1-.65-.06-.64.12-.46.27-12.45 12.65-1.2.84-.2.07m-2.92-5.01.16.07.74.17 1.66.15 1.59-.28 1.1-.64 9.87-10.27.4-.95-.55-.93-1.35-.64-.79-.21-1.79-.18-1.75.33-1.21.76-8.07 8.88"/><path d="m141.04 84.84.16.07.74.17 1.65.15 1.58-.28 1.11-.65 9.84-10.33.05-.12m-15.09.58.71-.83.44-.27.65-.14.68.07.4.11.52.24.23.34-.12.37-3.53 3.98m.01-1.46 3-3.43m-1.59 19.83v-.52m1.32-1.17.85-.21 1.82-.8 1.36-1 12.04-12.09m-15.49 7.64.01 1.41m5.16-17.74-.05-.03.05-.42.58-.29.77.02 12.39 3.33.47.31-.09.41-.58.27-.75-.02L150 69.05l-.45-.29m5.48 43.82-.39-.61-1.88-2.43m8.14 8.46-.84-.1-1.39-.37m1.5-3.01.53.01.41-.14.06-.22-.34-.16-.53-.01-.42.14-.05.22.34.16-.02-.47m.06-6.01.01.57.42-.15.05-.23-.33-.17-.36-.02-.61.08m2.44 2.88.5-.16.06-.22-.33-.17-.35-.02-.17.01-1.32-1.83m1.21 7.87v-.03m.35-.29.11-.04.31.01m-.74.19.02-.05.26-.09m3.53-.61-.19.09-1.06.15-1.07-.08-.8-.29-.31-.42.26-.43.77-.36 1.08-.15.76.05m-2 2.25.03-.09-.33-.16h-.15m.06-23.25.46-.93.34-.39m-.34-10.17-.11-.19.07-.33.5-.22.65.01.31.15.09.1 5.52-.99m-2.26 37.82-.53.13-2.33.29h-1.41m1.99-4.58v-.03m.63-.34h-.15l-.11.04m-.04.01-.28.1-.01.06m2.94 4.13.88-.23m2.96-2.23.17-.4-.06-1.21-.32-.98-.64-.55m-.09-36.84-.39.18"/><path d="m172.26 114.69-.32-.98-.29-.24m1.07-38.46-.1-.07-.97-.03m3.79 5.1.06-.12-.45-.92-.08-.1-.13-.09-.18-.06-.24-.01m4.08-5.89-.1-1.5m30.64 2.67.09-.11-.26-.99-.06-.11-.12-.1-.17-.07-.67-.02-.59.25-.18.37-5.92 1.06-.06-.09-.13-.11-.18-.07-.65-.01-.58.24-.15.36.14.45m17.82-5.47.06-.1.42-.18m-.53.39.04-.09m.91 3.76.1.69.69.01.64-.25.21-.38-.34-.29-.7-.02-.64.26-.2.38.34.29m.15-4.83-.44-.01-.17.07m1.15.18-.27-.23-.22-.01m1.49 1.18.08-.11 1.27-.63 1.55-.29 1.42.16.88.54.13.78-.66.81-1.26.62-1.53.27-1.39-.14-.59-.35m6.38-.21-.42.17-.06.1m-.1.17.09-.15m-.45-3.38-.34-.3.23-.41.11.71.71.02.67-.27.24-.41-.34-.3-.72-.02-.67.27m1.72 3.72-.44-.02-.16.07m1.13.18-.27-.23h-.19"/></g><g style="stroke:#3c3c3c;stroke-width:.494" id="Actor_.23"><path d="m98.37 27.25.44-4.74.89-1.93 1.77-1.57 2.49-1.05.22-.22 1.48-.27.33-.04 1.76-.1 1.8.19-.75-.04.23.2.85.14.83.19.82.24 2.8 1.32 2.12 1.81 1.23 2.11.22 2.17-.24 3.75m-17.1 4.67.4.32.03-.37m-.03.37 1.04-.06m3.06.82.41.86 1.3.73-.04.42-1.3-.73-.49-1.05.4-.77m3.18 1.53-.27.49-1.07.06-.72-.59.06-.86.35-.65.48-.02"/><path d="m106.46 36.11.34-.65.75-.04m-1.89-17.95 1.56-.08 1.58.09m-2.53-.67-.05.61m.51 19.75 1.61.14 1.32-.5.21-.4"/><path d="m106.77 36.75 1.6.13 1.3-.49m1.3-10.23-3.41-.65-.38.02m2.58-7.73-.21-.28m.05.07.15-2.24m1.71 2.88.06-.91m1.52 20.53.32.26.02-.34m-.02.34 1.02-.05"/></g><g style="stroke:#3c3c3c;stroke-width:.494" id="Actor_.24"><path d="m97.51 87.12-.29-.28-.37-.77-.01-.04-.19-.86-.01-.03.02-.87.23-.6.06-.04.39-.21 3.7-.87.47-.08.09.02.15.06.05.03m-5.15 2.56.2.92m.59.99.01.01.4.4"/><path d="m97.37 86.98.02.03.45.45m4.03-1-.06-.06-.21-.24-.02-.05-.37-.75-.02-.08-.21-.91-.01-.08v-.86l.01-.07.21-.6.03-.04.35-.21h.04l.15.07"/><path d="m101.99 86.43-.13-.13-.22-.27-.37-.79-.2-.94.01-.89.22-.61.38-.2.36-.07"/><path d="m102.61 86.26-.23-.28-.39-.84-.01-.03-.2-.95v-.03l.21 1.01m-.21-1.01.01-.93.23-.66.07-.04.4-.22 5.02-.96.09.02.14.06.32.21 2.11 2.31"/><path d="m107.53 84.82-.28-.6-.02-.07-.21-.92v-.08l-.01-.87.01-.07.19-.6.03-.04.34-.21h.04l.37.21"/><path d="m107.75 84.74-.31-.54-.25-1.11.07-.97.35-.46.49.21 1.22 1.32.19.26.18.33.11.29m-2.4-.04 2.2-.42"/><path d="m107.32 83.67.05.11-.02.03m.99.74-.1-.19-.38-.03-.34.02m.16-2.9.21.07.17.09m1.06 2.69-.83.16"/><path d="m108.04 81.59.03.03.45.48"/></g><g style="stroke:#3c3c3c;stroke-width:.494" id="Actor_.25"><path d="m140.45 66.35-2.59-.43-1.89 1.04-.28 20.12.72 1.33 2.65.37 1.96-.93-.68-1.33.11-20.17.65 1.45-.08 20.05"/><path d="m135.69 87.08 1.96-.95 2.69.39m-2.58 1.45-.55-.36.12-.45.73-.27.91.07.55.37-.13.44-.72.27-.91-.07m-.11-1.84.21-20.21"/></g><g style="stroke:#3c3c3c;stroke-width:.494" id="Actor_.26"><path d="m120.26 157.85-.22-.14 1.77-.59 2.92.14 1.11.72-1.77.58-2.88-.13-.93-.58"/><path d="m120.04 157.71.29-7.86 1.75-.64-.27 7.91m-.12.75.49.23.94.07.83-.11.25-.24-.48-.23-.94-.08-.84.12-.25.24"/><path d="m124.73 157.26.24-7.9-2.89-.15m1.88 8.5-.01.35m1.02-8.7 1.09.79-.22 7.83"/></g><g id="Actor_.27"><g style="stroke:#3c3c3c;stroke-width:.494"><path d="m77.65 91.27-2.09-.43-2.46-.11-2.19.3-1.66.66-.35.37m-.5.13.65-5.25.05-.28.09-.26.82-.91 1.48-.67 1.97-.34 2.25.01.18-.11-.38-.46-.83.57"/><path d="m76.48 91.38-.96-.2-2.46-.11-2.2.3-1.21.48"/><path d="m70.93 91.71.39-.11 1.75-.19 1.91.05-.01.02m1.74 5.47.02.09-.59.38-1.06.09-1.13-.22-.76-.45-.08-.35"/><path d="m74.19 97-.19-.04-.77-.46-.01-.03"/><path d="m74.1 96.87.23.35.76.15.53-.2-.23-.35-.76-.15-.53.2.07-.54m.01-11.85.45-.12h.23m.12 7.1v.02m-.11-9.98-.37 2.89m1.12 12.77.08-.62m-.07.59.55-.05.38-.24m-.67-12.46 1.13.15 1.09.24 1.04.31.03-.37-1.14-.39-1.25-.27-1.28-.13m3.05-1.61-.25 2.11m.87.29.11.56m-.14-.19.13.18 1.79.85 1.23 1.02.54 1.08-.26 2.3"/></g><path d="m74.87 81.5.28-2.22.6-.43 1.08-.11 1.14.25.76.53.1.58-.27 2.21" style="stroke:#3c3c3c;stroke-width:.494"/></g><g style="stroke:#3c3c3c;stroke-width:.494" id="Actor_.28"><path d="m113.53 162.64 2.75.12 1.11.63-1.61.51-2.7-.12-1.14-.63 1.59-.51.36-7.45-1.58.56-.37 7.4"/><path d="m113.7 163.09.78-.11.88.07.48.2-.21.21-.77.1-.87-.07h-.01l-.48-.19.2-.21m.19-7.9 2.71.13-.32 7.44m-.65.7.01-.29m.96-7.85 1.09.69-.3 7.38"/></g><g style="stroke:#3c3c3c;stroke-width:.494" id="Actor_.29"><path d="m78.1 100.54.71.24.02.01.37.04.37.01h.05l.66-.15.3-.3.04-.07.13-1.32-.34-.4-.78-.28-.91-.05-.69.2-.21.36-.11 1.02-.02.25.03.1.38.34m.27-1.03.54-.04"/><path d="m78.71 100.05-.04.38-.2-.3.47-.17.66.13.2.3-.47.17-.66-.13m.66.13.06-.51"/><path d="m79.61 100.84.06-.02.59-.13.03-.02.26-.27v-.03l-.15-.32-.03-.03-.52-.27-.05-.02-.33-.08m-.89-1.34v-.03m1.52.21.01-.07"/></g><path d="m88.16 89.47.79-.47 3.49-1.92 3.34-1.56.88-.28m-5 3.58 1.26-.7 3.24-1.51.81-.29m-4.5 2.35.72-.37 3.29-1.43.66-.19m-1.47-1.01 1.03-.29" style="stroke:#3c3c3c;stroke-width:.494" id="Actor_.30"/><g style="stroke:#3c3c3c;stroke-width:.494" id="Actor_.31"><path d="m126.96 77.77.24-.16.23-.32.04-.06-.03-.35-.03-.06-.29-.32-.08-.05-.5-.25h0"/><path d="m126.73 77.87.17-.07.8-.51.25-.28.1-.21.08-.29-.21-.51-.56-.44-.83-.31-.11-.02"/><path d="m126.38 74.88.35.04 1.11.61.27.81.02.17m-1.17 1.26h0"/></g><path d="m163.42 93.02-.06-.03h-.2l-.16.02-.03.02m1.21.46-.03-.03" style="stroke:#3c3c3c;stroke-width:.494" id="Actor_.32"/><g style="stroke:#3c3c3c;stroke-width:.494" id="Actor_.33"><path d="m74.64 83.34-.62-.13-.12-.04-.1-.05-.06-.06-1.26-1.95-.02-.07.03-.06.07-.05 2.65-1.16.1-.03.13-.01.13.02 3.89.84.13.03.09.06.07.06 1.16 1.96.02.07-.03.06-.07.04-2.46 1.05m-5.77-3.87-.12.96"/><path d="m72.46 81.04.13-.96.03-.06.06-.04 2.65-1.17.1-.03.13-.01.13.02 3.89.84.12.03.1.06.06.06 1.16 1.97.02.07-.11.95"/><path d="M80.16 80.29v-.07l.03-.94-.02-.87-.05-.79-.31-1.67-.3-1.03-.39-.77-.43-.52-.21-.22-.48-.25-.12-.04-.14-.02h-.16l-.26.05-.34.1-.46.32-.32.3-.59.68-.58.95-.54 1.25-.24.75-.23.83-.2.93-.04.23m1.04 2.38-.06-.07.1-.23m.57-.47-.42.14-.11.24m.63-.41.39-.13.57.03m-1.11-1.23.12-.97m2.13 2.43-.49-.19-.53-.03m1.13.27.45.17.23.28m.05.07.21.25-.12.26m1.19-2.59-.11.96"/></g><g style="stroke:#3c3c3c;stroke-width:.494" id="Actor_.34"><path d="m214.68 53.35.14 1.05m2.29 1.83-2.22-1.71-.06-.08-.01-.08.05-.09 2.14-2.66.09-.08.13-.07.15-.04 4.68-.75.15-.01.14.03.1.05 2.41 1.95.05.07v.09l-.05.09-2.16 2.53"/><path d="m224.91 52.76-.17-1.06-.05-.07-2.4-1.96-.11-.05-.14-.02h-.15l-4.66.76-.15.04-.13.06-.1.09-2.13 2.66-.05.09.01.09.15 1.05"/><path d="m215.83 51.83-.05-.63.04-1.88.03-.7.21-1.48.35-1.17.44-.87.17-.31.44-.5.2-.19.33-.19.49-.14.54.01.42.16.59.32.63.6.36.52.7 1.04.66 1.37.6 1.74.19.87m-6.16.03.16 1.06m.95 1.56-.31.22-.16.55m.04.42-.12-.13.07-.25m.52-.84.68-.47.43-.09m1.37-.16-.38-.06-.93.2m2.38.21-.18-.2-.84-.14m1.37 1.05.08-.25-.41-.44m.55-1.99-.17-1.07"/></g><g style="stroke:#3c3c3c;stroke-width:.494" id="Actor_.35"><path d="m165.97 113.49-.16-.01-.72.15-.38.3.02 1.14.16-.2m-.16.2.04.2.13.16.49.19.06.01.3.04h.32l.45-.08"/><path d="m166.38 115.05-.38-.07-.51.13.01.24.51.1.45-.12m-.45.12-.02-.47m-.33-.37.5-.03m-.89-.98v-.1"/></g><g style="stroke:#3c3c3c;stroke-width:.494" id="Actor_.36"><path d="M144.11 115.05v2.29l-.15.87v-3.19"/><path d="m143.96 118.21 1.82.47 1.98-.38.17-.87-1.83-.48-1.99.39"/><path d="m145.22 118.07-.23-.27.32-.26.7-.1.65.13.23.27-.33.26-.69.1-.65-.13m.88-1.12-.02-4.08m1.85 4.56-.03-4"/></g><g style="stroke:#3c3c3c;stroke-width:.494" id="Actor_.37"><path d="M105.72 43.99h-.51l-.57-.07-.93-.48-.26-.34-.18-.35-.04-.15.09-.49"/><path d="m103.23 42.6.11-1.64.39-.73 1.03-.39 1.27.11 1.02.56.38.8-.14 1.75-.05.09-.5.6-.97.28-.42-.04"/><path d="m104.61 42.46-.05.72-.2-.6.7-.34.91.26.19.6-.7.34-.9-.26m-.22-1.75.78-.07"/><path d="m105.4 43.99.36.03.09-.02.86-.26.06-.04.44-.54.01-.06-.13-.65-.04-.06-.66-.54-.06-.04-.45-.16m-1.15 2.28-.08-.02m.81-.47.06-.85-.45-.13-.24-.1"/><path d="m105.14 42.26-.07.2-.29-.08"/><path d="m105.07 42.46.28.05.28-.02.15-.04m-.26.14.28-.14"/></g><g style="stroke:#3c3c3c;stroke-width:.494" id="Actor_.38"><path d="m176.56 192.65.39.32-.16-.19-1.16-.66-.27-.46-.16-.28-.02-.42.98-.26 1.74-.16 1.84.03 1.21.19.12.28.03.42-.8.73"/><path d="m175.2 191.38.98-.26 1.75-.15 1.84.02 1.21.19.12.28m-1.43-.89-.57-10.18-.71-.17h-1.19l-.97.16-.19.22.52 10.06"/><path d="m176.04 180.6.3-.45.78-.17h1.1l.6.16.28.25m-.93 12.26.02.35-1.04-.07.03-.18 1.09-.11 1.05.07-.04.18-.02-.18"/><path d="m176.95 192.97 1.12.08 1.24-.1.18-.03.25-.16.37-.29.87-1.29"/><path d="m177.72 192.62.83.02.48-.03m-.84.39 1.09-.11"/></g><g style="stroke:#3c3c3c;stroke-width:.494" id="Actor_.39"><path d="m112.62 199.4-.1.02-.97.07-1.09-.06-.38-.14-.82-.59-.46-.63.53-.2 1.36-.12 1.65.02 1.3.14.46.21-1.48 1.28.31-.37.71-1.12"/><path d="m108.8 198.07.02-.37.53-.2 1.35-.12 1.65.02 1.31.14.46.21-.02.37m-2.49 1.09-.01.25-1.02-.06.01-.15"/><path d="m110.58 199.4-.2-.13.81-.08m-.5-.02.71.02.43-.02m-1.66-1.74.45-9.04.7-.12h1.06l.78.12.05.17-.41 8.89"/><path d="m110.62 188.39.2-.21.52-.13.96-.01.69.12.17.23m-1.56 11.07.81-.09-.2-.13-.99-.05"/></g><g style="stroke:#3c3c3c;stroke-width:.494" id="Actor_.40"><path d="m164.73 114.75-.58.12-.96-.05-.67-.27-.04-.14"/><path d="m163.31 114.53-.13-.01-.5-.2m.5.2.01.3m1.1-.52.34.22-.32.25-.66.02-.34-.22.32-.24.66-.03-.01-.2m-.97.47-.01-.4m1.42.28-.09.02m0 .05-.01-.39"/></g><g id="Actor_.41"><g style="stroke:#3c3c3c;stroke-width:.494"><path d="m112.15 158.96-8.31 5.88-.18.38.44.38 1 .32 1.39.21 9.61.97"/><path d="m103.66 165.22.08-1.27.18-.38 8.3-5.97m.03-.65-.26-.21-.68-.61-.1-.63.49-.61 7.52-5.61 1.19-.63 1.73-.52 2.16-.37 1.91-.3 1.69-.39 1.42-.5.04-1.54-1.42.5-1.69.4-1.9.31-2.15.37-1.73.52-1.19.64-7.5 5.7-.5.61-.07 1.42m.85 5.23-.09.02.06.26.02.01m1.49 4.9-.01.12-.18-.03v-.27l.15.01-.14-.02-.01.28-.15.09.77.08.14-.09-.19-.01-.14.08.12-.09"/><path d="M113.92 165.96v.12l-.39-.04-.14.08-.19-.02.01-.28.15-.09m.05.39.55.05.13-.08"/><path d="m113.2 166.1.02-.27.13-.09m.64.34h.11l.02-.1-.01.11m-.27-.53-.01.29-.14.08-.19-.02.14-.08.02-.29.18.02"/><path d="m113.66 165.54-.15.09-.01.28.02-.27.13-.09-.01.28.77.07-.14.09-.19-.02.12-.09"/><path d="m113.7 165.93.29.03-.48-.05"/><path d="m113.65 165.55.58.06-.01.28-.14.08-.09-.01"/><path d="M114.41 165.9v-.27l-.19-.02"/><path d="M114.22 165.89h.18l.01-.26m-.02.27-.13.08-.17-.01m.07-10.8.25-.06h.45m-.43-3.82.08-.06m.29-.06-.36-.04 4.92-3.75.52.07m-5.44 3.68.07-1.47.72-.55-.04.82.52-.39.03-.83 1.11-.86-.03.83.53-.4.04-.84.32-.25-.04.84.54-.42.04-.84.32-.25.46.06-.02.42m-4.63 4.49.03-.18.12-.1-.04.04-.02.06-.01.11m.07-.21h.06l.14.01m1.35 17.41-.05.02.08-1.84 1.7-1.05-.08 1.87-1.65 1"/><path d="m117.73 167.63 4.59.46-1.75 1.01-4.54-.45m-.02-3.25.07.02-.47-.05.14-.09-.18-.02v-.19.19l-.15.09.19.02.13-.09"/><path d="m115.42 165.35.01-.29.15-.09.19.02-.02.29.39.04-.14.09-.37-.05m-.02.01-.18-.03"/><path d="m115.44 165.07.13-.08.58.05-.01.28.2.02.01-.26-.02.25-.19-.01m.18.02-.13.08h-.11l.11.01.15-.09m-.26.02.05-.04m-.32-.94-.01.3-.19-.03.01-.28.19.01"/><path d="m115.61 164.65.01-.27-.14.09-.01-.01-.01.28.15-.09m.18.02-.13.1.14-.09.41.04m-.59-.34.58.05h-.01m-.61.54-.01.1v-.08m.05-.62-.15.09"/><path d="m115.48 164.47-.02.27.59.07-.38-.05m.51-.04-.13.09h.03l-.02-.01m-.9-9.69.36.01.33.08m-.59-4.54.08-.06m-.13.26.01-.12.02-.06.12-.1-.04.04-.02.06v.11m.06-.21.06-.01.14.02m.09-1.01.02-.41-.44-.06m.91 1.04v-.11l.02-.06.04-.04-.12.1-.02.06-.01.12m-.85-1.1.07-1.31 4.42-3.47-.06 1.55m-2.5 18.59 1.02.11-.93.58-1.02-.1.93-.59.03-.75-.93.59-.03.75m.86.17-.09.05.62.07.09-.06-.62-.06v-.08"/><path d="m116.97 165.28-.25.15.02-.31m-.02.31.55.06.23-.14m-.53-.06.01-.14"/><path d="m116.68 165.47.63.06-.09.06-.62-.07.08-.05.02-.35m-.1.4.01-.41m-.53-.3.13.01m.02-.38-.03-.01-.01.29-.11.07m.06.25.06.01m-.12-9.78.14.03m-.12-5.28.08-.06m.73-.39.02-.17.13-.11-.04.04-.02.06-.01.12m-.58.44-.15-.02-.06.01m.75-.57.09-.06m.02-.02.07-.01.13.02m-.41-1.45.45.06-.01.41m.43 20.11.72-.18 1.11-.03.95.14.36.24-.1.13-.29.1-.97.11-1.08-.06-.71-.2.02-.37m.32-3.17.39.04.09-.05-.39-.04-.09.05.02-.41.03-.02m.04.38.02-.37m-.48.58.02-.43m-.39.66v-.07m.5.3 4.54.47m-4.13-2.01-.02.29.4.04.01-.28-.39-.05-.02.29-.04.03"/><path d="m117.97 164.7.2.02-.18-.03m.07-.04.11.02-.12-.01m.55-.11-.07.05-.38-.04m.02-.3.05-.03-.05.03"/><path d="m118.15 164.59.03-.75-1.02-.11m1.01.99.14.01.06-.04"/><path d="m118.17 164.67.21.02-.07.04m2.25-6.7-2.96.3m.02-.55 2.43-.24m-2.23-8.82.09-.07m-.13.26v-.12l.02-.05.13-.11.06-.01.14.02"/><path d="m117.93 148.63-.05.04-.01.06-.01.12m-.15-1.66.45.06-.02.42m.41 17.38-.06.03-.31-.03.01-.33m.34.41v-.07m.69.41-.42-.04 1.48-.91 3.89.41-1.51.9-3.44-.36m-.12-.65h-.02l-.08.05v.12-.11l-.18.12-.02.43m.56-1.37-.09-.01-.09.06-.02.41.09-.05.39.04-.08.05-.4-.04"/><path d="m118.36 164.7-.01.26-.09.06.01-.29"/><path d="m118.26 165.02.39.04.09-.06.01-.41-.18-.02m-.22.39.39.04m-.56.05.08-.05m.74-.01.07-.04.01-.13m-.01.13.01-.11.07-.05-.01.11.01-.12.07-.05v.13l-.08.04m.08-.04v-.11l.08-.05-.01.11.01-.12.07-.05-.01.13-.07.04m-.68-.54-.39-.04m.37.32-.21.14.13-.09m.06-18.08-.03.84.55-.42.03-.85.3-.22-.06 1.51m.1 16.96-.09.05.02-.41.09-.06-.02.42.39.04-.09.05-.39-.04m.49-.28-.01.27"/><path d="m119.37 164.38-.08.05.32.03.06-.04"/><path d="m119.38 164.05-.07.05-.02.33m.35.08.01-.07m-.4.03.02-.42m.4-.02.24.03-.15.09-.24-.02.15-.1.03-.41-.16.09-.02.42m.39-.07.01-.21"/><path d="m119.83 164.11.26.02.12-.07-.3-.03m.3.03.01-.18"/><path d="m120.22 164.09.24.03-.15.09-.24-.02.15-.1.01-.21m-.16.31v-.06"/><path d="m120.12 164.19-.01.01-.01.11.01-.12-.15.1v-.01l-.07.04-.01.13.08-.05v-.11"/><path d="m120.1 164.31-.07.05v-.11m-.66.39h.02m-.03.13.01-.11.07-.05v.11-.12l.07-.04m-.07.16.07-.04.01-.11.01-.01m.12-.09.01-.01v.02l.08-.05-.01.11.08-.05v-.09m-.22.14v.09l.07-.05v-.1m.3-.2h.02m-.76.45h.03m.41-.27h.03m.2-.12-.04.02m-.32-.43-.05-.01m.49-.47-.16.09-.01.29.15-.09.01-.28.59.06-.01.29-.15.09.19.02.15-.1-.59-.06.01-.29-.18-.02-.02.28.19.03-.15.1.14-.1"/><path d="M119.81 163.54v.01l.15-.09m-.15.37.18.03-.19-.03.01-.28m.18.31.27.03-.25-.04m-.31-.23.1.01m.36-9.22-.03.07-.01.46.02.07m-.72-9.14 2.78.37m-2.51-1.9 3.63.5-.04 1.32m-2.42 22.44.01-.12m-.4-4.57-.01.21m-.18.4.01-.31m.47-.08.02-.01.2.02-.01.13.01-.11.19.02v.11-.13l-.02.02"/><path d="M120.78 164.12v.13l.19.02m-.19-.02v-.11l-.32-.04m.71.06.2.02-.01.13-.19-.02m-.63.4.1-.02-.02-.03-.12-.01-.1.01.02.03.12.02m.19-.87.01-.28-.2-.02"/><path d="m120.54 163.81.19.01.01-.28m-.22.26-.13.1-.13-.01"/><path d="m120.72 163.82-.14.09-.18-.02m2.26-5.39-1.64 1.06.05-1.21m-.05 1.21 3.53.4 4.79-3.01-3.46-.42m-3.56 11.56.06-1.74m3.61 1.75-3.66-.37m.03-.59.1.01-.1.05m.15-1.23-.15.09v.01l.14-.08.01.13v-.15l.18.02v.29l-.15.09-.18-.03v-.22.22l.14-.08.01-.14-.01.14.56.06.01-.28h-.01m-1.11-1.78v-.02l.2.03-.01.12-.19-.02v-.11l-.5-.05-.07.04.39.04-.02.06-.19-.02v-.06m.37-.01.02-.02m.2.04.19.02v-.01l-.02.01m.02 0v.11l.19.02.01-.11.19.02v-.01l-.02.01"/><path d="m122.34 164.29.2.02v.01m-1.16-.07.01-.28.07-.05-.01.29.15-.09.39.04.08-.05-.4-.04-.07.05.01-.3.08-.04.39.05-.01.28"/><path d="m121.39 164.24.38.05.06-.04m-.06.04.21-.13m-.31-.09.02-.29m-.08.33.38.05.07-.05"/><path d="m121.99 164.16-.15.09-.38-.05m-.1.11.02-.11m1.04-.44.01-.27-.07.04-.02.29.39.04v-.01"/><path d="m122.34 163.82.08-.05-.06.05m-.68.21.01-.24-.23.13h.01m.61-.09-.39-.04m.17-4.4.36.04.09-.07.53.06-.09.07.44.05-.1.06-.45-.05-.09.06-.53-.06.09-.06-.44-.05.11-.06.08.01-.09.06.01-.07m.69-.27-.01.09-.44-.05.1-.06.22.02.02-.01-.22-.02-.11.06.23.03.08-.06m-.22.3-.01.08"/><path d="m122.36 159.1.22.03-.12.07m.62-10.05h-.49l-.25.07m.87 18.28-.26.15.02-.56.25-.15m-.27.71.52.05.24-.13"/><path d="m123.2 167.52.6.06.09-.05-.6-.06-.09.05.03-.64.08-.05-.02.64"/><path d="M123.51 167.68v.07l-.6-.06-.09.05.02-.64.09-.05-.02.64m-.09.05.6.06.09-.05m-.94-1.25-.09-.01-.01.4.37.04v-.07"/><path d="m122.48 166.49-.09.05-.01.4.09-.05"/><path d="m122.38 166.94.37.04.09-.05m-.26-.12-.08.04.31.03.05-.03m-.36 0 .01-.32.08-.04"/><path d="m122.58 166.82.38.04.09-.05-.38-.04-.09.05.02-.4.06-.04m.01.39.01-.39m.37.43.01-.39m.25.41.35.03m-.73.19.1.01m-.56-.11-.01.2m.65-.73.14-.08-.19-.02-.14.08.19.02"/><path d="m123.25 166.34.01-.22-.01.21-.19-.01m-.01 0-.13.08-.38-.03.13-.09m.25.12-.37-.04"/><path d="m122.93 166.4.17.01.14-.08m-.88.41h.02m.88-.62v-.06l-.76-.07m.41-.31-.01.15.08-.05m-.08.05.31.03.06-.03"/><path d="m123.25 165.84-.01.07-.38-.04.01-.16m-.01.16-.09.05.01-.16m.46.15-.09.05-.38-.04"/><path d="m123.08 165.58-.01.17.38.04-.09.05-.38-.04.01-.16m.08.11-.09.05m-.62.26v.06-.05m.37-1.73v.11l.19.02v-.12l-.19-.02m.19.03.2.02v-.01l-.02.01m1.07.55.01-.43-.48-.05-.01.11.01-.13-.19-.02-.01.12.01-.1-.2-.02v.1-.12l-.19-.02"/><path d="m123.31 164.51-.2-.02.01-.11m.19-.52.01-.28.01-.01"/><path d="m123.32 163.86.08.02-.09-.01-.08.04.01-.28.31-.2-.01.3-.23.14m-.65-.53-.01.29.01-.29.39.05-.01.28-.39-.04-.08.05.39.04.08-.05"/><path d="m122.44 163.48-.01.01.23-.14-.08.03-.01.29m.01 0 .38.05.07-.05m-.6.09.38.05-.39-.04.15-.09"/><path d="m122.96 163.72-.23.14-.37-.05m.59-.09-.14.09m.24-.42-.39-.04m.57.56.39.04v-.01"/><path d="m123.25 163.9.37.05.23-.14-.39-.04m-.73.09.07-.05m-.25-4.2.01-.22m.08.16.01-.15m.31.11.05.08.09-.06m-.01.07v-.06m-.34-.05v-.08m.53.31.35-.23v.26l-.35-.03m.08-.59-.34.22-.35-.04.35-.22.34.04m-.34.22v-.26m.61-.25v.08l.45.05-.11.06-.44-.05-.1.07-.53-.07.09-.06-.34-.04.01-.07-.11.06.1.01.09-.06-.08-.01m.33.11.01-.08"/><path d="m123.63 158.92.1-.07-.54-.06-.09.07-.36-.04m-.19.05v-.01m.65-.34.27.03-.12.08-.45-.05.11-.07.22.03-.09.05-.22-.02.09-.06m.34.12v-.09m-.12 0v-.02m-.31.05v-.01m.48-9.4h.39l.34.1m-.08 17.2-.26.15-.01.56.52.06.24-.14m-.76.08.25-.14"/><path d="m123.74 167.21.02-.64-.09.05-.02.64.09-.05.6.06v-.06"/><path d="m123.65 167.26.6.06.09-.05m-.45.26.01-.24m-.14-.72.09.01m.27.41.61.06-.09.05-.61-.06.09-.05.02-.65-.09.06-.02.64m.11-.7.61.07-.02.64m-1.28-1.26.02-.41-.04-.01m.99-.21.17-.09.18.02-.15.09-.2-.02.01-.29.16-.09v.29l.76.08-.16.09-.19-.02.15-.09.19.01.01-.07v.08m-.91 0 .01.01m-.76-.6-.19-.03m.01-.12-.03.01"/><path d="m124.43 165.07.01-.19.15-.09v.28m-.47-1.06.08-.05.39.04-.08.05-.39-.04.01-.29.31-.18-.08.03-.01.29"/><path d="m124.45 163.53.37.05v.28l-.4-.04.03-.29-.03.29-.07.05.1.01-.09-.02m-.16.09v-.27l.01-.01"/><path d="m124.45 163.88.29.03.08-.05m-.61.09.24.04m-.1-.12-.15.09m-.73-.2.38.05.08-.04-.39-.04.01-.29-.08.04-.01.28m.09-.33.39.05-.01.29m-.31.18.07-.05m.16-.09.07-.05m-.08.05-.14.1-.3-.03m.15-.44.39.04m.19.52.38.05.06-.05m-.13-.46.38.04m-.37-4.4-.28-.03.35-.22.35.03-.36.23-.06-.01m-.02.09v.15l-.1.06-.53-.06.1-.06-.44-.05.1-.07.07.02-.1.06.01-.06m.89.16.44.05.11-.06-.11-.01v.07"/><path d="m124.54 159.28-.01.08.1-.07-.53-.06-.1.06-.37-.03m.87.51-.44-.05.12-.08.44.05-.12.08v-.01m-.87-.27.34.04-.34.22m-.1-.77v-.15m.31.11.05.09.1-.07m-.56.09.01-.23m.53.21v-.06m.36.51.01-.22m-.44.02v.08"/><path d="M124.6 159.69v.01l-.22-.02v-.02m0 .02-.09.05.22.03.09-.06m-.31.03-.01-.08m.15-.97v.07l-.08-.01.1-.06.45.04.1-.06.53.06-.1.06v-.07"/><path d="M125.33 158.7v.15l-.1.06-.54-.06.1-.06-.36-.04.09-.06m-.67-.14-.29.19.34.04.01-.23"/><path d="m124.13 158.54.13.01-.36.23m1.53 5.91h.01l-.01.28.19.02-.15.09-.56-.07m.23.12-.14.09-.38-.04.14-.09m.39.04.01-.08m-.16.17-.37-.05m.14-.08V165"/><path d="m125.01 165.21.17.02.15-.08m-.25-1.11.01-.27-.08.05-.01.28.31-.18.01-.3.39.06-.01.28-.39-.04.01-.3"/><path d="m125 164.1.39.04.08-.04-.39-.04.16-.1.25.03-.24-.04"/><path d="m125.02 164.09.37.05.07-.05"/><path d="m125.09 164.05.38.05.14-.1m-.12.97.13.01v-.27.28"/><path d="m125.62 164.71-.76-.08v.28l.01-.29.18.02v.29l-.19-.02-.16.09.19.02.16-.09.38.04-.15.09.14-.09"/><path d="m124.87 164.62-.16.09-.01.29.01-.29m.32.21-.14.1.39.04m-.39-.04-.18-.03m.58.06.17.02.14-.09m-.88-.26.14-.09"/><path d="m124.59 164.79.12.01-.12-.02m.76.29-.01-.01m-.53-1.2-.22.14.14-.09m.37-.15-.01.01.23-.14-.08.04v.28m.08-.32.39.05m-1.2-4.49.01-.26m.01.43.34.04-.1.06-.05-.08m.67-.18.12-.07-.44-.06-.12.08.44.05v-.01m-.06-.34.34.04-.05-.08.15.02v.07l-.1-.01.1-.06.11.01-.11.06m-.53-.21-.01.22"/><path d="m125.27 159.1.01.01-.09.06.22.02.08-.05-.21-.03m-.09.06-.02-.08m.32.05.01-.02m-.99-.7.36.04.11-.07-.29-.03"/><path d="m124.89 158.39-.1.06-.05-.09m.13.1v-.06m.56.38.19.03m-.83-.02v-.08m.63-.36.35.04-.36.23.01-.27-.35.23.34.04m.06-.52.34.04.1-.06.53.06-.1.07.01-.08m-.01.08.34.04v.08l-.44-.06-.1.07-.54-.06.1-.07-.42-.05m.12-.03-.06.03v-.01m.65 10.14.01-.64.09-.05-.01.64.59.06-.09.05-.59-.06.09-.05"/><path d="m126.87 168.12-.24.13-.52-.05.02-.55.26-.15m-.2.11-.1-.01m.02.6.27-.14"/><path d="m126.38 168.07.08-.05.02-.64-.09.05-.01.64.59.06-.04.01v-.01"/><path d="m126.46 168.02.6.06-.09.05m-.49-.75.59.06-.01.64m-.7-2.75-.16.02-.15-.03.01-.02.06-.02h.19l.05.05m-.55.25-.15-.03.01-.03.06-.02.19.01.05.04-.16.03m.63-.49.01-.02.06-.02.2.01.04.04-.16.02-.15-.03m-.95-1.01.13-.08-.13-.01m.21-.03-.08.04.07-.05m.64-6.18v.26l.36-.23-.36-.03-.35.22.35.04m-.03.59v.01l.12-.08-.44-.05-.13.08.45.05"/><path d="m126.18 158.54-.09.05.22.03.09-.06-.22-.02v-.02m.22.04v-.01m-.16-.43v.15m-.1.07v-.23m-.29-.31.04.01-.04.02m.23.68.01.08m-.39-.38v-.08m.83.1.06.08.09-.06.11.01-.11.07m-.33-.81-.1.06.37.04-.1.07.54.06.1-.06.45.05.11-.07-.45-.05.1-.07-.54-.06-.1.06-.45-.05-.11.07.08.01.01-.06m.28-.51-.25-.03.36-.24-.01.28-.1-.01m-.38.05-.01.23-.29-.03m.29.03.1-.06.01-.16m-.4.46.22-.15-.22-.02m.02-.62.33.04-.13.08-.21-.02m.21.02.01-.1m.16.47.45.05.01-.06"/><path d="M126.36 157.08v.08l.1-.07-.54-.06-.05.03m.01-.31.09.01v-.01"/><path d="m126.36 157.16.37.05-.1.06-.06-.09m-.6-.42-.09.06m.06-2.25.08-.06-.08-.01m.08.01.05-1.53-.09-.01"/><path d="m126.01 152.06.05-.14.19-.13-.04 1.42-.15-.02m.19-1.4.51.06.5 1.01.72.09.55-.88-.2.13-.22.29-.28.45-.57-.09m-1.23-.84h-.02m.66 16.22v.07m1.07-.03-.97-.09m.64-.12-.06.03-.29-.03.08-.05"/><path d="m127.06 168.06.01-.32.08-.04m-.02.01-.06-.01m-.14.44.37.04.09-.05-.36-.03"/><path d="m127.6 168.02-.37-.04-.09.05.01-.4.09-.05.37.04-.01.4-.09.04-.37-.03m.09-.05.01-.4m.15.55v-.06m-.55-3.23-.01.02.15.03.17-.02-.05-.04-.19-.01-.07.02m.48-6.86-.1.07-.45-.05.12-.08.45.05-.02.01-.22-.03-.09.06.22.03.09-.06.01-.01m-.11.08v-.01m-.21-.03-.02-.08m.11.02v-.01m.45-.91-.45-.05.11-.08.45.06.11-.07.54.07-.1.06.45.06-.11.07-.45-.06-.11.07-.54-.07.1-.06v-.09"/><path d="m127.19 156.92-.01.06.1-.06m-.22.83v-.23m-.44.1v-.08m.65.08v-.08m.34.2v-.08l-.1.07-.06-.09m-.29.05v-.16m.09-.09-.35-.04.36-.23-.01.27.37-.23-.36-.04m-.62-.15.37-.24-.36-.04m.05.54.11-.07h-.08m.15-5.12 1.4.18m.21 15.94-.01.49-.76.41.03-1.23.75-.42-.01.75"/><path d="m128.48 168.7 3.59.36-.77.41-3.58-.36"/><path d="M129.63 168.87v.03l-1.03-.1-.61.32.01-.03m.6-.29v-.04m-.61.36 1.03.11.61-.33m-1.13-1.44.8.08m-.73-1.05-.06-.01-.16.09.01-.41.16-.08-.01.4m.89.49v.02l-.22.12-.68-.07"/><path d="m129.4 166.99-.73-.08v.03l-.25.14-.22-.02.01-.65.15-.08"/><path d="m128.2 167.06.24-.14.23.02m-.23-.02.01-.34m.24.32-.12-.27v-.18l.15-.61.42-.24-.07.57v.18l.05.31-.43.24 2.11.21.43-.23-2.11-.22m-.77-.09.22.02m-.05-.51.14.01"/><path d="M128.67 166.06h-.06l.01-.17m.01.17.04-.02m-.44-7.97.09.19.67.08.57-.11-.09-.19-.67-.08-.57.11m-.02-1.05v-.07m.34.2v-.08l-.1.06-.06-.09m-.29-.11v.16m-.11.07.01-.24m-.08.51-.22-.02.13-.09.45.06-.13.08-.23-.03"/><path d="M128.26 157.38v.01l-.23-.03v-.01m.23.04-.09.06-.23-.03.09-.06m.12.1v-.01m-.21-.03-.02-.08m.61-5.27.51.07-.03 1.42.4.05-.03 1.52.27-.18.03-1.51-.27.17m.05 13.75.18.02-.01.28-.18-.03.01-.27-.16.08-.01.28.16-.08v-.27l.55.05h-.01"/><path d="m129.98 167.69-.14.09.16-.08v-.28l.18.02v.27l-.55-.05-.15.08-.19-.02.02-.27.14-.08"/><path d="m129.62 167.65-.14.09.2.02-.19-.03m.19.03.35.04.15-.09m-.87 0 .17.03m-.06-.58-.03.02-.22-.03.25-.13.22.02-.22.12m.36-.83-.38-.04m-.73.62v-.06m.97.19v-.05m-.22.03v-.05m.26-.02h.03l.22-.12-.07-.01-.11.06-.2-.02-.03.01.21.02-.07.04-.2-.02-.02.01.24.03-.23-.04h.01m-.16-.15.27.03-.22.12-.07-.01.2-.1-.2-.02.02-.02m.19-1.36-.04.06-.03.07-.06.61-.02.04-.02.02-.01.18.08-.06.02-.06.06-.64.01-.03.07-.06v-.16"/><path d="m129.31 166.38.38.04.08-.06.02-.06.06-.65-.37-.04m-.31 1.54v-.04m.11-.21.18-.1m-.06-1.17-.26-.03"/><path d="m129.55 165.53.38.04-.08.08m-1.13.22-.05-.01m.67-8.91.04-1.82m.27-.18.45.06-.32.2-.4-.05m.3-1.72.45.05-.03 1.52m.37-2.65.02.07-.01.47-.01.06-.04.04-.06.01-.56-.07-.11.01-.08.08-.04.11-.09.07-.47-.06m0-.08.56.07m-.04.38.01-.35"/><path d="m129.64 153.01.08-.01.56.07.05-.01.1-.06m-1.11-6.43 5.53 4.08.54.16.79.01.57-.15.02-.22-6.1-4.6 19.16-13.57 1.43-.65 2.03-.43-.03-1.75-2.03.43-1.42.66-19.11 13.76-.03 1.55"/><path d="m135.22 149.27-.35-.11-5.51-4.13m.79 24.28v.03l.62-.33v-.03"/><path d="m130.15 169.34 1.02.1.62-.33-1.02-.1m-.91-1.24.16.02.14-.08m.02-.27-.01.26H130m2.07 1.36.02-1.23-1.91-.2m.31-1.23-.37-.04m-.44.56.03-.03m.9.02-.19.11.07.01.22-.12-.14-.02"/><path d="m130.71 166.91-.26-.03-.03.01.2.02-.2.11m-.55-.09.17-.02.16.01.1-.05h.07l-.22.12-.23-.02-.05-.04.17-.02m.2.03.12-.07m-.04-1.18-.13-.01-.06.65-.02.06-.08.06.38.04.04-.02.06-.1.04-.47"/><path d="m130.03 166.45.01-.18.02-.01.02-.04.06-.61.02-.08.05-.06m-.19 1.45-.08.01.01.02.07.01-.07-.03"/><path d="m130.01 166.92.16.02-.07.03.06-.04m-.06.04-.08-.01m.4-.07.02-.01m.37-1.71.74.08-.01.57-.23.12-.69-.07"/><path d="m130.72 165.81-.18.1-.23-.02.26-.14.22.02-.07.04"/><path d="m130.57 165.75.01-.66-.26.14-.01.66m.27-.8.23.03-.02.65m-.67-.06-.27-.03"/><path d="m130.19 165.68.08-.08.05.01m-.05-.01-.01-.16m-.33.13-.01-.16m1.29 1.07-.38-.04m.4.44.14-.29v-.18l-.1-.46m-.29.96-.13-.01.03-.02.13.01-.03.02m-.1-.03h-.01m.12 0h-.03m.31-.94-.03.43-.04.14-.03.03-.05.03-.37-.04.07-.06.03-.06.05-.51m-.15.63v-.18l.04-.04.04-.42m.66-.65.07-.04-.01.65-.26.14.23.02.25-.13-.22-.03"/><path d="m131.56 165.2.23.02-.02.66m-.48.11.01-.04m.24-.13-.75-.08m1 3.37v-.03m.28-.37 4.14.42 1.47.07 1.49-.05 1.29-.19.89-.28 10.75-5.32-4.47-3.29.04-.18.53-.13.7.01.47.13 3.96 2.98.75-.2m-20.99 4.34h-.01l.24-.12-.01.27-.08.04.37.04.08-.05-.37-.03.37.03v-.26l-.36-.04-.08.03-.01.28-.23.13.36.03.08-.04-.35-.04"/><path d="m133.59 167.25-.15.08.16-.08-.35-.05"/><path d="m133.44 167.33-.36-.03v-.28l-.08.04v.28m.67-.14-.07.05"/><path d="m133.43 167.33-.07.04-.35-.04m.83.23.02.01-.02-.01.01-.4.01-.01.5-.27-.01.41.59.06-.08.04-.59-.06-.42.23m.01.01h.07"/><path d="m134.55 168.03.27-.16-.59-.06-.27.16.59.06-.6-.07-.03-.44m.9.35.04-.48"/><path d="m134.23 167.81.04-.48.08-.04m.12.06-.19-.02m.41-1.17h-.01l.22-.12-.06.03-.01.28.09-.04.37.04-.08.04-.38-.04-.24.13.31.04-.29-.05"/><path d="M134.9 166.52h.06l.31-.17m-.68.13.01-.27.08-.05-.01.28.23.02-.21-.03m.16-.08.05.01m-.54.52.58.06v.41m-.04-1.31.39.03v.28m.59.81.07.02-.38-.04.31.02m-.98.21.03-.02"/><path d="m135.95 167.18.21.02.27-.16-.59-.06-.27.16-.02-.03-.02-.43-.09.05.01-.41.52-.28v.41l-.44.23"/><path d="m135.84 166.98.04-.49.07.01-.05-.01m-.98-.18v-.27m.52.69.09.01-.07-.02m-.5-.2.07-.04m.16-.09-.15.09-.14-.02m1.53.58.05-.48.08-.05-.59-.06"/><path d="M136.56 166.51v-.41l-.59-.06m.58.47-.07.05-.53-.06m1.05-22.05-.67-.22.03-.39.91-.26 1.26.01.86.29-.04.38-.91.27-1.25-.02-.19-.06m.07 11.39.01-.63.36-.3.59-.28 1.75-.43 2.25-.19 2.34.07 2 .33 1.31.52.4.62-.56.6-1.41.5-2 .3-2.26.06-2.16-.19-1.69-.42-.93-.56"/><path d="m137.68 154.79.34.22 1.68.41 2.15.2 2.26-.06 2-.31 1.25-.45m-6.76-3.99-.3-.04-.07-.23.64-.13.18.03m.13-4.14-.28-.09.05-.36.87-.25 1.19.01.8.27-.05.36-.88.24-1.18-.01-.52-.17m.67-2.58-.04.26.58.2 2.04.29.85.01.63-.18.04-.26-.56-.19-2.06-.3-.85-.01-.63.18m2.47 16.31-.34.06-.63-.07-.06-.18.58-.11.64.08.05.18-.24.04m1.04 4.7-.41-.11.06-.24.73-.16.98.01.65.17-.06.24-.73.16-.97-.01-.25-.06m6.74-1.37-.02-1.29-3.01-2.25m1.41-20.96-.09-.03-.59-.09-.29.19v.21l.28-.18.61.08.08.05-1.11.73.08 7.18 10.81-6.62 2.68.41-10.95 6.56-2.54-.35"/><path d="m149.51 139.14.6.09.09.04m1.54 7.89-1.61-.23.8-.48 1.62.22-.81.49-.15-.46-.01-.16-.65-.09m-.45-7.36-.01-.32.27-.18.3.04.01.08m-1.25.03-.01.22m1.85 16.53-.02.02.07.18.08.09.11.03.18-.1-.1-.03-.05-.04-.1-.23-.17.08"/><path d="M151.56 155.27v.1l-.19.1.25.04m-.25-.14v.1m.19-.1.25.04m0-8.84-.22.13-.87-.12m2.31-.2-.15-.46v-.17l-.2-.02 1.18.15-.83.5-1.61-.23.82-.5.44.08-.46-.07m-.75-7.23-.09-.04-.6-.09-.01-.21.3-.2.6.09.09.04"/><path d="m150.74 138.59.01.32 1.01-.67-.09-.04-.6-.09v-.22m0 .22-.29.19m2.95 17.74-.91.48 1.2-.64-1.01-.13-1.19.65.86.11-.87-.12-.05-.61m-.01-.02.18-.1m.13.05v-.12l-.07-.02-.08-.19-.07-.09m.63-.11-.4.22.4-.22m-.4.22-.13.07m.61-.14.19-.11m.13.05-.11-.03-.05-.03-.1-.24-.19.1.08.19.07.09.11.02.19-.1-.01-.12-.07-.02-.07-.19-.08-.09m-.47.08v.1l.25.04"/><path d="m152.17 155.03.19-.1.25.04m-.25-.04v-.1m.75-9.05-.23.14-.87-.13m-.25-7.55-.01-.32.28-.18v.32l1.03-.68-.09-.04-.61-.09-.3.19.61.1.09.04"/><path d="m152.03 137.74.29.04.01.08m-.27-.42v-.21l.3-.2v.22m0-.22.6.1.1.04m7.76 23.22-.05-1.74-.63.31-.4-.05.95-.47-.05-1.46-7.29 3.71.02 1.4.35-.17.39.05-.04.02.03 1.68 6.72-3.28 3.26.39-.06-1.73.33-.16.4.05-.72.35m-10.66 2.8.7.08"/><path d="m153.72 161.92-.02-.79.65-.33.01.8.4.04.39-.19-.39-.05-.4.2"/><path d="m153.7 161.13.4.04.01.8m-.82-2.65-.1.05m1.11-1.21-.02.05.01.45.02.05.03.05.05.02.5.06.1.04.08.09.02.11-.1.06-.03-.12-.07-.09-.1-.04-1.44-.19-.05.01-.04.04-.01.06.01.43.01.05.04.05.05.02.49.06.1.04.08.09.02.11.76.09v.19"/><path d="m154.05 159.66-.1.05-.03-.11-.07-.09-.1-.04-.5-.06-.05-.02-.03-.04-.02-.06v-.44l.01-.04.03-.05.11-.05m-.02.02-.1.05m-.36-2.26-.14-.01m1.36-.84-.02.21.04-.6-.03-.25-1.04-.13-.24.13m.13-9.28.01-.01m1.46-.15.84-.51-1.63-.23-.84.5 1.63.24-.15-.47.24-.15"/><path d="m153.54 144.86.65.09.02-.01"/><path d="m154.19 144.95.01.17-.88-.13m.36-8.62-.31.2v-.21l.3-.2.01.21.61.1.09.04-1.04.69-.01-.33.3.05.01.08m-.58.38-.01-.32.28-.19"/><path d="m153.67 136.16.61.09.1.05m-1.01.27.61.1.09.04m-.78-5.51 2.33-.13 2.24.2 39.57 6.61 1.51.42.77.6-.07.69-.9.67-4.27 2.12"/><path d="m153.26 129.45 2.32-.13 2.24.2 39.46 6.7 1.51.43.77.61.15 1.64m-44.94 24.66h-.02l.12-.06.08.01-.11.06-.07-.01"/><path d="m154.1 163.67 3.16.35 6.82-3.24m-9.73.26-.25.13m.66.23-.02-.8.4.05.26-.13"/><path d="m154.74 160.6.66-.33.01.8.4.05.4-.2-.02-.8.28-.14m-1.77.02v-.2l-.75-.09m.43.06.01.39m-.5-.6.1-.06m.71.3.11.02m-.57-1.01-.04-.04-.01-.06-.01-.44.01-.06m.02-.01.1-.06m-.09.65.11-.05m8.59-18.6 4.61-2.78.83-.3 1.13-.13 1.13.06 5.82.94.8.24.27.36-.33.37-13.98 7.87-.74.24-1.01.11-1.03-.05-5.43-.77-.79-.21-.04-.03m1.63-1.9-.26.15.16.47-1.64-.24.6-.36.88.13v-.17l.03-.02"/><path d="m154.65 144.18.25-.15 1.64.24-.85.51m-.72-8.66-.01-.08-.3-.05.01.33 1.06-.7-.01-.33.29-.19.31.04v.09m-1.94 1.28v-.33l.28-.19"/><path d="m155.72 135.62-.09-.04-.62-.09-.3.2-.01-.22.31-.2.61.09.11.05m-1.02.28.61.1.09.04m1.14 27.16.01.22.12-.06.4.04.12-.06-.39-.04.12-.06-.48-.06-.12.06-.4-.04-.13.06"/><path d="m155.82 163.05.38.04-.12.06.48.06m-.51.27.42-.2-.31-.04-.42.2.31.04v-.18m-.46-.04v.09l-.4-.05.13-.06-.11.05.2.02.11-.05-.2-.02.02-.01.4.05-.15.07m-.74.16-.01.06.31.03-.12.06.47.06v-.23"/><path d="M155.75 163.52v.08l.12-.06-.47-.06-.13.06-.32-.03"/><path d="m155.5 163.72.13-.06-.01-.15m-.47.09v-.07m.48.13.39.04v-.04"/><path d="m156.02 163.7.12-.06-.39-.04m-.23-.34v-.01m-.11-2.18.41-.2-.03-.8.67-.34.02.81 1.46-.73.41.05-1.47.73-.4-.05m-1.33.91-.01-.8m.65-.58.4.05m-1.26-1.14.1-.05m-.08.08-.06.03-.09.27.01.44m.52-.07-.01-.5m.43.28-.01-.23-.75-.09m.75.09.11.01m-.6.48-.01-.55m-.11-.02.02.62"/><path d="m155.09 159.08.76.1v.23m-.47-1.22-.11.06m1.64.62v-.24l-.76-.09-.03-.11-.07-.09-.1-.04-.5-.07-.05-.02-.04-.04-.02-.06-.01-.44.02-.06"/><path d="m155.24 157.67-.01.05.01.45.01.05.04.05.05.02.5.06.1.04.08.09.03.12.1-.06m-.89-.89.1-.05m.04-13.88 1.65.24.86-.52-1.64-.25-.87.53m.13.42-.66-.09m.14-8.56v-.22m1.8 27.82-.01-.08m-.12.14V163m-.48.02v.07m.26.57.01.18.4-.19-.29-.05-.42.2.31.04m.4-.19.01-.01m-.28-.25-.12.05.07.01.12-.06h-.07"/><path d="m157.35 163.39.01.15-.13.06-.47-.05.11-.06-.32-.04.01-.05m-.66.21.05.08.12-.05m.69-.11v.02"/><path d="m156.67 163.39.34.04.12-.06.48.05-.13.06.4.05-.13.05v-.05m-1.85-.52.04-.02m.71-.25v.09l-.4-.04.15-.07.4.04-.15.07m-.4-.04v-.01m.62.16-.07-.01.42-.2.32.03-.43.21-.24-.03"/><path d="m156.52 162.73-.05.03-.12-.02m-.14-1.82-.39-.05m.23-2.27.75.09.01.24m-.51.25-.01-.55m-.44.55-.01-.4.1-.28.07-.03m.37.67-.01-.5m-.17.6-.02-.63m-.2-.17.1-.06m.72.31.11.01m-.59-1.61.11-.05m.01.6-.1.05m1.65.64v-.24l-.77-.1-.03-.11-.07-.09-.1-.05-.51-.06-.05-.02-.04-.04-.01-.06-.01-.45.01-.05"/><path d="m156.31 157.11-.02.06.01.44.02.06.04.05.05.02.5.06.1.04.08.09.03.12.1-.06m18.81-20.13-12.89 7.37-.73.25-1.01.11-1.02-.05-4.32-.62m.99-.96-.15-.48-.89-.13m.22-.13.66.1.01.16.26-.16m1.28-.19.88-.54-1.66-.24-.88.53 1.66.25-.16-.49-.89-.13m-1.38-7.41.01.33 1.08-.72-.01-.33.3-.19.01.33 1.1-.73-.01-.33.3-.2.01.33 1.25-.82.21 7.61"/><path d="m156.77 134.93-.09-.04-.62-.1.32-.21.61.1.1.04m-1.03.07v-.22l.31-.21.01.22"/><path d="m156.37 134.36.62.1.11.05m-.02 28.68v-.07m1.21-.26.01.23-.48-.05v-.02"/><path d="m157.82 163.04.13-.07-.01-.07m-.93.85.02-.01.4.04-.15.07-.39-.04.12-.06m.27.1v-.01m.08-.3.39.04m.03-.06-.12.05-.05-.07m-.74-.01h.01v-.08m.34-.11.42-.21.31.04-.42.2-.31-.03m.31.03-.01-.18m-.29.45-.01-.22m-.16-.26-.04.02-.02-.03"/><path d="M157.21 163.76v.01l.2.02v-.01m-.2-.01-.1.05.19.02.11-.05m-.32-.05.02.08m.37-.34v-.07m.4-1.17-.41-.05-.15.08.41.04.15-.07m-.15.07-.01-.09m.16.27v.08l.13-.06-.49-.06-.12.07-.4-.05-.13.06.4.05-.13.06.48.05.13-.06v-.15m-.64.49v-.19"/><path d="m157.88 162.57.4.05-.13.06-.4-.05m-.13.06v-.23m.29-.06-.03.01.31.04.43-.21-.32-.03-.39.19m.91.6v.08l.13-.07-.4-.04.13-.06-.48-.06-.13.06-.4-.04-.12.06.4.04m-.94-.5-.04.02m.45-.27.12.01.06-.02m-.33.37v-.08m-.22-4.61.1-.06m-.24.8-.01-.4.1-.27.08-.04m.37.68-.01-.51m.44.29v-.24l-.76-.09m.76.09.1.01m-.72.55-.01-.64m.12.58-.01-.56m.06-.95.1-.05m-.03-.58-.01.05.01.45.01.06.04.04.05.02.51.07.1.04.08.09.03.12-.11.05-.03-.11-.08-.1-.1-.04-.5-.06-.05-.02-.04-.05-.02-.06-.01-.44.01-.06m.13-.07-.11.05m-.46-3.58.11.01.65-.12-.03-.21-.22-.03m-.56-9.28.04-.03m.68-.91.67.1v.16l.27-.16m-.07-8.67-.1-.05-.62-.1v-.22l-.32.21v.22l.62.1.1.05m-.46.3-.01-.09-.3-.04m.05-.32.32-.21m0-.22.62.1.11.05m-.14 29.75-.4-.04.15-.07.39.04-.14.07-.01-.05"/><path d="m158.3 163.09.12-.06.4.05m-.4-.2v.15m.36-.03-.04.02-.02-.03m-.5.25-.05.03.2.02.05-.02m-.25 0-.01-.03m.55-1.07v-.23l-.1-.01-.13.06-.4-.05-.13.07.4.04-.13.07.49.05.12-.06.41.05-.01-.08m-.4.03v-.16m-.28 1.02v-.08m1.08-.52v.08l.13-.06-.48-.06-.12.07-.4-.05-.13.06.4.05-.13.06v-.01m-.72-.25.01.19m.1.33.31.04.43-.21-.32-.03-.42.2m.31.04-.01-.18m.31-.12.48.05.13-.06.4.05-.01-.08m-1.75.2v-.08m-.08-.01.02.03.04-.02m-.08-.63.04-.02m.26.1v-.07m.21-.33-.15.09.4.05v-.1"/><path d="m158.81 161.79.15-.07-.4-.05"/><path d="m158.69 161.68-.06.03-.12-.02m.2.25.38.04-.13.07.4.04-.12.07m-.89-2.3-.02-.81.28-.15"/><path d="m158.33 159.05-.41-.05.02.81"/><path d="m157.92 159 .69-.35.02.82.41-.21.41.05-.42.21-.4-.05m-.11-1.94.01.52m-.08.04-.01-.57m-.45.57-.02-.41.1-.27.09-.05m.18.79-.01-.64m-.2-.18.11-.06m.07.17.77.09v.24"/><path d="m158.97 157.83-.01-.24-.76-.1m.4-1.58-.1.05m.12.55-.11.06m.08-.65-.02.06.01.45.02.06.04.05.05.02.51.06.1.04.04.06-.11.05"/><path d="m158.48 155.98-.02.06.02.45.01.06.04.04.05.02.51.07.1.04.08.09.03.12.77.09v.25m-1.79-14.79.05-.03m.63-.31-.78-.11.89-.55 1.68.25-.9.55-.89-.14"/><path d="m159.85 142.28-.16-.49-.9-.14m0-8.39.3.05.01.08m-.25-.45-.01-.22.32-.22.01.23-.32.21.62.1.09.05m.35 29.47.12-.06-.4-.05m-.13-.09.01.15m.18-.21-.32-.04.44-.2.31.03-.43.21-.01-.19m-.26.72.15-.07-.4-.05-.15.08.4.04v-.06m-.04-.2-.01-.23m1.63-.38.01.08.13-.07-.41-.04.14-.07-.49-.05-.13.06-.4-.05-.13.07.4.04-.12.07-.01-.02"/><path d="m159.3 162.73-.06.02v-.03m0 .03.2.03.06-.03m.3-.28.03.03.04-.02m-.72-.41.03.03.04-.02m-.26-.03v-.08m.07.49v-.08m.89-1.13.15-.07-.41-.05-.15.07.41.05v-.09m-.96.73.44-.21.31.04-.43.2-.32-.03m.32.03-.01-.18m.66-.16.41.05.13-.07-.41-.04.14-.07-.49-.05-.13.06-.41-.05-.13.07.41.04-.13.07.48.05.13-.06v-.16m-.13.22v-.23"/><path d="m159.79 161.14-.05.03-.13-.01m-.16.36v-.08m-.26-.03-.05.03m.31-2.13-.03-.82.3-.14m-.3.14-.4-.05.02.82"/><path d="m159.74 158.91-.03-.82-.69.35m.06-.91-.02-.4.1-.28.1-.05m.37.69-.02-.52m-.06.56-.02-.57m-.19-.24.04.04.03.11.77.1v.24m-.77-.34-.11.06m.14.66-.02-.65m-.35.66-.11-.01m13.43-1.3.26-.12.93-.6.38-.63-.22-.63-.25-.55.1-.56.48-.57-13.49 1.36-.76-.01-.47-.15.07-.21.59-.14 15.16-1.54 4.76-2.36m-18.65-8.17-1.68-.25.91-.56 1.69.26-.92.55-.15-.49-.91-.14m-.47.8-.06.04v.17l.28-.17m-.28 0-.68-.1m.16-8.79.63.1.09.04m.17-.1-.06-.06-.21-.1-.63-.11m1.85 29.54-.41-.05-.13.06v-.23m0 .23L160 162m.6-.01v-.16m-.08.48-.41-.05.16-.07.4.05-.15.07-.01-.06m.39-.3.03.02.04-.02"/><path d="m160.33 162.2.01.03.05-.02m-.05.02.2.03.05-.03m-.03-1.33v.08l-.41-.04.14-.07.4.05.14-.06.22.02v.16l-.13.07-.49-.06.13-.07m.49.06.4.05v-.08m-.53.1-.01-.24m-.09.31-.31-.04-.44.21.31.04.44-.21m-.44.21v-.19m.4.39.01.18-.32-.04.44-.21.32.04-.44.21m.79-.49v.24l-.48-.06.13-.06-.4-.05.13-.06.41.05.13-.07.48.06-.13.06.25.03-.06.02-.02-.03m-1.68.22-.01-.08m-.27-.03v-.08m.26.11-.04.02-.03-.03m0-.64.05-.03m.43 1.06v-.08m-.61.08v-.08m.92-1.14.15-.08-.41-.04-.15.07.41.05-.01-.09m.02.26.26.03-.13.07v-.08"/><path d="m160.91 160.6-.06.03-.12-.02m-.04-2.17.4.05-.32.16"/><path d="m160.64 156.98.41.05.04 1.46"/><path d="m160.55 157.02-.02-.74.02-.11.07-.08.11-.05-.07.07-.02.11.02.76"/><path d="m160.18 156.97-.02-.41.11-.28.22-.12.05.07m-.47.79.11.02m.56-.05-.02-.71.1-.28m-.23.13.11-.06m-.15.1-.06-.01m.24-.12.08-.02m-.42.2-.08-.09m1.74.77.05.01-.25.01-1.02-.91-.03-.92.44-.5.8-.08"/><path d="m160.82 154.8-.01-.23.13-.07v.23l-.12.07.13.12m-.01-.19.19-.02m-.19-.21.93-.09.11.02.06.05m-.62-13.74-.29.18-.01-.17-.68-.1m-.39-7.88 2.64.44.25 7.58m-2.75-8 .22-.07.68.03.08.2m.28 28.14.14-.06-.41-.05m.44.8-.4-.04.15-.08.41.05-.16.07v-.05m-.04-.21.14-.06-.01-.16m.01.16.4.04v-.08"/><path d="m162.1 161.42.15.02-.13.06m-.27-.11v-.08m.06-.07-.32-.04.44-.21.32.03-.44.22-.01-.19m-.4.63-.06.02-.01-.03m.01.03.2.03.06-.03m-.26-.69-.05.02-.02-.03m-.27.46v-.01m.13-.05v-.08m1.75-.47.13-.06-.48-.06-.14.07-.39-.05-.15.06.41.05-.14.06.49.06.13-.06.41.05.13-.07-.4-.05v-.08m-1.48.08-.31-.04.44-.21.32.04-.45.21v-.19m-.44-3.43.04.01-.03-1.01m1.82.73-.18-.16-.24-.03-.07-2.41 1.99-.2v-.18l-1.82.18v-.18l-.32.03.01.23-.23.02.08 2.55.24.21.54-.06.01.19.27-.03.01.19-.82.08.7.63.45-.05.16.14.68-.06-.16-.14.45-.05.16.14.67-.06v-.16m-4.37-1.52.73-.07.03.03m-.03-.03.27.24m-.19-10.89.05 1.53m-.77-6.36-.07.04m.47-7.73.06-.05-.08.05m.08-.05.21-.03.62.11v.12m.27 28.08.15-.07-.4-.05-.16.07.41.05-.01-.06m-.03-.21-.01-.24m.14.18v-.16m-.62.16v-.01"/><path d="M162.56 161.14v.03l.06-.03m-.06.03.21.02.05-.02m-.46-.31v-.08m-.01-3.76.01.37m.54-.24.04-.14.28-.03-.05.14"/><path d="m162.71 156.8-.02-.65.73.66.01.31m-.96-.35-.36.04m.09.08-.1.02.15.02m.2-.81.24.03"/><path d="m163.21 156 .18-.02-.73-.66-.23-.03.78.71.02.64"/><path d="m163.46 155.24-.1.01-.72-.67.02.74m-.09-1.34.18.16m-.35.22.24.22 1.81-.18-.06-.24m-1.14 6.81v-.07m-.03-.02-.05.02-.03-.03m.92-.6 3.3-1.57m-3.34.35-.03-.97m-.81-.77.15.14v-.19l.04-.13-.15-.15m.11.28 3.22-.31m.22-.6-.14.07-.02-.66.13-.06.03.65.36-.04.23.22-.55.05.01.19-.28.02.01.19.15.14-3.37.33m.04-.32 3.17-.31m-3.15-.84-.03-.73"/><path d="m163.65 155.46.74.68-.36.03-.52-.47-.04-.22.18-.02-.01-.46-.19.02.02.46m.56-.3.57-.05"/><path d="m164.39 156.14-.02-.65-.52-.47-.21-.02m1.11 3.94-.03-1.01m-.37.96-.03-.84m.03 0-.01-.16m1.18-1.86-.73-.68-.18.02.04.22.51.47.36-.03-.02-.65-.51-.48-.22-.02-.18.02.02.47m1.13-.36-.57.06"/><path d="m165.04 154.95.63-.06-.29-.28-.36.04-.29-.28-.06-.24 2-.2.04.93-.13.07-.28.03m-1.71-.06-.2-.19.36-.04-.3-.27m.3.27-.01-.29m-.06.51-.01-.21m.12.67-.02-.47"/><path d="m164.67 154.13-.01-.18 1.82-.18v-.19l.36-.04.18.17m-2.29.66 1.82-.18.12-.26m-2.28.05.31.3m.26.31-.21.02m1.8 2.37.83-.08.67.64-.46.04.15.14-.68.06-.15-.13-.45.04.15.14-.68.06-.15-.13-.46.04.15.14m1.18-2.19-.02-.48-.5-.48-.22-.02.02.46-.18.02.03.22.51.48.33-.03"/><path d="m165.91 154.77-.18.02.02.46m.18-.02.68.65m0 1.95-.01-.16m-.06-.88.05-.13.22-.03m1.76-1.38-.04-.93-.47-.42-.92.09.08 2.05.7.66.35-.4-.7-.67.74-.07.26-.31.69.67-.26.31-.73.07m-1.05-.26.35-.41"/><path d="m167.13 156.31-.1-2.6.28.27m-.57 1.72-.03-.84m.1 1.72-.18-.16m-.08-2.23.03.74.14.13m.31-1.35-.18.02-.01-.19m.25-4.06-.15.33.7.24 1.12.01.91-.22.15-.33-.7-.24-1.13-.02-.9.23m.94 7.65.14-.01-.01-.28-.02-.02-.02-.35"/><path d="m168.17 157.12-.15-.14.03.56m-.31.18-.01-.15m-.35-.67-.02-.37m.95-.97.69.67m-.25-1.69.45-.05.13-.06-.44-.44-.23-.03-.49.05"/><path d="m168.66 153.96-.01-.23-.94.09-.11.04-.08.1m1.74 1.96-.04-.92-.69-.68"/><path d="m171.04 155.41-.51-.17-1.1-.01-.2.05m-.58-1.55.23.03.44.44.01.23m-.44-.44-.01-.23m1.94-5.65.11-.24.66-.16.8.01 1.87.26.48.18-.12.24-.65.16-.8-.01-1.86-.27-.49-.17m3.14 6.83-.08-1.42-.16-.48m.35-.41-.03-.58m.45-2.65-.09.18.7.25 1.16.01.95-.23.19-.34-.7-.25-1.17-.02-.96.24-.08.16m9.92-7.54-.02-.13-.27-.04-.32.17.02.31-1.17.61-.02-.31-.31.17.02.31-1.15.6-.02-.3-.31.16.02.3-1.26.67.41 6.87 12.32-5.98-.59-7.26 2.37.39.62 7.24-12.42 5.93-2.3-.32"/><path d="m179.84 143.75.33-.17-.02-.21-.32.18.01.2.54.08.09.04.03.04m1.79 6.93-.25.12.11.44-1.44-.21.91-.44.41.06.01.15-.67-.09"/><path d="m180.17 143.58.54.08.09.04.03.04m.04-.21-.18-.08-.54-.08m1.02-.12.26.04.02.12m.5-.26-.03-.04-.09-.04-.55-.08.34-.18-.02-.2-.33.17.01.21m.32-.38.55.08.18.08"/><path d="m181.62 142.81.54.08.09.05.04.04m-.12 7.51.94-.46 1.46.21-.94.45-1.46-.2m-.02.91.93-.45-1.12-.15"/><path d="m183.63 150.69-.12-.44-.67-.09m-.21-7.69.27.05.02.12m.84-.44-.03-.04-.09-.04-.55-.09-.34.18-.01-.2.34-.18.54.08.19.09m-1.06.21.55.09.09.04.03.04m.35 7.75-.26.12-.01-.15-.41-.06m.41.06.01-.01m.15-.33.95-.46 1.47.22-.96.45-1.46-.21m-.57-7.73-.01-.2"/><path d="m184.34 149.44.67.09.11.44m.16-.57-.27.13-.01-.15-.41-.06m.41.06.02-.02m-.9-7.67.02.31 1.19-.62-.02-.31.32-.17.02.31 1.21-.63-.02-.32.33-.17.02.31 1.23-.64-.03-.32.34-.17.02.31.81-.42-.04-.04-.09-.04-.56-.1-.02-.21.36-.19.56.09.19.09.03.03"/><path d="m184.24 141.42.35-.18-.02-.2-.34.18.01.2.55.09.1.04.03.04"/><path d="m185.26 141.41-.03-.04-.09-.04-.55-.09m-.02-.2.55.08.2.09m.53 7.49.68.1.28-.14"/><path d="m186.65 149.24-1.48-.21.98-.46 1.47.21-.97.46-.12-.44-.01-.16.03-.02m-.03.02-.42-.06m-.18-7.51-.02-.13-.27-.04m.11-.48.02.2.35-.18-.02-.21-.35.19m.37.02.55.09.1.04.03.04m-.36.19-.03-.05-.09-.04-.55-.09m.33-.39.56.09.2.1m1.34 8.08.99-.47-1.49-.22-.98.48 1.48.21-.11-.45-.68-.1m.06-7.69-.02-.13-.27-.04"/><path d="m187.65 147.83.41.06.02.16.29-.14m-.31-.02.05-.02m.23-8.07-.03-.04-.1-.05-.55-.09-.36.19-.02-.21.36-.19.56.09.19.09.02.02m-.77-.2.02.21m-.36.19.56.09.09.04.03.05m1.31 7.69-1.01-.15.99-.48 1.5.22-1.01.48-.47-.07"/><path d="m188.97 147.2.68.1.11.45"/><path d="m189.22 147.07.42.07.01.16.31-.15m-.94-7.71-.02-.13-.27-.04m.14-.29.36-.19-.02-.21m.02.21.56.09.09.05.04.04m-.05 7.79 1.01-.49 1.5.22-1.02.49-1.49-.22m-.23.38.05-.03"/><path d="m189.56 139.16.44-.23-.02-.32.34-.18.02.32 1.42-.74"/><path d="m190.32 138.43.27.04.02.14m.75 8.37-.11-.45-.69-.11m1.01-.05-.32.16-.02-.17-.42-.06m.42.06.07-.03m.22-8.2-.03-.04-.1-.05-.56-.09-.02-.21-.37.19.02.21.56.1.1.04.03.04m-.32-.37-.37.19"/><path d="m190.81 137.74.57.09.19.09.1.13m.68 7.22 2.4.37m-1.76.56 1.04-.49-1.52-.23-1.03.5 1.51.22-.12-.46.33-.16"/><path d="m192.18 145.64.69.1-.01-.16-.42-.07m.14-7.37-.02-.18-.64-.03-.27.09m1.21 7.56.08-.04m.06-7.33.05-.05.18-.03.56.09.01.12m-.84-.13.09-.05"/></g><path d="m140.6 150.81.41.05.65-.13-.07-.22-.54-.07m16.4 2.16-.46-.06-.65.12.03.21.57.08" style="stroke:#3c3c3c;stroke-width:.494;stroke-dasharray:.5 .5"/></g><g style="stroke:#3c3c3c;stroke-width:.494" id="Actor_.42"><path d="m143.86 199.9.66-.18 1.36-.1 1.54.01 1.11.13-.69 1.05-.41.35-.13.01-.97.07-.97-.05-.24-.13-.87-.56-.39-.6v-.35l.66-.18 1.36-.11 1.54.02 1.11.13.26.18v.35l-.26-.18m-3.44-.44-.02-8.46.05-.15.74-.11h.99l.66.11-.2-.22-.57-.1h-.91l-.57.12-.14.2"/><path d="M145.5 201.03v.13l.91.05v-.24"/><path d="m146.41 201.21.83-.08-.07-.12-.87-.04m-.8.19-.08-.12.83-.07m-.46-.02.69.02.4-.02m.98-.18.93-.83m-1.23-.64-.05-8.59"/></g><g style="stroke:#3c3c3c;stroke-width:.494" id="Actor_.43"><path d="m138.89 190.19-.15.03-1.24.1-1.28-.08-.36-.21-1.1-.7-.52-.8.01-.44.8-.31 1.74-.17 2.01.03 1.48.22.4.32v.45l-1.79 1.56.5-.5.89-1.38.4.32"/><path d="m134.24 188.53.8-.3 1.75-.17 2.01.03 1.48.22m-4.39-.61.12-10.62.03-.26.93-.18 1.28.01.88.19-.07 10.84m-2.06 2.56-.61-.04-.14-.21 1.06-.13 1.21.09.13.2-1.07.13-.58-.04m-.61-.04v-.23m.31-.12.89.01.53-.03"/><path d="m136.04 176.82.2-.23.7-.19 1.19-.01.76.18.24.27m-1.55 13.44.01-.4"/></g><path style="stroke:#000;stroke-width:.6" d="m146.16 164.22.12 26.17m-.17-36.02.01.88m-.18-37.8.07 15.83"/><path style="stroke:#000;stroke-width:.45;fill:#fff" d="m144.03 48.09.43 4.23-2.37-1.69-3.56-.04 5.5-2.5z"/><path style="stroke:#000;stroke-width:.6" d="m113.12 163.78-1.18 24.27m3.69-76.24-1.95 40.21M142.9 51.17l-.11 11.43m14.15 9.68.33 19.42"/><path style="fill:#000" d="m158.44 72.28-3.01.01 1.46-2.56z"/><path style="stroke:#000;stroke-width:.6" d="M174.98 132.44 172.97 95m2.33 43.28-.03-.54m2.27 42.24-1.67-30.97m-38.01-5.43-.29 32.81m.8-89.48-.47 52.2"/><path style="stroke:#000;stroke-width:.45;fill:#fff" d="m152.06 150.39.32 2.43-2.87-.95h-4.45l7-1.48z"/></svg>