<svg xmlns="http://www.w3.org/2000/svg" width="1122.52" height="793.701" viewBox="0 0 297 210" stroke-linejoin="round" stroke-linecap="round" fill="none" fill-rule="evenodd"><script type="text/ecmascript"><![CDATA[
if(typeof(top) != "undefined")
{
	top.ShowPaper = ShowPaper;
}
function ShowPaper()
{
  var svgDocument = getDocument();
  var paper = svgDocument.getElementById("paperID");
  if(paper)
  {
    paper.setAttribute("transform","scale(1)");
    paper.setAttribute("opacity","1");
    paper.setAttribute("visibility","visible");
  }
  var svg = svgDocument.getRootElement();
  if(svg)
  {
    svg.setAttribute("width","307.000mm");
    svg.setAttribute("height","220.000mm");
    svg.setAttribute("viewBox","-5.000000 -5.000000 307.000000 220.000000");
  }
}
]]></script><path style="fill:none" d="M296.99 210H.05V.05h296.94z"/><path style="fill:#fed137" d="m94.71 90.36 1.49.33 1.68.81.81 1v.9l-.17.32-1.38 1.27-2.3 1-2.5.49H88.1l-1.67-.32-1.96-1.01-.52-.81v-.8l.62-1.04 1.82-1.15 1.99-.65 1.49-.34 3.19-.17zm110.82 11.58 1.81.5 1.99.82 1.51 1.14.65 1.17-.01.72-.23.6-1.33 1.15-2.08.73-2.37.28h-1.6l-2.65-.33-2.31-.66-2.14-1.17-.83-.83-.18-.47v-1.46l.35-.64.76-.56 1.33-.66 2.31-.5h3.86zM63.12 39.92l2.48.66 1.34.65.49.66v.73l-.17.33-.98.84-2 .97-2.53.78-3.48.66-3.47.33h-4.25l-3.14-.32-2.32-.67-1.14-.67-.35-.48.02-.94.6-.72 2.53-1.27 2.76-.88 1.38-.19.09.12-.03.82-1.01.87-.1.04.07.6.13.73.5.33 2.66.65.38.23 3.98-.49 1.83-.25.61-.42 1.15-1.16.02-1.12-.03-.43-.12-.02-1.28-.36-.17-.68.04-.12 2.02.02zm191.86 14.72 2.65 1.15 1.66 1.14.66 1V59l-.41.59-1.07.74-1.06.43-1.82.49-2.32.33h-6.89l-3.42-.34-.16-.01-.22-.17-3.66-.79-2.96-1.17-1.47-.84-1.17-.99-.35-.81v-.62l.35-.65.98-.84 1.77-.71 3.64-.66h2.38l-.16.77-.15.34-.64.12-.53.2-.17.99v.84l.65 1.7 3.03.81.49.09 2.81.5 3.32-.5 1.58-.35.2-.93-.01-.95-.79-1.73-.03-.98.14-.1z"/><path style="fill:#fff" d="m93.11 91.83.45.07.08-.08.23.02-.01.17.68.2.39.45.15.8-.58.55-1.32.66-1.71.3h-1.34l-1.05-.13-.98-.5-.33-.21v-.9l.93-.72.61-.35.34-.08.32-.24.66-.01.5-.08.66.01.82-.09.19-.01zm111.47 11.83.35.08.49.16.46.13.66.33.33.19.3.07.49.81.04.36-.35.51-.87.61-1.67.32h-1.28l-1.32-.16-.98-.34-.82-.33-.82-.88.03-.84.61-.56.01-.1.22-.12.38.04.77-.27.5-.1.17-.07.99-.01.66.08z"/><path style="fill:#5a5a5a" d="m164.69 14.42.81 1.18.83 1.99.42 2.25.1.67.07.82.09 1.17.09 1.1.61.25.04 1.47-.53 1.01-3.31.34h-1.49l-3.21-.64v-1.62l.46-.84.26-.12.1-.02.03-.94.07-.99.27-1.65.46-2.22.69-1.62.94-1.38.63-.53 1.07.01zm-49.8 58.91 1.17 1.14 1.17 1.64 1.13 2.51.76 2.75.09.5.4 2.15.1.49.07.66.09.67.08.65.07.78.09-.1.24.05 1.64 1.32.12.26.02 1.11.24.08-.07.33.01.2-.37.49-4.17 2.81-6.58.02-.05.08-.12.08-1.58-.17-3.13-2.86-.02-.78-.07-.06.07-1.37 1.57-.96.25 1.47.02-3.77.24-3.13.18-1.77.15-.55.16-.84.23-1.05.95-2.52.57-.92 1.15-1.33.92-.57h1.39z"/><g style="stroke:#3c3c3c;stroke-width:.494" id="Actor_.0"><path d="m157.89 123.53.54.25.29.04.44.02.44-.1.21-.06.24-.18.14-.13.05-.11.05-1.18-.28.39-.68.23-.82-.03-.63-.28-.22-.4-.02 1.1.06.19.18.24.01.01m-.23-1.54.29-.39.36-.12"/><path d="m158.37 122.21.05.03.12.06.07.03.16.03.07.02h.25l.17-.02.07-.02.14-.05.05-.03.1-.08.03-.03.04-.09v-.03l-.01-.1-.02-.01"/><path d="m159.25 122.31-.23.02-.24-.01-.22-.06-.16-.1-.1-.27-.02.03v.15l.08.16m-.06-.34.11-3.47.04.35.14-.17.48.12.45-.14-.03-.27-.49-.13-.45.14.04.28"/><path d="m158.45 118.77.63.17.58-.19-.05-.35-.12-.09m-1.08.11.14-.1m.66 5.46.47-.1m-.23-1.44.15-.1.06-.12v-3.27m.63 3.33-.22-.41-.41-.17"/></g><g style="stroke:#3c3c3c;stroke-width:.494" id="Actor_.1"><path d="m236.06 138.95-.13.93-.07.55.03.09.16.19.33.35.9.38.38.05.64.04.81-.23.27-.26.08-.21.05-.16.2-1.57-.16.58-.8.33-1.14-.04-1.02-.41-.53-.61.17-.57.8-.33h.01"/><path d="m237.18 139.29.08.05.21.09.1.04.24.05.1.02.25.01h.1l.22-.04.08-.02.17-.08.05-.04.09-.12.02-.04.01-.14-.03-.06"/><path d="m238.47 139.44-.31.04-.34-.02-.33-.09-.28-.14-.29-.4.73-4.64.26.53.19-.25-.21-.4-.24.12"/><path d="m237.16 139.32-.18-.24-.11-.23.07-.11m1.45 2.71.6-.14m-1.08-6.59.96.25.68-.28-.71 4.51-.14.14m-.6-4.87.74.2.53-.22-.21-.41-.74-.19-.53.22m1.82 5.03-.54-.61-.2-.08m.19-4.37.13.12.26.53"/></g><g style="stroke:#3c3c3c;stroke-width:.494" id="Actor_.2"><path d="m162.32 125.7.23.43.65.28.84.03.68-.23.28-.41-.05 1.19-.05.12-.15.14-.23.19-.22.05-.45.11-.45-.03-.29-.04-.57-.26-.19-.25-.06-.2.03-1.12.28-.4.38-.13"/><path d="m163.05 125.93.05.04.13.06.07.03.16.04.07.01.18.01.08-.01.17-.02.07-.02.14-.05.05-.03.1-.08.03-.03.04-.1v-.03l-.02-.1-.01-.01"/><path d="m163.95 126.04-.24.03-.08-.01-.16-.01-.22-.06-.17-.1-.11-.28.14-3.52.05.36.64.18.59-.2-.03 3.31-.06.13-.15.1"/><path d="m162.97 125.61-.02.02.01.16.07.17m.13-3.51.14-.18-.04-.28-.15.1m.19.18.49.14.46-.15-.04-.29-.5-.13-.45.15m.65 5.55.48-.1m-.02-2.23.4.17.23.42"/><path d="m164.39 122.43-.05-.36-.13-.1"/></g><g style="stroke:#3c3c3c;stroke-width:.494" id="Actor_.3"><path d="M160.86 43.14h-.23l-.08-.04m-.26.12v-.15m2.18 1.48.25.11.35.12m-1.59-1.26v-.31m0 .3v-.1m2.4-.13v.34l-.01.18-.01.17-.02.31-.02.27-.03.22-.08.32-.27.54-.11.09-.22.15-.42.07-.04-.01m-.02-1.7.01-.13m-.03.27-.05.22m.12-.01-.03.05m.15-.01-.09.04"/><path d="m162.59 44.6.05-.42.02-.57.01-.35m.97.03-.02.01-.6.01-.08-.04"/></g><g style="stroke:#3c3c3c;stroke-width:.494" id="Actor_.4"><path d="m62.12 120.39.19.01.63.33.01.51-.6.48-.99.28-1-.04-.63-.34.12 1.12.09.22.04.08.53.31"/><path d="m60.51 123.35.37.05.5.03.66-.12.25-.07.68-.4.08-.14.17-.33-.28-1.64m-2.48.66.04.04.11.08.07.03.17.05.09.01.21.01h.1l.22-.03.09-.02.22-.07.08-.03.17-.1.05-.04.12-.11.02-.04.04-.12-.01-.04-.04-.11"/><path d="m61.46 121.52-.31.03-.29-.02-.23-.08-.15-.11-.63-4.25.18-.44.13-.12-.14.34.52.16.65-.18.14-.34-.52-.16-.65.18"/><path d="M59.73 121.62v-.5l.61-.49.04-.01m.06.8-.01-.2.03-.06m-.44-4.29-.17.22.67.21.85-.24.18-.43-.22-.12m.74 6.72-.65.12"/><path d="m61.55 116.63.67 4.38-.06.15-.17.15-.24.12m.51-.51-.06-.04m.04.04-.04-.03"/></g><g style="stroke:#3c3c3c;stroke-width:.494" id="Actor_.5"><path d="m121.03 194.8.51.37.37.22 1.22.14 1.18-.36.43-.37.32-.37.09-.21.09-.63-.08-1.23-.61.92-1.25.53-1.39-.07-1.01-.65-.23-.96.07 1.7.03.46.26.51"/><path d="m120.67 192.13.62-.91.44-.19m.08 1.64.07.08.19.15.11.05.26.09.12.03.3.02.13-.01.3-.06.12-.03.27-.13.09-.06.19-.18.06-.08.11-.21.01-.08v-.23l-.03-.07-.03-.05"/><path d="m123.64 192.78.28-.23.15-.28.02-.29-.37-5.42-.05.84-1.06.44-1.02-.4.23-.3.03-.65-.22.12-.04.83.18 4.52.08.64.26.22.35.14.4.04.42-.06"/><path d="m121.77 191.95-.02.03-.05.37.08.37m.04-5.58.79.3.82-.34.04-.65.25.11"/><path d="m121.85 186.49.83-.34.79.3m.59 8.78-.85.22m1.95-3.09-.25-.96-.9-.57"/></g><g style="stroke:#3c3c3c;stroke-width:.494" id="Actor_.6"><path d="m170.2 40.58.07.08-.2.74-1.06.66-1.79.51-2.31.28-2.54.03-2.45-.24-2.03-.47-1.39-.64-.57-.72v.4l.38.57-.01 1.16m-.37-2.13.11-.26"/><path d="m156.42 33.4 1.01-1.45.47.34.74.31.97.27-1.27 1.35-.79-.25-.65-.27-.48-.3-.05.11-.36-.64-.07 7.55.57.72 1.38.64 2.04.46 2.45.24 2.54-.02 2.31-.29 1.79-.5 1.06-.66.2-.74.2-7.51-.03.62-.02-.11-.31.31-.5.28-.65.26-.12.2-.43.12-.47.11-.51.1-2.18.26-2.4.05-2.35-.17-2.04-.37-.13-.2.79-.09"/><path d="m156.01 32.87.41-.63 1.12-.55 1.71-.42.08-.01"/><path d="m157.43 31.95 1.66-.56.43-.23m4.27 13.6.15.04.91.42.74-.85.03-1.18-1.92.1-1.97-.05-1.87-.21-1.62-.35v.4m1.57-8.86 2.44-.16 2.65-.02 2.54.11m-7.76-.08.16.19-.65.07m.65-.07 1.63.24 1.79.1 1.8-.06 1.63-.19.25-.05.24-.05.23-.06 1.44.13m-9.24-1.45 2.64-.18 2.72-.02 2.71.12.82-.28.57-.32.28-.35 1.08 1.43"/><path d="m167.13 30.9-.03.8-.48.43-1.15.33-1.59.15-1.71-.05-1.47-.25-.95-.39-.23-.46.01-.8.23.45.95.39 1.48.25 1.7.05 1.6-.15 1.15-.32.49-.43-.27-.45-.96-.39-.62-.1m-3.89-.06-.19.02-1.16.31-.51.43m1.13 12.46h.03"/><path d="m164.58 26.55-.11 4.69-1.21.08-1.18-.13-.7-.28.08-4.48m1.14 18.08h-.02m.44-1.24.03.02.31-.01m.29-.81-.06.02-.1.02 1.05-.04.16-.01m-1.12-8.41.03-1.37m.41 9.78.05.03m-.26-.02v.03"/><path d="m164.47 31.24.76-.26.04-.33.1-4.18m-.52 18.75.56-.06.53-.07.51-.09.47-.1.43-.12.39-.13.75-.85-.4.13-.44.11-.48.1-.5.09-.53.08-.55.06m-.12-1.98.08-.01.08-.01m2.05-9.58 1.29 1.33-1.42-.12-.14.19m-.29-2.99.27.11 1.96.53m-.86 11.96.04-1.18 1.07-.47.59-.54.06-.57.02-.38"/><path d="m169.24 42.31-.52.67-.2.04m1.96-10.26-.68-.59-.29-.12"/></g><g id="Actor_.7"><g style="stroke:#3c3c3c;stroke-width:.494"><path d="m251.52 54.8.08.03.12.06.06.06.75 1.9-.01.07-.08.05-.13.03-4.8.72-.18.01-.2-.01-.19-.03-5.45-1.22-.16-.05-.12-.06-.05-.06-.57-1.89.01-.06.08-.05.14-.03 1.05-.15m-1.5 1.8.22-1.51m.46 3.51.22-1.53"/><path d="m241.65 55.35.36-2.06.35-1.55.38-1.42.4-1.28.84-1.94.95-1.77.25-.41.9-1.22.88-.8.81-.41.21-.06.29-.02.26.02.2.03.18.04.17.07.6.5.2.19.66.99.56 1.41.42 1.85.21 2.32.02 1.33-.05 1.46-.12 1.58-.18 1.86-.39.56-1.09.4-1.62.19-1.9-.05-1.88-.29-1.26-.36-.94-.44-.67-.72m5.35 3.92.23-1.54m5.01.74.24-1.53m.04-.02-.24 1.53"/></g><path d="M240.37 55.92v.04l.56 1.91.06.06.11.07.17.04 5.43 1.24.19.03.2.01.18-.01 4.78-.73.14-.03.08-.06.01-.04m-11.23-.53v.04m5.95 1.31-.01.05m5.25-.85-.01.05" style="stroke:#3c3c3c;stroke-width:.494"/></g><g style="stroke:#3c3c3c;stroke-width:.494" id="Actor_.8"><path d="m158.57 51.62-.07.02-.32-.02-.24.01-5.02-.34-1.11-.09-.48-.09-.08-.01-.91-.53-.08-.06-.59-.87-.04-.08-.13-1.03v-.08l.36-.94.04-.07.77-.64.07-.04 1.02-.19h.07l1.12.08 5.06.39.32.05.7.24.07.03.78.73.01.01.05.07.37.99.01.08-.13 1.02-.02.08-.61.81-.05.05-.92.41"/><path d="m150.18 49.79-.28-.4v-1.23l.73-.94 1.19-.3 3.08.23.49.09.39.18.07.03.4.32.36.02.41-.25.47-.15.49-.02 1.19.47.73 1.05-.03 1.24-.75.93-1.19.29-.5-.09-.46-.21-.4-.31-.02-.01-.33-.02-.41.25-.46.14-.49.02-3.06-.22-1.18-.47-.44-.64"/><path d="m160.4 45.36.47.35.36.44.01.02.26.52.13.56-.01.57-.15.54-.28.48-1.23 1.97-.39.4-.49.29-.54.16-.58.02-6.15-.45-.56-.11-1-.6-.64-.96-.01-.03-.13-1.13.41-1.04 1.39-1.91.85-.68.54-.16.56-.03 6.07.43.57.11.54.23.04.04m-9.66 1.49.51-.15"/><path d="m154.17 47.09-1.22 1.76-.34.27-.42.1-.32-.08-.43-.4.01-.86.66-.94m.09.56.37-.52m-.55-.04.05.06m9.46 1.11.1-.12.02-.07.13-1.01-.01-.07-.36-.98-.05-.07-.01-.01-.76-.71-.07-.04-.69-.23-.31-.05-4.97-.37-1.09-.08h-.07l-1 .19-.07.04-.76.63-.04.07-.02.04"/><path d="m153.58 44.09-.66.15-.74.2-.64.65-.12.24"/><path d="m152.3 44.71.13-.1.49-.15.53-.03 6.05.43.52.1.5.22.43.33.35.42.24.49.12.52-.01.52-.03.09m-.03-3.98-.01-.01-.5-.22-.52-.1-5.96-.42-.52.03-.49.15-.78.63-.64.82m.78 4.4v-.86m1.55.22-.8-.06-.21-.08"/><path d="M157.03 47.54 156 49.07l-.33.28-.43.1-.31-.08-.44-.41.01-.86.62-.91m.46 3.84 1.81-2.75m-2.13-.56.28-.41m.68 3.4 1.34-2.04m-.99 2.07 1-1.53"/><path d="m156.48 48.35.21.02.48-.02.45-.14.03-.02m-1.65.88.01-.86m2.17 1.43-.98 1.51m.72.42.54-.02"/><path d="m158.15 47.43-.59.89-.01.87.44.4.31.08.43-.1.34-.27.01-.86m-1.09-1.29.53.11m-.01 4.4.46-.26.45-.27m-.35-1.83.53-.84m-.13-.64-.44-.34m-.7.47.23-.35m-.53-.68.58.11m1.17 3.73.26-.45m.15-1.04-.01.53m-.11-1.06-.24-.49m-.14.34-.15-.03m.56-3.81-.57-.11m1.86 3.86.04-.04.27-.48.12-.23.73-1.44.13-.5.02-.52-.12-.51-.24-.48-.01-.02"/><path d="m161.82 47.75.03-.31.01-.57-.01-.57m.49-2.01-.34-.4-.43-.33"/></g><g style="stroke:#3c3c3c;stroke-width:.494" id="Actor_.9"><path d="m191.77 63.24-.01.03-.15.45-.64 2.14-.03.17-.15.49v.01l-.02.06-.15 1.11-.01.01-.01.09-.11 1.25-.01.02-.01.09-.05 1.11-.01.01-.01.07.03.71-.01.01v.03"/><path d="m190.37 70.97.04.14.12.16-.09-.14-.07-.16-.02-.29v-.43l.02-.53.04-.6.05-.62.08-.67.08-.61.08-.54.08-.43.08-.3.82-2.56.06-.14.03-.01.13-.15.07-.03 7.34.59h.04l.12.05.07.17m-9.01 7.4.07.07 7.46.64-.03-.16M191 66.09l.08-.32"/><path d="m198.25 71.91-.01.01-.06-.13v-.71l.01-.07v-.07l.07-1.04.01-.08.01-.1.12-1.18.01-.09.01-.09.14-1.05.01-.07.07-.62.04-.13.59-2.15.12-.46v-.02l.08-.13h.01"/><path d="m198.06 71.98.17-.04.09-.15"/><path d="m199.38 71.87-.05-.14v-.29l.01-.42.03-.54.05-.6.07-.76.06-.54.08-.61.07-.54.08-.44.06-.3.65-2.59.05-.15-1.04-.08-.05.15-.67 2.58-.07.31-.07.43-.08.54-.07.61-.07.65-.06.65-.05.6-.03.54-.02.42.01.29.02.15 1.06.09.11.16-.08-.17.01-.03v-.01l.01-.71v-.08l.01-.01.07-1.11.01-.09.01-.02.12-1.26.01-.09.01-.01.14-1.11.01-.07h.01l.13-.5.02-.17.5-2.16.12-.46.01-.03m-2.55 7.56.01-.46m.03-.57.06-.66m.06-.7.08-.7m.08-.66.08-.58m1.02 4.84h-.01"/><path d="m199.46 72.04.08.07.48-.03 5.92.37-.01-.15m-6.58-.42-.02-.15m-.82-5.02.07-.32m1.49.12-.07.33m.54-2.89h.05l.07-.12"/><path d="m200.58 63.95.1-.15.09-.03h.03l.51.12 5.71.58-.04.15m-.87 7.76h-.01l-.03-.11.01-.02-.01-.04.03-.6.01-.06v-.08l.08-.95.02-.09v-.09l.08-.8.03-.28.02-.1v-.09l.12-.96.02-.08v-.07l.1-.61.01-.04.11-.53.38-2.05.01-.09v-.04l.07-.05h.01v.01m-1.23 7.45.03-.43"/><path d="m205.94 72.45.15-.04.1-.16.04-.16.27-1.37m-.49.33.05-.61m.07-.65.07-.66"/><path d="m206.55 69.23.16-1.75-.12.57-.14.98-.15 1.43-.07 1.02.05.02.12-.58-.13-.01m.13.01.02-.22m-.08-2.73-.07.55m.54-.73.14-1.55-.19.97-.18 2.03m-.12-2.01-.05.3m.66-.9.02-.15.07-1.01-.04-.04-.11.55-.17 1.81"/><path d="M207.02 64.47h.03l.11.05.07.18-.01.42-.06.87-.06.64m.11-1.94-.04.14"/></g><path d="m234.85 79.78-1.14.03-1.61-.21-1.78-.49-2-.68-4.62-1.83-5.02-2.01-5.16-1.93-4.93-1.47-2.3-.52m28.61 7.56-.17.05-.89.01-1.34-.23-3.64-1.13-4.51-1.74-4.98-1.94-5.28-2.03-5.08-1.57-2.57-.44m27.99 8.48-.49-.02-1.28-.29-3.48-1.26-4.34-1.87-4.84-2.14-5.02-2.06-4.89-1.63-3.38-.65m27.1 9.25-1.26-.32-3.58-1.4-4.44-2.02-4.94-2.29-5.12-2.19-4.97-1.72-2.55-.48" style="stroke:#3c3c3c;stroke-width:.494" id="Actor_.10"/><path d="m131.78 106.51-.17-.23v-.09m11.31.12.01-.15" style="stroke:#3c3c3c;stroke-width:.494" id="Actor_.11"/><g style="stroke:#3c3c3c;stroke-width:.494" id="Actor_.12"><path d="m51.55 94.83-.15-.12-.51-1.37-.26-1.63.51 1.36 1.4 1.07 2.18.79.25 1.66-2.18-.8-1.24-.96m-.92-3.12.52-1.44 1.48-1.4 2.29-1.24 2.9-.98 3.24-.64 3.33-.26 3.15.15 2.71.53 2.6.68 2.84.54 3.05.4 13.7 1.41 5.94.45 5.72.35 2.17.09"/><path d="m54.72 94.93 2.79.45 3.18.06 3.57-.07 3.47.1 3.35.28 16.34 1.77 4.67.71 4.31 1.05 3.85 1.4 2.51 1.3"/><path d="m54.97 96.59 2.79.45 3.17.06 3.55-.07 3.46.1 3.35.28 16.28 1.79 4.67.71 4.3 1.06 3.84 1.41 2.2 1.15M56.49 92.09l.79-.04.58-.26.05-.31-.48-.18-.75.05-.57.26-.07.31.45.17m2.84-1.59.09.63.86.45 1.41.15 1.56-.19 1.3-.49.68-.64-.11-.62-.87-.44-1.38-.14-1.55.18-1.29.47-.7.64"/><path d="m64.58 91.02-.11-.05-1.38-.15-1.54.19-1.29.47-.06.06m.32-2.68-.43.03-.47-.17.05-.31.55-.24.73-.05.48.17-.05.3-.55.25-.31.02m2.68 3.5.56-.26.75-.05.5.19-.04.31-.57.26-.75.06-.5-.19.05-.32m4.05-3.47-.62.25-.04.31.49.18.74-.05.55-.25.03-.31-.49-.18-.66.05m15.42 4.57-.85-.09-.11-.38-5.7-.61-.75.29-.85-.09-.09-.38.84-.85.52-.24.7-.05.49.18.05.09v.1l-.07.1 5.67.6.15 1.33.75-.29.8-.86.06-.1.01-.1-.06-.1-.5-.18-.7.05-.51.25m-5.56.35-.11-.95m21.6 10.14-.14-1.69m22.11 22.21-.39 2.97-1.39 3.19-6.77 11.53-1.7 2.48-2.2 2.43-2.69 2.37-2.18 2.3-1.13 2.54.06 2.6 1.29 2.45 2.67 2.24 3.77 1.61 4.56.8 4.84-.09 4.7-.97 4.08-1.75 3.07-2.34 1.81-2.69.44-2.79-.01-2.79.49-2.71.97-2.61 4.93-10.49 2.34-4.04 2.37-3.65 2.42-3.25 2.54-2.87 2.69-2.48 2.88-2.1 3.12-1.71 3.41-1.31 3.84-.94 4.36-.64 4.86-.36 5.34-.13 5.8.09 6.24.28 6.67.44 7.06.58 17 1.85 3.97.53 3.95.74 3.88.93 3.83.75 3.87.22 3.56-.33 2.91-.85 2.01-1.28.95-1.58-.18-1.75-1.25-1.75-2.19-1.62-2.93-1.35-3.41-.98-3.64-.56-3.58-.08-3.66.08-3.75-.11-3.77-.3-18.36-1.89-5.26-.73-5-1.07-4.59-1.38-4.06-1.62-3.42-1.82-12.16-7.51-2.45-1.78-1.73-1.87-.99-1.89-.24-1.87.48-1.81 2.69-5.75.69-1.09.98-1.04 1.27-.97.95-.96.15-1.02-.66-1-1.39-.89-2-.72-2.43-.48-2.68-.22-2.7.06-2.52.34-2.15.59-1.58.8-.88.95-.1 1.08.16 1.02-.15 1.1-.49 1.1-2.88 4.92-1.59 2.14-1.73 2.07-1.88 1.96-2.11 1.86-2.29 1.66-2.37 1.36"/><path d="m251.51 111.36-.31 1.77-.95 1.6-2 1.29-2.9.85-3.55.33-3.86-.22-3.82-.75-3.87-.94-3.93-.74-3.96-.54-16.95-1.86-7.04-.59-6.65-.44-6.22-.28-5.78-.09-5.32.12-4.85.37-4.35.65-3.82.95-3.4 1.32-3.12 1.72-2.87 2.11-2.68 2.49-2.53 2.89-2.42 3.28-2.36 3.67-2.33 4.07-4.91 10.54-.97 2.63-.49 2.73.01 2.81-.43 2.8-1.81 2.71-3.06 2.35-4.06 1.75-4.67.98-4.85.09-4.52-.81-3.76-1.61-2.66-2.25-1.29-2.47-.17-2.04m7.73-59.96.07 1.43-.52.23-.89-.1-.17-.4.68-.88.47-.26.71-.05.54.18.07.1.01.12v-.07"/><path d="m109.83 154.01-.25.2.06.6.76.36 1.03-.1.65-.48-.05-.63-.76-.35-1.02.1-.42.3m0-57.94.19-.08 1.06.11"/><path d="m110.75 96.07-.06-.97.04-.09m-.04.09.33.04m1.01 58.82.07.61-.02.02m1.12-5.91-.12-.05-.07-.57.65-.47.99-.1.75.34.04.6-.61.45-1 .09-.63-.29m.57 4.05.2.55 1.41.87 2.03.29 2.09-.37 1.57-.94.62-1.23-.46-1.2-1.41-.85-2-.28-2.04.36-1.57.91-.67 1.22.23.67"/><path d="m114.07 153.34.26-.48 1.56-.91 2.04-.36 1.99.28 1.37.83m-5.85-4.27.04-.03-.08-.57m5.09-51.69-2.54-.27m1.95 60.23-.06-.42.65-.5 1.02-.1.79.36.03.66-.59.46-1.03.1-.78-.36-.03-.2m1.14-15.12.8.46 2.52.34.91-.08.58-.43-.1-.51-.18-.13-.24-.11-.28-.06 2.24-4.3.89-.08.55-.4-.1-.49-.18-.12-.23-.1-.28-.06-2.43-.32-1.13.19-.33.62.79.44-2.29 4.29-1.16.19-.35.66m-.7-18.19-.09-.54.02.13m2.18-32.12-.31.02"/><path d="m122.33 156.1.07-.05-.1-.61m3.11-6.08.1.44-.64.48-.99.1-.78-.34-.09-.59.63-.47 1-.1.76.34.03.64m-2.82-8.31-.06-1.42m2.29-4.29.08 1.93-2.02 3.82m-.54-45.38-.04.13m1.05-3.38.59-.05.69-.38-.11-.44.02.49m-.78-.77.76.28m.91 48.49.04.96m-.39.17-.05-1.25"/><path d="m124.87 136.64.71-.12 1.42.19m-1.23-19.43 1.1-.1.78-.51-.13-.61-.51-.19m.51.19.02.68m.4-16.26 1.32-.78 2.37-.85 15.19-4.16-13.62 3.75-1.98.75-1.41.99-.71 1.14.06 1.7.08 1.19.88 1.12 1.61.93 2.18.64.58.07-.3-.02-2.87-.52-2.43-.85-1.7-1.05m1.18 31.41-.03-.92"/><path d="M134.55 106.97h-.06l2.79.13 3.09-.25 2.85-.61 27.13-7.94.47-.24.12-.33-.26-.31-.27-.18-.56-.22-.72-.08-.69.1-26.99 7.82-2.44.48-2.62.1-2.53-.28-2.18-.63-1.61-.92-.88-1.11-.09-1.18m17.72-6.63 12.78-3.51.44-.22.16-.3-.23-.29-.25-.16-.52-.21-.68-.07-.67.09-26.27 7.15-2.37.85-.22.12m5.21 20.2-.75-.37.29-.52 1.01-.15 2.99-5.58-.73-.34.26-.48.98-.15 2.17.25.25.05.38.17.11.38-.47.31-.77.06-2.92 5.59.25.05.22.08.17.11.11.4-.49.34-.81.06-2.25-.26"/><path d="m137.74 111.72.03 1.78-2.62 4.95m-.4-1.15.03 1.11m.35-13.11.03 1.7m2.22 11.46-.02-.81m-.34.91-.02-1"/><path d="m137.75 112.6.53-.07 1.27.14m.43-5.79 1.49-.29 26.92-7.88.68-.09.15.01m-28.44 12.45v.77m.11-24.05-.15-.44.63-.36 1.03-.07.84.26.16.44-.63.36-1.04.07-.84-.26m1.35 11.11.54.86.5.37 1.43.62 1.93.21 1.9-.27 20.43-5.84 1.23-.62.32-.82-.66-.79-.53-.34-1.44-.56-1.86-.18-1.77.23-20.19 5.62-1.36.65-.47.86m.25.39-.01-.82"/><path d="m169.9 94.39-.1-.12-.52-.34-1.45-.57-1.84-.18-1.77.24-20.14 5.66-1.33.64m.49-12.53.01.52m4.69 25.04-.06.04.2.6.98.34 1.23-.09.7-.49-.21-.59-.99-.35-1.2.1-.65.44m0-18.37 1.12-.31m5.89-10.27-.01.6.37-.23-.12-.27-.33-.12-2.07-.21-.82.1-.19.35.64.24-2.13 3.98-.84.11-.2.37.65.26 1.92.19.67-.05.39-.24-.12-.28-.34-.14-.22-.03v.71m-1.42 23.42v.74m-.49-25.06v.78"/><path d="m150.71 89.06 1.7-3.22.01-1.58m-1.12 9.2 1.12-.31m-.22-4.72 2.08-3.99.66-.04"/><path d="m152.42 85.18.36-.04 1.09.1m-1.36 3.87.01-.62m.49-21.11-.01 1.37.06.43m2.72 23.05 2.2-.61m3.46-20.31-.01.5-.57.03-1.05 2 .38.08.14.06.12.24-.36.19-.59.04-1.75-.15-.6-.22.16-.3.77-.09-.01.64m-.17-6.53.12.23.51.13.62-.03.34-.19-.12-.23-.51-.13-.61.04-.35.18m.96 22.17-.03 1.42"/><path d="m158.08 73.69 1.06-2-.02 1.48-.63 1.19m.64-1.75.3-.03 1 .09"/><path d="m159.14 71.69-.59-.2.16-.29.75-.09 1.9.18.31.1.12.23-.36.19m-1.16 14.96 1.11-.3-1.53.41 3.97 2.56 3.17-.87-1.12.31m-3.22-4.18.21.42-.57.35-1.01.07-.87-.25-.2-.43.57-.34 1.01-.07.86.25-.01.55m-2.55-10.84.01-.51m-.3.53.01-.59m-.44-6.13v.3m.9-1.41-.22.4.41.46.98.32 1.27.11 1.23-.14.85-.35.23-.46-.43-.45-.97-.32-1.26-.11-1.22.14-.84.34-.03.06m-.95-.89.5.13.6-.04.34-.18-.12-.22-.51-.13-.59.04-.34.18.12.22"/><path d="m161.38 86.47 4.27-1.14 4.03 2.51-2.69.73m-3-20.84-.41-.13-1.25-.11-1.28.16m-.42-1.96.01-.29m3.79 3.1.04.08.53.14.61-.04.34-.18-.14-.24-.52-.13-.61.03-.34.19.09.15m.32 17.07.9-.24m-.64-4.9.31-1.2 2.7-5.8.68-1.1.98-1.05 1.26-.98.96-.97.14-1.03.06-1.43m-6.29 1.7v-.31m.06-1.97-.21-.05-.13-.22.33-.18.6-.04.52.13.13.22-.33.18-.6.04-.31-.08m1.04 26.98.05-1.63m.02-25.71-.01.3m1.41 40.92-.25-.56.63-.45 1.15-.09.99.32.27.55-.63.46-1.16.09-1-.32m.85-18.16-.13-.08-.16-.32.4-.26.73-.05.64.19 8.26 5.14.19.34-.4.28-.75.05-.67-.2-8.11-5.09m13.15 13.68.37-.28.72-.05.65.2.12.1.07.12v.12l-.28.97-.6.33-.98-.1-.37-.44-10.7-1.13-.62.33-.96-.11-.33-.43.36-.95.39-.28.72-.05.62.19.12.11.06.11-.01.12 10.65 1.12-.07 1.24"/><path d="m170.17 102.77.7-.05.07.02m-1.45-5.76-.06 1.59m1.45 8.57.02-.77m-.38-3.62.06-1.71m1.13.34-.04 1.16m.02 0 .04-.99m6.47-4.91.47.14.69 1.23 2.96-2.31-6.03.36 1.91.58-1.12-.34m5.59 7.8.7-.05.19.06m-1.04-5.29-.15.11.29.51.98.3 1.1-.09.57-.42-.3-.5-.98-.3-1.08.09-.43.3m1.76 3.88-.02.36m.75-4.33-.04.76m28.15 6.03-.19 1.74-.2.02m.2-.02.36-.03.52.16"/><path d="m212.3 106.85.12-1 .33-.29.73-.06.69.2.15.11.09.12.02.13-.11 1.01-.55.34-1.01-.1-.46-.46m2.06-.98-.13 1.25"/><path d="m221.54 108.2.48-.04.6.2-1.02-.11-.49-.44-.32-.06-6.47-.68"/><path d="m214.43 106.06 6.76.71.32-.29.72-.06.71.21.15.11.1.12.02.12-.06 1.03-.53.35m-1.43-1.59-.13 1.01m1.92.34.16-1.32m9.88 3.75.32-.32.77-.07.78.23.32.39-.32.33-.78.06-.77-.23-.32-.39m.01-3.99.31-.3.76-.07.75.22.32.38-.31.31-.76.06-.76-.22-.31-.38m1.86 3.83-.11.73m.58-1.86-.11-.09-.01-.8.86-.59 1.49-.23 1.73.18 1.52.55.9.78.04.8-.85.6-1.51.25-1.76-.19-1.53-.57-.77-.69m-.6-2.15.09-.7"/><path d="m235.74 109.61.11-.07 1.48-.24 1.73.18 1.51.56.43.37m2.78.93-.79-.23-.78.07-.3.32.34.4.79.23.78-.06.3-.33-.34-.4-.12.74m-1.61-4.23-.33-.38.3-.31.76-.06.77.22.33.38-.3.31-.75.07-.78-.23m1.5-.53-.12.71"/></g><g id="Actor_.13"><g style="stroke:#3c3c3c;stroke-width:.494"><path d="m233.68 75.5-.18.63.36 1.01 1.05 1.01-.2 1.47.99 1.12.42.3.49.29.55.28.6.26.66.25.7.22 1.54-.46 1.46-.2 1.72.16 1.51.46 1.62.75 1.34-.23 1.11-.35.86-.44 1.52-.9-.9.43-1.11.34-1.3.25-1.52.9"/><path d="m233.71 75.53-.11.44.89 1.3 1.99 1.23 2.87 1.01 3.4.64 3.5.19 3.14-.28 2.38-.72 1.32-1.06.05-.47"/><path d="m245.9 69.5 1.79-.83 2.5-.7 2.96-.46.02-.13-.03.22-.64.88-1.53.67-2.26.39-2.7.05-.24-.22-.81.59.21.22 3.16.08 2.81-.28 2.16-.61 1.31-.88.33-1.04-1.77 10.33-1.32 1.06-2.38.72-3.15.28-3.5-.19-3.4-.64-2.87-1-1.99-1.23-.89-1.3 1.39-10.29-.09 1.1.96 1.16 1.94 1.08.65.27.7.24.75.23.25-.15.35-2.18 1.67.43 1.82.31 1.88.18-.98 2.1-1.64-.2-1.6-.28-1.5-.36m-5.51 10.5.44.3.5.29.55.27.6.26.65.25.68.24.22-1.49 2.5.62 2.71.38 2.69.1 2.47-.19-.23 1.5m-13.43-16.96 1.1-.94.15-.26.68.37m-.68-.37 1.27-.91.95-.44 1.25-.32 1.5-.21.71.17"/><path d="m236.79 66.48.31-.53 1.13-.5"/><path d="m239.97 69.27.13-.71-.34-.12-.32-.12-.32-.13-1.49-.81-.83-.88-.11-.85.62-.75.13-.27-.03.2 1.63 1.23.99 1.28.26 1.13m-2.98-3.57-.52-.31m.79-1.51 1.68 1.24 1.02 1.31.29 1.31m-2.44 14.29.99 1.11m.41-15.64.24-1.73m.56 3.48-.23.11m10.43-4.06-.68.69-1.62.44-2.21.09-2.37-.27-2.02-.59-1.29-.78-.3-.8-.14 1.01.29.81 1.29.78 2.02.59 2.36.28 2.21-.09 1.61-.44.69-.7.16-1.02-.36-.81-1.33-.76-.64-.18"/><path d="m240.04 63.28.73-.68 1.6-.42.38-.01m.23 19.59.16-1.07m-.24-19.55-.39 2.68.82.58.46-3.1m-.46 3.1 1.57.39 1.67.04.05.01 1.19-.33.2-.55.35-2.25m-3.29 8.36.82-.59m-.72.7.84-.59m-.07-1.73 1.99-.93 2.57-.7 3.04-.47 1.42 1.4-1.78.15-.01.07m-3.95-.8-.28 1.74"/><path d="m250.18 63.71 1.7.16.92.62 1.41 1.54.5.56.25.57-.02.29-1.8.15m-1.34 13.53.24-1.48.95-.85.23-.96v-.33m-.06-10.06 1.79-.14m-2.15.75-.3-.45"/><path d="m252.8 64.49.57.64.17.63"/></g><path d="m243.28 58.5-.38 2.64m1.27-2.44-.38 2.6m4.57.41.4-2.63" style="stroke:#3c3c3c;stroke-width:.494"/></g><g style="stroke:#3c3c3c;stroke-width:.494" id="Actor_.14"><path d="m122.54 90.01-.08-.06-.08-.08-.28-.39m.01.08.33.4-.34-.46m9.95 2.05.38.04h.29l.38.04.12-.04 1.09-.44.09-.08.67-.9.03-.12.11-1.15-.03-.13-.49-1.14-.08-.11-.98-.86-.09-.05-.32-.13-.54-.18-.39-.07-6.51-.66-1.62-.16h-.1l-1.13.15-.09.03-.09.04-.84.65-.06.07-.05.08-.36.99-.02.1v.09l.11.68"/><path d="m136.96 87.63.29-.37.16-1.39-.01-.05-.55-1.36-1.13-1.04-.74-.31-.71-.17-8.02-.75-.74.01-.69.19-.6.34-.48.49-.53.95-1.38 2.07-.3.56-.15.64.03.67.03.11"/><path d="m121.38 87.44.01.06.13.78m1.02 1.74-.1-.06m.4-.68-.61-1.32.54-1.29 1.4-.42 1.73.17.14 3.81-1.61-.16m-1.59-4.61-.56.33m3.84 5.2-1.75-.18-.21-.04m1.95.24-1.73-.17-.23-.05m-.08-3.82-.27-.61m-.3-1.07.7-.02m-.02-2.5.01-.02.05-.08.06-.07.91-.7.08-.04.09-.03 1.01-.15.3.01 6.49.6 1.45.14.1.01 1.24.41.09.05 1.04.93.07.09.52 1.23.02.11-.12 1.25-.03.1-.28.37"/><path d="m137.27 87.1.4-.52 2.09-3.34.15-1.36-.01-.06-.53-1.33-1.1-1.01-.71-.3-.7-.17-7.82-.71-.72.02-.68.18-.59.34-.46.48-2.37 3.24-.2.38m1.94 5.17-.27-.03-.22-.11"/><path d="m124.64 82.49.14-.14.56-.32.64-.18.68-.01 7.95.76.7.15.66.3 1.06.97.51 1.28-.14 1.28-.09.14m-12.61-4.64.59-.35m.59 5.5.05-.02m.05-5.66.74-.02m1.65 8.93 1.46.15-.11-3.81-3.01-.3.1 3.05m3.34 1.82-2.14-.2m2.12.24L128 91.2m.52-4.52v.04m-.39-.08.01.57m1.29 1.24.34.04m2.62 2.38 1.41-.41.56-1.29-.63-1.41-1.45-.71-1.75-.17.1 3.5"/><path d="m132.02 91.6.44.05h.66l.05-.01 1.24-.49.78-1.01 1.97-2.78m-5.27-.34.03 1.06m.47 3.45.65-.01m-.12-4.99-.66-.14m.06-.32.71.15.68.31m.45 2.2-.51.14-.19-.01m1.96-6.41.71.32"/></g><g style="stroke:#3c3c3c;stroke-width:.494" id="Actor_.15"><path d="m117.87 106.39 1.53-1.88 2.41-1.85 3.04-1.58-.01-.24.06.38-.09 1.4-.98 1.36-1.82 1.22-2.49.95-.48.12-.48.12-.5.1-.59 1.21 1.06-.18 1.03-.21 1-.26 3.27-1.28 2.25-1.66 1.02-1.83.44 10.76-.83 2.06-2.24 1.88-3.39 1.45-4.13.82-4.33.07-3.97-.68-3.08-1.34-1.82-1.81-.36-2.05-.89-10.85.47 1.74 1.65 1.56 2.71 1.2 3.5.71.27-.21-.26-1.17-.3.19-2.86-.8-2.01-1.22-.92-1.48.24-1.58-1.75-.7-.74 1.76"/><path d="m123.69 120.42-.07-1.77 2.13-1.35 1.35-1.53.48-1.62-.02-.53-.83 2.07-2.23 1.88-3.39 1.45-4.12.82-4.33.08-3.97-.68-3.07-1.35-1.82-1.81-.37-2.06.04.64.18 1.6.13 1.75.54.92.85.86 1.14.77-.13-1.76 2.47 1 3 .61 3.3.16 3.35-.3.09 1.77-.89.82 1.94-.36 1.78-.55 1.55-.71.92-.82-.77.35-.83.32-.87.3-.91.25-.95.22-.97.18m-14.96-8.02.05-.08m-.2-13.29 1.74.69m-.03.19.06-.39-1.72-.68.85-.84 1.49-1.32-.86.98-1.48 1.18-.09.37m2.64 1.01-.49.4-.4 1.25"/><path d="m105.05 101.14.02.24 2.67 1.5 1.95 1.78 1.05 1.82"/><path d="m104.81 99.28 2.76 1.51 2.01 1.81 1.17 2.04.35 2.95 1.99.12 2.04-.03 2.03-.19.31.21m-11.16 12.86 2.04 1.18 2.45-.74 2.07-.31 1.99.24 1.41.74 1.23 1.19M105.67 98.3l1.27-.88 1.62-.75 2.1.16m-1.95 6.94-.14-2.08m-.04-.62-.09-.08-.08-1.22 1.27 1.12 2.29.72 2.87.16 2.84-.44 2.22-.94 1.17-1.24.06 1.22-1.17 1.25-2.22.94-2.83.44-2.86-.16-2.3-.72-1.17-1.05"/><path d="m111.12 96.65-1.52.61-1.24 1.21v1.3m2.6 7.93-.27-1.18m.14 1.28-.29-1.19m.21-1.97 2.23.2 2.31-.04 2.29-.27-.42 2.96.56-1.18.34.18"/><path d="m115.9 93.8.34 6.34-2.12.23-1.91-.36-.94-.83-.32-5.34m2.91 26.97-.01-.29"/><path d="m116.24 100.14 1.51-.75.33-.96-.24-4.72m-.26 10.82 1.7-2.08 2.47-1.87 3.14-1.61-.6-.95-1.04-.85-1.44-.7-2.38.25"/><path d="m117.97 96.28 1.64.49 1.32 1.09.09 1.29m-.41 4.43-.09-2.07m2.76-4.31 1.9 1.34.92.74.64.82-1.85-1.13m-.68 2.44.62.92m.96-1.48 1.03-.39.28 1.82m.46 11.34-.11-.35m-.63-12.81-.08-.36"/></g><g style="stroke:#3c3c3c;stroke-width:.494" id="Actor_.16"><path d="m118.59 184.03.11 1.23-.1.59-.09.2-.32.34-.43.36-1.15.34-1.18-.13-.35-.22-.48-.34-.04-.09-.2-.39-.11-2.1.2.9.96.6 1.35.07 1.22-.49.61-.87-.22-.9-.89-.55m-3.23 1.24.62-.86.4-.16"/><path d="m115.34 184.32.07.08.18.14.1.05.25.08.12.03.29.01h.13l.29-.06.11-.03.26-.12.09-.06.2-.16.05-.08.11-.2.01-.07.01-.21-.03-.08-.03-.05"/><path d="m115.28 178.89.06-.61.8-.32.76.29-.05.6-.81.32-.76-.28-.22.29.25 4.48.07.6.24.2.34.13.39.04.4-.06"/><path d="m115.31 183.65-.01.02-.06.35.07.35m1.8.06.27-.22.16-.26.02-.28-.41-5.31-.07.78-1.04.41-.98-.37.07-.78.21-.12m2.17 8.52-.82.21m.86-3.54-.01-.01m-.39-5.1-.25-.11"/></g><g style="stroke:#3c3c3c;stroke-width:.494" id="Actor_.17"><path d="m124.52 86.29-.21.25-1.49 2.78-.11.22-1.41 3.85-.96 3.23m1.88.05.85-2.96m2.85-6.56-.93 1.69-.67 1.47-1.34 3.74"/><path d="m123.46 88.13-.07.11-.39.75m5.55-2.3-.54.69-1.55 2.8-1.59 3.78-1.27 3.46m6.15-9.56-.34.63-1.34 2.55-1.54 3.73-1.37 3.75m1.18 1.06 2.58-5.65 1.85-3.83 1.57-2.76.15-.18m1.39.92-.28.53-.59 1.05-.77 1.48-1.8 3.79-3.33 7.4"/></g><g id="Actor_.18"><g style="stroke:#3c3c3c;stroke-width:.494"><path d="m50.08 43.72-.2-1.39m11.34-.08-.18-1.37-.02.05-1.51 1.5-.08.05-.13.05-.16.03-5.15.69-.17.01h-.17l-.14-.02-3.52-.85-.09-.03-.04-.05.2 1.38"/><path d="m51.09 41.16-1.2 1.1-.03.05m1.39-.16.32.25.64.22 1.6.22 1.28-.01 1.33-.12 1.55-.3 1.16-.42.6-.49-.05-.46-.16-1.24-.3-1.42-.32-1.29-.36-1.18-.85-2.23-.82-1.56-.82-1.15-.81-.77-.75-.42-.14-.06-.22-.03h-.3l-.28.05-.18.04-.14.07-.6.5-.56.85-.48 1.22-.35 1.63-.07.43-.27 1.88-.03 1.21.04 1.31.09 1.43.17 1.57.08.27m2.48 1.11.2 1.39m5.43-2.15.19 1.39"/><path d="m59.61 40.5 1.3.3.09.04.04.04"/></g><path d="m50.06 43.69.01.05.04.04.09.04 3.51.85.14.02.17.01.18-.02 5.13-.7.16-.03.13-.04.08-.05 1.5-1.52.02-.05v-.04m-11.14 1.47.01.04m3.84.89.01.04m5.61-.8v.04" style="stroke:#3c3c3c;stroke-width:.494"/></g><g style="stroke:#3c3c3c;stroke-width:.494" id="Actor_.19"><path d="m122.07 88.76.08 1.88-.01.11-.09.1-4.02 2.78-.17.08-.22.06-.25.02-7.37.06-.24-.02-.2-.05-.14-.08-3.07-2.72-.06-.1-.13-1.89.06.1 3.08 2.69.14.09.2.05.24.01 7.39-.06.25-.02.22-.05.17-.09 4.03-2.75.1-.1.01-.1-.07-.1-2.05-1.65m-11.8.6-1.84 1.18-.11.1-.02.1"/><path d="m108.67 90.21-.52-.74v-3.92l.07-.87.27-3.32.51-2.73.7-2.17.84-1.62.9-1.12.34-.29.75-.49.34-.12.43-.05.38.03.26.07 1.06.55.95.96.25.29 1.02 1.56.95 2.11.82 2.69.64 3.28.49 4.18-.29 1-1.17.92-1.88.68-2.3.35-2.37-.04-2.04-.44-1.4-.75m1.01 3.6-.12-1.92m8.19 1.85-.1-1.91m4.5-1.13-.08-1.89"/></g><g style="stroke:#3c3c3c;stroke-width:.494" id="Actor_.20"><path d="m167.76 23.94-.46 1.05-.04.04-.08.02-.12.02-3.94.39-.14.01-.15-.01-.12-.02-3.42-.68-.1-.03-.05-.03-.01-.04-.02 1.23.01.04.05.03.1.03 3.41.69.13.02h.28l3.94-.39.12-.02.08-.03.04-.04.46-1.06.03-1.22-.01-.04-.05-.03-.1-.03-.63-.12m-7.84.94.55-1.04.04-.04.09-.02.12-.02.06-.01m-.84 2.42.02-1.23"/><path d="m159.95 24.27.27.34.77.3 1.16.2 1.36.08 1.35-.06.92-.14.69-.19.5-.38-.01-1.34-.06-1.23-.09-1.13-.14-1.03-.03-.18-.33-1.6-.46-1.43-.52-1.07-.65-.87-.51-.38-.16-.05-.32-.06-.34.06-.12.03-.65.46-.58.71-.57 1.05-.52 1.39-.44 1.75-.18 1.03-.15 1.12-.11 1.22-.08 1.4m2.96 1.19-.03 1.24m4.31-.43.03-1.23"/></g><g style="stroke:#3c3c3c;stroke-width:.494" id="Actor_.21"><path d="m69.92 120.16.04.07.54.3.37.05.49.02.64-.11.25-.07.65-.38.07-.14.15-.32-.27-1.62.04.49-.57.47-.96.27-.99-.03-.63-.33.08 1.1.1.22v.01"/><path d="m70.44 118.6.05.04.11.08.07.03.17.04.09.02h.3l.22-.03.09-.02.21-.06.08-.03.16-.1.05-.03.11-.11.02-.05.03-.11-.01-.04-.04-.11"/><path d="m71.44 118.72-.3.03-.28-.02-.24-.07-.15-.11-.55-4.21.16-.22.52.16.64-.17.12-.33-.52-.16-.64.18-.12.32"/><path d="m69.74 118.83-.03-.5.57-.46.1-.03m.07.51-.04.08.01.2m.94-4.85.21.11-.15.43-.83.22-.67-.2.15-.42.13-.12m1.84 6.62-.64.11m.33-1.89.23-.12.15-.14.05-.15-.59-4.34m.63 4.25-.05-.03m.02.04-.02-.03m-.07-.49h.14l.63.33"/></g><g style="stroke:#3c3c3c;stroke-width:.494" id="Actor_.22"><path d="m227.72 142.39.51.63 1.03.42 1.15.05.83-.35.19-.6-.19 1.6-.06.16-.09.21-.27.27-.84.24-.65-.04-.38-.05-.9-.39-.33-.36-.15-.2-.03-.1.18-1.49.2-.59.8-.33"/><path d="m229.71 137.87-.19-.42.55-.22.74.2.19.42-.54.22-.75-.2-.18.25-.25-.54-.68 4.68.28.42.28.14.33.09.34.03.31-.04"/><path d="m228.82 142.78-.17-.26-.1-.23.06-.1m.23.55.09.05.2.1.1.03.25.06.1.02.26.01h.09l.23-.04.08-.02.18-.09.05-.04.1-.11.01-.05.02-.14-.03-.08m-1.04-4.32.96.26.71-.29-.26-.54-.13-.12m-1.53.15.24-.13m.55 7.49.61-.15"/><path d="m230.39 142.8.15-.15.03-.18.62-4.38"/><path d="m231.43 142.54-.52-.62-.25-.1"/></g><g style="stroke:#3c3c3c;stroke-width:.494" id="Actor_.23"><path d="m86.26 61.36-.17-1.06.07-1.18.27-1.04"/><path d="m96.27 55.55-.81-.07-.23.13-2.54 2.26-.22.27-.19.39L92 59.6l-.07 1.21.16 1.09.34.7.44.16.15.01-.23.14-.11.03-.82-.13-4.69-.54-.47-.16-.09-.04-.35-.69-.02-.11-.16-1 .06-1.12.26-.98.04-.1.15-.26.21-.25.16-.17-.23.27.07-.1m.08-.09-.12.14m-.3.42.15-.13m.35-.51 2.54-2.22.09-.02.24-.13 5.08.31m-8.18 2.33-.2.39"/><path d="m93 62.77-.16.1-.03.01-.44-.14-.03-.03-.34-.66-.02-.07-.16-1.05v-.09l.05-1.18.02-.1.26-1.04.03-.08.4-.66.51-.46 2.04-1.81.13-.09.33-.06.04.01.11.13"/><path d="m93.04 62.07-.16-1.14.07-1.28.29-1.13"/><path d="m102.83 56.03.22-.13-6.5-.52-.24.13-2.63 2.29-.28.41-.16.3-.03.1-.28 1.06-.06 1.22.15 1.09.02.11.36.74.1.05.47.17 6.59.56.11-.03.23-.15.53-.54-.11.11-.41.41-.2.13-.03.01-.41-.13-.03-.03-.31-.67-.02-.07-.14-1.05v-.09l.06-1.19.01-.1.25-1.04.03-.09.38-.66 2.43-2.29.11-.09.32-.06h.03l.23.28m-10.6 6.5.36.03m-.11-4.34.37-.6m-.3.63.21-.43m1.06-2.69.67-.1-.24.14"/><path d="m95.77 55.51-.03-.04-.12-.13-.11-.05-.23-.02m6.56 2.34.58.04-.18-.15-.2-.02-.19.12-1.22 1.15-.44.87-.22 1.37.1 1.33.38.79.5-.05 1.2-1.19.19-.25.16-.36.14-.46-2.6-.22m2.38.86-2.43-.21"/><path d="m100.39 60.47 2.39.2-.14.13"/><path d="m100.63 58.77.05.01.44.71-.38.88-.52.15-.17-.02m.36-1.71-.19.4m1.21 3.7 1.92-1.95.2-.27"/><path d="m101.02 59.33.4.03.52-.14.38-.87-.44-.71-.06-.01m1.23 3.19-.1-.01m-.17-.14.17.15.19.01.2-.12.42-.85.2-1.32-.08-1.31-.36-.79-.48.03-.18.24-.17.36-.14.45-.13.13m-.28-.16-.1-.01m.98-1.24.22-.13"/><path d="m103.05 55.9.23.02.1.04.38.49.04.13.13.41.09.5.03.57-.01.59-.06.59-.11.55-.14.49-.23.51-.15.15"/><path d="m103.42 60.85.09-.08.02-.05m.21-4.29.03.04m-.33-.34.19.16.13.16"/></g><g id="Actor_.24"><g style="stroke:#3c3c3c;stroke-width:.494"><path d="m56.87 54.08.44.23.19-.2 1.44-.18 1.37-.25 1.28-.3.2.13 2.13-.78 1.34-.89.45-.9 1.06 8.55-.56 1.03-1.56.99-2.4.83-2.93.57-3.11.22-2.89-.15-2.28-.51-1.41-.78-.37-.97-1.31-8.32 1.66.08.06.11.08.11.1.1.96.54 1.52.38 1.93.18 2.18-.02.22-.2"/><path d="m49.61 52.48-.06-.25-1.64-.08.04.25.05.23.13.23.19.21 1.29.71 2.1.47 2.66.19 2.94-.13m-9.4-2.16.11-.44.33-.45 1.28-1.43-.37.51-.02.49-1.33 1.32m1.33-1.32 2.84.3 2.46.49 1.98.68.98 1.81m-6.99 10.23 1.33.88.69.37-1.68-1.06-.34-.19-.3-.19-.24-.21-.18-.22-.12-.23-.07-.23-.2-1.34-.07-.76.37.98 1.4.79 2.29.5 2.88.16 3.11-.23 2.93-.56 2.4-.84 1.56-.99.56-1.03.02.15-.1.78-.73.8-1.31.76-1.8.67.18 1.35-1.28.34-1.29.25-.08.02-1.43.19-.3.89 1.44-.18 1.38-.27 1.24-.35.32-.89m-13.76-3.29.07-.09"/><path d="m56.52 53.81-1.78-.61-2.39-.49-2.76-.29m.22.34.27-.29m-.45-2.64.71-.49 1.67-.18m-1.16 15.37-.2-1.36 1.51.49 1.97.3 2.28.08 2.41-.15.19 1.36m-6.48.34 1.87-.37 1.52-.15 1.35.12.83.37.61.58M52.2 50.78l-.15-.62-.14-.92.16.61 1.05.46 1.74.22 2.08-.07 1.99-.35 1.49-.55.71-.63.13.92-.71.64-1.5.55-1.98.35-2.08.07-1.74-.22-1.05-.46"/><path d="m51.91 49.24.76-.63 1.3-.47m-.43 4.82-.23-1.58"/><path d="m58.54 46.16.34 2.52v.46l-.9.44-1.46.25-1.46-.03-.9-.31-.41-2.91m2.85 18.55-.16-1.09m.08-11.74 1.65-.17 1.57-.28 1.41-.37.44 1.9"/><path d="m61.13 48.93-.2-.6-1.06-.45-1.12-.13"/><path d="M61.15 51.48v-1.01l.65-1.02 1.26-1-.94-.32-1.19-.23-1.4-.13-.18.05m2.14 5.12.04.03.1.26"/><path d="m65.71 50.94-.49-.83-.28-.19-.33-.19-.39-.16-.9.52.16.09.15.09.12.1.39.62-.26.68-.89.68-1.46.62m.26.54-.24-.27"/><path d="m64.22 49.57-.14-.23-.9.51.03.19-1.22.98-.63 1.01v.34m.11-2.41.21 1.56"/><path d="m62.47 50.64 1.4.64.09.19m-.78-1.62.14.24m-.26-1.64 1.02.89m2.77 10.75.16 1.32-.75.97m.42-2.73.15.29"/></g><path d="m53.75 46.58-.28-1.97m4.79-.48.28 2.03" style="stroke:#3c3c3c;stroke-width:.494"/></g><g style="stroke:#3c3c3c;stroke-width:.494" id="Actor_.25"><path d="m63.02 63.98.12.2.39.34.44.23.98.2h.36l1.19-.02 2.91-.5 3.56-.93 3.99-1.1 4.18-1.02 3.92-.65 1.08-.07"/><path d="m64.1 62.66.05.32.02.12.03.09.08.13.12.1.09.04.68.13 1.04-.02 2.72-.48"/><path d="m65.17 62.93-.28-.16-.12-.33-.01-.03"/><path d="m65.05 62.91.67.1 1.04-.07 2.82-.61 3.55-1.06 4-1.23 4.2-1.15 4.14-.78.97-.04m-19.89 4.35-.71-.09-.28-.06-.07-.06-.04-.06-.02-.07-.01-.06"/><path d="m66.47 62.42 1.11-.09 3.02-.67 3.79-1.15 4.26-1.33 4.44-1.23.15-.04 4.02-.79m-18.42 5.99h0l3.53-.93 4.01-1.12 4.23-1.04.19-.04 4.2-.71 1.14-.01"/></g><path d="m88.26 94.47-.35-.25-.21-.29-.07-.31.07-.31.21-.31.34-.3.46-.27.56-.24.64-.19.69-.13.71-.08.72-.02.69.04.64.09.57.16.47.2.35.25.22.28.09.31-.06.31-.2.32-.33.3-.45.27-.56.24-.64.2-.7.14-.73.09-.74.02-.7-.04-.65-.11-.57-.16-.47-.21" style="stroke:#3c3c3c;stroke-width:.494" id="Actor_.29"/><path d="m200.47 106.37-.45-.33-.3-.35-.16-.37-.01-.36.15-.34.29-.32.42-.27.54-.22.64-.15.71-.1.76-.02.77.05.76.11.73.18.65.24.57.28.45.33.32.35.17.36.03.36-.13.35-.28.32-.42.28-.55.23-.64.16-.73.1-.77.02-.79-.05-.78-.12-.73-.18-.66-.25-.56-.29" style="stroke:#3c3c3c;stroke-width:.494" id="Actor_.31"/><path style="stroke:#000;stroke-width:.5" d="m159.13 113.71-.09 4.74m.3-16.93.01-.16m.06-3.77.05-2.84m.38-20.95.02-1.18"/><g/><path style="stroke:#000;stroke-width:.5" d="m163.76 122.12.25-9.94m.32-12.12v-.16m.1-3.74.07-2.78"/><g/><path style="stroke:#000;stroke-width:.5" d="m162.79 55.39.2-9.5"/><path style="fill:#000" d="M161.28 55.39h3.01l-1.57 2.86z"/><g/><path style="stroke:#000;stroke-width:.5" d="m70.72 113.95-2.18-16.77"/><g/><path style="stroke:#000;stroke-width:.5" d="m60.68 116.69-2.91-19.65"/><g/><path style="stroke:#000;stroke-width:.5" d="m60.74 77.81-1.63-11.72"/><path style="fill:#000" d="M59.23 77.81h3.01l-1.12 2.77z"/><g/><path style="stroke:#000;stroke-width:.5" d="m238.64 134.26 2.67-17.09"/><g/><path style="stroke:#000;stroke-width:.5" d="m233.35 116.04-3.08 21.61"/><g/><path style="stroke:#000;stroke-width:.5" d="m240.5 95.68 2.09-13.95"/><path style="fill:#000" d="M239 95.68h3.01l-1.91 2.68z"/><g/><path style="stroke:#000;stroke-width:.5" d="m116.1 178.57-.9-14.8m-.62-10.11-.06-.91"/><g/><path style="stroke:#000;stroke-width:.5" d="m122.65 186.8-1.17-23.57"/><g/><path style="stroke:#000;stroke-width:.5" d="m116.79 137.01-.85-15.51"/><path style="fill:#000" d="M115.29 137.01h3.01l-1.37 2.51z"/><g/></svg>